<?xml version="1.0" encoding="UTF-8" standalone="no"?>
<svg
   width="605.28455"
   height="1014.1608"
   version="1.1"
   id="svg105"
   sodipodi:docname="diagram_sankey.svg"
   inkscape:export-filename="diagram_sankey.svg"
   inkscape:export-xdpi="96"
   inkscape:export-ydpi="96"
   inkscape:version="1.3.2 (091e20e, 2023-11-25)"
   xmlns:inkscape="http://www.inkscape.org/namespaces/inkscape"
   xmlns:sodipodi="http://sodipodi.sourceforge.net/DTD/sodipodi-0.dtd"
   xmlns="http://www.w3.org/2000/svg"
   xmlns:svg="http://www.w3.org/2000/svg">
  <defs
     id="defs105" />
  <sodipodi:namedview
     id="namedview105"
     pagecolor="#ffffff"
     bordercolor="#000000"
     borderopacity="0.25"
     inkscape:showpageshadow="2"
     inkscape:pageopacity="0.0"
     inkscape:pagecheckerboard="0"
     inkscape:deskcolor="#d1d1d1"
     inkscape:zoom="0.47804956"
     inkscape:cx="309.59133"
     inkscape:cy="770.84058"
     inkscape:window-width="1392"
     inkscape:window-height="1212"
     inkscape:window-x="0"
     inkscape:window-y="25"
     inkscape:window-maximized="0"
     inkscape:current-layer="svg105" />
  <g
     id="g105"
     transform="rotate(90,470.88715,189.58523)">
    <defs
       id="defs28">
      <marker
         id="marker0"
         markerWidth="6"
         markerHeight="6"
         refX="5"
         refY="3">
        <circle
           cx="3"
           cy="3"
           r="1"
           style="fill:#417de0"
           id="circle1" />
      </marker>
      <marker
         id="marker1"
         markerWidth="6"
         markerHeight="6"
         refX="5"
         refY="3">
        <circle
           cx="3"
           cy="3"
           r="1"
           style="fill:#417de0"
           id="circle2" />
      </marker>
      <marker
         id="marker2"
         markerWidth="6"
         markerHeight="6"
         refX="5"
         refY="3">
        <circle
           cx="3"
           cy="3"
           r="1"
           style="fill:#27a3dc"
           id="circle3" />
      </marker>
      <marker
         id="marker3"
         markerWidth="6"
         markerHeight="6"
         refX="5"
         refY="3">
        <circle
           cx="3"
           cy="3"
           r="1"
           style="fill:#27a3dc"
           id="circle4" />
      </marker>
      <marker
         id="marker4"
         markerWidth="6"
         markerHeight="6"
         refX="5"
         refY="3">
        <circle
           cx="3"
           cy="3"
           r="1"
           style="fill:#27a3dc"
           id="circle5" />
      </marker>
      <marker
         id="marker5"
         markerWidth="6"
         markerHeight="6"
         refX="5"
         refY="3">
        <circle
           cx="3"
           cy="3"
           r="1"
           style="fill:#aff05b"
           id="circle6" />
      </marker>
      <marker
         id="marker6"
         markerWidth="6"
         markerHeight="6"
         refX="5"
         refY="3">
        <circle
           cx="3"
           cy="3"
           r="1"
           style="fill:#aff05b"
           id="circle7" />
      </marker>
      <marker
         id="marker7"
         markerWidth="6"
         markerHeight="6"
         refX="5"
         refY="3">
        <circle
           cx="3"
           cy="3"
           r="1"
           style="fill:#aff05b"
           id="circle8" />
      </marker>
      <marker
         id="marker8"
         markerWidth="6"
         markerHeight="6"
         refX="5"
         refY="3">
        <circle
           cx="3"
           cy="3"
           r="1"
           style="fill:#aff05b"
           id="circle9" />
      </marker>
      <marker
         id="marker9"
         markerWidth="6"
         markerHeight="6"
         refX="5"
         refY="3">
        <circle
           cx="3"
           cy="3"
           r="1"
           style="fill:#73f65a"
           id="circle10" />
      </marker>
      <marker
         id="marker10"
         markerWidth="6"
         markerHeight="6"
         refX="5"
         refY="3">
        <circle
           cx="3"
           cy="3"
           r="1"
           style="fill:#73f65a"
           id="circle11" />
      </marker>
      <marker
         id="marker11"
         markerWidth="6"
         markerHeight="6"
         refX="5"
         refY="3">
        <circle
           cx="3"
           cy="3"
           r="1"
           style="fill:#73f65a"
           id="circle12" />
      </marker>
      <marker
         id="marker12"
         markerWidth="6"
         markerHeight="6"
         refX="5"
         refY="3">
        <circle
           cx="3"
           cy="3"
           r="1"
           style="fill:#40f373"
           id="circle13" />
      </marker>
      <marker
         id="marker13"
         markerWidth="6"
         markerHeight="6"
         refX="5"
         refY="3">
        <circle
           cx="3"
           cy="3"
           r="1"
           style="fill:#40f373"
           id="circle14" />
      </marker>
      <marker
         id="marker14"
         markerWidth="6"
         markerHeight="6"
         refX="5"
         refY="3">
        <circle
           cx="3"
           cy="3"
           r="1"
           style="fill:#21e39b"
           id="circle15" />
      </marker>
      <marker
         id="marker15"
         markerWidth="6"
         markerHeight="6"
         refX="5"
         refY="3">
        <circle
           cx="3"
           cy="3"
           r="1"
           style="fill:#21e39b"
           id="circle16" />
      </marker>
      <marker
         id="marker16"
         markerWidth="6"
         markerHeight="6"
         refX="5"
         refY="3">
        <circle
           cx="3"
           cy="3"
           r="1"
           style="fill:#21e39b"
           id="circle17" />
      </marker>
      <marker
         id="marker17"
         markerWidth="6"
         markerHeight="6"
         refX="5"
         refY="3">
        <circle
           cx="3"
           cy="3"
           r="1"
           style="fill:#21e39b"
           id="circle18" />
      </marker>
      <marker
         id="marker18"
         markerWidth="6"
         markerHeight="6"
         refX="5"
         refY="3">
        <circle
           cx="3"
           cy="3"
           r="1"
           style="fill:#1ac7c2"
           id="circle19" />
      </marker>
      <marker
         id="marker19"
         markerWidth="6"
         markerHeight="6"
         refX="5"
         refY="3">
        <circle
           cx="3"
           cy="3"
           r="1"
           style="fill:#1ac7c2"
           id="circle20" />
      </marker>
      <marker
         id="marker20"
         markerWidth="6"
         markerHeight="6"
         refX="5"
         refY="3">
        <circle
           cx="3"
           cy="3"
           r="1"
           style="fill:#1ac7c2"
           id="circle21" />
      </marker>
      <marker
         id="marker21"
         markerWidth="6"
         markerHeight="6"
         refX="5"
         refY="3">
        <circle
           cx="3"
           cy="3"
           r="1"
           style="fill:#1ac7c2"
           id="circle22" />
      </marker>
      <marker
         id="marker22"
         markerWidth="6"
         markerHeight="6"
         refX="5"
         refY="3">
        <circle
           cx="3"
           cy="3"
           r="1"
           style="fill:#1ac7c2"
           id="circle23" />
      </marker>
      <marker
         id="marker23"
         markerWidth="6"
         markerHeight="6"
         refX="5"
         refY="3">
        <circle
           cx="3"
           cy="3"
           r="1"
           style="fill:#5c5ace"
           id="circle24" />
      </marker>
      <marker
         id="marker24"
         markerWidth="6"
         markerHeight="6"
         refX="5"
         refY="3">
        <circle
           cx="3"
           cy="3"
           r="1"
           style="fill:#5c5ace"
           id="circle25" />
      </marker>
      <marker
         id="marker25"
         markerWidth="6"
         markerHeight="6"
         refX="5"
         refY="3">
        <circle
           cx="3"
           cy="3"
           r="1"
           style="fill:#5c5ace"
           id="circle26" />
      </marker>
      <marker
         id="marker26"
         markerWidth="6"
         markerHeight="6"
         refX="5"
         refY="3">
        <circle
           cx="3"
           cy="3"
           r="1"
           style="fill:#5c5ace"
           id="circle27" />
      </marker>
      <marker
         id="marker27"
         markerWidth="6"
         markerHeight="6"
         refX="5"
         refY="3">
        <circle
           cx="3"
           cy="3"
           r="1"
           style="fill:#5c5ace"
           id="circle28" />
      </marker>
    </defs>
    <path
       class="link"
       fill="none"
       stroke="#417de0"
       stroke-width="8.18833"
       marker-end="url(#marker0)"
       d="m 1177.726,375.75 h -25.879 c -25.878,0 -77.635,0 -106.419,0 -28.784,0 -34.595,0 -40.407,2.625 -5.811,2.625 -11.623,7.875 -17.434,10.5 -5.811,2.625 -11.623,2.625 -14.529,2.625 h -2.905"
       style="stroke-linecap:round;stroke-opacity:0.7"
       id="path28" />
    <path
       class="link"
       fill="none"
       stroke="#417de0"
       stroke-width="8.18833"
       marker-end="url(#marker1)"
       d="m 1177.726,375.75 h -25.879 c -25.878,0 -77.635,0 -106.419,0 -28.784,0 -34.595,0 -40.407,10.442 -5.811,10.441 -11.623,31.325 -17.434,41.766 -5.811,10.442 -11.623,10.442 -14.529,10.442 h -2.905"
       style="stroke-linecap:round;stroke-opacity:0.7"
       id="path29" />
    <path
       class="link"
       fill="none"
       stroke="#27a3dc"
       stroke-width="7.87667"
       marker-end="url(#marker2)"
       d="m 1172.194,323.125 h -34.16 c -34.159,0 -102.477,0 -139.511,0 -37.034,0 -42.783,0 -48.533,11.396 -5.749,11.396 -11.499,34.187 -17.248,45.583 -5.75,11.396 -11.499,11.396 -14.374,11.396 h -2.875"
       style="stroke-linecap:round;stroke-opacity:0.7"
       id="path30" />
    <path
       class="link"
       fill="none"
       stroke="#27a3dc"
       stroke-width="7.87667"
       marker-end="url(#marker3)"
       d="m 1172.194,323.125 h -34.16 c -34.159,0 -102.477,0 -139.511,0 -37.034,0 -42.783,0 -48.533,19.213 -5.749,19.212 -11.499,57.637 -17.248,76.85 -5.75,19.212 -11.499,19.212 -14.374,19.212 h -2.875"
       style="stroke-linecap:round;stroke-opacity:0.7"
       id="path31" />
    <path
       class="link"
       fill="none"
       stroke="#27a3dc"
       stroke-width="7.87667"
       marker-end="url(#marker4)"
       d="m 1172.194,323.125 h -34.16 c -34.159,0 -102.477,0 -139.511,0 -37.034,0 -42.783,0 -48.533,-12.054 -5.749,-12.054 -11.499,-36.163 -17.248,-48.217 C 926.992,250.8 921.243,250.8 918.368,250.8 h -2.875"
       style="stroke-linecap:round;stroke-opacity:0.7"
       id="path32" />
    <path
       class="link"
       fill="none"
       stroke="#aff05b"
       stroke-width="4.02333"
       marker-end="url(#marker5)"
       d="m 1278.052,60 h -92.807 c -92.808,0 -278.422,0 -374.697,0 -96.275,0 -103.21,0 -110.145,55.25 -6.935,55.25 -13.87,165.75 -20.805,221 -6.935,55.25 -13.87,55.25 -17.337,55.25 h -3.468"
       style="stroke-linecap:round;stroke-opacity:0.7"
       id="path33" />
    <path
       class="link"
       fill="none"
       stroke="#aff05b"
       stroke-width="4.02333"
       marker-end="url(#marker6)"
       d="m 1278.052,60 h -92.807 c -92.808,0 -278.422,0 -374.697,0 -96.275,0 -103.21,0 -110.145,23.983 -6.935,23.984 -13.87,71.95 -20.805,95.934 -6.935,23.983 -13.87,23.983 -17.337,23.983 h -3.468"
       style="stroke-linecap:round;stroke-opacity:0.7"
       id="path34" />
    <path
       class="link"
       fill="none"
       stroke="#aff05b"
       stroke-width="4.02333"
       marker-end="url(#marker7)"
       d="m 1278.052,60 h -92.807 c -92.808,0 -278.422,0 -374.697,0 -96.275,0 -103.21,0 -110.145,31.8 -6.935,31.8 -13.87,95.4 -20.805,127.2 -6.935,31.8 -13.87,31.8 -17.337,31.8 h -3.468"
       style="stroke-linecap:round;stroke-opacity:0.7"
       id="path35" />
    <path
       class="link"
       fill="none"
       stroke="#aff05b"
       stroke-width="4.02333"
       marker-end="url(#marker8)"
       d="m 1278.052,60 h -92.807 c -92.808,0 -278.422,0 -374.697,0 -96.275,0 -103.21,0 -110.145,94.333 -6.935,94.334 -13.87,283 -20.805,377.334 C 672.663,626 665.728,626 662.261,626 h -3.468"
       style="stroke-linecap:round;stroke-opacity:0.7"
       id="path36" />
    <path
       class="link"
       fill="none"
       stroke="#73f65a"
       stroke-width="6.48833"
       marker-end="url(#marker9)"
       d="m 1136.934,112.625 h -63.69 c -63.689,0 -191.067,0 -257.434,0 -66.366,0 -71.721,0 -77.075,38.663 -5.355,38.662 -10.709,115.987 -16.064,154.65 -5.354,38.662 -10.709,38.662 -13.386,38.662 h -2.678"
       style="stroke-linecap:round;stroke-opacity:0.7"
       id="path37" />
    <path
       class="link"
       fill="none"
       stroke="#73f65a"
       stroke-width="6.48833"
       marker-end="url(#marker10)"
       d="m 1136.934,112.625 h -63.69 c -63.689,0 -191.067,0 -257.434,0 -66.366,0 -71.721,0 -77.075,54.296 -5.355,54.296 -10.709,162.887 -16.064,217.183 -5.354,54.296 -10.709,54.296 -13.386,54.296 h -2.678"
       style="stroke-linecap:round;stroke-opacity:0.7"
       id="path38" />
    <path
       class="link"
       fill="none"
       stroke="#73f65a"
       stroke-width="6.48833"
       marker-end="url(#marker11)"
       d="m 1136.934,112.625 h -63.69 c -63.689,0 -191.067,0 -257.434,0 -66.366,0 -71.721,0 -77.075,62.112 -5.355,62.113 -10.709,186.338 -16.064,248.451 -5.354,62.112 -10.709,62.112 -13.386,62.112 h -2.678"
       style="stroke-linecap:round;stroke-opacity:0.7"
       id="path39" />
    <path
       class="link"
       fill="none"
       stroke="#40f373"
       stroke-width="8.69833"
       marker-end="url(#marker12)"
       d="m 1129.734,165.25 h -54.881 c -54.881,0 -164.643,0 -222.162,0 -57.518,0 -62.792,0 -68.066,-1.375 -5.274,-1.375 -10.548,-4.125 -15.822,-5.5 C 763.529,157 758.255,157 755.618,157 h -2.636"
       style="stroke-linecap:round;stroke-opacity:0.7"
       id="path40" />
    <path
       class="link"
       fill="none"
       stroke="#40f373"
       stroke-width="8.69833"
       marker-end="url(#marker13)"
       d="m 1129.734,165.25 h -54.881 c -54.881,0 -164.643,0 -222.162,0 -57.518,0 -62.792,0 -68.066,14.258 -5.274,14.259 -10.548,42.775 -15.822,57.034 -5.274,14.258 -10.548,14.258 -13.185,14.258 h -2.636"
       style="stroke-linecap:round;stroke-opacity:0.7"
       id="path41" />
    <path
       class="link"
       fill="none"
       stroke="#21e39b"
       stroke-width="5.27"
       marker-end="url(#marker14)"
       d="m 1218.882,217.875 h -55.935 c -55.935,0 -167.806,0 -226.877,0 -59.071,0 -65.344,0 -71.616,60.204 -6.272,60.204 -12.545,180.613 -18.817,240.817 -6.272,60.204 -12.545,60.204 -15.681,60.204 h -3.136"
       style="stroke-linecap:round;stroke-opacity:0.7"
       id="path42" />
    <path
       class="link"
       fill="none"
       stroke="#21e39b"
       stroke-width="5.27"
       marker-end="url(#marker15)"
       d="m 1218.882,217.875 h -55.935 c -55.935,0 -167.806,0 -226.877,0 -59.071,0 -65.344,0 -71.616,52.388 -6.272,52.387 -12.545,157.162 -18.817,209.55 -6.272,52.387 -12.545,52.387 -15.681,52.387 h -3.136"
       style="stroke-linecap:round;stroke-opacity:0.7"
       id="path43" />
    <path
       class="link"
       fill="none"
       stroke="#21e39b"
       stroke-width="5.27"
       marker-end="url(#marker16)"
       d="m 1218.882,217.875 h -55.935 c -55.935,0 -167.806,0 -226.877,0 -59.071,0 -65.344,0 -71.616,36.754 -6.272,36.754 -12.545,110.263 -18.817,147.017 -6.272,36.754 -12.545,36.754 -15.681,36.754 h -3.136"
       style="stroke-linecap:round;stroke-opacity:0.7"
       id="path44" />
    <path
       class="link"
       fill="none"
       stroke="#21e39b"
       stroke-width="5.27"
       marker-end="url(#marker17)"
       d="m 1218.882,217.875 h -55.935 c -55.935,0 -167.806,0 -226.877,0 -59.071,0 -65.344,0 -71.616,21.121 -6.272,21.121 -12.545,63.362 -18.817,84.483 -6.272,21.121 -12.545,21.121 -15.681,21.121 h -3.136"
       style="stroke-linecap:round;stroke-opacity:0.7"
       id="path45" />
    <path
       class="link"
       fill="none"
       stroke="#1ac7c2"
       stroke-width="7.84833"
       marker-end="url(#marker18)"
       d="m 1223.842,270.5 h -47.013 c -47.013,0 -141.039,0 -191.216,0 -50.177,0 -56.505,0 -62.833,20.167 -6.328,20.166 -12.656,60.5 -18.984,80.666 -6.327,20.167 -12.655,20.167 -15.819,20.167 h -3.164"
       style="stroke-linecap:round;stroke-opacity:0.7"
       id="path46" />
    <path
       class="link"
       fill="none"
       stroke="#1ac7c2"
       stroke-width="7.84833"
       marker-end="url(#marker19)"
       d="m 1223.842,270.5 h -47.013 c -47.013,0 -141.039,0 -191.216,0 -50.177,0 -56.505,0 -62.833,12.35 -6.328,12.35 -12.656,37.05 -18.984,49.4 -6.327,12.35 -12.655,12.35 -15.819,12.35 h -3.164"
       style="stroke-linecap:round;stroke-opacity:0.7"
       id="path47" />
    <path
       class="link"
       fill="none"
       stroke="#1ac7c2"
       stroke-width="7.84833"
       marker-end="url(#marker20)"
       d="m 1223.842,270.5 h -47.013 c -47.013,0 -141.039,0 -191.216,0 -50.177,0 -56.505,0 -62.833,59.25 -6.328,59.25 -12.656,177.75 -18.984,237 C 897.469,626 891.141,626 887.977,626 h -3.164"
       style="stroke-linecap:round;stroke-opacity:0.7"
       id="path48" />
    <path
       class="link"
       fill="none"
       stroke="#1ac7c2"
       stroke-width="7.84833"
       marker-end="url(#marker21)"
       d="m 1223.842,270.5 h -47.013 c -47.013,0 -141.039,0 -191.216,0 -50.177,0 -56.505,0 -62.833,27.983 -6.328,27.984 -12.656,83.95 -18.984,111.934 -6.327,27.983 -12.655,27.983 -15.819,27.983 h -3.164"
       style="stroke-linecap:round;stroke-opacity:0.7"
       id="path49" />
    <path
       class="link"
       fill="none"
       stroke="#1ac7c2"
       stroke-width="7.84833"
       marker-end="url(#marker22)"
       d="m 1223.842,270.5 h -47.013 c -47.013,0 -141.039,0 -191.216,0 -50.177,0 -56.505,0 -62.833,-3.283 -6.328,-3.284 -12.656,-9.85 -18.984,-13.134 -6.327,-3.283 -12.655,-3.283 -15.819,-3.283 h -3.164"
       style="stroke-linecap:round;stroke-opacity:0.7"
       id="path50" />
    <path
       class="link"
       fill="none"
       stroke="#5c5ace"
       stroke-width="2.60667"
       marker-end="url(#marker23)"
       d="m 1171.921,428.375 h -17.036 c -17.037,0 -51.111,0 -71.021,0 -19.91,0 -25.656,0 -31.403,-6.146 -5.746,-6.146 -11.492,-18.437 -17.239,-24.583 -5.746,-6.146 -11.493,-6.146 -14.366,-6.146 h -2.873"
       style="stroke-linecap:round;stroke-opacity:0.7"
       id="path51" />
    <path
       class="link"
       fill="none"
       stroke="#5c5ace"
       stroke-width="2.60667"
       marker-end="url(#marker24)"
       d="m 1171.921,428.375 h -17.036 c -17.037,0 -51.111,0 -71.021,0 -19.91,0 -25.656,0 -31.403,-13.963 -5.746,-13.962 -11.492,-41.887 -17.239,-55.849 -5.746,-13.963 -11.493,-13.963 -14.366,-13.963 h -2.873"
       style="stroke-linecap:round;stroke-opacity:0.7"
       id="path52" />
    <path
       class="link"
       fill="none"
       stroke="#5c5ace"
       stroke-width="2.60667"
       marker-end="url(#marker25)"
       d="m 1171.921,428.375 h -17.036 c -17.037,0 -51.111,0 -71.021,0 -19.91,0 -25.656,0 -31.403,32.938 -5.746,32.937 -11.492,98.812 -17.239,131.75 C 1029.476,626 1023.729,626 1020.856,626 h -2.873"
       style="stroke-linecap:round;stroke-opacity:0.7"
       id="path53" />
    <path
       class="link"
       fill="none"
       stroke="#5c5ace"
       stroke-width="2.60667"
       marker-end="url(#marker26)"
       d="m 1171.921,428.375 h -17.036 c -17.037,0 -51.111,0 -71.021,0 -19.91,0 -25.656,0 -31.403,1.671 -5.746,1.671 -11.492,5.012 -17.239,6.683 -5.746,1.671 -11.493,1.671 -14.366,1.671 h -2.873"
       style="stroke-linecap:round;stroke-opacity:0.7"
       id="path54" />
    <path
       class="link"
       fill="none"
       stroke="#5c5ace"
       stroke-width="2.60667"
       marker-end="url(#marker27)"
       d="m 1171.921,428.375 h -17.036 c -17.037,0 -51.111,0 -71.021,0 -19.91,0 -25.656,0 -31.403,-21.779 -5.746,-21.779 -11.492,-65.338 -17.239,-87.117 -5.746,-21.779 -11.493,-21.779 -14.366,-21.779 h -2.873"
       style="stroke-linecap:round;stroke-opacity:0.7"
       id="path55" />
    <text
       text-anchor="end"
       font-size="10.8px"
       fill="#3e3f3f"
       style="font-family:sans-serif"
       x="640.79333"
       y="157"
       transform="rotate(-10,640.79333,157)"
       id="text55"><tspan
         x="640.79333"
         dy="0"
         id="tspan55">Engage communities for support.</tspan></text>
    <text
       x="667.79333"
       y="157"
       dy="0.050000001em"
       transform="rotate(-60,667.79333,157)"
       font-family="sans-serif"
       fill="#3e3f3f"
       style="font-size:18px;text-anchor:middle"
       id="text56">51.2</text>
    <text
       x="667.79333"
       y="157"
       dy="14.4"
       transform="rotate(-60,667.79333,157)"
       font-family="sans-serif"
       fill="#3e3f3f"
       style="font-size:10.8px;text-anchor:middle"
       id="text57">(17%)</text>
    <text
       text-anchor="end"
       font-size="10.8px"
       fill="#3e3f3f"
       style="font-family:sans-serif"
       x="640.79333"
       y="203.89999"
       transform="rotate(-10,640.79333,203.9)"
       id="text58"><tspan
         x="640.79333"
         dy="0"
         id="tspan57">Extend socio-economic aid to remove educational barriers.</tspan></text>
    <text
       x="667.79333"
       y="203.89999"
       dy="0.050000001em"
       transform="rotate(-60,667.79333,203.9)"
       font-family="sans-serif"
       fill="#3e3f3f"
       style="font-size:18px;text-anchor:middle"
       id="text59">23.7</text>
    <text
       x="667.79333"
       y="203.89999"
       dy="14.4"
       transform="rotate(-60,667.79333,203.9)"
       font-family="sans-serif"
       fill="#3e3f3f"
       style="font-size:10.8px;text-anchor:middle"
       id="text60">(8%)</text>
    <text
       text-anchor="end"
       font-size="10.8px"
       fill="#3e3f3f"
       style="font-family:sans-serif"
       x="640.79333"
       y="250.8"
       transform="rotate(-10,640.79333,250.8)"
       id="text61"><tspan
         x="640.79333"
         dy="0"
         id="tspan60">Expand teacher training programs to improve the quality of</tspan><tspan
         x="640.79333"
         dy="1.2em"
         id="tspan61">education.</tspan></text>
    <text
       x="667.79333"
       y="250.8"
       dy="0.050000001em"
       transform="rotate(-60,667.79333,250.8)"
       font-family="sans-serif"
       fill="#3e3f3f"
       style="font-size:18px;text-anchor:middle"
       id="text62">167.3</text>
    <text
       x="667.79333"
       y="250.8"
       dy="14.4"
       transform="rotate(-60,667.79333,250.8)"
       font-family="sans-serif"
       fill="#3e3f3f"
       style="font-size:10.8px;text-anchor:middle"
       id="text63">(56%)</text>
    <text
       text-anchor="end"
       font-size="10.8px"
       fill="#3e3f3f"
       style="font-family:sans-serif"
       x="640.79333"
       y="297.70001"
       transform="rotate(-10,640.79333,297.7)"
       id="text65"><tspan
         x="640.79333"
         dy="0"
         id="tspan63">Strengthen socioeconomic support systems for families, enforce</tspan><tspan
         x="640.79333"
         dy="1.2em"
         id="tspan64">policies that mandate education for all, and invest in early</tspan><tspan
         x="640.79333"
         dy="1.2em"
         id="tspan65">childhood development programs to ensure readiness for schooling.</tspan></text>
    <text
       x="667.79333"
       y="297.70001"
       dy="0.050000001em"
       transform="rotate(-60,667.79333,297.7)"
       font-family="sans-serif"
       fill="#3e3f3f"
       style="font-size:18px;text-anchor:middle"
       id="text66">15.3</text>
    <text
       x="667.79333"
       y="297.70001"
       dy="14.4"
       transform="rotate(-60,667.79333,297.7)"
       font-family="sans-serif"
       fill="#3e3f3f"
       style="font-size:10.8px;text-anchor:middle"
       id="text67">(5%)</text>
    <text
       text-anchor="end"
       font-size="10.8px"
       fill="#3e3f3f"
       style="font-family:sans-serif"
       x="640.79333"
       y="344.60001"
       transform="rotate(-10,640.79333,344.6)"
       id="text68"><tspan
         x="640.79333"
         dy="0"
         id="tspan67">Ensure equitable access to quality education for all students.</tspan></text>
    <text
       x="667.79333"
       y="344.60001"
       dy="0.050000001em"
       transform="rotate(-60,667.79333,344.6)"
       font-family="sans-serif"
       fill="#3e3f3f"
       style="font-size:18px;text-anchor:middle"
       id="text69">130.7</text>
    <text
       x="667.79333"
       y="344.60001"
       dy="14.4"
       transform="rotate(-60,667.79333,344.6)"
       font-family="sans-serif"
       fill="#3e3f3f"
       style="font-size:10.8px;text-anchor:middle"
       id="text70">(44%)</text>
    <text
       text-anchor="end"
       font-size="10.8px"
       fill="#3e3f3f"
       style="font-family:sans-serif"
       x="640.79333"
       y="391.5"
       transform="rotate(-10,640.79333,391.5)"
       id="text72"><tspan
         x="640.79333"
         dy="0"
         id="tspan70">Increase funding for schools and teacher training, promote</tspan><tspan
         x="640.79333"
         dy="1.2em"
         id="tspan71">inclusivity and access for marginalized groups, and implement</tspan><tspan
         x="640.79333"
         dy="1.2em"
         id="tspan72">strong accountability systems.</tspan></text>
    <text
       x="667.79333"
       y="391.5"
       dy="0.050000001em"
       transform="rotate(-60,667.79333,391.5)"
       font-family="sans-serif"
       fill="#3e3f3f"
       style="font-size:18px;text-anchor:middle"
       id="text73">179.7</text>
    <text
       x="667.79333"
       y="391.5"
       dy="14.4"
       transform="rotate(-60,667.79333,391.5)"
       font-family="sans-serif"
       fill="#3e3f3f"
       style="font-size:10.8px;text-anchor:middle"
       id="text74">(60%)</text>
    <text
       text-anchor="end"
       font-size="10.8px"
       fill="#3e3f3f"
       style="font-family:sans-serif"
       x="640.79333"
       y="438.39999"
       transform="rotate(-10,640.79333,438.4)"
       id="text75"><tspan
         x="640.79333"
         dy="0"
         id="tspan74">Expand support for infrastructure, including access to learning</tspan><tspan
         x="640.79333"
         dy="1.2em"
         id="tspan75">materials and safe learning environments.</tspan></text>
    <text
       x="667.79333"
       y="438.39999"
       dy="0.050000001em"
       transform="rotate(-60,667.79333,438.4)"
       font-family="sans-serif"
       fill="#3e3f3f"
       style="font-size:18px;text-anchor:middle"
       id="text76">225.2</text>
    <text
       x="667.79333"
       y="438.39999"
       dy="14.4"
       transform="rotate(-60,667.79333,438.4)"
       font-family="sans-serif"
       fill="#3e3f3f"
       style="font-size:10.8px;text-anchor:middle"
       id="text77">(75%)</text>
    <text
       text-anchor="end"
       font-size="10.8px"
       fill="#3e3f3f"
       style="font-family:sans-serif"
       x="640.79333"
       y="485.29999"
       transform="rotate(-10,640.79333,485.3)"
       id="text78"><tspan
         x="640.79333"
         dy="0"
         id="tspan77">Engage the community to support education initiatives.</tspan></text>
    <text
       x="667.79333"
       y="485.29999"
       dy="0.050000001em"
       transform="rotate(-60,667.79333,485.3)"
       font-family="sans-serif"
       fill="#3e3f3f"
       style="font-size:18px;text-anchor:middle"
       id="text79">38.2</text>
    <text
       x="667.79333"
       y="485.29999"
       dy="14.4"
       transform="rotate(-60,667.79333,485.3)"
       font-family="sans-serif"
       fill="#3e3f3f"
       style="font-size:10.8px;text-anchor:middle"
       id="text80">(13%)</text>
    <text
       text-anchor="end"
       font-size="10.8px"
       fill="#3e3f3f"
       style="font-family:sans-serif"
       x="640.79333"
       y="532.20001"
       transform="rotate(-10,640.79333,532.2)"
       id="text81"><tspan
         x="640.79333"
         dy="0"
         id="tspan80">Invest in education infrastructure and curriculum development.</tspan></text>
    <text
       x="667.79333"
       y="532.20001"
       dy="0.050000001em"
       transform="rotate(-60,667.79333,532.2)"
       font-family="sans-serif"
       fill="#3e3f3f"
       style="font-size:18px;text-anchor:middle"
       id="text82">31</text>
    <text
       x="667.79333"
       y="532.20001"
       dy="14.4"
       transform="rotate(-60,667.79333,532.2)"
       font-family="sans-serif"
       fill="#3e3f3f"
       style="font-size:10.8px;text-anchor:middle"
       id="text83">(10%)</text>
    <text
       text-anchor="end"
       font-size="10.8px"
       fill="#3e3f3f"
       style="font-family:sans-serif"
       x="640.79333"
       y="579.09998"
       transform="rotate(-10,640.79333,579.1)"
       id="text84"><tspan
         x="640.79333"
         dy="0"
         id="tspan83">Provide quality teacher training.</tspan></text>
    <text
       x="667.79333"
       y="579.09998"
       dy="0.050000001em"
       transform="rotate(-60,667.79333,579.1)"
       font-family="sans-serif"
       fill="#3e3f3f"
       style="font-size:18px;text-anchor:middle"
       id="text85">31</text>
    <text
       x="667.79333"
       y="579.09998"
       dy="14.4"
       transform="rotate(-60,667.79333,579.1)"
       font-family="sans-serif"
       fill="#3e3f3f"
       style="font-size:10.8px;text-anchor:middle"
       id="text86">(10%)</text>
    <text
       text-anchor="end"
       font-size="10.8px"
       fill="#3e3f3f"
       style="font-family:sans-serif"
       x="640.79333"
       y="626"
       transform="rotate(-10,640.79333,626)"
       id="text87"><tspan
         x="640.79333"
         dy="0"
         id="tspan86">Ensure gender equality in education.</tspan></text>
    <text
       x="667.79333"
       y="626"
       dy="0.050000001em"
       transform="rotate(-60,667.79333,626)"
       font-family="sans-serif"
       fill="#3e3f3f"
       style="font-size:18px;text-anchor:middle"
       id="text88">85.2</text>
    <text
       x="667.79333"
       y="626"
       dy="14.4"
       transform="rotate(-60,667.79333,626)"
       font-family="sans-serif"
       fill="#3e3f3f"
       style="font-size:10.8px;text-anchor:middle"
       id="text89">(28%)</text>
    <text
       x="1274.5133"
       y="78"
       dy="0.050000001em"
       transform="rotate(-60,1274.5134,78)"
       font-family="sans-serif"
       fill="#3e3f3f"
       style="font-size:18px;text-anchor:middle"
       id="text90">23.7</text>
    <text
       x="1274.5133"
       y="78"
       dy="14.4"
       transform="rotate(-60,1274.5134,78)"
       font-family="sans-serif"
       fill="#3e3f3f"
       style="font-size:10.8px;text-anchor:middle"
       id="text91">(8%)</text>
    <text
       x="1131.2266"
       y="130.625"
       dy="0.050000001em"
       transform="rotate(-60,1131.2266,130.625)"
       font-family="sans-serif"
       fill="#3e3f3f"
       style="font-size:18px;text-anchor:middle"
       id="text92">38.2</text>
    <text
       x="1131.2266"
       y="130.625"
       dy="14.4"
       transform="rotate(-60,1131.2266,130.625)"
       font-family="sans-serif"
       fill="#3e3f3f"
       style="font-size:10.8px;text-anchor:middle"
       id="text93">(13%)</text>
    <text
       x="1122.0834"
       y="183.25"
       dy="0.050000001em"
       transform="rotate(-60,1122.0834,183.25)"
       font-family="sans-serif"
       fill="#3e3f3f"
       style="font-size:18px;text-anchor:middle"
       id="text94">51.2</text>
    <text
       x="1122.0834"
       y="183.25"
       dy="14.4"
       transform="rotate(-60,1122.0834,183.25)"
       font-family="sans-serif"
       fill="#3e3f3f"
       style="font-size:10.8px;text-anchor:middle"
       id="text95">(17%)</text>
    <text
       x="1214.2471"
       y="235.875"
       dy="0.050000001em"
       transform="rotate(-60,1214.247,235.875)"
       font-family="sans-serif"
       fill="#3e3f3f"
       style="font-size:18px;text-anchor:middle"
       id="text96">31</text>
    <text
       x="1214.2471"
       y="235.875"
       dy="14.4"
       transform="rotate(-60,1214.247,235.875)"
       font-family="sans-serif"
       fill="#3e3f3f"
       style="font-size:10.8px;text-anchor:middle"
       id="text97">(10%)</text>
    <text
       x="1216.9388"
       y="288.5"
       dy="0.050000001em"
       transform="rotate(-60,1216.9388,288.5)"
       font-family="sans-serif"
       fill="#3e3f3f"
       style="font-size:18px;text-anchor:middle"
       id="text98">46.2</text>
    <text
       x="1216.9388"
       y="288.5"
       dy="14.4"
       transform="rotate(-60,1216.9388,288.5)"
       font-family="sans-serif"
       fill="#3e3f3f"
       style="font-size:10.8px;text-anchor:middle"
       id="text99">(15%)</text>
    <text
       x="1165.2655"
       y="341.125"
       dy="0.050000001em"
       transform="rotate(-60,1165.2655,341.125)"
       font-family="sans-serif"
       fill="#3e3f3f"
       style="font-size:18px;text-anchor:middle"
       id="text100">46.3</text>
    <text
       x="1165.2655"
       y="341.125"
       dy="14.4"
       transform="rotate(-60,1165.2655,341.125)"
       font-family="sans-serif"
       fill="#3e3f3f"
       style="font-size:10.8px;text-anchor:middle"
       id="text101">(15%)</text>
    <text
       x="1170.5233"
       y="393.75"
       dy="0.050000001em"
       transform="rotate(-60,1170.5234,393.75)"
       font-family="sans-serif"
       fill="#3e3f3f"
       style="font-size:18px;text-anchor:middle"
       id="text102">48.2</text>
    <text
       x="1170.5233"
       y="393.75"
       dy="14.4"
       transform="rotate(-60,1170.5234,393.75)"
       font-family="sans-serif"
       fill="#3e3f3f"
       style="font-size:10.8px;text-anchor:middle"
       id="text103">(16%)</text>
    <text
       x="1169.6287"
       y="446.375"
       dy="0.050000001em"
       transform="rotate(-60,1169.6286,446.375)"
       font-family="sans-serif"
       fill="#3e3f3f"
       style="font-size:18px;text-anchor:middle"
       id="text104">15.3</text>
    <text
       x="1169.6287"
       y="446.375"
       dy="14.4"
       transform="rotate(-60,1169.6286,446.375)"
       font-family="sans-serif"
       fill="#3e3f3f"
       style="font-size:10.8px;text-anchor:middle"
       id="text105">(5%)</text>
  </g>
</svg>
