<?xml version="1.0" encoding="UTF-8" standalone="no"?>
<svg
   width="572.47858"
   height="1008.7275"
   version="1.1"
   id="svg86"
   sodipodi:docname="diagram_sankey.svg"
   inkscape:export-filename="diagram_sankey.svg"
   inkscape:export-xdpi="96"
   inkscape:export-ydpi="96"
   inkscape:version="1.3.2 (091e20e, 2023-11-25)"
   xmlns:inkscape="http://www.inkscape.org/namespaces/inkscape"
   xmlns:sodipodi="http://sodipodi.sourceforge.net/DTD/sodipodi-0.dtd"
   xmlns="http://www.w3.org/2000/svg"
   xmlns:svg="http://www.w3.org/2000/svg">
  <defs
     id="defs86" />
  <sodipodi:namedview
     id="namedview86"
     pagecolor="#ffffff"
     bordercolor="#000000"
     borderopacity="0.25"
     inkscape:showpageshadow="2"
     inkscape:pageopacity="0.0"
     inkscape:pagecheckerboard="0"
     inkscape:deskcolor="#d1d1d1"
     inkscape:zoom="0.41846412"
     inkscape:cx="506.61453"
     inkscape:cy="612.95578"
     inkscape:window-width="1392"
     inkscape:window-height="1212"
     inkscape:window-x="0"
     inkscape:window-y="25"
     inkscape:window-maximized="0"
     inkscape:current-layer="svg86" />
  <g
     id="g86"
     transform="rotate(90,406.02287,221.55564)">
    <defs
       id="defs25">
      <marker
         id="marker0"
         markerWidth="6"
         markerHeight="6"
         refX="5"
         refY="3">
        <circle
           cx="3"
           cy="3"
           r="1"
           style="fill:#aff05b"
           id="circle1" />
      </marker>
      <marker
         id="marker1"
         markerWidth="6"
         markerHeight="6"
         refX="5"
         refY="3">
        <circle
           cx="3"
           cy="3"
           r="1"
           style="fill:#aff05b"
           id="circle2" />
      </marker>
      <marker
         id="marker2"
         markerWidth="6"
         markerHeight="6"
         refX="5"
         refY="3">
        <circle
           cx="3"
           cy="3"
           r="1"
           style="fill:#aff05b"
           id="circle3" />
      </marker>
      <marker
         id="marker3"
         markerWidth="6"
         markerHeight="6"
         refX="5"
         refY="3">
        <circle
           cx="3"
           cy="3"
           r="1"
           style="fill:#aff05b"
           id="circle4" />
      </marker>
      <marker
         id="marker4"
         markerWidth="6"
         markerHeight="6"
         refX="5"
         refY="3">
        <circle
           cx="3"
           cy="3"
           r="1"
           style="fill:#aff05b"
           id="circle5" />
      </marker>
      <marker
         id="marker5"
         markerWidth="6"
         markerHeight="6"
         refX="5"
         refY="3">
        <circle
           cx="3"
           cy="3"
           r="1"
           style="fill:#aff05b"
           id="circle6" />
      </marker>
      <marker
         id="marker6"
         markerWidth="6"
         markerHeight="6"
         refX="5"
         refY="3">
        <circle
           cx="3"
           cy="3"
           r="1"
           style="fill:#ff8c38"
           id="circle7" />
      </marker>
      <marker
         id="marker7"
         markerWidth="6"
         markerHeight="6"
         refX="5"
         refY="3">
        <circle
           cx="3"
           cy="3"
           r="1"
           style="fill:#ff8c38"
           id="circle8" />
      </marker>
      <marker
         id="marker8"
         markerWidth="6"
         markerHeight="6"
         refX="5"
         refY="3">
        <circle
           cx="3"
           cy="3"
           r="1"
           style="fill:#ff8c38"
           id="circle9" />
      </marker>
      <marker
         id="marker9"
         markerWidth="6"
         markerHeight="6"
         refX="5"
         refY="3">
        <circle
           cx="3"
           cy="3"
           r="1"
           style="fill:#d9c231"
           id="circle10" />
      </marker>
      <marker
         id="marker10"
         markerWidth="6"
         markerHeight="6"
         refX="5"
         refY="3">
        <circle
           cx="3"
           cy="3"
           r="1"
           style="fill:#d9c231"
           id="circle11" />
      </marker>
      <marker
         id="marker11"
         markerWidth="6"
         markerHeight="6"
         refX="5"
         refY="3">
        <circle
           cx="3"
           cy="3"
           r="1"
           style="fill:#d9c231"
           id="circle12" />
      </marker>
      <marker
         id="marker12"
         markerWidth="6"
         markerHeight="6"
         refX="5"
         refY="3">
        <circle
           cx="3"
           cy="3"
           r="1"
           style="fill:#d9c231"
           id="circle13" />
      </marker>
      <marker
         id="marker13"
         markerWidth="6"
         markerHeight="6"
         refX="5"
         refY="3">
        <circle
           cx="3"
           cy="3"
           r="1"
           style="fill:#b23cb2"
           id="circle14" />
      </marker>
      <marker
         id="marker14"
         markerWidth="6"
         markerHeight="6"
         refX="5"
         refY="3">
        <circle
           cx="3"
           cy="3"
           r="1"
           style="fill:#b23cb2"
           id="circle15" />
      </marker>
      <marker
         id="marker15"
         markerWidth="6"
         markerHeight="6"
         refX="5"
         refY="3">
        <circle
           cx="3"
           cy="3"
           r="1"
           style="fill:#b23cb2"
           id="circle16" />
      </marker>
      <marker
         id="marker16"
         markerWidth="6"
         markerHeight="6"
         refX="5"
         refY="3">
        <circle
           cx="3"
           cy="3"
           r="1"
           style="fill:#b23cb2"
           id="circle17" />
      </marker>
      <marker
         id="marker17"
         markerWidth="6"
         markerHeight="6"
         refX="5"
         refY="3">
        <circle
           cx="3"
           cy="3"
           r="1"
           style="fill:#b23cb2"
           id="circle18" />
      </marker>
      <marker
         id="marker18"
         markerWidth="6"
         markerHeight="6"
         refX="5"
         refY="3">
        <circle
           cx="3"
           cy="3"
           r="1"
           style="fill:#b23cb2"
           id="circle19" />
      </marker>
      <marker
         id="marker19"
         markerWidth="6"
         markerHeight="6"
         refX="5"
         refY="3">
        <circle
           cx="3"
           cy="3"
           r="1"
           style="fill:#ff5e63"
           id="circle20" />
      </marker>
      <marker
         id="marker20"
         markerWidth="6"
         markerHeight="6"
         refX="5"
         refY="3">
        <circle
           cx="3"
           cy="3"
           r="1"
           style="fill:#ff5e63"
           id="circle21" />
      </marker>
      <marker
         id="marker21"
         markerWidth="6"
         markerHeight="6"
         refX="5"
         refY="3">
        <circle
           cx="3"
           cy="3"
           r="1"
           style="fill:#ee4395"
           id="circle22" />
      </marker>
      <marker
         id="marker22"
         markerWidth="6"
         markerHeight="6"
         refX="5"
         refY="3">
        <circle
           cx="3"
           cy="3"
           r="1"
           style="fill:#ee4395"
           id="circle23" />
      </marker>
      <marker
         id="marker23"
         markerWidth="6"
         markerHeight="6"
         refX="5"
         refY="3">
        <circle
           cx="3"
           cy="3"
           r="1"
           style="fill:#ee4395"
           id="circle24" />
      </marker>
      <marker
         id="marker24"
         markerWidth="6"
         markerHeight="6"
         refX="5"
         refY="3">
        <circle
           cx="3"
           cy="3"
           r="1"
           style="fill:#ee4395"
           id="circle25" />
      </marker>
    </defs>
    <path
       class="link"
       fill="none"
       stroke="#aff05b"
       stroke-width="9.79133"
       marker-end="url(#marker0)"
       d="m 973.27,60 h -77.42 c -77.42,0 -232.26,0 -315.101,0 -82.842,0 -93.684,0 -104.527,69.476 -10.843,69.476 -21.686,208.429 -32.528,277.905 -10.843,69.476 -21.686,69.476 -27.107,69.476 h -5.422"
       style="stroke-linecap:round;stroke-opacity:0.7"
       id="path25" />
    <path
       class="link"
       fill="none"
       stroke="#aff05b"
       stroke-width="9.79133"
       marker-end="url(#marker1)"
       d="m 973.27,60 h -77.42 c -77.42,0 -232.26,0 -315.101,0 -82.842,0 -93.684,0 -104.527,59.619 -10.843,59.619 -21.686,178.857 -32.528,238.476 -10.843,59.619 -21.686,59.619 -27.107,59.619 h -5.422"
       style="stroke-linecap:round;stroke-opacity:0.7"
       id="path26" />
    <path
       class="link"
       fill="none"
       stroke="#aff05b"
       stroke-width="9.79133"
       marker-end="url(#marker2)"
       d="m 973.27,60 h -77.42 c -77.42,0 -232.26,0 -315.101,0 -82.842,0 -93.684,0 -104.527,39.905 -10.843,39.905 -21.686,119.714 -32.528,159.619 -10.843,39.905 -21.686,39.905 -27.107,39.905 h -5.422"
       style="stroke-linecap:round;stroke-opacity:0.7"
       id="path27" />
    <path
       class="link"
       fill="none"
       stroke="#aff05b"
       stroke-width="9.79133"
       marker-end="url(#marker3)"
       d="m 973.27,60 h -77.42 c -77.42,0 -232.26,0 -315.101,0 -82.842,0 -93.684,0 -104.527,20.19 -10.843,20.191 -21.686,60.572 -32.528,80.762 -10.843,20.191 -21.686,20.191 -27.107,20.191 h -5.422"
       style="stroke-linecap:round;stroke-opacity:0.7"
       id="path28" />
    <path
       class="link"
       fill="none"
       stroke="#aff05b"
       stroke-width="9.79133"
       marker-end="url(#marker4)"
       d="m 973.27,60 h -77.42 c -77.42,0 -232.26,0 -315.101,0 -82.842,0 -93.684,0 -104.527,30.048 -10.843,30.047 -21.686,90.142 -32.528,120.19 -10.843,30.048 -21.686,30.048 -27.107,30.048 h -5.422"
       style="stroke-linecap:round;stroke-opacity:0.7"
       id="path29" />
    <path
       class="link"
       fill="none"
       stroke="#aff05b"
       stroke-width="9.79133"
       marker-end="url(#marker5)"
       d="m 973.27,60 h -77.42 c -77.42,0 -232.26,0 -315.101,0 -82.842,0 -93.684,0 -104.527,79.333 -10.843,79.334 -21.686,238 -32.528,317.334 C 432.851,536 422.008,536 416.587,536 h -5.422"
       style="stroke-linecap:round;stroke-opacity:0.7"
       id="path30" />
    <path
       class="link"
       fill="none"
       stroke="#ff8c38"
       stroke-width="3.8"
       marker-end="url(#marker6)"
       d="m 1130.397,160 h -69.093 c -69.093,0 -207.28,0 -283.311,0 -76.03,0 -89.904,0 -103.777,23.238 -13.874,23.238 -27.748,69.714 -41.622,92.952 -13.873,23.239 -27.747,23.239 -34.684,23.239 h -6.937"
       style="stroke-linecap:round;stroke-opacity:0.7"
       id="path31" />
    <path
       class="link"
       fill="none"
       stroke="#ff8c38"
       stroke-width="3.8"
       marker-end="url(#marker7)"
       d="m 1130.397,160 h -69.093 c -69.093,0 -207.28,0 -283.311,0 -76.03,0 -89.904,0 -103.777,3.524 -13.874,3.524 -27.748,10.571 -41.622,14.095 -13.873,3.524 -27.747,3.524 -34.684,3.524 h -6.937"
       style="stroke-linecap:round;stroke-opacity:0.7"
       id="path32" />
    <path
       class="link"
       fill="none"
       stroke="#ff8c38"
       stroke-width="3.8"
       marker-end="url(#marker8)"
       d="m 1130.397,160 h -69.093 c -69.093,0 -207.28,0 -283.311,0 -76.03,0 -89.904,0 -103.777,62.667 -13.874,62.666 -27.748,188 -41.622,250.666 C 618.721,536 604.847,536 597.91,536 h -6.937"
       style="stroke-linecap:round;stroke-opacity:0.7"
       id="path33" />
    <path
       class="link"
       fill="none"
       stroke="#d9c231"
       stroke-width="7.068"
       marker-end="url(#marker9)"
       d="m 1169.264,110 h -88.621 c -88.621,0 -265.862,0 -361.795,0 -95.933,0 -110.556,0 -125.18,51.286 -14.623,51.285 -29.247,153.857 -43.87,205.143 -14.623,51.285 -29.247,51.285 -36.559,51.285 h -7.311"
       style="stroke-linecap:round;stroke-opacity:0.7"
       id="path34" />
    <path
       class="link"
       fill="none"
       stroke="#d9c231"
       stroke-width="7.068"
       marker-end="url(#marker10)"
       d="m 1169.264,110 h -88.621 c -88.621,0 -265.862,0 -361.795,0 -95.933,0 -110.556,0 -125.18,31.571 -14.623,31.572 -29.247,94.715 -43.87,126.286 -14.623,31.572 -29.247,31.572 -36.559,31.572 h -7.311"
       style="stroke-linecap:round;stroke-opacity:0.7"
       id="path35" />
    <path
       class="link"
       fill="none"
       stroke="#d9c231"
       stroke-width="7.068"
       marker-end="url(#marker11)"
       d="m 1169.264,110 h -88.621 c -88.621,0 -265.862,0 -361.795,0 -95.933,0 -110.556,0 -125.18,11.857 -14.623,11.857 -29.247,35.572 -43.87,47.429 -14.623,11.857 -29.247,11.857 -36.559,11.857 h -7.311"
       style="stroke-linecap:round;stroke-opacity:0.7"
       id="path36" />
    <path
       class="link"
       fill="none"
       stroke="#d9c231"
       stroke-width="7.068"
       marker-end="url(#marker12)"
       d="m 1169.264,110 h -88.621 c -88.621,0 -265.862,0 -361.795,0 -95.933,0 -110.556,0 -125.18,71 -14.623,71 -29.247,213 -43.87,284 -14.623,71 -29.247,71 -36.559,71 h -7.311"
       style="stroke-linecap:round;stroke-opacity:0.7"
       id="path37" />
    <path
       class="link"
       fill="none"
       stroke="#b23cb2"
       stroke-width="6.593"
       marker-end="url(#marker13)"
       d="m 1181.406,310 h -25.854 c -25.853,0 -77.56,0 -110.843,0 -33.282,0 -48.14,0 -62.998,17.952 -14.857,17.953 -29.715,53.858 -44.572,71.81 -14.858,17.952 -29.716,17.952 -37.145,17.952 h -7.428"
       style="stroke-linecap:round;stroke-opacity:0.7"
       id="path38" />
    <path
       class="link"
       fill="none"
       stroke="#b23cb2"
       stroke-width="6.593"
       marker-end="url(#marker14)"
       d="m 1181.406,310 h -25.854 c -25.853,0 -77.56,0 -110.843,0 -33.282,0 -48.14,0 -62.998,-1.762 -14.857,-1.762 -29.715,-5.286 -44.572,-7.048 -14.858,-1.761 -29.716,-1.761 -37.145,-1.761 h -7.428"
       style="stroke-linecap:round;stroke-opacity:0.7"
       id="path39" />
    <path
       class="link"
       fill="none"
       stroke="#b23cb2"
       stroke-width="6.593"
       marker-end="url(#marker15)"
       d="m 1181.406,310 h -25.854 c -25.853,0 -77.56,0 -110.843,0 -33.282,0 -48.14,0 -62.998,-31.333 -14.857,-31.334 -29.715,-94 -44.572,-125.334 C 922.281,122 907.423,122 899.994,122 h -7.428"
       style="stroke-linecap:round;stroke-opacity:0.7"
       id="path40" />
    <path
       class="link"
       fill="none"
       stroke="#b23cb2"
       stroke-width="6.593"
       marker-end="url(#marker16)"
       d="m 1181.406,310 h -25.854 c -25.853,0 -77.56,0 -110.843,0 -33.282,0 -48.14,0 -62.998,8.095 -14.857,8.095 -29.715,24.286 -44.572,32.381 -14.858,8.095 -29.716,8.095 -37.145,8.095 h -7.428"
       style="stroke-linecap:round;stroke-opacity:0.7"
       id="path41" />
    <path
       class="link"
       fill="none"
       stroke="#b23cb2"
       stroke-width="6.593"
       marker-end="url(#marker17)"
       d="m 1181.406,310 h -25.854 c -25.853,0 -77.56,0 -110.843,0 -33.282,0 -48.14,0 -62.998,-11.619 -14.857,-11.619 -29.715,-34.857 -44.572,-46.476 -14.858,-11.619 -29.716,-11.619 -37.145,-11.619 h -7.428"
       style="stroke-linecap:round;stroke-opacity:0.7"
       id="path42" />
    <path
       class="link"
       fill="none"
       stroke="#b23cb2"
       stroke-width="6.593"
       marker-end="url(#marker18)"
       d="m 1181.406,310 h -25.854 c -25.853,0 -77.56,0 -110.843,0 -33.282,0 -48.14,0 -62.998,37.667 -14.857,37.666 -29.715,113 -44.572,150.666 C 922.281,536 907.423,536 899.994,536 h -7.428"
       style="stroke-linecap:round;stroke-opacity:0.7"
       id="path43" />
    <path
       class="link"
       fill="none"
       stroke="#ff5e63"
       stroke-width="3.48967"
       marker-end="url(#marker19)"
       d="m 1162.508,210 h -56.526 c -56.525,0 -169.575,0 -233.347,0 -63.772,0 -78.265,0 -92.758,-4.81 -14.493,-4.809 -28.986,-14.428 -43.479,-19.238 -14.493,-4.809 -28.986,-4.809 -36.233,-4.809 h -7.246"
       style="stroke-linecap:round;stroke-opacity:0.7"
       id="path44" />
    <path
       class="link"
       fill="none"
       stroke="#ff5e63"
       stroke-width="3.48967"
       marker-end="url(#marker20)"
       d="m 1162.508,210 h -56.526 c -56.525,0 -169.575,0 -233.347,0 -63.772,0 -78.265,0 -92.758,54.333 -14.493,54.334 -28.986,163 -43.479,217.334 C 721.905,536 707.412,536 700.165,536 h -7.246"
       style="stroke-linecap:round;stroke-opacity:0.7"
       id="path45" />
    <path
       class="link"
       fill="none"
       stroke="#ee4395"
       stroke-width="7.258"
       marker-end="url(#marker21)"
       d="m 1106.711,260 h -37.837 c -37.837,0 -113.511,0 -158.056,0 -44.546,0 -57.962,0 -71.379,36.143 -13.417,36.143 -26.834,108.428 -40.251,144.571 -13.416,36.143 -26.833,36.143 -33.542,36.143 h -6.708"
       style="stroke-linecap:round;stroke-opacity:0.7"
       id="path46" />
    <path
       class="link"
       fill="none"
       stroke="#ee4395"
       stroke-width="7.258"
       marker-end="url(#marker22)"
       d="m 1106.711,260 h -37.837 c -37.837,0 -113.511,0 -158.056,0 -44.546,0 -57.962,0 -71.379,6.571 -13.417,6.572 -26.834,19.715 -40.251,26.286 -13.416,6.572 -26.833,6.572 -33.542,6.572 h -6.708"
       style="stroke-linecap:round;stroke-opacity:0.7"
       id="path47" />
    <path
       class="link"
       fill="none"
       stroke="#ee4395"
       stroke-width="7.258"
       marker-end="url(#marker23)"
       d="m 1106.711,260 h -37.837 c -37.837,0 -113.511,0 -158.056,0 -44.546,0 -57.962,0 -71.379,-3.286 -13.417,-3.285 -26.834,-9.857 -40.251,-13.143 -13.416,-3.285 -26.833,-3.285 -33.542,-3.285 h -6.708"
       style="stroke-linecap:round;stroke-opacity:0.7"
       id="path48" />
    <path
       class="link"
       fill="none"
       stroke="#ee4395"
       stroke-width="7.258"
       marker-end="url(#marker24)"
       d="m 1106.711,260 h -37.837 c -37.837,0 -113.511,0 -158.056,0 -44.546,0 -57.962,0 -71.379,46 -13.417,46 -26.834,138 -40.251,184 -13.416,46 -26.833,46 -33.542,46 h -6.708"
       style="stroke-linecap:round;stroke-opacity:0.7"
       id="path49" />
    <text
       text-anchor="end"
       font-size="10.8px"
       fill="#3e3f3f"
       style="font-family:sans-serif"
       x="393.16534"
       y="122"
       transform="rotate(-30,393.16533,122)"
       id="text49"><tspan
         x="393.16534"
         dy="0"
         id="tspan49">Ensure access to education for women</tspan></text>
    <text
       x="420.16534"
       y="122"
       dy="0.050000001em"
       transform="rotate(-90,420.16533,122)"
       font-family="sans-serif"
       fill="#3e3f3f"
       style="font-size:18px;text-anchor:middle"
       id="text50">17.3</text>
    <text
       x="420.16534"
       y="122"
       dy="14.4"
       transform="rotate(-90,420.16533,122)"
       font-family="sans-serif"
       fill="#3e3f3f"
       style="font-size:10.8px;text-anchor:middle"
       id="text51">(17%)</text>
    <text
       text-anchor="end"
       font-size="10.8px"
       fill="#3e3f3f"
       style="font-family:sans-serif"
       x="393.16534"
       y="181.14285"
       transform="rotate(-30,393.16533,181.14286)"
       id="text52"><tspan
         x="393.16534"
         dy="0"
         id="tspan51">Ensure access to emergency obstetric</tspan><tspan
         x="393.16534"
         dy="1.2em"
         id="tspan52">care</tspan></text>
    <text
       x="420.16534"
       y="181.14285"
       dy="0.050000001em"
       transform="rotate(-90,420.16533,181.14286)"
       font-family="sans-serif"
       fill="#3e3f3f"
       style="font-size:18px;text-anchor:middle"
       id="text53">63.6</text>
    <text
       x="420.16534"
       y="181.14285"
       dy="14.4"
       transform="rotate(-90,420.16533,181.14286)"
       font-family="sans-serif"
       fill="#3e3f3f"
       style="font-size:10.8px;text-anchor:middle"
       id="text54">(64%)</text>
    <text
       text-anchor="end"
       font-size="10.8px"
       fill="#3e3f3f"
       style="font-family:sans-serif"
       x="393.16534"
       y="240.28572"
       transform="rotate(-30,393.16533,240.28571)"
       id="text55"><tspan
         x="393.16534"
         dy="0"
         id="tspan54">Promote skilled birth attendance in</tspan><tspan
         x="393.16534"
         dy="1.2em"
         id="tspan55">all deliveries</tspan></text>
    <text
       x="420.16534"
       y="240.28572"
       dy="0.050000001em"
       transform="rotate(-90,420.16533,240.28571)"
       font-family="sans-serif"
       fill="#3e3f3f"
       style="font-size:18px;text-anchor:middle"
       id="text56">62.2</text>
    <text
       x="420.16534"
       y="240.28572"
       dy="14.4"
       transform="rotate(-90,420.16533,240.28571)"
       font-family="sans-serif"
       fill="#3e3f3f"
       style="font-size:10.8px;text-anchor:middle"
       id="text57">(62%)</text>
    <text
       text-anchor="end"
       font-size="10.8px"
       fill="#3e3f3f"
       style="font-family:sans-serif"
       x="393.16534"
       y="299.42856"
       transform="rotate(-30,393.16533,299.42857)"
       id="text59"><tspan
         x="393.16534"
         dy="0"
         id="tspan57">Raise awareness on maternal health</tspan><tspan
         x="393.16534"
         dy="1.2em"
         id="tspan58">issues and address social determinants</tspan><tspan
         x="393.16534"
         dy="1.2em"
         id="tspan59">impacting maternal mortality.</tspan></text>
    <text
       x="420.16534"
       y="299.42856"
       dy="0.050000001em"
       transform="rotate(-90,420.16533,299.42857)"
       font-family="sans-serif"
       fill="#3e3f3f"
       style="font-size:18px;text-anchor:middle"
       id="text60">90.8</text>
    <text
       x="420.16534"
       y="299.42856"
       dy="14.4"
       transform="rotate(-90,420.16533,299.42857)"
       font-family="sans-serif"
       fill="#3e3f3f"
       style="font-size:10.8px;text-anchor:middle"
       id="text61">(91%)</text>
    <text
       text-anchor="end"
       font-size="10.8px"
       fill="#3e3f3f"
       style="font-family:sans-serif"
       x="393.16534"
       y="358.57144"
       transform="rotate(-30,393.16533,358.57143)"
       id="text62"><tspan
         x="393.16534"
         dy="0"
         id="tspan61">Promote women's rights and empowerment</tspan></text>
    <text
       x="420.16534"
       y="358.57144"
       dy="0.050000001em"
       transform="rotate(-90,420.16533,358.57143)"
       font-family="sans-serif"
       fill="#3e3f3f"
       style="font-size:18px;text-anchor:middle"
       id="text63">17.3</text>
    <text
       x="420.16534"
       y="358.57144"
       dy="14.4"
       transform="rotate(-90,420.16533,358.57143)"
       font-family="sans-serif"
       fill="#3e3f3f"
       style="font-size:10.8px;text-anchor:middle"
       id="text64">(17%)</text>
    <text
       text-anchor="end"
       font-size="10.8px"
       fill="#3e3f3f"
       style="font-family:sans-serif"
       x="393.16534"
       y="417.71429"
       transform="rotate(-30,393.16533,417.71429)"
       id="text66"><tspan
         x="393.16534"
         dy="0"
         id="tspan64">Increase investment in healthcare</tspan><tspan
         x="393.16534"
         dy="1.2em"
         id="tspan65">infrastructure and training for</tspan><tspan
         x="393.16534"
         dy="1.2em"
         id="tspan66">midwives</tspan></text>
    <text
       x="420.16534"
       y="417.71429"
       dy="0.050000001em"
       transform="rotate(-90,420.16533,417.71429)"
       font-family="sans-serif"
       fill="#3e3f3f"
       style="font-size:18px;text-anchor:middle"
       id="text67">61.7</text>
    <text
       x="420.16534"
       y="417.71429"
       dy="14.4"
       transform="rotate(-90,420.16533,417.71429)"
       font-family="sans-serif"
       fill="#3e3f3f"
       style="font-size:10.8px;text-anchor:middle"
       id="text68">(62%)</text>
    <text
       text-anchor="end"
       font-size="10.8px"
       fill="#3e3f3f"
       style="font-family:sans-serif"
       x="393.16534"
       y="476.85715"
       transform="rotate(-30,393.16533,476.85714)"
       id="text69"><tspan
         x="393.16534"
         dy="0"
         id="tspan68">Ensure access to family planning</tspan><tspan
         x="393.16534"
         dy="1.2em"
         id="tspan69">services</tspan></text>
    <text
       x="420.16534"
       y="476.85715"
       dy="0.050000001em"
       transform="rotate(-90,420.16533,476.85714)"
       font-family="sans-serif"
       fill="#3e3f3f"
       style="font-size:18px;text-anchor:middle"
       id="text70">44.9</text>
    <text
       x="420.16534"
       y="476.85715"
       dy="14.4"
       transform="rotate(-90,420.16533,476.85714)"
       font-family="sans-serif"
       fill="#3e3f3f"
       style="font-size:10.8px;text-anchor:middle"
       id="text71">(45%)</text>
    <text
       text-anchor="end"
       font-size="10.8px"
       fill="#3e3f3f"
       style="font-family:sans-serif"
       x="393.16534"
       y="536"
       transform="rotate(-30,393.16533,536)"
       id="text72"><tspan
         x="393.16534"
         dy="0"
         id="tspan71">Ensure universal access to quality</tspan><tspan
         x="393.16534"
         dy="1.2em"
         id="tspan72">maternal healthcare services</tspan></text>
    <text
       x="420.16534"
       y="536"
       dy="0.050000001em"
       transform="rotate(-90,420.16533,536)"
       font-family="sans-serif"
       fill="#3e3f3f"
       style="font-size:18px;text-anchor:middle"
       id="text73">100</text>
    <text
       x="420.16534"
       y="536"
       dy="14.4"
       transform="rotate(-90,420.16533,536)"
       font-family="sans-serif"
       fill="#3e3f3f"
       style="font-size:10.8px;text-anchor:middle"
       id="text74">(100%)</text>
    <text
       x="966.16534"
       y="78"
       dy="0.050000001em"
       transform="rotate(-90,966.16533,78)"
       font-family="sans-serif"
       fill="#3e3f3f"
       style="font-size:18px;text-anchor:middle"
       id="text75">25.8</text>
    <text
       x="966.16534"
       y="78"
       dy="14.4"
       transform="rotate(-90,966.16533,78)"
       font-family="sans-serif"
       fill="#3e3f3f"
       style="font-size:10.8px;text-anchor:middle"
       id="text76">(26%)</text>
    <text
       x="1164.1361"
       y="128"
       dy="0.050000001em"
       transform="rotate(-90,1164.136,128)"
       font-family="sans-serif"
       fill="#3e3f3f"
       style="font-size:18px;text-anchor:middle"
       id="text77">18.6</text>
    <text
       x="1164.1361"
       y="128"
       dy="14.4"
       transform="rotate(-90,1164.136,128)"
       font-family="sans-serif"
       fill="#3e3f3f"
       style="font-size:10.8px;text-anchor:middle"
       id="text78">(19%)</text>
    <text
       x="1127.6403"
       y="178"
       dy="0.050000001em"
       transform="rotate(-90,1127.6403,178)"
       font-family="sans-serif"
       fill="#3e3f3f"
       style="font-size:18px;text-anchor:middle"
       id="text79">10</text>
    <text
       x="1127.6403"
       y="178"
       dy="14.4"
       transform="rotate(-90,1127.6403,178)"
       font-family="sans-serif"
       fill="#3e3f3f"
       style="font-size:10.8px;text-anchor:middle"
       id="text80">(10%)</text>
    <text
       x="1159.9757"
       y="228"
       dy="0.050000001em"
       transform="rotate(-90,1159.9757,228)"
       font-family="sans-serif"
       fill="#3e3f3f"
       style="font-size:18px;text-anchor:middle"
       id="text81">9.2</text>
    <text
       x="1159.9757"
       y="228"
       dy="14.4"
       transform="rotate(-90,1159.9757,228)"
       font-family="sans-serif"
       fill="#3e3f3f"
       style="font-size:10.8px;text-anchor:middle"
       id="text82">(9%)</text>
    <text
       x="1101.4447"
       y="278"
       dy="0.050000001em"
       transform="rotate(-90,1101.4446,278)"
       font-family="sans-serif"
       fill="#3e3f3f"
       style="font-size:18px;text-anchor:middle"
       id="text83">19.1</text>
    <text
       x="1101.4447"
       y="278"
       dy="14.4"
       transform="rotate(-90,1101.4446,278)"
       font-family="sans-serif"
       fill="#3e3f3f"
       style="font-size:10.8px;text-anchor:middle"
       id="text84">(19%)</text>
    <text
       x="1176.6222"
       y="328"
       dy="0.050000001em"
       transform="rotate(-90,1176.6221,328)"
       font-family="sans-serif"
       fill="#3e3f3f"
       style="font-size:18px;text-anchor:middle"
       id="text85">17.3</text>
    <text
       x="1176.6222"
       y="328"
       dy="14.4"
       transform="rotate(-90,1176.6221,328)"
       font-family="sans-serif"
       fill="#3e3f3f"
       style="font-size:10.8px;text-anchor:middle"
       id="text86">(17%)</text>
  </g>
</svg>
