<?xml version="1.0" encoding="UTF-8" standalone="no"?>
<svg
   width="527.73016"
   height="953.90271"
   version="1.1"
   id="svg98"
   sodipodi:docname="diagram_sankey.svg"
   inkscape:export-filename="diagram_sankey.svg"
   inkscape:export-xdpi="96"
   inkscape:export-ydpi="96"
   inkscape:version="1.3.2 (091e20e, 2023-11-25)"
   xmlns:inkscape="http://www.inkscape.org/namespaces/inkscape"
   xmlns:sodipodi="http://sodipodi.sourceforge.net/DTD/sodipodi-0.dtd"
   xmlns="http://www.w3.org/2000/svg"
   xmlns:svg="http://www.w3.org/2000/svg">
  <defs
     id="defs98" />
  <sodipodi:namedview
     id="namedview98"
     pagecolor="#ffffff"
     bordercolor="#000000"
     borderopacity="0.25"
     inkscape:showpageshadow="2"
     inkscape:pageopacity="0.0"
     inkscape:pagecheckerboard="0"
     inkscape:deskcolor="#d1d1d1"
     inkscape:zoom="0.54280726"
     inkscape:cx="256.07616"
     inkscape:cy="686.24727"
     inkscape:window-width="1392"
     inkscape:window-height="1212"
     inkscape:window-x="0"
     inkscape:window-y="25"
     inkscape:window-maximized="0"
     inkscape:current-layer="svg98" />
  <g
     id="g98"
     transform="rotate(90,407.21763,175.82672)">
    <defs
       id="defs24">
      <marker
         id="marker0"
         markerWidth="6"
         markerHeight="6"
         refX="5"
         refY="3">
        <circle
           cx="3"
           cy="3"
           r="2.21"
           style="fill:#f9694c"
           id="circle1" />
      </marker>
      <marker
         id="marker1"
         markerWidth="6"
         markerHeight="6"
         refX="5"
         refY="3">
        <circle
           cx="3"
           cy="3"
           r="2.21"
           style="fill:#f9694c"
           id="circle2" />
      </marker>
      <marker
         id="marker2"
         markerWidth="6"
         markerHeight="6"
         refX="5"
         refY="3">
        <circle
           cx="3"
           cy="3"
           r="2.21"
           style="fill:#f9694c"
           id="circle3" />
      </marker>
      <marker
         id="marker3"
         markerWidth="6"
         markerHeight="6"
         refX="5"
         refY="3">
        <circle
           cx="3"
           cy="3"
           r="2.21"
           style="fill:#fcaa8e"
           id="circle4" />
      </marker>
      <marker
         id="marker4"
         markerWidth="6"
         markerHeight="6"
         refX="5"
         refY="3">
        <circle
           cx="3"
           cy="3"
           r="2.21"
           style="fill:#fcaa8e"
           id="circle5" />
      </marker>
      <marker
         id="marker5"
         markerWidth="6"
         markerHeight="6"
         refX="5"
         refY="3">
        <circle
           cx="3"
           cy="3"
           r="2.21"
           style="fill:#fcaa8e"
           id="circle6" />
      </marker>
      <marker
         id="marker6"
         markerWidth="6"
         markerHeight="6"
         refX="5"
         refY="3">
        <circle
           cx="3"
           cy="3"
           r="2.21"
           style="fill:#fc8a6b"
           id="circle7" />
      </marker>
      <marker
         id="marker7"
         markerWidth="6"
         markerHeight="6"
         refX="5"
         refY="3">
        <circle
           cx="3"
           cy="3"
           r="2.21"
           style="fill:#fc8a6b"
           id="circle8" />
      </marker>
      <marker
         id="marker8"
         markerWidth="6"
         markerHeight="6"
         refX="5"
         refY="3">
        <circle
           cx="3"
           cy="3"
           r="2.21"
           style="fill:#fc8a6b"
           id="circle9" />
      </marker>
      <marker
         id="marker9"
         markerWidth="6"
         markerHeight="6"
         refX="5"
         refY="3">
        <circle
           cx="3"
           cy="3"
           r="2.21"
           style="fill:#fc8a6b"
           id="circle10" />
      </marker>
      <marker
         id="marker10"
         markerWidth="6"
         markerHeight="6"
         refX="5"
         refY="3">
        <circle
           cx="3"
           cy="3"
           r="2.21"
           style="fill:#fc8a6b"
           id="circle11" />
      </marker>
      <marker
         id="marker11"
         markerWidth="6"
         markerHeight="6"
         refX="5"
         refY="3">
        <circle
           cx="3"
           cy="3"
           r="2.21"
           style="fill:#fc8a6b"
           id="circle12" />
      </marker>
      <marker
         id="marker12"
         markerWidth="6"
         markerHeight="6"
         refX="5"
         refY="3">
        <circle
           cx="3"
           cy="3"
           r="2.21"
           style="fill:#ef4533"
           id="circle13" />
      </marker>
      <marker
         id="marker13"
         markerWidth="6"
         markerHeight="6"
         refX="5"
         refY="3">
        <circle
           cx="3"
           cy="3"
           r="2.21"
           style="fill:#ef4533"
           id="circle14" />
      </marker>
      <marker
         id="marker14"
         markerWidth="6"
         markerHeight="6"
         refX="5"
         refY="3">
        <circle
           cx="3"
           cy="3"
           r="2.21"
           style="fill:#ef4533"
           id="circle15" />
      </marker>
      <marker
         id="marker15"
         markerWidth="6"
         markerHeight="6"
         refX="5"
         refY="3">
        <circle
           cx="3"
           cy="3"
           r="2.21"
           style="fill:#d92723"
           id="circle16" />
      </marker>
      <marker
         id="marker16"
         markerWidth="6"
         markerHeight="6"
         refX="5"
         refY="3">
        <circle
           cx="3"
           cy="3"
           r="2.21"
           style="fill:#d92723"
           id="circle17" />
      </marker>
      <marker
         id="marker17"
         markerWidth="6"
         markerHeight="6"
         refX="5"
         refY="3">
        <circle
           cx="3"
           cy="3"
           r="2.21"
           style="fill:#bb151a"
           id="circle18" />
      </marker>
      <marker
         id="marker18"
         markerWidth="6"
         markerHeight="6"
         refX="5"
         refY="3">
        <circle
           cx="3"
           cy="3"
           r="2.21"
           style="fill:#bb151a"
           id="circle19" />
      </marker>
      <marker
         id="marker19"
         markerWidth="6"
         markerHeight="6"
         refX="5"
         refY="3">
        <circle
           cx="3"
           cy="3"
           r="2.21"
           style="fill:#bb151a"
           id="circle20" />
      </marker>
      <marker
         id="marker20"
         markerWidth="6"
         markerHeight="6"
         refX="5"
         refY="3">
        <circle
           cx="3"
           cy="3"
           r="2.21"
           style="fill:#970b13"
           id="circle21" />
      </marker>
      <marker
         id="marker21"
         markerWidth="6"
         markerHeight="6"
         refX="5"
         refY="3">
        <circle
           cx="3"
           cy="3"
           r="2.21"
           style="fill:#970b13"
           id="circle22" />
      </marker>
      <marker
         id="marker22"
         markerWidth="6"
         markerHeight="6"
         refX="5"
         refY="3">
        <circle
           cx="3"
           cy="3"
           r="2.21"
           style="fill:#970b13"
           id="circle23" />
      </marker>
      <marker
         id="marker23"
         markerWidth="6"
         markerHeight="6"
         refX="5"
         refY="3">
        <circle
           cx="3"
           cy="3"
           r="2.21"
           style="fill:#970b13"
           id="circle24" />
      </marker>
    </defs>
    <path
       class="link"
       fill="none"
       stroke="#f9694c"
       stroke-width="7.53215"
       marker-end="url(#marker0)"
       d="m 1167.113,182.286 h -65.881 c -65.88,0 -197.64,0 -268.004,0 -70.364,0 -79.331,0 -88.298,20.043 -8.968,20.043 -17.935,60.13 -26.903,80.173 -8.967,20.043 -17.935,20.043 -22.418,20.043 h -4.484"
       style="stroke-linecap:round;stroke-opacity:0.7"
       id="path24" />
    <path
       class="link"
       fill="none"
       stroke="#f9694c"
       stroke-width="7.53215"
       marker-end="url(#marker1)"
       d="m 1167.113,182.286 h -65.881 c -65.88,0 -197.64,0 -268.004,0 -70.364,0 -79.331,0 -88.298,0.588 -8.968,0.589 -17.935,1.767 -26.903,2.355 -8.967,0.589 -17.935,0.589 -22.418,0.589 h -4.484"
       style="stroke-linecap:round;stroke-opacity:0.7"
       id="path25" />
    <path
       class="link"
       fill="none"
       stroke="#f9694c"
       stroke-width="7.53215"
       marker-end="url(#marker2)"
       d="m 1167.113,182.286 h -65.881 c -65.88,0 -197.64,0 -268.004,0 -70.364,0 -79.331,0 -88.298,26.528 -8.968,26.528 -17.935,79.584 -26.903,106.112 -8.967,26.529 -17.935,26.529 -22.418,26.529 h -4.484"
       style="stroke-linecap:round;stroke-opacity:0.7"
       id="path26" />
    <path
       class="link"
       fill="none"
       stroke="#fcaa8e"
       stroke-width="7.27324"
       marker-end="url(#marker3)"
       d="m 1119.626,60 h -81.675 c -81.676,0 -245.027,0 -330.838,0 -85.811,0 -94.083,0 -102.355,8 -8.271,8 -16.543,24 -24.815,32 -8.271,8 -16.543,8 -20.679,8 h -4.135"
       style="stroke-linecap:round;stroke-opacity:0.7"
       id="path27" />
    <path
       class="link"
       fill="none"
       stroke="#fcaa8e"
       stroke-width="7.27324"
       marker-end="url(#marker4)"
       d="m 1119.626,60 h -81.675 c -81.676,0 -245.027,0 -330.838,0 -85.811,0 -94.083,0 -102.355,14.485 -8.271,14.485 -16.543,43.454 -24.815,57.939 -8.271,14.485 -16.543,14.485 -20.679,14.485 h -4.135"
       style="stroke-linecap:round;stroke-opacity:0.7"
       id="path28" />
    <path
       class="link"
       fill="none"
       stroke="#fcaa8e"
       stroke-width="7.27324"
       marker-end="url(#marker5)"
       d="m 1119.626,60 h -81.675 c -81.676,0 -245.027,0 -330.838,0 -85.811,0 -94.083,0 -102.355,20.97 -8.271,20.969 -16.543,62.909 -24.815,83.878 -8.271,20.97 -16.543,20.97 -20.679,20.97 h -4.135"
       style="stroke-linecap:round;stroke-opacity:0.7"
       id="path29" />
    <path
       class="link"
       fill="none"
       stroke="#fc8a6b"
       stroke-width="6.85565"
       marker-end="url(#marker6)"
       d="m 1155.415,121.143 h -75.738 c -75.737,0 -227.211,0 -307.347,0 -80.135,0 -88.931,0 -97.727,17.264 -8.796,17.264 -17.592,51.792 -26.388,69.056 -8.796,17.264 -17.592,17.264 -21.99,17.264 h -4.398"
       style="stroke-linecap:round;stroke-opacity:0.7"
       id="path30" />
    <path
       class="link"
       fill="none"
       stroke="#fc8a6b"
       stroke-width="6.85565"
       marker-end="url(#marker7)"
       d="m 1155.415,121.143 h -75.738 c -75.737,0 -227.211,0 -307.347,0 -80.135,0 -88.931,0 -97.727,10.779 -8.796,10.779 -17.592,32.338 -26.388,43.117 -8.796,10.779 -17.592,10.779 -21.99,10.779 h -4.398"
       style="stroke-linecap:round;stroke-opacity:0.7"
       id="path31" />
    <path
       class="link"
       fill="none"
       stroke="#fc8a6b"
       stroke-width="6.85565"
       marker-end="url(#marker8)"
       d="m 1155.415,121.143 h -75.738 c -75.737,0 -227.211,0 -307.347,0 -80.135,0 -88.931,0 -97.727,23.749 -8.796,23.749 -17.592,71.247 -26.388,94.995 -8.796,23.749 -17.592,23.749 -21.99,23.749 h -4.398"
       style="stroke-linecap:round;stroke-opacity:0.7"
       id="path32" />
    <path
       class="link"
       fill="none"
       stroke="#fc8a6b"
       stroke-width="6.85565"
       marker-end="url(#marker9)"
       d="m 1155.415,121.143 h -75.738 c -75.737,0 -227.211,0 -307.347,0 -80.135,0 -88.931,0 -97.727,-2.191 -8.796,-2.19 -17.592,-6.571 -26.388,-8.762 C 639.419,108 630.623,108 626.225,108 h -4.398"
       style="stroke-linecap:round;stroke-opacity:0.7"
       id="path33" />
    <path
       class="link"
       fill="none"
       stroke="#fc8a6b"
       stroke-width="6.85565"
       marker-end="url(#marker10)"
       d="m 1155.415,121.143 h -75.738 c -75.737,0 -227.211,0 -307.347,0 -80.135,0 -88.931,0 -97.727,30.234 -8.796,30.233 -17.592,90.701 -26.388,120.935 -8.796,30.233 -17.592,30.233 -21.99,30.233 h -4.398"
       style="stroke-linecap:round;stroke-opacity:0.7"
       id="path34" />
    <path
       class="link"
       fill="none"
       stroke="#fc8a6b"
       stroke-width="6.85565"
       marker-end="url(#marker11)"
       d="m 1155.415,121.143 h -75.738 c -75.737,0 -227.211,0 -307.347,0 -80.135,0 -88.931,0 -97.727,36.718 -8.796,36.719 -17.592,110.156 -26.388,146.875 -8.796,36.719 -17.592,36.719 -21.99,36.719 h -4.398"
       style="stroke-linecap:round;stroke-opacity:0.7"
       id="path35" />
    <path
       class="link"
       fill="none"
       stroke="#ef4533"
       stroke-width="6.27694"
       marker-end="url(#marker12)"
       d="m 1169.489,243.429 h -54.758 c -54.759,0 -164.277,0 -223.537,0 -59.26,0 -68.263,0 -77.265,9.852 -9.002,9.853 -18.004,29.559 -27.007,39.412 -9.002,9.852 -18.004,9.852 -22.505,9.852 h -4.501"
       style="stroke-linecap:round;stroke-opacity:0.7"
       id="path36" />
    <path
       class="link"
       fill="none"
       stroke="#ef4533"
       stroke-width="6.27694"
       marker-end="url(#marker13)"
       d="m 1169.489,243.429 h -54.758 c -54.759,0 -164.277,0 -223.537,0 -59.26,0 -68.263,0 -77.265,3.368 -9.002,3.368 -18.004,10.103 -27.007,13.471 -9.002,3.368 -18.004,3.368 -22.505,3.368 h -4.501"
       style="stroke-linecap:round;stroke-opacity:0.7"
       id="path37" />
    <path
       class="link"
       fill="none"
       stroke="#ef4533"
       stroke-width="6.27694"
       marker-end="url(#marker14)"
       d="m 1169.489,243.429 h -54.758 c -54.759,0 -164.277,0 -223.537,0 -59.26,0 -68.263,0 -77.265,-9.602 -9.002,-9.602 -18.004,-28.805 -27.007,-38.407 -9.002,-9.602 -18.004,-9.602 -22.505,-9.602 h -4.501"
       style="stroke-linecap:round;stroke-opacity:0.7"
       id="path38" />
    <path
       class="link"
       fill="none"
       stroke="#d92723"
       stroke-width="7.32462"
       marker-end="url(#marker15)"
       d="m 1153.126,304.571 h -42.227 c -42.226,0 -126.679,0 -173.287,0 -46.607,0 -55.37,0 -64.132,12.632 -8.763,12.632 -17.525,37.897 -26.288,50.529 -8.762,12.632 -17.524,12.632 -21.906,12.632 h -4.381"
       style="stroke-linecap:round;stroke-opacity:0.7"
       id="path39" />
    <path
       class="link"
       fill="none"
       stroke="#d92723"
       stroke-width="7.32462"
       marker-end="url(#marker16)"
       d="m 1153.126,304.571 h -42.227 c -42.226,0 -126.679,0 -173.287,0 -46.607,0 -55.37,0 -64.132,19.117 -8.763,19.117 -17.525,57.351 -26.288,76.468 -8.762,19.117 -17.524,19.117 -21.906,19.117 h -4.381"
       style="stroke-linecap:round;stroke-opacity:0.7"
       id="path40" />
    <path
       class="link"
       fill="none"
       stroke="#bb151a"
       stroke-width="5.03157"
       marker-end="url(#marker17)"
       d="m 1160.568,365.714 h -31.54 c -31.54,0 -94.62,0 -130.596,0 -35.976,0 -44.847,0 -53.719,-17.013 -8.871,-17.013 -17.743,-51.039 -26.614,-68.052 -8.872,-17.013 -17.743,-17.013 -22.179,-17.013 h -4.436"
       style="stroke-linecap:round;stroke-opacity:0.7"
       id="path41" />
    <path
       class="link"
       fill="none"
       stroke="#bb151a"
       stroke-width="5.03157"
       marker-end="url(#marker18)"
       d="m 1160.568,365.714 h -31.54 c -31.54,0 -94.62,0 -130.596,0 -35.976,0 -44.847,0 -53.719,15.412 -8.871,15.411 -17.743,46.233 -26.614,61.645 -8.872,15.411 -17.743,15.411 -22.179,15.411 h -4.436"
       style="stroke-linecap:round;stroke-opacity:0.7"
       id="path42" />
    <path
       class="link"
       fill="none"
       stroke="#bb151a"
       stroke-width="5.03157"
       marker-end="url(#marker19)"
       d="m 1160.568,365.714 h -31.54 c -31.54,0 -94.62,0 -130.596,0 -35.976,0 -44.847,0 -53.719,8.927 -8.871,8.926 -17.743,26.779 -26.614,35.705 -8.872,8.927 -17.743,8.927 -22.179,8.927 h -4.436"
       style="stroke-linecap:round;stroke-opacity:0.7"
       id="path43" />
    <path
       class="link"
       fill="none"
       stroke="#970b13"
       stroke-width="5"
       marker-end="url(#marker20)"
       d="m 1130.723,426.857 h -19.327 c -19.326,0 -57.978,0 -81.521,0 -23.543,0 -31.978,0 -40.412,11.706 -8.434,11.705 -16.868,35.117 -25.302,46.822 -8.435,11.706 -16.869,11.706 -21.086,11.706 h -4.217"
       style="stroke-linecap:round;stroke-opacity:0.7"
       id="path44" />
    <path
       class="link"
       fill="none"
       stroke="#970b13"
       stroke-width="5"
       marker-end="url(#marker21)"
       d="m 1130.723,426.857 h -19.327 c -19.326,0 -57.978,0 -81.521,0 -23.543,0 -31.978,0 -40.412,18.191 -8.434,18.19 -16.868,54.571 -25.302,72.762 C 955.726,536 947.292,536 943.075,536 h -4.217"
       style="stroke-linecap:round;stroke-opacity:0.7"
       id="path45" />
    <path
       class="link"
       fill="none"
       stroke="#970b13"
       stroke-width="5"
       marker-end="url(#marker22)"
       d="m 1130.723,426.857 h -19.327 c -19.326,0 -57.978,0 -81.521,0 -23.543,0 -31.978,0 -40.412,5.221 -8.434,5.221 -16.868,15.662 -25.302,20.883 -8.435,5.221 -16.869,5.221 -21.086,5.221 h -4.217"
       style="stroke-linecap:round;stroke-opacity:0.7"
       id="path46" />
    <path
       class="link"
       fill="none"
       stroke="#970b13"
       stroke-width="5"
       marker-end="url(#marker23)"
       d="m 1130.723,426.857 h -19.327 c -19.326,0 -57.978,0 -81.521,0 -23.543,0 -31.978,0 -40.412,-40.173 -8.434,-40.173 -16.868,-120.519 -25.302,-160.693 -8.435,-40.173 -16.869,-40.173 -21.086,-40.173 h -4.217"
       style="stroke-linecap:round;stroke-opacity:0.7"
       id="path47" />
    <text
       text-anchor="end"
       font-size="10.8px"
       fill="#3e3f3f"
       style="font-family:sans-serif"
       x="537.1286"
       y="108"
       transform="rotate(-10,537.12861,108)"
       id="text47"><tspan
         x="537.1286"
         dy="0"
         id="tspan47">Investment in innovative technologies</tspan></text>
    <text
       x="564.1286"
       y="108"
       dy="0.050000001em"
       transform="rotate(-120,564.12861,108)"
       font-family="sans-serif"
       fill="#3e3f3f"
       style="font-size:18px;text-anchor:middle"
       id="text48">99.9</text>
    <text
       x="564.1286"
       y="108"
       dy="14.4"
       transform="rotate(-120,564.12861,108)"
       font-family="sans-serif"
       fill="#3e3f3f"
       style="font-size:10.8px;text-anchor:middle"
       id="text49">(33%)</text>
    <text
       text-anchor="end"
       font-size="10.8px"
       fill="#3e3f3f"
       style="font-family:sans-serif"
       x="537.1286"
       y="146.90909"
       transform="rotate(-10,537.12861,146.90909)"
       id="text50"><tspan
         x="537.1286"
         dy="0"
         id="tspan49">Promote education on energy-saving practices.</tspan></text>
    <text
       x="564.1286"
       y="146.90909"
       dy="0.050000001em"
       transform="rotate(-120,564.12861,146.90909)"
       font-family="sans-serif"
       fill="#3e3f3f"
       style="font-size:18px;text-anchor:middle"
       id="text51">52.9</text>
    <text
       x="564.1286"
       y="146.90909"
       dy="14.4"
       transform="rotate(-120,564.12861,146.90909)"
       font-family="sans-serif"
       fill="#3e3f3f"
       style="font-size:10.8px;text-anchor:middle"
       id="text52">(18%)</text>
    <text
       text-anchor="end"
       font-size="10.8px"
       fill="#3e3f3f"
       style="font-family:sans-serif"
       x="537.1286"
       y="185.81818"
       transform="rotate(-10,537.12861,185.81818)"
       id="text53"><tspan
         x="537.1286"
         dy="0"
         id="tspan52">Implement stricter energy efficiency standards and</tspan><tspan
         x="537.1286"
         dy="1.2em"
         id="tspan53">regulations across all sectors.</tspan></text>
    <text
       x="564.1286"
       y="185.81818"
       dy="0.050000001em"
       transform="rotate(-120,564.12861,185.81818)"
       font-family="sans-serif"
       fill="#3e3f3f"
       style="font-size:18px;text-anchor:middle"
       id="text54">221</text>
    <text
       x="564.1286"
       y="185.81818"
       dy="14.4"
       transform="rotate(-120,564.12861,185.81818)"
       font-family="sans-serif"
       fill="#3e3f3f"
       style="font-size:10.8px;text-anchor:middle"
       id="text55">(74%)</text>
    <text
       text-anchor="end"
       font-size="10.8px"
       fill="#3e3f3f"
       style="font-family:sans-serif"
       x="537.1286"
       y="224.72728"
       transform="rotate(-10,537.12861,224.72727)"
       id="text56"><tspan
         x="537.1286"
         dy="0"
         id="tspan55">Government: Incentivize businesses and consumers to</tspan><tspan
         x="537.1286"
         dy="1.2em"
         id="tspan56">adopt energy-efficient practices.</tspan></text>
    <text
       x="564.1286"
       y="224.72728"
       dy="0.050000001em"
       transform="rotate(-120,564.12861,224.72727)"
       font-family="sans-serif"
       fill="#3e3f3f"
       style="font-size:18px;text-anchor:middle"
       id="text57">47</text>
    <text
       x="564.1286"
       y="224.72728"
       dy="14.4"
       transform="rotate(-120,564.12861,224.72727)"
       font-family="sans-serif"
       fill="#3e3f3f"
       style="font-size:10.8px;text-anchor:middle"
       id="text58">(16%)</text>
    <text
       text-anchor="end"
       font-size="10.8px"
       fill="#3e3f3f"
       style="font-family:sans-serif"
       x="537.1286"
       y="263.63635"
       transform="rotate(-10,537.12861,263.63636)"
       id="text59"><tspan
         x="537.1286"
         dy="0"
         id="tspan58">Promote public awareness campaigns on energy</tspan><tspan
         x="537.1286"
         dy="1.2em"
         id="tspan59">conservation.</tspan></text>
    <text
       x="564.1286"
       y="263.63635"
       dy="0.050000001em"
       transform="rotate(-120,564.12861,263.63636)"
       font-family="sans-serif"
       fill="#3e3f3f"
       style="font-size:18px;text-anchor:middle"
       id="text60">111.7</text>
    <text
       x="564.1286"
       y="263.63635"
       dy="14.4"
       transform="rotate(-120,564.12861,263.63636)"
       font-family="sans-serif"
       fill="#3e3f3f"
       style="font-size:10.8px;text-anchor:middle"
       id="text61">(37%)</text>
    <text
       text-anchor="end"
       font-size="10.8px"
       fill="#3e3f3f"
       style="font-family:sans-serif"
       x="537.1286"
       y="302.54544"
       transform="rotate(-10,537.12861,302.54545)"
       id="text62"><tspan
         x="537.1286"
         dy="0"
         id="tspan61">Promotion of energy efficiency education and awareness</tspan><tspan
         x="537.1286"
         dy="1.2em"
         id="tspan62">for the general public.</tspan></text>
    <text
       x="564.1286"
       y="302.54544"
       dy="0.050000001em"
       transform="rotate(-120,564.12861,302.54545)"
       font-family="sans-serif"
       fill="#3e3f3f"
       style="font-size:18px;text-anchor:middle"
       id="text63">143.1</text>
    <text
       x="564.1286"
       y="302.54544"
       dy="14.4"
       transform="rotate(-120,564.12861,302.54545)"
       font-family="sans-serif"
       fill="#3e3f3f"
       style="font-size:10.8px;text-anchor:middle"
       id="text64">(48%)</text>
    <text
       text-anchor="end"
       font-size="10.8px"
       fill="#3e3f3f"
       style="font-family:sans-serif"
       x="537.1286"
       y="341.45456"
       transform="rotate(-10,537.12861,341.45455)"
       id="text65"><tspan
         x="537.1286"
         dy="0"
         id="tspan64">Investment in energy-efficient technology</tspan></text>
    <text
       x="564.1286"
       y="341.45456"
       dy="0.050000001em"
       transform="rotate(-120,564.12861,341.45455)"
       font-family="sans-serif"
       fill="#3e3f3f"
       style="font-size:18px;text-anchor:middle"
       id="text66">103.7</text>
    <text
       x="564.1286"
       y="341.45456"
       dy="14.4"
       transform="rotate(-120,564.12861,341.45455)"
       font-family="sans-serif"
       fill="#3e3f3f"
       style="font-size:10.8px;text-anchor:middle"
       id="text67">(35%)</text>
    <text
       text-anchor="end"
       font-size="10.8px"
       fill="#3e3f3f"
       style="font-family:sans-serif"
       x="537.1286"
       y="380.36365"
       transform="rotate(-10,537.12861,380.36364)"
       id="text69"><tspan
         x="537.1286"
         dy="0"
         id="tspan67">Government incentives for businesses and households to</tspan><tspan
         x="537.1286"
         dy="1.2em"
         id="tspan68">practice energy-saving methods and upgrade systems,</tspan><tspan
         x="537.1286"
         dy="1.2em"
         id="tspan69">collaboration for policy harmonization</tspan></text>
    <text
       x="564.1286"
       y="380.36365"
       dy="0.050000001em"
       transform="rotate(-120,564.12861,380.36364)"
       font-family="sans-serif"
       fill="#3e3f3f"
       style="font-size:18px;text-anchor:middle"
       id="text70">53.6</text>
    <text
       x="564.1286"
       y="380.36365"
       dy="14.4"
       transform="rotate(-120,564.12861,380.36364)"
       font-family="sans-serif"
       fill="#3e3f3f"
       style="font-size:10.8px;text-anchor:middle"
       id="text71">(18%)</text>
    <text
       text-anchor="end"
       font-size="10.8px"
       fill="#3e3f3f"
       style="font-family:sans-serif"
       x="537.1286"
       y="419.27274"
       transform="rotate(-10,537.12861,419.27273)"
       id="text73"><tspan
         x="537.1286"
         dy="0"
         id="tspan71">Investment in renewable technologies and smart grids,</tspan><tspan
         x="537.1286"
         dy="1.2em"
         id="tspan72">global adoption of energy-efficient standards,</tspan><tspan
         x="537.1286"
         dy="1.2em"
         id="tspan73">sustained public awareness campaigns</tspan></text>
    <text
       x="564.1286"
       y="419.27274"
       dy="0.050000001em"
       transform="rotate(-120,564.12861,419.27273)"
       font-family="sans-serif"
       fill="#3e3f3f"
       style="font-size:18px;text-anchor:middle"
       id="text74">79</text>
    <text
       x="564.1286"
       y="419.27274"
       dy="14.4"
       transform="rotate(-120,564.12861,419.27273)"
       font-family="sans-serif"
       fill="#3e3f3f"
       style="font-size:10.8px;text-anchor:middle"
       id="text75">(26%)</text>
    <text
       text-anchor="end"
       font-size="10.8px"
       fill="#3e3f3f"
       style="font-family:sans-serif"
       x="537.1286"
       y="458.18182"
       transform="rotate(-10,537.12861,458.18182)"
       id="text76"><tspan
         x="537.1286"
         dy="0"
         id="tspan75">Government: Incentives for energy-efficient practices</tspan><tspan
         x="537.1286"
         dy="1.2em"
         id="tspan76">adaptable for businesses and households worldwide.</tspan></text>
    <text
       x="564.1286"
       y="458.18182"
       dy="0.050000001em"
       transform="rotate(-120,564.12861,458.18182)"
       font-family="sans-serif"
       fill="#3e3f3f"
       style="font-size:18px;text-anchor:middle"
       id="text77">50.3</text>
    <text
       x="564.1286"
       y="458.18182"
       dy="14.4"
       transform="rotate(-120,564.12861,458.18182)"
       font-family="sans-serif"
       fill="#3e3f3f"
       style="font-size:10.8px;text-anchor:middle"
       id="text78">(17%)</text>
    <text
       text-anchor="end"
       font-size="10.8px"
       fill="#3e3f3f"
       style="font-family:sans-serif"
       x="537.1286"
       y="497.09091"
       transform="rotate(-10,537.12861,497.09091)"
       id="text79"><tspan
         x="537.1286"
         dy="0"
         id="tspan78">Implement energy conservation practices amongst</tspan><tspan
         x="537.1286"
         dy="1.2em"
         id="tspan79">industries and individuals.</tspan></text>
    <text
       x="564.1286"
       y="497.09091"
       dy="0.050000001em"
       transform="rotate(-120,564.12861,497.09091)"
       font-family="sans-serif"
       fill="#3e3f3f"
       style="font-size:18px;text-anchor:middle"
       id="text80">25</text>
    <text
       x="564.1286"
       y="497.09091"
       dy="14.4"
       transform="rotate(-120,564.12861,497.09091)"
       font-family="sans-serif"
       fill="#3e3f3f"
       style="font-size:10.8px;text-anchor:middle"
       id="text81">(8%)</text>
    <text
       text-anchor="end"
       font-size="10.8px"
       fill="#3e3f3f"
       style="font-family:sans-serif"
       x="537.1286"
       y="536"
       transform="rotate(-10,537.12861,536)"
       id="text82"><tspan
         x="537.1286"
         dy="0"
         id="tspan81">Promote research and development for innovative</tspan><tspan
         x="537.1286"
         dy="1.2em"
         id="tspan82">energy-efficient technologies.</tspan></text>
    <text
       x="564.1286"
       y="536"
       dy="0.050000001em"
       transform="rotate(-120,564.12861,536)"
       font-family="sans-serif"
       fill="#3e3f3f"
       style="font-size:18px;text-anchor:middle"
       id="text83">25</text>
    <text
       x="564.1286"
       y="536"
       dy="14.4"
       transform="rotate(-120,564.12861,536)"
       font-family="sans-serif"
       fill="#3e3f3f"
       style="font-size:10.8px;text-anchor:middle"
       id="text84">(8%)</text>
    <text
       x="1111.6754"
       y="78"
       dy="0.050000001em"
       transform="rotate(-120,1111.6755,78)"
       font-family="sans-serif"
       fill="#3e3f3f"
       style="font-size:18px;text-anchor:middle"
       id="text85">52.9</text>
    <text
       x="1111.6754"
       y="78"
       dy="14.4"
       transform="rotate(-120,1111.6755,78)"
       font-family="sans-serif"
       fill="#3e3f3f"
       style="font-size:10.8px;text-anchor:middle"
       id="text86">(18%)</text>
    <text
       x="1147.9203"
       y="139.14285"
       dy="0.050000001em"
       transform="rotate(-120,1147.9203,139.14286)"
       font-family="sans-serif"
       fill="#3e3f3f"
       style="font-size:18px;text-anchor:middle"
       id="text87">47</text>
    <text
       x="1147.9203"
       y="139.14285"
       dy="14.4"
       transform="rotate(-120,1147.9203,139.14286)"
       font-family="sans-serif"
       fill="#3e3f3f"
       style="font-size:10.8px;text-anchor:middle"
       id="text88">(16%)</text>
    <text
       x="1158.8787"
       y="200.28572"
       dy="0.050000001em"
       transform="rotate(-120,1158.8786,200.28571)"
       font-family="sans-serif"
       fill="#3e3f3f"
       style="font-size:18px;text-anchor:middle"
       id="text89">56.7</text>
    <text
       x="1158.8787"
       y="200.28572"
       dy="14.4"
       transform="rotate(-120,1158.8786,200.28571)"
       font-family="sans-serif"
       fill="#3e3f3f"
       style="font-size:10.8px;text-anchor:middle"
       id="text90">(19%)</text>
    <text
       x="1162.6277"
       y="261.42856"
       dy="0.050000001em"
       transform="rotate(-120,1162.6277,261.42857)"
       font-family="sans-serif"
       fill="#3e3f3f"
       style="font-size:18px;text-anchor:middle"
       id="text91">39.4</text>
    <text
       x="1162.6277"
       y="261.42856"
       dy="14.4"
       transform="rotate(-120,1162.6277,261.42857)"
       font-family="sans-serif"
       fill="#3e3f3f"
       style="font-size:10.8px;text-anchor:middle"
       id="text92">(13%)</text>
    <text
       x="1145.1185"
       y="322.57144"
       dy="0.050000001em"
       transform="rotate(-120,1145.1185,322.57143)"
       font-family="sans-serif"
       fill="#3e3f3f"
       style="font-size:18px;text-anchor:middle"
       id="text93">53.6</text>
    <text
       x="1145.1185"
       y="322.57144"
       dy="14.4"
       transform="rotate(-120,1145.1185,322.57143)"
       font-family="sans-serif"
       fill="#3e3f3f"
       style="font-size:10.8px;text-anchor:middle"
       id="text94">(18%)</text>
    <text
       x="1155.0681"
       y="383.71429"
       dy="0.050000001em"
       transform="rotate(-120,1155.0681,383.71429)"
       font-family="sans-serif"
       fill="#3e3f3f"
       style="font-size:18px;text-anchor:middle"
       id="text95">25.3</text>
    <text
       x="1155.0681"
       y="383.71429"
       dy="14.4"
       transform="rotate(-120,1155.0681,383.71429)"
       font-family="sans-serif"
       fill="#3e3f3f"
       style="font-size:10.8px;text-anchor:middle"
       id="text96">(8%)</text>
    <text
       x="1125.2567"
       y="444.85715"
       dy="0.050000001em"
       transform="rotate(-120,1125.2567,444.85714)"
       font-family="sans-serif"
       fill="#3e3f3f"
       style="font-size:18px;text-anchor:middle"
       id="text97">25</text>
    <text
       x="1125.2567"
       y="444.85715"
       dy="14.4"
       transform="rotate(-120,1125.2567,444.85714)"
       font-family="sans-serif"
       fill="#3e3f3f"
       style="font-size:10.8px;text-anchor:middle"
       id="text98">(8%)</text>
  </g>
</svg>
