<?xml version="1.0" encoding="UTF-8" standalone="no"?>
<svg
   width="547.76349"
   height="1126.1873"
   version="1.1"
   id="svg130"
   sodipodi:docname="diagram_sankey.svg"
   inkscape:version="1.3.2 (091e20e, 2023-11-25)"
   xmlns:inkscape="http://www.inkscape.org/namespaces/inkscape"
   xmlns:sodipodi="http://sodipodi.sourceforge.net/DTD/sodipodi-0.dtd"
   xmlns="http://www.w3.org/2000/svg"
   xmlns:svg="http://www.w3.org/2000/svg">
  <defs
     id="defs130" />
  <sodipodi:namedview
     id="namedview130"
     pagecolor="#ffffff"
     bordercolor="#000000"
     borderopacity="0.25"
     inkscape:showpageshadow="2"
     inkscape:pageopacity="0.0"
     inkscape:pagecheckerboard="0"
     inkscape:deskcolor="#d1d1d1"
     inkscape:zoom="0.28710462"
     inkscape:cx="463.24576"
     inkscape:cy="644.36441"
     inkscape:window-width="1312"
     inkscape:window-height="449"
     inkscape:window-x="0"
     inkscape:window-y="37"
     inkscape:window-maximized="0"
     inkscape:current-layer="svg130" />
  <g
     id="g130"
     transform="rotate(90,180.88497,422.30199)">
    <defs
       id="defs45">
      <marker
         id="marker0"
         markerWidth="6"
         markerHeight="6"
         refX="5"
         refY="3">
        <circle
           cx="3"
           cy="3"
           r="1.62"
           style="fill:#ad305d"
           id="circle1" />
      </marker>
      <marker
         id="marker1"
         markerWidth="6"
         markerHeight="6"
         refX="5"
         refY="3">
        <circle
           cx="3"
           cy="3"
           r="1.62"
           style="fill:#ad305d"
           id="circle2" />
      </marker>
      <marker
         id="marker2"
         markerWidth="6"
         markerHeight="6"
         refX="5"
         refY="3">
        <circle
           cx="3"
           cy="3"
           r="1.62"
           style="fill:#ad305d"
           id="circle3" />
      </marker>
      <marker
         id="marker3"
         markerWidth="6"
         markerHeight="6"
         refX="5"
         refY="3">
        <circle
           cx="3"
           cy="3"
           r="1.62"
           style="fill:#ad305d"
           id="circle4" />
      </marker>
      <marker
         id="marker4"
         markerWidth="6"
         markerHeight="6"
         refX="5"
         refY="3">
        <circle
           cx="3"
           cy="3"
           r="1.62"
           style="fill:#c83f4b"
           id="circle5" />
      </marker>
      <marker
         id="marker5"
         markerWidth="6"
         markerHeight="6"
         refX="5"
         refY="3">
        <circle
           cx="3"
           cy="3"
           r="1.62"
           style="fill:#c83f4b"
           id="circle6" />
      </marker>
      <marker
         id="marker6"
         markerWidth="6"
         markerHeight="6"
         refX="5"
         refY="3">
        <circle
           cx="3"
           cy="3"
           r="1.62"
           style="fill:#c83f4b"
           id="circle7" />
      </marker>
      <marker
         id="marker7"
         markerWidth="6"
         markerHeight="6"
         refX="5"
         refY="3">
        <circle
           cx="3"
           cy="3"
           r="1.62"
           style="fill:#c83f4b"
           id="circle8" />
      </marker>
      <marker
         id="marker8"
         markerWidth="6"
         markerHeight="6"
         refX="5"
         refY="3">
        <circle
           cx="3"
           cy="3"
           r="1.62"
           style="fill:#c83f4b"
           id="circle9" />
      </marker>
      <marker
         id="marker9"
         markerWidth="6"
         markerHeight="6"
         refX="5"
         refY="3">
        <circle
           cx="3"
           cy="3"
           r="1.62"
           style="fill:#8d2369"
           id="circle10" />
      </marker>
      <marker
         id="marker10"
         markerWidth="6"
         markerHeight="6"
         refX="5"
         refY="3">
        <circle
           cx="3"
           cy="3"
           r="1.62"
           style="fill:#8d2369"
           id="circle11" />
      </marker>
      <marker
         id="marker11"
         markerWidth="6"
         markerHeight="6"
         refX="5"
         refY="3">
        <circle
           cx="3"
           cy="3"
           r="1.62"
           style="fill:#8d2369"
           id="circle12" />
      </marker>
      <marker
         id="marker12"
         markerWidth="6"
         markerHeight="6"
         refX="5"
         refY="3">
        <circle
           cx="3"
           cy="3"
           r="1.62"
           style="fill:#f3e35a"
           id="circle13" />
      </marker>
      <marker
         id="marker13"
         markerWidth="6"
         markerHeight="6"
         refX="5"
         refY="3">
        <circle
           cx="3"
           cy="3"
           r="1.62"
           style="fill:#f3e35a"
           id="circle14" />
      </marker>
      <marker
         id="marker14"
         markerWidth="6"
         markerHeight="6"
         refX="5"
         refY="3">
        <circle
           cx="3"
           cy="3"
           r="1.62"
           style="fill:#f3e35a"
           id="circle15" />
      </marker>
      <marker
         id="marker15"
         markerWidth="6"
         markerHeight="6"
         refX="5"
         refY="3">
        <circle
           cx="3"
           cy="3"
           r="1.62"
           style="fill:#f3e35a"
           id="circle16" />
      </marker>
      <marker
         id="marker16"
         markerWidth="6"
         markerHeight="6"
         refX="5"
         refY="3">
        <circle
           cx="3"
           cy="3"
           r="1.62"
           style="fill:#f3e35a"
           id="circle17" />
      </marker>
      <marker
         id="marker17"
         markerWidth="6"
         markerHeight="6"
         refX="5"
         refY="3">
        <circle
           cx="3"
           cy="3"
           r="1.62"
           style="fill:#fbbc21"
           id="circle18" />
      </marker>
      <marker
         id="marker18"
         markerWidth="6"
         markerHeight="6"
         refX="5"
         refY="3">
        <circle
           cx="3"
           cy="3"
           r="1.62"
           style="fill:#fbbc21"
           id="circle19" />
      </marker>
      <marker
         id="marker19"
         markerWidth="6"
         markerHeight="6"
         refX="5"
         refY="3">
        <circle
           cx="3"
           cy="3"
           r="1.62"
           style="fill:#fbbc21"
           id="circle20" />
      </marker>
      <marker
         id="marker20"
         markerWidth="6"
         markerHeight="6"
         refX="5"
         refY="3">
        <circle
           cx="3"
           cy="3"
           r="1.62"
           style="fill:#fbbc21"
           id="circle21" />
      </marker>
      <marker
         id="marker21"
         markerWidth="6"
         markerHeight="6"
         refX="5"
         refY="3">
        <circle
           cx="3"
           cy="3"
           r="1.62"
           style="fill:#fcffa4"
           id="circle22" />
      </marker>
      <marker
         id="marker22"
         markerWidth="6"
         markerHeight="6"
         refX="5"
         refY="3">
        <circle
           cx="3"
           cy="3"
           r="1.62"
           style="fill:#fcffa4"
           id="circle23" />
      </marker>
      <marker
         id="marker23"
         markerWidth="6"
         markerHeight="6"
         refX="5"
         refY="3">
        <circle
           cx="3"
           cy="3"
           r="1.62"
           style="fill:#fcffa4"
           id="circle24" />
      </marker>
      <marker
         id="marker24"
         markerWidth="6"
         markerHeight="6"
         refX="5"
         refY="3">
        <circle
           cx="3"
           cy="3"
           r="1.62"
           style="fill:#fcffa4"
           id="circle25" />
      </marker>
      <marker
         id="marker25"
         markerWidth="6"
         markerHeight="6"
         refX="5"
         refY="3">
        <circle
           cx="3"
           cy="3"
           r="1.62"
           style="fill:#fcffa4"
           id="circle26" />
      </marker>
      <marker
         id="marker26"
         markerWidth="6"
         markerHeight="6"
         refX="5"
         refY="3">
        <circle
           cx="3"
           cy="3"
           r="1.62"
           style="fill:#fcffa4"
           id="circle27" />
      </marker>
      <marker
         id="marker27"
         markerWidth="6"
         markerHeight="6"
         refX="5"
         refY="3">
        <circle
           cx="3"
           cy="3"
           r="1.62"
           style="fill:#6d186e"
           id="circle28" />
      </marker>
      <marker
         id="marker28"
         markerWidth="6"
         markerHeight="6"
         refX="5"
         refY="3">
        <circle
           cx="3"
           cy="3"
           r="1.62"
           style="fill:#6d186e"
           id="circle29" />
      </marker>
      <marker
         id="marker29"
         markerWidth="6"
         markerHeight="6"
         refX="5"
         refY="3">
        <circle
           cx="3"
           cy="3"
           r="1.62"
           style="fill:#e15635"
           id="circle30" />
      </marker>
      <marker
         id="marker30"
         markerWidth="6"
         markerHeight="6"
         refX="5"
         refY="3">
        <circle
           cx="3"
           cy="3"
           r="1.62"
           style="fill:#e15635"
           id="circle31" />
      </marker>
      <marker
         id="marker31"
         markerWidth="6"
         markerHeight="6"
         refX="5"
         refY="3">
        <circle
           cx="3"
           cy="3"
           r="1.62"
           style="fill:#e15635"
           id="circle32" />
      </marker>
      <marker
         id="marker32"
         markerWidth="6"
         markerHeight="6"
         refX="5"
         refY="3">
        <circle
           cx="3"
           cy="3"
           r="1.62"
           style="fill:#e15635"
           id="circle33" />
      </marker>
      <marker
         id="marker33"
         markerWidth="6"
         markerHeight="6"
         refX="5"
         refY="3">
        <circle
           cx="3"
           cy="3"
           r="1.62"
           style="fill:#e15635"
           id="circle34" />
      </marker>
      <marker
         id="marker34"
         markerWidth="6"
         markerHeight="6"
         refX="5"
         refY="3">
        <circle
           cx="3"
           cy="3"
           r="1.62"
           style="fill:#e15635"
           id="circle35" />
      </marker>
      <marker
         id="marker35"
         markerWidth="6"
         markerHeight="6"
         refX="5"
         refY="3">
        <circle
           cx="3"
           cy="3"
           r="1.62"
           style="fill:#fb9606"
           id="circle36" />
      </marker>
      <marker
         id="marker36"
         markerWidth="6"
         markerHeight="6"
         refX="5"
         refY="3">
        <circle
           cx="3"
           cy="3"
           r="1.62"
           style="fill:#fb9606"
           id="circle37" />
      </marker>
      <marker
         id="marker37"
         markerWidth="6"
         markerHeight="6"
         refX="5"
         refY="3">
        <circle
           cx="3"
           cy="3"
           r="1.62"
           style="fill:#fb9606"
           id="circle38" />
      </marker>
      <marker
         id="marker38"
         markerWidth="6"
         markerHeight="6"
         refX="5"
         refY="3">
        <circle
           cx="3"
           cy="3"
           r="1.62"
           style="fill:#fb9606"
           id="circle39" />
      </marker>
      <marker
         id="marker39"
         markerWidth="6"
         markerHeight="6"
         refX="5"
         refY="3">
        <circle
           cx="3"
           cy="3"
           r="1.62"
           style="fill:#fb9606"
           id="circle40" />
      </marker>
      <marker
         id="marker40"
         markerWidth="6"
         markerHeight="6"
         refX="5"
         refY="3">
        <circle
           cx="3"
           cy="3"
           r="1.62"
           style="fill:#f2741c"
           id="circle41" />
      </marker>
      <marker
         id="marker41"
         markerWidth="6"
         markerHeight="6"
         refX="5"
         refY="3">
        <circle
           cx="3"
           cy="3"
           r="1.62"
           style="fill:#f2741c"
           id="circle42" />
      </marker>
      <marker
         id="marker42"
         markerWidth="6"
         markerHeight="6"
         refX="5"
         refY="3">
        <circle
           cx="3"
           cy="3"
           r="1.62"
           style="fill:#f2741c"
           id="circle43" />
      </marker>
      <marker
         id="marker43"
         markerWidth="6"
         markerHeight="6"
         refX="5"
         refY="3">
        <circle
           cx="3"
           cy="3"
           r="1.62"
           style="fill:#f2741c"
           id="circle44" />
      </marker>
      <marker
         id="marker44"
         markerWidth="6"
         markerHeight="6"
         refX="5"
         refY="3">
        <circle
           cx="3"
           cy="3"
           r="1.62"
           style="fill:#f2741c"
           id="circle45" />
      </marker>
    </defs>
    <path
       class="link"
       fill="none"
       stroke="#ad305d"
       stroke-width="10.4642"
       marker-end="url(#marker0)"
       d="m 861.775,368.7 h -38.119 c -38.118,0 -114.355,0 -154.595,0 -40.239,0 -44.481,0 -48.723,-1.95 -4.242,-1.95 -8.484,-5.85 -12.725,-7.8 C 603.371,357 599.129,357 597.008,357 h -2.121"
       style="stroke-linecap:round;stroke-opacity:0.7"
       id="path45" />
    <path
       class="link"
       fill="none"
       stroke="#ad305d"
       stroke-width="10.4642"
       marker-end="url(#marker1)"
       d="m 861.775,368.7 h -38.119 c -38.118,0 -114.355,0 -154.595,0 -40.239,0 -44.481,0 -48.723,-18.061 -4.242,-18.061 -8.484,-54.183 -12.725,-72.245 -4.242,-18.061 -8.484,-18.061 -10.605,-18.061 h -2.121"
       style="stroke-linecap:round;stroke-opacity:0.7"
       id="path46" />
    <path
       class="link"
       fill="none"
       stroke="#ad305d"
       stroke-width="10.4642"
       marker-end="url(#marker2)"
       d="m 861.775,368.7 h -38.119 c -38.118,0 -114.355,0 -154.595,0 -40.239,0 -44.481,0 -48.723,-10.006 -4.242,-10.005 -8.484,-30.016 -12.725,-40.022 -4.242,-10.005 -8.484,-10.005 -10.605,-10.005 h -2.121"
       style="stroke-linecap:round;stroke-opacity:0.7"
       id="path47" />
    <path
       class="link"
       fill="none"
       stroke="#ad305d"
       stroke-width="10.4642"
       marker-end="url(#marker3)"
       d="m 861.775,368.7 h -38.119 c -38.118,0 -114.355,0 -154.595,0 -40.239,0 -44.481,0 -48.723,14.161 -4.242,14.161 -8.484,42.483 -12.725,56.645 -4.242,14.161 -8.484,14.161 -10.605,14.161 h -2.121"
       style="stroke-linecap:round;stroke-opacity:0.7"
       id="path48" />
    <path
       class="link"
       fill="none"
       stroke="#c83f4b"
       stroke-width="9.61769"
       marker-end="url(#marker4)"
       d="m 864.563,324.6 h -47.219 c -47.22,0 -141.659,0 -191.008,0 -49.35,0 -53.61,0 -57.87,-10.711 -4.261,-10.711 -8.521,-32.133 -12.781,-42.845 -4.261,-10.711 -8.521,-10.711 -10.651,-10.711 h -2.13"
       style="stroke-linecap:round;stroke-opacity:0.7"
       id="path49" />
    <path
       class="link"
       fill="none"
       stroke="#c83f4b"
       stroke-width="9.61769"
       marker-end="url(#marker5)"
       d="m 864.563,324.6 h -47.219 c -47.22,0 -141.659,0 -191.008,0 -49.35,0 -53.61,0 -57.87,-2.656 -4.261,-2.655 -8.521,-7.966 -12.781,-10.622 -4.261,-2.655 -8.521,-2.655 -10.651,-2.655 h -2.13"
       style="stroke-linecap:round;stroke-opacity:0.7"
       id="path50" />
    <path
       class="link"
       fill="none"
       stroke="#c83f4b"
       stroke-width="9.61769"
       marker-end="url(#marker6)"
       d="m 864.563,324.6 h -47.219 c -47.22,0 -141.659,0 -191.008,0 -49.35,0 -53.61,0 -57.87,5.4 -4.261,5.4 -8.521,16.2 -12.781,21.6 -4.261,5.4 -8.521,5.4 -10.651,5.4 h -2.13"
       style="stroke-linecap:round;stroke-opacity:0.7"
       id="path51" />
    <path
       class="link"
       fill="none"
       stroke="#c83f4b"
       stroke-width="9.61769"
       marker-end="url(#marker7)"
       d="m 864.563,324.6 h -47.219 c -47.22,0 -141.659,0 -191.008,0 -49.35,0 -53.61,0 -57.87,29.567 -4.261,29.566 -8.521,88.7 -12.781,118.266 C 551.424,502 547.164,502 545.034,502 h -2.13"
       style="stroke-linecap:round;stroke-opacity:0.7"
       id="path52" />
    <path
       class="link"
       fill="none"
       stroke="#c83f4b"
       stroke-width="9.61769"
       marker-end="url(#marker8)"
       d="m 864.563,324.6 h -47.219 c -47.22,0 -141.659,0 -191.008,0 -49.35,0 -53.61,0 -57.87,21.511 -4.261,21.511 -8.521,64.533 -12.781,86.045 -4.261,21.511 -8.521,21.511 -10.651,21.511 h -2.13"
       style="stroke-linecap:round;stroke-opacity:0.7"
       id="path53" />
    <path
       class="link"
       fill="none"
       stroke="#8d2369"
       stroke-width="11.811"
       marker-end="url(#marker9)"
       d="m 857.339,412.8 h -29.02 c -29.02,0 -87.06,0 -118.186,0 -31.126,0 -35.339,0 -39.551,-9.3 -4.213,-9.3 -8.425,-27.9 -12.638,-37.2 -4.212,-9.3 -8.424,-9.3 -10.531,-9.3 h -2.106"
       style="stroke-linecap:round;stroke-opacity:0.7"
       id="path54" />
    <path
       class="link"
       fill="none"
       stroke="#8d2369"
       stroke-width="11.811"
       marker-end="url(#marker10)"
       d="m 857.339,412.8 h -29.02 c -29.02,0 -87.06,0 -118.186,0 -31.126,0 -35.339,0 -39.551,-17.356 -4.213,-17.355 -8.425,-52.066 -12.638,-69.422 -4.212,-17.355 -8.424,-17.355 -10.531,-17.355 h -2.106"
       style="stroke-linecap:round;stroke-opacity:0.7"
       id="path55" />
    <path
       class="link"
       fill="none"
       stroke="#8d2369"
       stroke-width="11.811"
       marker-end="url(#marker11)"
       d="m 857.339,412.8 h -29.02 c -29.02,0 -87.06,0 -118.186,0 -31.126,0 -35.339,0 -39.551,6.811 -4.213,6.811 -8.425,20.433 -12.638,27.245 -4.212,6.811 -8.424,6.811 -10.531,6.811 h -2.106"
       style="stroke-linecap:round;stroke-opacity:0.7"
       id="path56" />
    <path
       class="link"
       fill="none"
       stroke="#f3e35a"
       stroke-width="11.0905"
       marker-end="url(#marker12)"
       d="M 859.712,104.1 H 768.51 c -91.201,0 -273.604,0 -366.919,0 -93.316,0 -97.544,0 -101.772,17.983 -4.228,17.984 -8.457,53.95 -12.685,71.934 C 282.906,212 278.678,212 276.564,212 h -2.114"
       style="stroke-linecap:round;stroke-opacity:0.7"
       id="path57" />
    <path
       class="link"
       fill="none"
       stroke="#f3e35a"
       stroke-width="11.0905"
       marker-end="url(#marker13)"
       d="M 859.712,104.1 H 768.51 c -91.201,0 -273.604,0 -366.919,0 -93.316,0 -97.544,0 -101.772,26.039 -4.228,26.039 -8.457,78.117 -12.685,104.155 -4.228,26.039 -8.456,26.039 -10.57,26.039 h -2.114"
       style="stroke-linecap:round;stroke-opacity:0.7"
       id="path58" />
    <path
       class="link"
       fill="none"
       stroke="#f3e35a"
       stroke-width="11.0905"
       marker-end="url(#marker14)"
       d="M 859.712,104.1 H 768.51 c -91.201,0 -273.604,0 -366.919,0 -93.316,0 -97.544,0 -101.772,34.094 -4.228,34.095 -8.457,102.284 -12.685,136.378 -4.228,34.095 -8.456,34.095 -10.57,34.095 h -2.114"
       style="stroke-linecap:round;stroke-opacity:0.7"
       id="path59" />
    <path
       class="link"
       fill="none"
       stroke="#f3e35a"
       stroke-width="11.0905"
       marker-end="url(#marker15)"
       d="M 859.712,104.1 H 768.51 c -91.201,0 -273.604,0 -366.919,0 -93.316,0 -97.544,0 -101.772,42.15 -4.228,42.15 -8.457,126.45 -12.685,168.6 C 282.906,357 278.678,357 276.564,357 h -2.114"
       style="stroke-linecap:round;stroke-opacity:0.7"
       id="path60" />
    <path
       class="link"
       fill="none"
       stroke="#f3e35a"
       stroke-width="11.0905"
       marker-end="url(#marker16)"
       d="M 859.712,104.1 H 768.51 c -91.201,0 -273.604,0 -366.919,0 -93.316,0 -97.544,0 -101.772,58.261 -4.228,58.261 -8.457,174.783 -12.685,233.045 -4.228,58.261 -8.456,58.261 -10.57,58.261 h -2.114"
       style="stroke-linecap:round;stroke-opacity:0.7"
       id="path61" />
    <path
       class="link"
       fill="none"
       stroke="#fbbc21"
       stroke-width="10.504"
       marker-end="url(#marker17)"
       d="m 861.644,148.2 h -82.583 c -82.583,0 -247.749,0 -332.452,0 -84.704,0 -88.945,0 -93.186,34.8 -4.241,34.8 -8.482,104.4 -12.723,139.2 -4.241,34.8 -8.482,34.8 -10.602,34.8 h -2.121"
       style="stroke-linecap:round;stroke-opacity:0.7"
       id="path62" />
    <path
       class="link"
       fill="none"
       stroke="#fbbc21"
       stroke-width="10.504"
       marker-end="url(#marker18)"
       d="m 861.644,148.2 h -82.583 c -82.583,0 -247.749,0 -332.452,0 -84.704,0 -88.945,0 -93.186,26.744 -4.241,26.745 -8.482,80.234 -12.723,106.978 -4.241,26.745 -8.482,26.745 -10.602,26.745 h -2.121"
       style="stroke-linecap:round;stroke-opacity:0.7"
       id="path63" />
    <path
       class="link"
       fill="none"
       stroke="#fbbc21"
       stroke-width="10.504"
       marker-end="url(#marker19)"
       d="m 861.644,148.2 h -82.583 c -82.583,0 -247.749,0 -332.452,0 -84.704,0 -88.945,0 -93.186,50.911 -4.241,50.911 -8.482,152.733 -12.723,203.645 -4.241,50.911 -8.482,50.911 -10.602,50.911 h -2.121"
       style="stroke-linecap:round;stroke-opacity:0.7"
       id="path64" />
    <path
       class="link"
       fill="none"
       stroke="#fbbc21"
       stroke-width="10.504"
       marker-end="url(#marker20)"
       d="m 861.644,148.2 h -82.583 c -82.583,0 -247.749,0 -332.452,0 -84.704,0 -88.945,0 -93.186,10.633 -4.241,10.634 -8.482,31.9 -12.723,42.534 C 336.459,212 332.218,212 330.098,212 h -2.121"
       style="stroke-linecap:round;stroke-opacity:0.7"
       id="path65" />
    <path
       class="link"
       fill="none"
       stroke="#fcffa4"
       stroke-width="9.13783"
       marker-end="url(#marker21)"
       d="M 866.144,60 H 765.067 C 663.99,60 461.835,60 358.623,60 255.41,60 251.139,60 246.869,85.333 c -4.271,25.334 -8.542,76 -12.813,101.334 C 229.786,212 225.515,212 223.379,212 h -2.135"
       style="stroke-linecap:round;stroke-opacity:0.7"
       id="path66" />
    <path
       class="link"
       fill="none"
       stroke="#fcffa4"
       stroke-width="9.13783"
       marker-end="url(#marker22)"
       d="M 866.144,60 H 765.067 C 663.99,60 461.835,60 358.623,60 255.41,60 251.139,60 246.869,93.389 c -4.271,33.389 -8.542,100.167 -12.813,133.555 -4.27,33.389 -8.541,33.389 -10.677,33.389 h -2.135"
       style="stroke-linecap:round;stroke-opacity:0.7"
       id="path67" />
    <path
       class="link"
       fill="none"
       stroke="#fcffa4"
       stroke-width="9.13783"
       marker-end="url(#marker23)"
       d="M 866.144,60 H 765.067 c -101.077,0 -303.232,0 -406.444,0 -103.213,0 -107.484,0 -111.754,41.444 -4.271,41.445 -8.542,124.334 -12.813,165.778 -4.27,41.445 -8.541,41.445 -10.677,41.445 h -2.135"
       style="stroke-linecap:round;stroke-opacity:0.7"
       id="path68" />
    <path
       class="link"
       fill="none"
       stroke="#fcffa4"
       stroke-width="9.13783"
       marker-end="url(#marker24)"
       d="M 866.144,60 H 765.067 C 663.99,60 461.835,60 358.623,60 255.41,60 251.139,60 246.869,109.5 242.598,159 238.327,258 234.056,307.5 229.786,357 225.515,357 223.379,357 h -2.135"
       style="stroke-linecap:round;stroke-opacity:0.7"
       id="path69" />
    <path
       class="link"
       fill="none"
       stroke="#fcffa4"
       stroke-width="9.13783"
       marker-end="url(#marker25)"
       d="M 866.144,60 H 765.067 c -101.077,0 -303.232,0 -406.444,0 -103.213,0 -107.484,0 -111.754,57.556 -4.271,57.555 -8.542,172.666 -12.813,230.222 -4.27,57.555 -8.541,57.555 -10.677,57.555 h -2.135"
       style="stroke-linecap:round;stroke-opacity:0.7"
       id="path70" />
    <path
       class="link"
       fill="none"
       stroke="#fcffa4"
       stroke-width="9.13783"
       marker-end="url(#marker26)"
       d="M 866.144,60 H 765.067 c -101.077,0 -303.232,0 -406.444,0 -103.213,0 -107.484,0 -111.754,65.611 -4.271,65.611 -8.542,196.833 -12.813,262.445 -4.27,65.611 -8.541,65.611 -10.677,65.611 h -2.135"
       style="stroke-linecap:round;stroke-opacity:0.7"
       id="path71" />
    <path
       class="link"
       fill="none"
       stroke="#6d186e"
       stroke-width="10.7858"
       marker-end="url(#marker27)"
       d="m 860.716,456.9 h -20.293 c -20.292,0 -60.877,0 -83.287,0 -22.41,0 -26.644,0 -30.879,-24.706 -4.235,-24.705 -8.47,-74.116 -12.705,-98.822 -4.235,-24.705 -8.469,-24.705 -10.587,-24.705 h -2.117"
       style="stroke-linecap:round;stroke-opacity:0.7"
       id="path72" />
    <path
       class="link"
       fill="none"
       stroke="#6d186e"
       stroke-width="10.7858"
       marker-end="url(#marker28)"
       d="m 860.716,456.9 h -20.293 c -20.292,0 -60.877,0 -83.287,0 -22.41,0 -26.644,0 -30.879,-0.539 -4.235,-0.539 -8.47,-1.617 -12.705,-2.155 -4.235,-0.539 -8.469,-0.539 -10.587,-0.539 h -2.117"
       style="stroke-linecap:round;stroke-opacity:0.7"
       id="path73" />
    <path
       class="link"
       fill="none"
       stroke="#e15635"
       stroke-width="8.02081"
       marker-end="url(#marker29)"
       d="M 869.823,280.5 H 813.21 c -56.614,0 -169.841,0 -228.602,0 -58.761,0 -63.057,0 -67.352,-11.417 -4.295,-11.416 -8.59,-34.25 -12.885,-45.666 C 500.076,212 495.781,212 493.633,212 h -2.148"
       style="stroke-linecap:round;stroke-opacity:0.7"
       id="path74" />
    <path
       class="link"
       fill="none"
       stroke="#e15635"
       stroke-width="8.02081"
       marker-end="url(#marker30)"
       d="M 869.823,280.5 H 813.21 c -56.614,0 -169.841,0 -228.602,0 -58.761,0 -63.057,0 -67.352,-3.361 -4.295,-3.361 -8.59,-10.083 -12.885,-13.445 -4.295,-3.361 -8.59,-3.361 -10.738,-3.361 h -2.148"
       style="stroke-linecap:round;stroke-opacity:0.7"
       id="path75" />
    <path
       class="link"
       fill="none"
       stroke="#e15635"
       stroke-width="8.02081"
       marker-end="url(#marker31)"
       d="M 869.823,280.5 H 813.21 c -56.614,0 -169.841,0 -228.602,0 -58.761,0 -63.057,0 -67.352,4.694 -4.295,4.695 -8.59,14.084 -12.885,18.778 -4.295,4.695 -8.59,4.695 -10.738,4.695 h -2.148"
       style="stroke-linecap:round;stroke-opacity:0.7"
       id="path76" />
    <path
       class="link"
       fill="none"
       stroke="#e15635"
       stroke-width="8.02081"
       marker-end="url(#marker32)"
       d="M 869.823,280.5 H 813.21 c -56.614,0 -169.841,0 -228.602,0 -58.761,0 -63.057,0 -67.352,12.75 -4.295,12.75 -8.59,38.25 -12.885,51 C 500.076,357 495.781,357 493.633,357 h -2.148"
       style="stroke-linecap:round;stroke-opacity:0.7"
       id="path77" />
    <path
       class="link"
       fill="none"
       stroke="#e15635"
       stroke-width="8.02081"
       marker-end="url(#marker33)"
       d="M 869.823,280.5 H 813.21 c -56.614,0 -169.841,0 -228.602,0 -58.761,0 -63.057,0 -67.352,36.917 -4.295,36.916 -8.59,110.75 -12.885,147.666 C 500.076,502 495.781,502 493.633,502 h -2.148"
       style="stroke-linecap:round;stroke-opacity:0.7"
       id="path78" />
    <path
       class="link"
       fill="none"
       stroke="#e15635"
       stroke-width="8.02081"
       marker-end="url(#marker34)"
       d="M 869.823,280.5 H 813.21 c -56.614,0 -169.841,0 -228.602,0 -58.761,0 -63.057,0 -67.352,28.861 -4.295,28.861 -8.59,86.583 -12.885,115.445 -4.295,28.861 -8.59,28.861 -10.738,28.861 h -2.148"
       style="stroke-linecap:round;stroke-opacity:0.7"
       id="path79" />
    <path
       class="link"
       fill="none"
       stroke="#fb9606"
       stroke-width="8.27647"
       marker-end="url(#marker35)"
       d="m 868.981,192.3 h -74.532 c -74.533,0 -223.599,0 -300.277,0 -76.677,0 -80.967,0 -85.256,11.339 -4.29,11.339 -8.579,34.017 -12.869,45.355 -4.29,11.339 -8.579,11.339 -10.724,11.339 h -2.145"
       style="stroke-linecap:round;stroke-opacity:0.7"
       id="path80" />
    <path
       class="link"
       fill="none"
       stroke="#fb9606"
       stroke-width="8.27647"
       marker-end="url(#marker36)"
       d="m 868.981,192.3 h -74.532 c -74.533,0 -223.599,0 -300.277,0 -76.677,0 -80.967,0 -85.256,19.394 -4.29,19.395 -8.579,58.184 -12.869,77.578 -4.29,19.395 -8.579,19.395 -10.724,19.395 h -2.145"
       style="stroke-linecap:round;stroke-opacity:0.7"
       id="path81" />
    <path
       class="link"
       fill="none"
       stroke="#fb9606"
       stroke-width="8.27647"
       marker-end="url(#marker37)"
       d="m 868.981,192.3 h -74.532 c -74.533,0 -223.599,0 -300.277,0 -76.677,0 -80.967,0 -85.256,27.45 -4.29,27.45 -8.579,82.35 -12.869,109.8 C 391.757,357 387.468,357 385.323,357 h -2.145"
       style="stroke-linecap:round;stroke-opacity:0.7"
       id="path82" />
    <path
       class="link"
       fill="none"
       stroke="#fb9606"
       stroke-width="8.27647"
       marker-end="url(#marker38)"
       d="m 868.981,192.3 h -74.532 c -74.533,0 -223.599,0 -300.277,0 -76.677,0 -80.967,0 -85.256,35.506 -4.29,35.505 -8.579,106.516 -12.869,142.022 -4.29,35.505 -8.579,35.505 -10.724,35.505 h -2.145"
       style="stroke-linecap:round;stroke-opacity:0.7"
       id="path83" />
    <path
       class="link"
       fill="none"
       stroke="#fb9606"
       stroke-width="8.27647"
       marker-end="url(#marker39)"
       d="m 868.981,192.3 h -74.532 c -74.533,0 -223.599,0 -300.277,0 -76.677,0 -80.967,0 -85.256,43.561 -4.29,43.561 -8.579,130.683 -12.869,174.245 -4.29,43.561 -8.579,43.561 -10.724,43.561 h -2.145"
       style="stroke-linecap:round;stroke-opacity:0.7"
       id="path84" />
    <path
       class="link"
       fill="none"
       stroke="#f2741c"
       stroke-width="9.61769"
       marker-end="url(#marker40)"
       d="m 864.563,236.4 h -65.089 c -65.09,0 -195.268,0 -262.488,0 -67.22,0 -71.48,0 -75.74,-4.067 -4.261,-4.066 -8.521,-12.2 -12.781,-16.266 C 444.204,212 439.944,212 437.814,212 h -2.13"
       style="stroke-linecap:round;stroke-opacity:0.7"
       id="path85" />
    <path
       class="link"
       fill="none"
       stroke="#f2741c"
       stroke-width="9.61769"
       marker-end="url(#marker41)"
       d="m 864.563,236.4 h -65.089 c -65.09,0 -195.268,0 -262.488,0 -67.22,0 -71.48,0 -75.74,12.044 -4.261,12.045 -8.521,36.134 -12.781,48.178 -4.261,12.045 -8.521,12.045 -10.651,12.045 h -2.13"
       style="stroke-linecap:round;stroke-opacity:0.7"
       id="path86" />
    <path
       class="link"
       fill="none"
       stroke="#f2741c"
       stroke-width="9.61769"
       marker-end="url(#marker42)"
       d="m 864.563,236.4 h -65.089 c -65.09,0 -195.268,0 -262.488,0 -67.22,0 -71.48,0 -75.74,20.1 -4.261,20.1 -8.521,60.3 -12.781,80.4 -4.261,20.1 -8.521,20.1 -10.651,20.1 h -2.13"
       style="stroke-linecap:round;stroke-opacity:0.7"
       id="path87" />
    <path
       class="link"
       fill="none"
       stroke="#f2741c"
       stroke-width="9.61769"
       marker-end="url(#marker43)"
       d="m 864.563,236.4 h -65.089 c -65.09,0 -195.268,0 -262.488,0 -67.22,0 -71.48,0 -75.74,28.156 -4.261,28.155 -8.521,84.466 -12.781,112.622 -4.261,28.155 -8.521,28.155 -10.651,28.155 h -2.13"
       style="stroke-linecap:round;stroke-opacity:0.7"
       id="path88" />
    <path
       class="link"
       fill="none"
       stroke="#f2741c"
       stroke-width="9.61769"
       marker-end="url(#marker44)"
       d="m 864.563,236.4 h -65.089 c -65.09,0 -195.268,0 -262.488,0 -67.22,0 -71.48,0 -75.74,36.211 -4.261,36.211 -8.521,108.633 -12.781,144.845 -4.261,36.211 -8.521,36.211 -10.651,36.211 h -2.13"
       style="stroke-linecap:round;stroke-opacity:0.7"
       id="path89" />
    <text
       text-anchor="end"
       font-size="10.8px"
       fill="#3e3f3f"
       style="font-family:sans-serif"
       x="203.24405"
       y="212"
       transform="rotate(-20,203.24405,212)"
       id="text90"><tspan
         x="203.24405"
         dy="0"
         id="tspan89" /><tspan
         x="203.24405"
         dy="1.2em"
         id="tspan90">誠実な謝罪と問題解決に全力を尽くし、再発防止や改善策の実施を積極的に行うことが重要です。</tspan></text>
    <text
       x="230.24405"
       y="212"
       dy="0.050000001em"
       font-family="sans-serif"
       fill="#3e3f3f"
       style="font-size:18px;text-anchor:middle"
       id="text91">473.7</text>
    <text
       x="230.24405"
       y="212"
       dy="14.4"
       font-family="sans-serif"
       fill="#3e3f3f"
       style="font-size:10.8px;text-anchor:middle"
       id="text92">(47%)</text>
    <text
       text-anchor="end"
       font-size="10.8px"
       fill="#3e3f3f"
       style="font-family:sans-serif"
       x="203.24405"
       y="260.33334"
       transform="rotate(-20,203.24405,260.33333)"
       id="text93"><tspan
         x="203.24405"
         dy="0"
         id="tspan92" /><tspan
         x="203.24405"
         dy="1.2em"
         id="tspan93">SNS上でのフォロワーやファンとのコミュニケーションを大切にし、信頼回復に努める。</tspan></text>
    <text
       x="230.24405"
       y="260.33334"
       dy="0.050000001em"
       font-family="sans-serif"
       fill="#3e3f3f"
       style="font-size:18px;text-anchor:middle"
       id="text94">541.3</text>
    <text
       x="230.24405"
       y="260.33334"
       dy="14.4"
       font-family="sans-serif"
       fill="#3e3f3f"
       style="font-size:10.8px;text-anchor:middle"
       id="text95">(54%)</text>
    <text
       text-anchor="end"
       font-size="10.8px"
       fill="#3e3f3f"
       style="font-family:sans-serif"
       x="203.24405"
       y="308.66666"
       transform="rotate(-20,203.24405,308.66667)"
       id="text96"><tspan
         x="203.24405"
         dy="0"
         id="tspan95" /><tspan
         x="203.24405"
         dy="1.2em"
         id="tspan96">冷静に事態を把握し、今後同様の事態を防ぐために反省と改善策を示すことが重要です。</tspan></text>
    <text
       x="230.24405"
       y="308.66666"
       dy="0.050000001em"
       font-family="sans-serif"
       fill="#3e3f3f"
       style="font-size:18px;text-anchor:middle"
       id="text97">1000</text>
    <text
       x="230.24405"
       y="308.66666"
       dy="14.4"
       font-family="sans-serif"
       fill="#3e3f3f"
       style="font-size:10.8px;text-anchor:middle"
       id="text98">(100%)</text>
    <text
       text-anchor="end"
       font-size="10.8px"
       fill="#3e3f3f"
       style="font-family:sans-serif"
       x="203.24405"
       y="357"
       transform="rotate(-20,203.24405,357)"
       id="text99"><tspan
         x="203.24405"
         dy="0"
         id="tspan98" /><tspan
         x="203.24405"
         dy="1.2em"
         id="tspan99">まず謝罪を投稿し、自身の誤解や意図を説明して真摯に対応するべきです。</tspan></text>
    <text
       x="230.24405"
       y="357"
       dy="0.050000001em"
       font-family="sans-serif"
       fill="#3e3f3f"
       style="font-size:18px;text-anchor:middle"
       id="text100">883.7</text>
    <text
       x="230.24405"
       y="357"
       dy="14.4"
       font-family="sans-serif"
       fill="#3e3f3f"
       style="font-size:10.8px;text-anchor:middle"
       id="text101">(88%)</text>
    <text
       text-anchor="end"
       font-size="10.8px"
       fill="#3e3f3f"
       style="font-family:sans-serif"
       x="203.24405"
       y="405.33334"
       transform="rotate(-20,203.24405,405.33333)"
       id="text102"><tspan
         x="203.24405"
         dy="0"
         id="tspan101" /><tspan
         x="203.24405"
         dy="1.2em"
         id="tspan102">批判やフィードバックに対してSNS上で感情的にならず、冷静かつポジティブに対応する。</tspan></text>
    <text
       x="230.24405"
       y="405.33334"
       dy="0.050000001em"
       font-family="sans-serif"
       fill="#3e3f3f"
       style="font-size:18px;text-anchor:middle"
       id="text103">244.5</text>
    <text
       x="230.24405"
       y="405.33334"
       dy="14.4"
       font-family="sans-serif"
       fill="#3e3f3f"
       style="font-size:10.8px;text-anchor:middle"
       id="text104">(24%)</text>
    <text
       text-anchor="end"
       font-size="10.8px"
       fill="#3e3f3f"
       style="font-family:sans-serif"
       x="203.24405"
       y="453.66666"
       transform="rotate(-20,203.24405,453.66667)"
       id="text105"><tspan
         x="203.24405"
         dy="0"
         id="tspan104" /><tspan
         x="203.24405"
         dy="1.2em"
         id="tspan105">謝罪や誤解を解く説明を行い、透明性を保つことが大切です。</tspan></text>
    <text
       x="230.24405"
       y="453.66666"
       dy="0.050000001em"
       font-family="sans-serif"
       fill="#3e3f3f"
       style="font-size:18px;text-anchor:middle"
       id="text106">1000</text>
    <text
       x="230.24405"
       y="453.66666"
       dy="14.4"
       font-family="sans-serif"
       fill="#3e3f3f"
       style="font-size:10.8px;text-anchor:middle"
       id="text107">(100%)</text>
    <text
       text-anchor="end"
       font-size="10.8px"
       fill="#3e3f3f"
       style="font-family:sans-serif"
       x="203.24405"
       y="502"
       transform="rotate(-20,203.24405,502)"
       id="text108"><tspan
         x="203.24405"
         dy="0"
         id="tspan107" /><tspan
         x="203.24405"
         dy="1.2em"
         id="tspan108">直接対応し、関係修復や誤解解消に努めるべきです。</tspan></text>
    <text
       x="230.24405"
       y="502"
       dy="0.050000001em"
       font-family="sans-serif"
       fill="#3e3f3f"
       style="font-size:18px;text-anchor:middle"
       id="text109">156.8</text>
    <text
       x="230.24405"
       y="502"
       dy="14.4"
       font-family="sans-serif"
       fill="#3e3f3f"
       style="font-size:10.8px;text-anchor:middle"
       id="text110">(16%)</text>
    <text
       x="861.42889"
       y="78"
       dy="0.050000001em"
       font-family="sans-serif"
       fill="#3e3f3f"
       style="font-size:18px;text-anchor:middle"
       id="text111">83.5</text>
    <text
       x="861.42889"
       y="78"
       dy="14.4"
       font-family="sans-serif"
       fill="#3e3f3f"
       style="font-size:10.8px;text-anchor:middle"
       id="text112">(8%)</text>
    <text
       x="853.98907"
       y="122.1"
       dy="0.050000001em"
       font-family="sans-serif"
       fill="#3e3f3f"
       style="font-size:18px;text-anchor:middle"
       id="text113">123</text>
    <text
       x="853.98907"
       y="122.1"
       dy="14.4"
       font-family="sans-serif"
       fill="#3e3f3f"
       style="font-size:10.8px;text-anchor:middle"
       id="text114">(12%)</text>
    <text
       x="856.22388"
       y="166.2"
       dy="0.050000001em"
       font-family="sans-serif"
       fill="#3e3f3f"
       style="font-size:18px;text-anchor:middle"
       id="text115">110.3</text>
    <text
       x="856.22388"
       y="166.2"
       dy="14.4"
       font-family="sans-serif"
       fill="#3e3f3f"
       style="font-size:10.8px;text-anchor:middle"
       id="text116">(11%)</text>
    <text
       x="864.71063"
       y="210.3"
       dy="0.050000001em"
       font-family="sans-serif"
       fill="#3e3f3f"
       style="font-size:18px;text-anchor:middle"
       id="text117">68.5</text>
    <text
       x="864.71063"
       y="210.3"
       dy="14.4"
       font-family="sans-serif"
       fill="#3e3f3f"
       style="font-size:10.8px;text-anchor:middle"
       id="text118">(7%)</text>
    <text
       x="859.60059"
       y="254.39999"
       dy="0.050000001em"
       font-family="sans-serif"
       fill="#3e3f3f"
       style="font-size:18px;text-anchor:middle"
       id="text119">92.5</text>
    <text
       x="859.60059"
       y="254.39999"
       dy="14.4"
       font-family="sans-serif"
       fill="#3e3f3f"
       style="font-size:10.8px;text-anchor:middle"
       id="text120">(9%)</text>
    <text
       x="865.68475"
       y="298.5"
       dy="0.050000001em"
       font-family="sans-serif"
       fill="#3e3f3f"
       style="font-size:18px;text-anchor:middle"
       id="text121">64.3</text>
    <text
       x="865.68475"
       y="298.5"
       dy="14.4"
       font-family="sans-serif"
       fill="#3e3f3f"
       style="font-size:10.8px;text-anchor:middle"
       id="text122">(6%)</text>
    <text
       x="859.60059"
       y="342.60001"
       dy="0.050000001em"
       font-family="sans-serif"
       fill="#3e3f3f"
       style="font-size:18px;text-anchor:middle"
       id="text123">92.5</text>
    <text
       x="859.60059"
       y="342.60001"
       dy="14.4"
       font-family="sans-serif"
       fill="#3e3f3f"
       style="font-size:10.8px;text-anchor:middle"
       id="text124">(9%)</text>
    <text
       x="856.37531"
       y="386.70001"
       dy="0.050000001em"
       font-family="sans-serif"
       fill="#3e3f3f"
       style="font-size:18px;text-anchor:middle"
       id="text125">109.5</text>
    <text
       x="856.37531"
       y="386.70001"
       dy="14.4"
       font-family="sans-serif"
       fill="#3e3f3f"
       style="font-size:10.8px;text-anchor:middle"
       id="text126">(11%)</text>
    <text
       x="851.24402"
       y="430.79999"
       dy="0.050000001em"
       font-family="sans-serif"
       fill="#3e3f3f"
       style="font-size:18px;text-anchor:middle"
       id="text127">139.5</text>
    <text
       x="851.24402"
       y="430.79999"
       dy="14.4"
       font-family="sans-serif"
       fill="#3e3f3f"
       style="font-size:10.8px;text-anchor:middle"
       id="text128">(14%)</text>
    <text
       x="855.15015"
       y="474.89999"
       dy="0.050000001em"
       font-family="sans-serif"
       fill="#3e3f3f"
       style="font-size:18px;text-anchor:middle"
       id="text129">116.3</text>
    <text
       x="855.15015"
       y="474.89999"
       dy="14.4"
       font-family="sans-serif"
       fill="#3e3f3f"
       style="font-size:10.8px;text-anchor:middle"
       id="text130">(12%)</text>
  </g>
</svg>
