<?xml version="1.0" encoding="UTF-8" standalone="no"?>
<svg
   width="572.1405"
   height="936.27155"
   version="1.1"
   id="svg122"
   sodipodi:docname="diagram_sankey (1).svg"
   inkscape:version="1.3.2 (091e20e, 2023-11-25)"
   inkscape:export-filename="diagram_sankey (1).svg"
   inkscape:export-xdpi="96"
   inkscape:export-ydpi="96"
   xmlns:inkscape="http://www.inkscape.org/namespaces/inkscape"
   xmlns:sodipodi="http://sodipodi.sourceforge.net/DTD/sodipodi-0.dtd"
   xmlns="http://www.w3.org/2000/svg"
   xmlns:svg="http://www.w3.org/2000/svg">
  <defs
     id="defs122" />
  <sodipodi:namedview
     id="namedview122"
     pagecolor="#ffffff"
     bordercolor="#000000"
     borderopacity="0.25"
     inkscape:showpageshadow="2"
     inkscape:pageopacity="0.0"
     inkscape:pagecheckerboard="0"
     inkscape:deskcolor="#d1d1d1"
     inkscape:zoom="0.20450607"
     inkscape:cx="224.9322"
     inkscape:cy="704.13559"
     inkscape:window-width="1312"
     inkscape:window-height="449"
     inkscape:window-x="0"
     inkscape:window-y="37"
     inkscape:window-maximized="0"
     inkscape:current-layer="svg122" />
  <g
     id="g122"
     transform="rotate(90,440.17695,187.27776)">
    <defs
       id="defs34">
      <marker
         id="marker0"
         markerWidth="6"
         markerHeight="6"
         refX="5"
         refY="3">
        <circle
           cx="3"
           cy="3"
           r="2"
           style="fill:#f0f921"
           id="circle1" />
      </marker>
      <marker
         id="marker1"
         markerWidth="6"
         markerHeight="6"
         refX="5"
         refY="3">
        <circle
           cx="3"
           cy="3"
           r="2"
           style="fill:#f0f921"
           id="circle2" />
      </marker>
      <marker
         id="marker2"
         markerWidth="6"
         markerHeight="6"
         refX="5"
         refY="3">
        <circle
           cx="3"
           cy="3"
           r="2"
           style="fill:#f0f921"
           id="circle3" />
      </marker>
      <marker
         id="marker3"
         markerWidth="6"
         markerHeight="6"
         refX="5"
         refY="3">
        <circle
           cx="3"
           cy="3"
           r="2"
           style="fill:#f0f921"
           id="circle4" />
      </marker>
      <marker
         id="marker4"
         markerWidth="6"
         markerHeight="6"
         refX="5"
         refY="3">
        <circle
           cx="3"
           cy="3"
           r="2"
           style="fill:#fcd225"
           id="circle5" />
      </marker>
      <marker
         id="marker5"
         markerWidth="6"
         markerHeight="6"
         refX="5"
         refY="3">
        <circle
           cx="3"
           cy="3"
           r="2"
           style="fill:#fcd225"
           id="circle6" />
      </marker>
      <marker
         id="marker6"
         markerWidth="6"
         markerHeight="6"
         refX="5"
         refY="3">
        <circle
           cx="3"
           cy="3"
           r="2"
           style="fill:#fcd225"
           id="circle7" />
      </marker>
      <marker
         id="marker7"
         markerWidth="6"
         markerHeight="6"
         refX="5"
         refY="3">
        <circle
           cx="3"
           cy="3"
           r="2"
           style="fill:#fdae32"
           id="circle8" />
      </marker>
      <marker
         id="marker8"
         markerWidth="6"
         markerHeight="6"
         refX="5"
         refY="3">
        <circle
           cx="3"
           cy="3"
           r="2"
           style="fill:#fdae32"
           id="circle9" />
      </marker>
      <marker
         id="marker9"
         markerWidth="6"
         markerHeight="6"
         refX="5"
         refY="3">
        <circle
           cx="3"
           cy="3"
           r="2"
           style="fill:#fdae32"
           id="circle10" />
      </marker>
      <marker
         id="marker10"
         markerWidth="6"
         markerHeight="6"
         refX="5"
         refY="3">
        <circle
           cx="3"
           cy="3"
           r="2"
           style="fill:#f68d45"
           id="circle11" />
      </marker>
      <marker
         id="marker11"
         markerWidth="6"
         markerHeight="6"
         refX="5"
         refY="3">
        <circle
           cx="3"
           cy="3"
           r="2"
           style="fill:#f68d45"
           id="circle12" />
      </marker>
      <marker
         id="marker12"
         markerWidth="6"
         markerHeight="6"
         refX="5"
         refY="3">
        <circle
           cx="3"
           cy="3"
           r="2"
           style="fill:#f68d45"
           id="circle13" />
      </marker>
      <marker
         id="marker13"
         markerWidth="6"
         markerHeight="6"
         refX="5"
         refY="3">
        <circle
           cx="3"
           cy="3"
           r="2"
           style="fill:#f68d45"
           id="circle14" />
      </marker>
      <marker
         id="marker14"
         markerWidth="6"
         markerHeight="6"
         refX="5"
         refY="3">
        <circle
           cx="3"
           cy="3"
           r="2"
           style="fill:#f68d45"
           id="circle15" />
      </marker>
      <marker
         id="marker15"
         markerWidth="6"
         markerHeight="6"
         refX="5"
         refY="3">
        <circle
           cx="3"
           cy="3"
           r="2"
           style="fill:#a62098"
           id="circle16" />
      </marker>
      <marker
         id="marker16"
         markerWidth="6"
         markerHeight="6"
         refX="5"
         refY="3">
        <circle
           cx="3"
           cy="3"
           r="2"
           style="fill:#a62098"
           id="circle17" />
      </marker>
      <marker
         id="marker17"
         markerWidth="6"
         markerHeight="6"
         refX="5"
         refY="3">
        <circle
           cx="3"
           cy="3"
           r="2"
           style="fill:#a62098"
           id="circle18" />
      </marker>
      <marker
         id="marker18"
         markerWidth="6"
         markerHeight="6"
         refX="5"
         refY="3">
        <circle
           cx="3"
           cy="3"
           r="2"
           style="fill:#a62098"
           id="circle19" />
      </marker>
      <marker
         id="marker19"
         markerWidth="6"
         markerHeight="6"
         refX="5"
         refY="3">
        <circle
           cx="3"
           cy="3"
           r="2"
           style="fill:#e76f5a"
           id="circle20" />
      </marker>
      <marker
         id="marker20"
         markerWidth="6"
         markerHeight="6"
         refX="5"
         refY="3">
        <circle
           cx="3"
           cy="3"
           r="2"
           style="fill:#e76f5a"
           id="circle21" />
      </marker>
      <marker
         id="marker21"
         markerWidth="6"
         markerHeight="6"
         refX="5"
         refY="3">
        <circle
           cx="3"
           cy="3"
           r="2"
           style="fill:#e76f5a"
           id="circle22" />
      </marker>
      <marker
         id="marker22"
         markerWidth="6"
         markerHeight="6"
         refX="5"
         refY="3">
        <circle
           cx="3"
           cy="3"
           r="2"
           style="fill:#e76f5a"
           id="circle23" />
      </marker>
      <marker
         id="marker23"
         markerWidth="6"
         markerHeight="6"
         refX="5"
         refY="3">
        <circle
           cx="3"
           cy="3"
           r="2"
           style="fill:#d5546e"
           id="circle24" />
      </marker>
      <marker
         id="marker24"
         markerWidth="6"
         markerHeight="6"
         refX="5"
         refY="3">
        <circle
           cx="3"
           cy="3"
           r="2"
           style="fill:#d5546e"
           id="circle25" />
      </marker>
      <marker
         id="marker25"
         markerWidth="6"
         markerHeight="6"
         refX="5"
         refY="3">
        <circle
           cx="3"
           cy="3"
           r="2"
           style="fill:#d5546e"
           id="circle26" />
      </marker>
      <marker
         id="marker26"
         markerWidth="6"
         markerHeight="6"
         refX="5"
         refY="3">
        <circle
           cx="3"
           cy="3"
           r="2"
           style="fill:#d5546e"
           id="circle27" />
      </marker>
      <marker
         id="marker27"
         markerWidth="6"
         markerHeight="6"
         refX="5"
         refY="3">
        <circle
           cx="3"
           cy="3"
           r="2"
           style="fill:#d5546e"
           id="circle28" />
      </marker>
      <marker
         id="marker28"
         markerWidth="6"
         markerHeight="6"
         refX="5"
         refY="3">
        <circle
           cx="3"
           cy="3"
           r="2"
           style="fill:#d5546e"
           id="circle29" />
      </marker>
      <marker
         id="marker29"
         markerWidth="6"
         markerHeight="6"
         refX="5"
         refY="3">
        <circle
           cx="3"
           cy="3"
           r="2"
           style="fill:#c03a83"
           id="circle30" />
      </marker>
      <marker
         id="marker30"
         markerWidth="6"
         markerHeight="6"
         refX="5"
         refY="3">
        <circle
           cx="3"
           cy="3"
           r="2"
           style="fill:#c03a83"
           id="circle31" />
      </marker>
      <marker
         id="marker31"
         markerWidth="6"
         markerHeight="6"
         refX="5"
         refY="3">
        <circle
           cx="3"
           cy="3"
           r="2"
           style="fill:#c03a83"
           id="circle32" />
      </marker>
      <marker
         id="marker32"
         markerWidth="6"
         markerHeight="6"
         refX="5"
         refY="3">
        <circle
           cx="3"
           cy="3"
           r="2"
           style="fill:#c03a83"
           id="circle33" />
      </marker>
      <marker
         id="marker33"
         markerWidth="6"
         markerHeight="6"
         refX="5"
         refY="3">
        <circle
           cx="3"
           cy="3"
           r="2"
           style="fill:#c03a83"
           id="circle34" />
      </marker>
    </defs>
    <path
       class="link"
       fill="none"
       stroke="#f0f921"
       stroke-width="8.08497"
       marker-end="url(#marker0)"
       d="m 1156.297,60 h -84.369 c -84.37,0 -253.109,0 -340.631,0 -87.522,0 -93.826,0 -100.131,12.667 -6.304,12.666 -12.608,38 -18.913,50.666 C 605.949,136 599.644,136 596.492,136 h -3.152"
       style="stroke-linecap:round;stroke-opacity:0.7"
       id="path34" />
    <path
       class="link"
       fill="none"
       stroke="#f0f921"
       stroke-width="8.08497"
       marker-end="url(#marker1)"
       d="m 1156.297,60 h -84.369 c -84.37,0 -253.109,0 -340.631,0 -87.522,0 -93.826,0 -100.131,18.889 -6.304,18.889 -12.608,56.667 -18.913,75.555 -6.304,18.889 -12.609,18.889 -15.761,18.889 h -3.152"
       style="stroke-linecap:round;stroke-opacity:0.7"
       id="path35" />
    <path
       class="link"
       fill="none"
       stroke="#f0f921"
       stroke-width="8.08497"
       marker-end="url(#marker2)"
       d="m 1156.297,60 h -84.369 c -84.37,0 -253.109,0 -340.631,0 -87.522,0 -93.826,0 -100.131,25.111 -6.304,25.111 -12.608,75.333 -18.913,100.445 -6.304,25.111 -12.609,25.111 -15.761,25.111 h -3.152"
       style="stroke-linecap:round;stroke-opacity:0.7"
       id="path36" />
    <path
       class="link"
       fill="none"
       stroke="#f0f921"
       stroke-width="8.08497"
       marker-end="url(#marker3)"
       d="m 1156.297,60 h -84.369 c -84.37,0 -253.109,0 -340.631,0 -87.522,0 -93.826,0 -100.131,31.333 -6.304,31.334 -12.608,94 -18.913,125.334 C 605.949,248 599.644,248 596.492,248 h -3.152"
       style="stroke-linecap:round;stroke-opacity:0.7"
       id="path37" />
    <path
       class="link"
       fill="none"
       stroke="#fcd225"
       stroke-width="7.2111"
       marker-end="url(#marker4)"
       d="m 1160.301,117.75 h -75.52 c -75.52,0 -226.561,0 -305.256,0 -78.695,0 -85.044,0 -91.393,27.931 -6.35,27.93 -12.699,83.791 -19.048,111.722 -6.349,27.93 -12.699,27.93 -15.873,27.93 h -3.175"
       style="stroke-linecap:round;stroke-opacity:0.7"
       id="path38" />
    <path
       class="link"
       fill="none"
       stroke="#fcd225"
       stroke-width="7.2111"
       marker-end="url(#marker5)"
       d="m 1160.301,117.75 h -75.52 c -75.52,0 -226.561,0 -305.256,0 -78.695,0 -85.044,0 -91.393,34.153 -6.35,34.153 -12.699,102.458 -19.048,136.611 -6.349,34.153 -12.699,34.153 -15.873,34.153 h -3.175"
       style="stroke-linecap:round;stroke-opacity:0.7"
       id="path39" />
    <path
       class="link"
       fill="none"
       stroke="#fcd225"
       stroke-width="7.2111"
       marker-end="url(#marker6)"
       d="m 1160.301,117.75 h -75.52 c -75.52,0 -226.561,0 -305.256,0 -78.695,0 -85.044,0 -91.393,15.486 -6.35,15.486 -12.699,46.458 -19.048,61.945 -6.349,15.486 -12.699,15.486 -15.873,15.486 h -3.175"
       style="stroke-linecap:round;stroke-opacity:0.7"
       id="path40" />
    <path
       class="link"
       fill="none"
       stroke="#fdae32"
       stroke-width="7.16473"
       marker-end="url(#marker7)"
       d="m 1160.514,175.5 h -66.096 c -66.096,0 -198.287,0 -267.559,0 -69.271,0 -75.623,0 -81.974,30.75 -6.352,30.75 -12.704,92.25 -19.055,123 C 719.478,360 713.126,360 709.95,360 h -3.175"
       style="stroke-linecap:round;stroke-opacity:0.7"
       id="path41" />
    <path
       class="link"
       fill="none"
       stroke="#fdae32"
       stroke-width="7.16473"
       marker-end="url(#marker8)"
       d="m 1160.514,175.5 h -66.096 c -66.096,0 -198.287,0 -267.559,0 -69.271,0 -75.623,0 -81.974,-6.583 -6.352,-6.584 -12.704,-19.75 -19.055,-26.334 C 719.478,136 713.126,136 709.95,136 h -3.175"
       style="stroke-linecap:round;stroke-opacity:0.7"
       id="path42" />
    <path
       class="link"
       fill="none"
       stroke="#fdae32"
       stroke-width="7.16473"
       marker-end="url(#marker9)"
       d="m 1160.514,175.5 h -66.096 c -66.096,0 -198.287,0 -267.559,0 -69.271,0 -75.623,0 -81.974,5.861 -6.352,5.861 -12.704,17.583 -19.055,23.445 -6.352,5.861 -12.704,5.861 -15.88,5.861 h -3.175"
       style="stroke-linecap:round;stroke-opacity:0.7"
       id="path43" />
    <path
       class="link"
       fill="none"
       stroke="#f68d45"
       stroke-width="5.74456"
       marker-end="url(#marker10)"
       d="m 1167.02,233.25 h -57.292 c -57.293,0 -171.878,0 -232.383,0 -60.505,0 -66.929,0 -73.354,27.347 -6.424,27.347 -12.849,82.042 -19.273,109.389 -6.425,27.347 -12.849,27.347 -16.062,27.347 h -3.212"
       style="stroke-linecap:round;stroke-opacity:0.7"
       id="path44" />
    <path
       class="link"
       fill="none"
       stroke="#f68d45"
       stroke-width="5.74456"
       marker-end="url(#marker11)"
       d="m 1167.02,233.25 h -57.292 c -57.293,0 -171.878,0 -232.383,0 -60.505,0 -66.929,0 -73.354,-9.986 -6.424,-9.986 -12.849,-29.958 -19.273,-39.945 -6.425,-9.986 -12.849,-9.986 -16.062,-9.986 h -3.212"
       style="stroke-linecap:round;stroke-opacity:0.7"
       id="path45" />
    <path
       class="link"
       fill="none"
       stroke="#f68d45"
       stroke-width="5.74456"
       marker-end="url(#marker12)"
       d="m 1167.02,233.25 h -57.292 c -57.293,0 -171.878,0 -232.383,0 -60.505,0 -66.929,0 -73.354,-3.764 -6.424,-3.764 -12.849,-11.292 -19.273,-15.055 -6.425,-3.764 -12.849,-3.764 -16.062,-3.764 h -3.212"
       style="stroke-linecap:round;stroke-opacity:0.7"
       id="path46" />
    <path
       class="link"
       fill="none"
       stroke="#f68d45"
       stroke-width="5.74456"
       marker-end="url(#marker13)"
       d="m 1167.02,233.25 h -57.292 c -57.293,0 -171.878,0 -232.383,0 -60.505,0 -66.929,0 -73.354,33.569 -6.424,33.57 -12.849,100.709 -19.273,134.278 -6.425,33.57 -12.849,33.57 -16.062,33.57 h -3.212"
       style="stroke-linecap:round;stroke-opacity:0.7"
       id="path47" />
    <path
       class="link"
       fill="none"
       stroke="#f68d45"
       stroke-width="5.74456"
       marker-end="url(#marker14)"
       d="m 1167.02,233.25 h -57.292 c -57.293,0 -171.878,0 -232.383,0 -60.505,0 -66.929,0 -73.354,-16.208 -6.424,-16.209 -12.849,-48.625 -19.273,-64.834 C 778.293,136 771.869,136 768.656,136 h -3.212"
       style="stroke-linecap:round;stroke-opacity:0.7"
       id="path48" />
    <path
       class="link"
       fill="none"
       stroke="#a62098"
       stroke-width="5.38826"
       marker-end="url(#marker15)"
       d="m 1168.653,464.25 h -19.102 c -19.101,0 -57.304,0 -79.627,0 -22.323,0 -28.766,0 -35.208,1.292 -6.443,1.291 -12.886,3.875 -19.329,5.166 C 1008.944,472 1002.502,472 999.28,472 h -3.221"
       style="stroke-linecap:round;stroke-opacity:0.7"
       id="path49" />
    <path
       class="link"
       fill="none"
       stroke="#a62098"
       stroke-width="5.38826"
       marker-end="url(#marker16)"
       d="m 1168.653,464.25 h -19.102 c -19.101,0 -57.304,0 -79.627,0 -22.323,0 -28.766,0 -35.208,-4.931 -6.443,-4.93 -12.886,-14.791 -19.329,-19.722 -6.443,-4.93 -12.885,-4.93 -16.107,-4.93 h -3.221"
       style="stroke-linecap:round;stroke-opacity:0.7"
       id="path50" />
    <path
       class="link"
       fill="none"
       stroke="#a62098"
       stroke-width="5.38826"
       marker-end="url(#marker17)"
       d="m 1168.653,464.25 h -19.102 c -19.101,0 -57.304,0 -79.627,0 -22.323,0 -28.766,0 -35.208,13.736 -6.443,13.736 -12.886,41.208 -19.329,54.945 -6.443,13.736 -12.885,13.736 -16.107,13.736 h -3.221"
       style="stroke-linecap:round;stroke-opacity:0.7"
       id="path51" />
    <path
       class="link"
       fill="none"
       stroke="#a62098"
       stroke-width="5.38826"
       marker-end="url(#marker18)"
       d="m 1168.653,464.25 h -19.102 c -19.101,0 -57.304,0 -79.627,0 -22.323,0 -28.766,0 -35.208,-42.264 -6.443,-42.264 -12.886,-126.792 -19.329,-169.055 -6.443,-42.264 -12.885,-42.264 -16.107,-42.264 h -3.221"
       style="stroke-linecap:round;stroke-opacity:0.7"
       id="path52" />
    <path
       class="link"
       fill="none"
       stroke="#e76f5a"
       stroke-width="5.00333"
       marker-end="url(#marker19)"
       d="m 1170.416,291 h -48.013 c -48.014,0 -144.042,0 -195.287,0 -51.245,0 -57.708,0 -64.17,30.167 -6.463,30.166 -12.925,90.5 -19.388,120.666 C 837.096,472 830.633,472 827.402,472 h -3.232"
       style="stroke-linecap:round;stroke-opacity:0.7"
       id="path53" />
    <path
       class="link"
       fill="none"
       stroke="#e76f5a"
       stroke-width="5.00333"
       marker-end="url(#marker20)"
       d="m 1170.416,291 h -48.013 c -48.014,0 -144.042,0 -195.287,0 -51.245,0 -57.708,0 -64.17,23.944 -6.463,23.945 -12.925,71.834 -19.388,95.778 -6.462,23.945 -12.925,23.945 -16.156,23.945 h -3.232"
       style="stroke-linecap:round;stroke-opacity:0.7"
       id="path54" />
    <path
       class="link"
       fill="none"
       stroke="#e76f5a"
       stroke-width="5.00333"
       marker-end="url(#marker21)"
       d="m 1170.416,291 h -48.013 c -48.014,0 -144.042,0 -195.287,0 -51.245,0 -57.708,0 -64.17,36.389 -6.463,36.389 -12.925,109.167 -19.388,145.555 -6.462,36.389 -12.925,36.389 -16.156,36.389 h -3.232"
       style="stroke-linecap:round;stroke-opacity:0.7"
       id="path55" />
    <path
       class="link"
       fill="none"
       stroke="#e76f5a"
       stroke-width="5.00333"
       marker-end="url(#marker22)"
       d="m 1170.416,291 h -48.013 c -48.014,0 -144.042,0 -195.287,0 -51.245,0 -57.708,0 -64.17,-13.389 -6.463,-13.389 -12.925,-40.167 -19.388,-53.555 -6.462,-13.389 -12.925,-13.389 -16.156,-13.389 h -3.232"
       style="stroke-linecap:round;stroke-opacity:0.7"
       id="path56" />
    <path
       class="link"
       fill="none"
       stroke="#d5546e"
       stroke-width="4.51294"
       marker-end="url(#marker23)"
       d="m 1172.663,348.75 h -38.545 c -38.546,0 -115.636,0 -157.426,0 -41.789,0 -48.277,0 -54.764,-10.569 -6.488,-10.57 -12.976,-31.709 -19.463,-42.278 -6.488,-10.57 -12.976,-10.57 -16.22,-10.57 h -3.244"
       style="stroke-linecap:round;stroke-opacity:0.7"
       id="path57" />
    <path
       class="link"
       fill="none"
       stroke="#d5546e"
       stroke-width="4.51294"
       marker-end="url(#marker24)"
       d="m 1172.663,348.75 h -38.545 c -38.546,0 -115.636,0 -157.426,0 -41.789,0 -48.277,0 -54.764,8.097 -6.488,8.097 -12.976,24.292 -19.463,32.389 -6.488,8.097 -12.976,8.097 -16.22,8.097 h -3.244"
       style="stroke-linecap:round;stroke-opacity:0.7"
       id="path58" />
    <path
       class="link"
       fill="none"
       stroke="#d5546e"
       stroke-width="4.51294"
       marker-end="url(#marker25)"
       d="m 1172.663,348.75 h -38.545 c -38.546,0 -115.636,0 -157.426,0 -41.789,0 -48.277,0 -54.764,20.542 -6.488,20.541 -12.976,61.625 -19.463,82.166 C 895.977,472 889.489,472 886.245,472 h -3.244"
       style="stroke-linecap:round;stroke-opacity:0.7"
       id="path59" />
    <path
       class="link"
       fill="none"
       stroke="#d5546e"
       stroke-width="4.51294"
       marker-end="url(#marker26)"
       d="m 1172.663,348.75 h -38.545 c -38.546,0 -115.636,0 -157.426,0 -41.789,0 -48.277,0 -54.764,-23.014 -6.488,-23.014 -12.976,-69.042 -19.463,-92.055 -6.488,-23.014 -12.976,-23.014 -16.22,-23.014 h -3.244"
       style="stroke-linecap:round;stroke-opacity:0.7"
       id="path60" />
    <path
       class="link"
       fill="none"
       stroke="#d5546e"
       stroke-width="4.51294"
       marker-end="url(#marker27)"
       d="m 1172.663,348.75 h -38.545 c -38.546,0 -115.636,0 -157.426,0 -41.789,0 -48.277,0 -54.764,14.319 -6.488,14.32 -12.976,42.959 -19.463,57.278 -6.488,14.32 -12.976,14.32 -16.22,14.32 h -3.244"
       style="stroke-linecap:round;stroke-opacity:0.7"
       id="path61" />
    <path
       class="link"
       fill="none"
       stroke="#d5546e"
       stroke-width="4.51294"
       marker-end="url(#marker28)"
       d="m 1172.663,348.75 h -38.545 c -38.546,0 -115.636,0 -157.426,0 -41.789,0 -48.277,0 -54.764,32.986 -6.488,32.986 -12.976,98.958 -19.463,131.945 -6.488,32.986 -12.976,32.986 -16.22,32.986 h -3.244"
       style="stroke-linecap:round;stroke-opacity:0.7"
       id="path62" />
    <path
       class="link"
       fill="none"
       stroke="#c03a83"
       stroke-width="4.88535"
       marker-end="url(#marker29)"
       d="m 1170.957,406.5 h -28.805 c -28.805,0 -86.415,0 -118.454,0 -32.039,0 -38.508,0 -44.976,10.917 -6.469,10.916 -12.938,32.75 -19.406,43.666 C 952.847,472 946.379,472 943.144,472 h -3.234"
       style="stroke-linecap:round;stroke-opacity:0.7"
       id="path63" />
    <path
       class="link"
       fill="none"
       stroke="#c03a83"
       stroke-width="4.88535"
       marker-end="url(#marker30)"
       d="m 1170.957,406.5 h -28.805 c -28.805,0 -86.415,0 -118.454,0 -32.039,0 -38.508,0 -44.976,-32.639 -6.469,-32.639 -12.938,-97.917 -19.406,-130.555 -6.469,-32.639 -12.937,-32.639 -16.172,-32.639 h -3.234"
       style="stroke-linecap:round;stroke-opacity:0.7"
       id="path64" />
    <path
       class="link"
       fill="none"
       stroke="#c03a83"
       stroke-width="4.88535"
       marker-end="url(#marker31)"
       d="m 1170.957,406.5 h -28.805 c -28.805,0 -86.415,0 -118.454,0 -32.039,0 -38.508,0 -44.976,4.694 -6.469,4.695 -12.938,14.084 -19.406,18.778 -6.469,4.695 -12.937,4.695 -16.172,4.695 h -3.234"
       style="stroke-linecap:round;stroke-opacity:0.7"
       id="path65" />
    <path
       class="link"
       fill="none"
       stroke="#c03a83"
       stroke-width="4.88535"
       marker-end="url(#marker32)"
       d="m 1170.957,406.5 h -28.805 c -28.805,0 -86.415,0 -118.454,0 -32.039,0 -38.508,0 -44.976,23.361 -6.469,23.361 -12.938,70.083 -19.406,93.445 -6.469,23.361 -12.937,23.361 -16.172,23.361 h -3.234"
       style="stroke-linecap:round;stroke-opacity:0.7"
       id="path66" />
    <path
       class="link"
       fill="none"
       stroke="#c03a83"
       stroke-width="4.88535"
       marker-end="url(#marker33)"
       d="m 1170.957,406.5 h -28.805 c -28.805,0 -86.415,0 -118.454,0 -32.039,0 -38.508,0 -44.976,29.583 -6.469,29.584 -12.938,88.75 -19.406,118.334 C 952.847,584 946.379,584 943.144,584 h -3.234"
       style="stroke-linecap:round;stroke-opacity:0.7"
       id="path67" />
    <text
       text-anchor="end"
       font-size="10.8px"
       fill="#3e3f3f"
       style="font-family:sans-serif"
       x="575.33984"
       y="136"
       transform="rotate(-10,575.33986,136)"
       id="text68"><tspan
         x="575.33984"
         dy="0"
         id="tspan67">Collaborate with local communities to develop sustainable</tspan><tspan
         x="575.33984"
         dy="1.2em"
         id="tspan68">tourism strategies.</tspan></text>
    <text
       x="602.33984"
       y="136"
       dy="0.050000001em"
       transform="rotate(-120,602.33986,136)"
       font-family="sans-serif"
       fill="#3e3f3f"
       style="font-size:18px;text-anchor:middle"
       id="text69">149.7</text>
    <text
       x="602.33984"
       y="136"
       dy="14.4"
       transform="rotate(-120,602.33986,136)"
       font-family="sans-serif"
       fill="#3e3f3f"
       style="font-size:10.8px;text-anchor:middle"
       id="text70">(50%)</text>
    <text
       text-anchor="end"
       font-size="10.8px"
       fill="#3e3f3f"
       style="font-family:sans-serif"
       x="575.33984"
       y="173.33333"
       transform="rotate(-10,575.33986,173.33333)"
       id="text71"><tspan
         x="575.33984"
         dy="0"
         id="tspan70">Work closely with local communities to develop and execute</tspan><tspan
         x="575.33984"
         dy="1.2em"
         id="tspan71">sustainable tourism initiatives.</tspan></text>
    <text
       x="602.33984"
       y="173.33333"
       dy="0.050000001em"
       transform="rotate(-120,602.33986,173.33333)"
       font-family="sans-serif"
       fill="#3e3f3f"
       style="font-size:18px;text-anchor:middle"
       id="text72">98.4</text>
    <text
       x="602.33984"
       y="173.33333"
       dy="14.4"
       transform="rotate(-120,602.33986,173.33333)"
       font-family="sans-serif"
       fill="#3e3f3f"
       style="font-size:10.8px;text-anchor:middle"
       id="text73">(33%)</text>
    <text
       text-anchor="end"
       font-size="10.8px"
       fill="#3e3f3f"
       style="font-family:sans-serif"
       x="575.33984"
       y="210.66667"
       transform="rotate(-10,575.33986,210.66667)"
       id="text74"><tspan
         x="575.33984"
         dy="0"
         id="tspan73">Collaborate with local communities in creating and</tspan><tspan
         x="575.33984"
         dy="1.2em"
         id="tspan74">implementing sustainable tourism policies.</tspan></text>
    <text
       x="602.33984"
       y="210.66667"
       dy="0.050000001em"
       transform="rotate(-120,602.33986,210.66667)"
       font-family="sans-serif"
       fill="#3e3f3f"
       style="font-size:18px;text-anchor:middle"
       id="text75">300</text>
    <text
       x="602.33984"
       y="210.66667"
       dy="14.4"
       transform="rotate(-120,602.33986,210.66667)"
       font-family="sans-serif"
       fill="#3e3f3f"
       style="font-size:10.8px;text-anchor:middle"
       id="text76">(100%)</text>
    <text
       text-anchor="end"
       font-size="10.8px"
       fill="#3e3f3f"
       style="font-family:sans-serif"
       x="575.33984"
       y="248"
       transform="rotate(-10,575.33986,248)"
       id="text77"><tspan
         x="575.33984"
         dy="0"
         id="tspan76">Support small businesses in tourism through partnerships</tspan><tspan
         x="575.33984"
         dy="1.2em"
         id="tspan77">and initiatives promoting sustainability and local culture.</tspan></text>
    <text
       x="602.33984"
       y="248"
       dy="0.050000001em"
       transform="rotate(-120,602.33986,248)"
       font-family="sans-serif"
       fill="#3e3f3f"
       style="font-size:18px;text-anchor:middle"
       id="text78">65.4</text>
    <text
       x="602.33984"
       y="248"
       dy="14.4"
       transform="rotate(-120,602.33986,248)"
       font-family="sans-serif"
       fill="#3e3f3f"
       style="font-size:10.8px;text-anchor:middle"
       id="text79">(22%)</text>
    <text
       text-anchor="end"
       font-size="10.8px"
       fill="#3e3f3f"
       style="font-family:sans-serif"
       x="575.33984"
       y="285.33334"
       transform="rotate(-10,575.33986,285.33333)"
       id="text80"><tspan
         x="575.33984"
         dy="0"
         id="tspan79">Support local artisans and community-based tourism</tspan></text>
    <text
       x="602.33984"
       y="285.33334"
       dy="0.050000001em"
       transform="rotate(-120,602.33986,285.33333)"
       font-family="sans-serif"
       fill="#3e3f3f"
       style="font-size:18px;text-anchor:middle"
       id="text81">72.4</text>
    <text
       x="602.33984"
       y="285.33334"
       dy="14.4"
       transform="rotate(-120,602.33986,285.33333)"
       font-family="sans-serif"
       fill="#3e3f3f"
       style="font-size:10.8px;text-anchor:middle"
       id="text82">(24%)</text>
    <text
       text-anchor="end"
       font-size="10.8px"
       fill="#3e3f3f"
       style="font-family:sans-serif"
       x="575.33984"
       y="322.66666"
       transform="rotate(-10,575.33986,322.66667)"
       id="text83"><tspan
         x="575.33984"
         dy="0"
         id="tspan82">Introduce training programs for sustainable practices.</tspan></text>
    <text
       x="602.33984"
       y="322.66666"
       dy="0.050000001em"
       transform="rotate(-120,602.33986,322.66667)"
       font-family="sans-serif"
       fill="#3e3f3f"
       style="font-size:18px;text-anchor:middle"
       id="text84">52</text>
    <text
       x="602.33984"
       y="322.66666"
       dy="14.4"
       transform="rotate(-120,602.33986,322.66667)"
       font-family="sans-serif"
       fill="#3e3f3f"
       style="font-size:10.8px;text-anchor:middle"
       id="text85">(17%)</text>
    <text
       text-anchor="end"
       font-size="10.8px"
       fill="#3e3f3f"
       style="font-family:sans-serif"
       x="575.33984"
       y="360"
       transform="rotate(-10,575.33986,360)"
       id="text86"><tspan
         x="575.33984"
         dy="0"
         id="tspan85">Support local businesses with training and financial aid</tspan><tspan
         x="575.33984"
         dy="1.2em"
         id="tspan86">for sustainable tourism.</tspan></text>
    <text
       x="602.33984"
       y="360"
       dy="0.050000001em"
       transform="rotate(-120,602.33986,360)"
       font-family="sans-serif"
       fill="#3e3f3f"
       style="font-size:18px;text-anchor:middle"
       id="text87">51.3</text>
    <text
       x="602.33984"
       y="360"
       dy="14.4"
       transform="rotate(-120,602.33986,360)"
       font-family="sans-serif"
       fill="#3e3f3f"
       style="font-size:10.8px;text-anchor:middle"
       id="text88">(17%)</text>
    <text
       text-anchor="end"
       font-size="10.8px"
       fill="#3e3f3f"
       style="font-family:sans-serif"
       x="575.33984"
       y="397.33334"
       transform="rotate(-10,575.33986,397.33333)"
       id="text89"><tspan
         x="575.33984"
         dy="0"
         id="tspan88">Educate tourists on responsible travel practices.</tspan></text>
    <text
       x="602.33984"
       y="397.33334"
       dy="0.050000001em"
       transform="rotate(-120,602.33986,397.33333)"
       font-family="sans-serif"
       fill="#3e3f3f"
       style="font-size:18px;text-anchor:middle"
       id="text90">53.4</text>
    <text
       x="602.33984"
       y="397.33334"
       dy="14.4"
       transform="rotate(-120,602.33986,397.33333)"
       font-family="sans-serif"
       fill="#3e3f3f"
       style="font-size:10.8px;text-anchor:middle"
       id="text91">(18%)</text>
    <text
       text-anchor="end"
       font-size="10.8px"
       fill="#3e3f3f"
       style="font-family:sans-serif"
       x="575.33984"
       y="434.66666"
       transform="rotate(-10,575.33986,434.66667)"
       id="text92"><tspan
         x="575.33984"
         dy="0"
         id="tspan91">Incentivize businesses to adopt sustainable practices and</tspan><tspan
         x="575.33984"
         dy="1.2em"
         id="tspan92">promote local products.</tspan></text>
    <text
       x="602.33984"
       y="434.66666"
       dy="0.050000001em"
       transform="rotate(-120,602.33986,434.66667)"
       font-family="sans-serif"
       fill="#3e3f3f"
       style="font-size:18px;text-anchor:middle"
       id="text93">131.3</text>
    <text
       x="602.33984"
       y="434.66666"
       dy="14.4"
       transform="rotate(-120,602.33986,434.66667)"
       font-family="sans-serif"
       fill="#3e3f3f"
       style="font-size:10.8px;text-anchor:middle"
       id="text94">(44%)</text>
    <text
       text-anchor="end"
       font-size="10.8px"
       fill="#3e3f3f"
       style="font-family:sans-serif"
       x="575.33984"
       y="472"
       transform="rotate(-10,575.33986,472)"
       id="text95"><tspan
         x="575.33984"
         dy="0"
         id="tspan94">Integrate local culture into tourism experiences.</tspan></text>
    <text
       x="602.33984"
       y="472"
       dy="0.050000001em"
       transform="rotate(-120,602.33986,472)"
       font-family="sans-serif"
       fill="#3e3f3f"
       style="font-size:18px;text-anchor:middle"
       id="text96">98.3</text>
    <text
       x="602.33984"
       y="472"
       dy="14.4"
       transform="rotate(-120,602.33986,472)"
       font-family="sans-serif"
       fill="#3e3f3f"
       style="font-size:10.8px;text-anchor:middle"
       id="text97">(33%)</text>
    <text
       text-anchor="end"
       font-size="10.8px"
       fill="#3e3f3f"
       style="font-family:sans-serif"
       x="575.33984"
       y="509.33334"
       transform="rotate(-10,575.33986,509.33333)"
       id="text98"><tspan
         x="575.33984"
         dy="0"
         id="tspan97">Develop infrastructure that supports eco-friendly tourism.</tspan></text>
    <text
       x="602.33984"
       y="509.33334"
       dy="0.050000001em"
       transform="rotate(-120,602.33986,509.33333)"
       font-family="sans-serif"
       fill="#3e3f3f"
       style="font-size:18px;text-anchor:middle"
       id="text99">25</text>
    <text
       x="602.33984"
       y="509.33334"
       dy="14.4"
       transform="rotate(-120,602.33986,509.33333)"
       font-family="sans-serif"
       fill="#3e3f3f"
       style="font-size:10.8px;text-anchor:middle"
       id="text100">(8%)</text>
    <text
       text-anchor="end"
       font-size="10.8px"
       fill="#3e3f3f"
       style="font-family:sans-serif"
       x="575.33984"
       y="546.66669"
       transform="rotate(-10,575.33986,546.66667)"
       id="text101"><tspan
         x="575.33984"
         dy="0"
         id="tspan100">Focus on education and training for local communities.</tspan></text>
    <text
       x="602.33984"
       y="546.66669"
       dy="0.050000001em"
       transform="rotate(-120,602.33986,546.66667)"
       font-family="sans-serif"
       fill="#3e3f3f"
       style="font-size:18px;text-anchor:middle"
       id="text102">73.3</text>
    <text
       x="602.33984"
       y="546.66669"
       dy="14.4"
       transform="rotate(-120,602.33986,546.66667)"
       font-family="sans-serif"
       fill="#3e3f3f"
       style="font-size:10.8px;text-anchor:middle"
       id="text103">(24%)</text>
    <text
       text-anchor="end"
       font-size="10.8px"
       fill="#3e3f3f"
       style="font-family:sans-serif"
       x="575.33984"
       y="584"
       transform="rotate(-10,575.33986,584)"
       id="text104"><tspan
         x="575.33984"
         dy="0"
         id="tspan103">Focus on enforcing regulations to protect local</tspan><tspan
         x="575.33984"
         dy="1.2em"
         id="tspan104">environments.</tspan></text>
    <text
       x="602.33984"
       y="584"
       dy="0.050000001em"
       transform="rotate(-120,602.33986,584)"
       font-family="sans-serif"
       fill="#3e3f3f"
       style="font-size:18px;text-anchor:middle"
       id="text105">23.9</text>
    <text
       x="602.33984"
       y="584"
       dy="14.4"
       transform="rotate(-120,602.33986,584)"
       font-family="sans-serif"
       fill="#3e3f3f"
       style="font-size:10.8px;text-anchor:middle"
       id="text106">(8%)</text>
    <text
       x="1148.3398"
       y="78"
       dy="0.050000001em"
       transform="rotate(-120,1148.3399,78)"
       font-family="sans-serif"
       fill="#3e3f3f"
       style="font-size:18px;text-anchor:middle"
       id="text107">65.4</text>
    <text
       x="1148.3398"
       y="78"
       dy="14.4"
       transform="rotate(-120,1148.3399,78)"
       font-family="sans-serif"
       fill="#3e3f3f"
       style="font-size:10.8px;text-anchor:middle"
       id="text108">(22%)</text>
    <text
       x="1153.2037"
       y="135.75"
       dy="0.050000001em"
       transform="rotate(-120,1153.2037,135.75)"
       font-family="sans-serif"
       fill="#3e3f3f"
       style="font-size:18px;text-anchor:middle"
       id="text109">52</text>
    <text
       x="1153.2037"
       y="135.75"
       dy="14.4"
       transform="rotate(-120,1153.2037,135.75)"
       font-family="sans-serif"
       fill="#3e3f3f"
       style="font-size:10.8px;text-anchor:middle"
       id="text110">(17%)</text>
    <text
       x="1153.4618"
       y="193.5"
       dy="0.050000001em"
       transform="rotate(-120,1153.4618,193.5)"
       font-family="sans-serif"
       fill="#3e3f3f"
       style="font-size:18px;text-anchor:middle"
       id="text111">51.3</text>
    <text
       x="1153.4618"
       y="193.5"
       dy="14.4"
       transform="rotate(-120,1153.4618,193.5)"
       font-family="sans-serif"
       fill="#3e3f3f"
       style="font-size:10.8px;text-anchor:middle"
       id="text112">(17%)</text>
    <text
       x="1161.3663"
       y="251.25"
       dy="0.050000001em"
       transform="rotate(-120,1161.3663,251.25)"
       font-family="sans-serif"
       fill="#3e3f3f"
       style="font-size:18px;text-anchor:middle"
       id="text113">33</text>
    <text
       x="1161.3663"
       y="251.25"
       dy="14.4"
       transform="rotate(-120,1161.3663,251.25)"
       font-family="sans-serif"
       fill="#3e3f3f"
       style="font-size:10.8px;text-anchor:middle"
       id="text114">(11%)</text>
    <text
       x="1165.4919"
       y="309"
       dy="0.050000001em"
       transform="rotate(-120,1165.4919,309)"
       font-family="sans-serif"
       fill="#3e3f3f"
       style="font-size:18px;text-anchor:middle"
       id="text115">25</text>
    <text
       x="1165.4919"
       y="309"
       dy="14.4"
       transform="rotate(-120,1165.4919,309)"
       font-family="sans-serif"
       fill="#3e3f3f"
       style="font-size:10.8px;text-anchor:middle"
       id="text116">(8%)</text>
    <text
       x="1168.2213"
       y="366.75"
       dy="0.050000001em"
       transform="rotate(-120,1168.2213,366.75)"
       font-family="sans-serif"
       fill="#3e3f3f"
       style="font-size:18px;text-anchor:middle"
       id="text117">20.4</text>
    <text
       x="1168.2213"
       y="366.75"
       dy="14.4"
       transform="rotate(-120,1168.2213,366.75)"
       font-family="sans-serif"
       fill="#3e3f3f"
       style="font-size:10.8px;text-anchor:middle"
       id="text118">(7%)</text>
    <text
       x="1166.1486"
       y="424.5"
       dy="0.050000001em"
       transform="rotate(-120,1166.1485,424.5)"
       font-family="sans-serif"
       fill="#3e3f3f"
       style="font-size:18px;text-anchor:middle"
       id="text119">23.9</text>
    <text
       x="1166.1486"
       y="424.5"
       dy="14.4"
       transform="rotate(-120,1166.1485,424.5)"
       font-family="sans-serif"
       fill="#3e3f3f"
       style="font-size:10.8px;text-anchor:middle"
       id="text120">(8%)</text>
    <text
       x="1163.3494"
       y="482.25"
       dy="0.050000001em"
       transform="rotate(-120,1163.3494,482.25)"
       font-family="sans-serif"
       fill="#3e3f3f"
       style="font-size:18px;text-anchor:middle"
       id="text121">29</text>
    <text
       x="1163.3494"
       y="482.25"
       dy="14.4"
       transform="rotate(-120,1163.3494,482.25)"
       font-family="sans-serif"
       fill="#3e3f3f"
       style="font-size:10.8px;text-anchor:middle"
       id="text122">(10%)</text>
  </g>
</svg>
