<?xml version="1.0" encoding="UTF-8" standalone="no"?>
<svg
   width="502.6308"
   height="860.20837"
   version="1.1"
   id="svg86"
   sodipodi:docname="diagram_sankey.svg"
   inkscape:export-filename="diagram_sankey.svg"
   inkscape:export-xdpi="96"
   inkscape:export-ydpi="96"
   inkscape:version="1.3.2 (091e20e, 2023-11-25)"
   xmlns:inkscape="http://www.inkscape.org/namespaces/inkscape"
   xmlns:sodipodi="http://sodipodi.sourceforge.net/DTD/sodipodi-0.dtd"
   xmlns="http://www.w3.org/2000/svg"
   xmlns:svg="http://www.w3.org/2000/svg">
  <defs
     id="defs86" />
  <sodipodi:namedview
     id="namedview86"
     pagecolor="#ffffff"
     bordercolor="#000000"
     borderopacity="0.25"
     inkscape:showpageshadow="2"
     inkscape:pageopacity="0.0"
     inkscape:pagecheckerboard="0"
     inkscape:deskcolor="#d1d1d1"
     inkscape:zoom="0.72299782"
     inkscape:cx="286.30792"
     inkscape:cy="560.85923"
     inkscape:window-width="1392"
     inkscape:window-height="1212"
     inkscape:window-x="0"
     inkscape:window-y="25"
     inkscape:window-maximized="0"
     inkscape:current-layer="svg86" />
  <g
     id="g86"
     transform="rotate(90,309.4524,248.48796)">
    <defs
       id="defs22">
      <marker
         id="marker0"
         markerWidth="6"
         markerHeight="6"
         refX="5"
         refY="3">
        <circle
           cx="3"
           cy="3"
           r="3"
           style="fill:#dcf0c1"
           id="circle1" />
      </marker>
      <marker
         id="marker1"
         markerWidth="6"
         markerHeight="6"
         refX="5"
         refY="3">
        <circle
           cx="3"
           cy="3"
           r="3"
           style="fill:#bae08c"
           id="circle2" />
      </marker>
      <marker
         id="marker2"
         markerWidth="6"
         markerHeight="6"
         refX="5"
         refY="3">
        <circle
           cx="3"
           cy="3"
           r="3"
           style="fill:#f9edf2"
           id="circle3" />
      </marker>
      <marker
         id="marker3"
         markerWidth="6"
         markerHeight="6"
         refX="5"
         refY="3">
        <circle
           cx="3"
           cy="3"
           r="3"
           style="fill:#f9edf2"
           id="circle4" />
      </marker>
      <marker
         id="marker4"
         markerWidth="6"
         markerHeight="6"
         refX="5"
         refY="3">
        <circle
           cx="3"
           cy="3"
           r="3"
           style="fill:#f9edf2"
           id="circle5" />
      </marker>
      <marker
         id="marker5"
         markerWidth="6"
         markerHeight="6"
         refX="5"
         refY="3">
        <circle
           cx="3"
           cy="3"
           r="3"
           style="fill:#e389bb"
           id="circle6" />
      </marker>
      <marker
         id="marker6"
         markerWidth="6"
         markerHeight="6"
         refX="5"
         refY="3">
        <circle
           cx="3"
           cy="3"
           r="3"
           style="fill:#e389bb"
           id="circle7" />
      </marker>
      <marker
         id="marker7"
         markerWidth="6"
         markerHeight="6"
         refX="5"
         refY="3">
        <circle
           cx="3"
           cy="3"
           r="3"
           style="fill:#e389bb"
           id="circle8" />
      </marker>
      <marker
         id="marker8"
         markerWidth="6"
         markerHeight="6"
         refX="5"
         refY="3">
        <circle
           cx="3"
           cy="3"
           r="3"
           style="fill:#f0f5e6"
           id="circle9" />
      </marker>
      <marker
         id="marker9"
         markerWidth="6"
         markerHeight="6"
         refX="5"
         refY="3">
        <circle
           cx="3"
           cy="3"
           r="3"
           style="fill:#f0f5e6"
           id="circle10" />
      </marker>
      <marker
         id="marker10"
         markerWidth="6"
         markerHeight="6"
         refX="5"
         refY="3">
        <circle
           cx="3"
           cy="3"
           r="3"
           style="fill:#f1b6d9"
           id="circle11" />
      </marker>
      <marker
         id="marker11"
         markerWidth="6"
         markerHeight="6"
         refX="5"
         refY="3">
        <circle
           cx="3"
           cy="3"
           r="3"
           style="fill:#f1b6d9"
           id="circle12" />
      </marker>
      <marker
         id="marker12"
         markerWidth="6"
         markerHeight="6"
         refX="5"
         refY="3">
        <circle
           cx="3"
           cy="3"
           r="3"
           style="fill:#f9d8ea"
           id="circle13" />
      </marker>
      <marker
         id="marker13"
         markerWidth="6"
         markerHeight="6"
         refX="5"
         refY="3">
        <circle
           cx="3"
           cy="3"
           r="3"
           style="fill:#f9d8ea"
           id="circle14" />
      </marker>
      <marker
         id="marker14"
         markerWidth="6"
         markerHeight="6"
         refX="5"
         refY="3">
        <circle
           cx="3"
           cy="3"
           r="3"
           style="fill:#f9d8ea"
           id="circle15" />
      </marker>
      <marker
         id="marker15"
         markerWidth="6"
         markerHeight="6"
         refX="5"
         refY="3">
        <circle
           cx="3"
           cy="3"
           r="3"
           style="fill:#f9d8ea"
           id="circle16" />
      </marker>
      <marker
         id="marker16"
         markerWidth="6"
         markerHeight="6"
         refX="5"
         refY="3">
        <circle
           cx="3"
           cy="3"
           r="3"
           style="fill:#91c758"
           id="circle17" />
      </marker>
      <marker
         id="marker17"
         markerWidth="6"
         markerHeight="6"
         refX="5"
         refY="3">
        <circle
           cx="3"
           cy="3"
           r="3"
           style="fill:#91c758"
           id="circle18" />
      </marker>
      <marker
         id="marker18"
         markerWidth="6"
         markerHeight="6"
         refX="5"
         refY="3">
        <circle
           cx="3"
           cy="3"
           r="3"
           style="fill:#68a834"
           id="circle19" />
      </marker>
      <marker
         id="marker19"
         markerWidth="6"
         markerHeight="6"
         refX="5"
         refY="3">
        <circle
           cx="3"
           cy="3"
           r="3"
           style="fill:#68a834"
           id="circle20" />
      </marker>
      <marker
         id="marker20"
         markerWidth="6"
         markerHeight="6"
         refX="5"
         refY="3">
        <circle
           cx="3"
           cy="3"
           r="3"
           style="fill:#458721"
           id="circle21" />
      </marker>
      <marker
         id="marker21"
         markerWidth="6"
         markerHeight="6"
         refX="5"
         refY="3">
        <circle
           cx="3"
           cy="3"
           r="3"
           style="fill:#458721"
           id="circle22" />
      </marker>
    </defs>
    <path
       class="link"
       fill="none"
       stroke="#dcf0c1"
       stroke-width="6.54472"
       marker-end="url(#marker0)"
       d="m 889.907,270.5 h -49.208 c -49.207,0 -147.621,0 -198.694,0 -51.074,0 -54.807,0 -58.54,-11.274 -3.734,-11.274 -7.467,-33.821 -11.2,-45.095 -3.733,-11.274 -7.466,-11.274 -9.333,-11.274 h -1.867"
       style="stroke-linecap:round;stroke-opacity:0.7"
       id="path22" />
    <path
       class="link"
       fill="none"
       stroke="#bae08c"
       stroke-width="6.02771"
       marker-end="url(#marker1)"
       d="m 892.772,312.6 h -41.588 c -41.588,0 -124.763,0 -168.227,0 -43.464,0 -47.216,0 -50.968,-25.433 -3.753,-25.434 -7.505,-76.3 -11.257,-101.734 C 616.98,160 613.228,160 611.351,160 h -1.876"
       style="stroke-linecap:round;stroke-opacity:0.7"
       id="path23" />
    <path
       class="link"
       fill="none"
       stroke="#f9edf2"
       stroke-width="5.35413"
       marker-end="url(#marker2)"
       d="M 896.505,186.3 H 830.88 c -65.626,0 -196.877,0 -264.39,0 -67.514,0 -71.291,0 -75.068,17.045 -3.777,17.045 -7.554,51.136 -11.331,68.181 -3.777,17.045 -7.554,17.045 -9.442,17.045 h -1.889"
       style="stroke-linecap:round;stroke-opacity:0.7"
       id="path24" />
    <path
       class="link"
       fill="none"
       stroke="#f9edf2"
       stroke-width="5.35413"
       marker-end="url(#marker3)"
       d="M 896.505,186.3 H 830.88 c -65.626,0 -196.877,0 -264.39,0 -67.514,0 -71.291,0 -75.068,-4.383 -3.777,-4.384 -7.554,-13.15 -11.331,-17.534 C 476.314,160 472.537,160 470.649,160 h -1.889"
       style="stroke-linecap:round;stroke-opacity:0.7"
       id="path25" />
    <path
       class="link"
       fill="none"
       stroke="#f9edf2"
       stroke-width="5.35413"
       marker-end="url(#marker4)"
       d="M 896.505,186.3 H 830.88 c -65.626,0 -196.877,0 -264.39,0 -67.514,0 -71.291,0 -75.068,2.76 -3.777,2.759 -7.554,8.278 -11.331,11.038 -3.777,2.759 -7.554,2.759 -9.442,2.759 h -1.889"
       style="stroke-linecap:round;stroke-opacity:0.7"
       id="path26" />
    <path
       class="link"
       fill="none"
       stroke="#e389bb"
       stroke-width="6.04152"
       marker-end="url(#marker5)"
       d="m 892.695,60 h -88.792 c -88.791,0 -266.375,0 -357.043,0 -90.668,0 -94.419,0 -98.171,16.667 -3.752,16.666 -7.503,50 -11.255,66.666 C 333.682,160 329.931,160 328.055,160 h -1.876"
       style="stroke-linecap:round;stroke-opacity:0.7"
       id="path27" />
    <path
       class="link"
       fill="none"
       stroke="#e389bb"
       stroke-width="6.04152"
       marker-end="url(#marker6)"
       d="m 892.695,60 h -88.792 c -88.791,0 -266.375,0 -357.043,0 -90.668,0 -94.419,0 -98.171,23.81 -3.752,23.809 -7.503,71.428 -11.255,95.238 -3.752,23.809 -7.503,23.809 -9.379,23.809 h -1.876"
       style="stroke-linecap:round;stroke-opacity:0.7"
       id="path28" />
    <path
       class="link"
       fill="none"
       stroke="#e389bb"
       stroke-width="6.04152"
       marker-end="url(#marker7)"
       d="m 892.695,60 h -88.792 c -88.791,0 -266.375,0 -357.043,0 -90.668,0 -94.419,0 -98.171,30.952 -3.752,30.953 -7.503,92.858 -11.255,123.81 -3.752,30.952 -7.503,30.952 -9.379,30.952 h -1.876"
       style="stroke-linecap:round;stroke-opacity:0.7"
       id="path29" />
    <path
       class="link"
       fill="none"
       stroke="#f0f5e6"
       stroke-width="6.16441"
       marker-end="url(#marker8)"
       d="m 892.014,228.4 h -57.25 c -57.249,0 -171.749,0 -230.872,0 -59.124,0 -62.871,0 -66.618,-11.4 -3.747,-11.4 -7.495,-34.2 -11.242,-45.6 C 522.285,160 518.538,160 516.664,160 h -1.873"
       style="stroke-linecap:round;stroke-opacity:0.7"
       id="path30" />
    <path
       class="link"
       fill="none"
       stroke="#f0f5e6"
       stroke-width="6.16441"
       marker-end="url(#marker9)"
       d="m 892.014,228.4 h -57.25 c -57.249,0 -171.749,0 -230.872,0 -59.124,0 -62.871,0 -66.618,-4.257 -3.747,-4.257 -7.495,-12.772 -11.242,-17.029 -3.747,-4.257 -7.494,-4.257 -9.368,-4.257 h -1.873"
       style="stroke-linecap:round;stroke-opacity:0.7"
       id="path31" />
    <path
       class="link"
       fill="none"
       stroke="#f1b6d9"
       stroke-width="5.18009"
       marker-end="url(#marker10)"
       d="m 897.47,102.1 h -81.606 c -81.606,0 -244.817,0 -328.314,0 -83.497,0 -87.28,0 -91.064,9.65 -3.783,9.65 -7.566,28.95 -11.35,38.6 -3.783,9.65 -7.566,9.65 -9.458,9.65 h -1.892"
       style="stroke-linecap:round;stroke-opacity:0.7"
       id="path32" />
    <path
       class="link"
       fill="none"
       stroke="#f1b6d9"
       stroke-width="5.18009"
       marker-end="url(#marker11)"
       d="m 897.47,102.1 h -81.606 c -81.606,0 -244.817,0 -328.314,0 -83.497,0 -87.28,0 -91.064,23.936 -3.783,23.935 -7.566,71.807 -11.35,95.743 -3.783,23.935 -7.566,23.935 -9.458,23.935 h -1.892"
       style="stroke-linecap:round;stroke-opacity:0.7"
       id="path33" />
    <path
       class="link"
       fill="none"
       stroke="#f9d8ea"
       stroke-width="5.08265"
       marker-end="url(#marker12)"
       d="m 898.01,144.2 h -73.741 c -73.741,0 -221.222,0 -296.856,0 -75.634,0 -79.421,0 -83.208,24.062 -3.787,24.062 -7.573,72.186 -11.36,96.248 -3.787,24.061 -7.574,24.061 -9.468,24.061 h -1.893"
       style="stroke-linecap:round;stroke-opacity:0.7"
       id="path34" />
    <path
       class="link"
       fill="none"
       stroke="#f9d8ea"
       stroke-width="5.08265"
       marker-end="url(#marker13)"
       d="m 898.01,144.2 h -73.741 c -73.741,0 -221.222,0 -296.856,0 -75.634,0 -79.421,0 -83.208,2.633 -3.787,2.634 -7.573,7.9 -11.36,10.534 C 429.058,160 425.271,160 423.377,160 h -1.893"
       style="stroke-linecap:round;stroke-opacity:0.7"
       id="path35" />
    <path
       class="link"
       fill="none"
       stroke="#f9d8ea"
       stroke-width="5.08265"
       marker-end="url(#marker14)"
       d="m 898.01,144.2 h -73.741 c -73.741,0 -221.222,0 -296.856,0 -75.634,0 -79.421,0 -83.208,31.205 -3.787,31.205 -7.573,93.614 -11.36,124.819 -3.787,31.205 -7.574,31.205 -9.468,31.205 h -1.893"
       style="stroke-linecap:round;stroke-opacity:0.7"
       id="path36" />
    <path
       class="link"
       fill="none"
       stroke="#f9d8ea"
       stroke-width="5.08265"
       marker-end="url(#marker15)"
       d="m 898.01,144.2 h -73.741 c -73.741,0 -221.222,0 -296.856,0 -75.634,0 -79.421,0 -83.208,9.776 -3.787,9.776 -7.573,29.329 -11.36,39.105 -3.787,9.776 -7.574,9.776 -9.468,9.776 h -1.893"
       style="stroke-linecap:round;stroke-opacity:0.7"
       id="path37" />
    <path
       class="link"
       fill="none"
       stroke="#91c758"
       stroke-width="5.80947"
       marker-end="url(#marker16)"
       d="m 893.981,354.7 h -33.79 c -33.79,0 -101.371,0 -137.042,0 -35.67,0 -39.431,0 -43.191,-25.307 -3.76,-25.307 -7.52,-75.922 -11.28,-101.229 -3.761,-25.307 -7.521,-25.307 -9.401,-25.307 h -1.88"
       style="stroke-linecap:round;stroke-opacity:0.7"
       id="path38" />
    <path
       class="link"
       fill="none"
       stroke="#91c758"
       stroke-width="5.80947"
       marker-end="url(#marker17)"
       d="m 893.981,354.7 h -33.79 c -33.79,0 -101.371,0 -137.042,0 -35.67,0 -39.431,0 -43.191,3.264 -3.76,3.265 -7.52,9.793 -11.28,13.057 -3.761,3.265 -7.521,3.265 -9.401,3.265 h -1.88"
       style="stroke-linecap:round;stroke-opacity:0.7"
       id="path39" />
    <path
       class="link"
       fill="none"
       stroke="#68a834"
       stroke-width="4.12311"
       marker-end="url(#marker18)"
       d="m 903.328,396.8 h -26.331 c -26.331,0 -78.992,0 -107.234,0 -28.241,0 -32.064,0 -35.886,3.39 -3.822,3.391 -7.644,10.172 -11.466,13.562 -3.822,3.391 -7.644,3.391 -9.555,3.391 h -1.911"
       style="stroke-linecap:round;stroke-opacity:0.7"
       id="path40" />
    <path
       class="link"
       fill="none"
       stroke="#68a834"
       stroke-width="4.12311"
       marker-end="url(#marker19)"
       d="m 903.328,396.8 h -26.331 c -26.331,0 -78.992,0 -107.234,0 -28.241,0 -32.064,0 -35.886,-32.324 -3.822,-32.324 -7.644,-96.971 -11.466,-129.295 -3.822,-32.324 -7.644,-32.324 -9.555,-32.324 h -1.911"
       style="stroke-linecap:round;stroke-opacity:0.7"
       id="path41" />
    <path
       class="link"
       fill="none"
       stroke="#458721"
       stroke-width="3.77492"
       marker-end="url(#marker20)"
       d="m 905.257,438.9 h -18.376 c -18.376,0 -55.127,0 -75.421,0 -20.293,0 -24.128,0 -27.963,3.517 -3.835,3.516 -7.67,10.55 -11.505,14.066 C 768.158,460 764.323,460 762.405,460 h -1.917"
       style="stroke-linecap:round;stroke-opacity:0.7"
       id="path42" />
    <path
       class="link"
       fill="none"
       stroke="#458721"
       stroke-width="3.77492"
       marker-end="url(#marker21)"
       d="m 905.257,438.9 h -18.376 c -18.376,0 -55.127,0 -75.421,0 -20.293,0 -24.128,0 -27.963,-3.626 -3.835,-3.626 -7.67,-10.879 -11.505,-14.505 -3.834,-3.626 -7.669,-3.626 -9.587,-3.626 h -1.917"
       style="stroke-linecap:round;stroke-opacity:0.7"
       id="path43" />
    <text
       text-anchor="end"
       font-size="10.8px"
       fill="#3e3f3f"
       style="font-family:sans-serif"
       x="308.17886"
       y="160"
       transform="rotate(-30,308.17887,160)"
       id="text43"><tspan
         x="308.17886"
         dy="0"
         id="tspan43">社内トレーニングとサポート体制の強化</tspan></text>
    <text
       x="335.17886"
       y="160"
       dy="0.050000001em"
       transform="rotate(-60,335.17887,160)"
       font-family="sans-serif"
       fill="#3e3f3f"
       style="font-size:18px;text-anchor:middle"
       id="text44">192.2</text>
    <text
       x="335.17886"
       y="160"
       dy="14.4"
       transform="rotate(-60,335.17887,160)"
       font-family="sans-serif"
       fill="#3e3f3f"
       style="font-size:10.8px;text-anchor:middle"
       id="text45">(64%)</text>
    <text
       text-anchor="end"
       font-size="10.8px"
       fill="#3e3f3f"
       style="font-family:sans-serif"
       x="308.17886"
       y="202.85715"
       transform="rotate(-30,308.17887,202.85714)"
       id="text46"><tspan
         x="308.17886"
         dy="0"
         id="tspan45">明確な対応方針を策定し、従業員に適切な研修を行う</tspan></text>
    <text
       x="335.17886"
       y="202.85715"
       dy="0.050000001em"
       transform="rotate(-60,335.17887,202.85714)"
       font-family="sans-serif"
       fill="#3e3f3f"
       style="font-size:18px;text-anchor:middle"
       id="text47">222.6</text>
    <text
       x="335.17886"
       y="202.85715"
       dy="14.4"
       transform="rotate(-60,335.17887,202.85714)"
       font-family="sans-serif"
       fill="#3e3f3f"
       style="font-size:10.8px;text-anchor:middle"
       id="text48">(74%)</text>
    <text
       text-anchor="end"
       font-size="10.8px"
       fill="#3e3f3f"
       style="font-family:sans-serif"
       x="308.17886"
       y="245.71428"
       transform="rotate(-30,308.17887,245.71429)"
       id="text49"><tspan
         x="308.17886"
         dy="0"
         id="tspan48">従業員をサポートする仕組みを整える</tspan></text>
    <text
       x="335.17886"
       y="245.71428"
       dy="0.050000001em"
       transform="rotate(-60,335.17887,245.71429)"
       font-family="sans-serif"
       fill="#3e3f3f"
       style="font-size:18px;text-anchor:middle"
       id="text50">63.3</text>
    <text
       x="335.17886"
       y="245.71428"
       dy="14.4"
       transform="rotate(-60,335.17887,245.71429)"
       font-family="sans-serif"
       fill="#3e3f3f"
       style="font-size:10.8px;text-anchor:middle"
       id="text51">(21%)</text>
    <text
       text-anchor="end"
       font-size="10.8px"
       fill="#3e3f3f"
       style="font-family:sans-serif"
       x="308.17886"
       y="288.57144"
       transform="rotate(-30,308.17887,288.57143)"
       id="text52"><tspan
         x="308.17886"
         dy="0"
         id="tspan51">従業員にクレーム処理のトレーニングを行う</tspan></text>
    <text
       x="335.17886"
       y="288.57144"
       dy="0.050000001em"
       transform="rotate(-60,335.17887,288.57143)"
       font-family="sans-serif"
       fill="#3e3f3f"
       style="font-size:18px;text-anchor:middle"
       id="text53">54.5</text>
    <text
       x="335.17886"
       y="288.57144"
       dy="14.4"
       transform="rotate(-60,335.17887,288.57143)"
       font-family="sans-serif"
       fill="#3e3f3f"
       style="font-size:10.8px;text-anchor:middle"
       id="text54">(18%)</text>
    <text
       text-anchor="end"
       font-size="10.8px"
       fill="#3e3f3f"
       style="font-family:sans-serif"
       x="308.17886"
       y="331.42856"
       transform="rotate(-30,308.17887,331.42857)"
       id="text55"><tspan
         x="308.17886"
         dy="0"
         id="tspan54">従業員への冷静な対応方法の指導と実践。</tspan></text>
    <text
       x="335.17886"
       y="331.42856"
       dy="0.050000001em"
       transform="rotate(-60,335.17887,331.42857)"
       font-family="sans-serif"
       fill="#3e3f3f"
       style="font-size:18px;text-anchor:middle"
       id="text56">25.8</text>
    <text
       x="335.17886"
       y="331.42856"
       dy="14.4"
       transform="rotate(-60,335.17887,331.42857)"
       font-family="sans-serif"
       fill="#3e3f3f"
       style="font-size:10.8px;text-anchor:middle"
       id="text57">(9%)</text>
    <text
       text-anchor="end"
       font-size="10.8px"
       fill="#3e3f3f"
       style="font-family:sans-serif"
       x="308.17886"
       y="374.28571"
       transform="rotate(-30,308.17887,374.28571)"
       id="text58"><tspan
         x="308.17886"
         dy="0"
         id="tspan57">クレーム対応のマニュアルを整備する</tspan></text>
    <text
       x="335.17886"
       y="374.28571"
       dy="0.050000001em"
       transform="rotate(-60,335.17887,374.28571)"
       font-family="sans-serif"
       fill="#3e3f3f"
       style="font-size:18px;text-anchor:middle"
       id="text59">33.8</text>
    <text
       x="335.17886"
       y="374.28571"
       dy="14.4"
       transform="rotate(-60,335.17887,374.28571)"
       font-family="sans-serif"
       fill="#3e3f3f"
       style="font-size:10.8px;text-anchor:middle"
       id="text60">(11%)</text>
    <text
       text-anchor="end"
       font-size="10.8px"
       fill="#3e3f3f"
       style="font-family:sans-serif"
       x="308.17886"
       y="417.14285"
       transform="rotate(-30,308.17887,417.14286)"
       id="text61"><tspan
         x="308.17886"
         dy="0"
         id="tspan60">状況を客観的に把握し、冷静にコミュニケーションを図る</tspan></text>
    <text
       x="335.17886"
       y="417.14285"
       dy="0.050000001em"
       transform="rotate(-60,335.17887,417.14286)"
       font-family="sans-serif"
       fill="#3e3f3f"
       style="font-size:18px;text-anchor:middle"
       id="text62">31.3</text>
    <text
       x="335.17886"
       y="417.14285"
       dy="14.4"
       transform="rotate(-60,335.17887,417.14286)"
       font-family="sans-serif"
       fill="#3e3f3f"
       style="font-size:10.8px;text-anchor:middle"
       id="text63">(10%)</text>
    <text
       text-anchor="end"
       font-size="10.8px"
       fill="#3e3f3f"
       style="font-family:sans-serif"
       x="308.17886"
       y="460"
       transform="rotate(-30,308.17887,460)"
       id="text64"><tspan
         x="308.17886"
         dy="0"
         id="tspan63">顧客の感情を尊重し、問題解決に努める</tspan></text>
    <text
       x="335.17886"
       y="460"
       dy="0.050000001em"
       transform="rotate(-60,335.17887,460)"
       font-family="sans-serif"
       fill="#3e3f3f"
       style="font-size:18px;text-anchor:middle"
       id="text65">14.3</text>
    <text
       x="335.17886"
       y="460"
       dy="14.4"
       transform="rotate(-60,335.17887,460)"
       font-family="sans-serif"
       fill="#3e3f3f"
       style="font-size:10.8px;text-anchor:middle"
       id="text66">(5%)</text>
    <text
       x="884.63873"
       y="78"
       dy="0.050000001em"
       transform="rotate(-60,884.63873,78)"
       font-family="sans-serif"
       fill="#3e3f3f"
       style="font-size:18px;text-anchor:middle"
       id="text67">36.5</text>
    <text
       x="884.63873"
       y="78"
       dy="14.4"
       transform="rotate(-60,884.63873,78)"
       font-family="sans-serif"
       fill="#3e3f3f"
       style="font-size:10.8px;text-anchor:middle"
       id="text68">(12%)</text>
    <text
       x="890.56177"
       y="120.1"
       dy="0.050000001em"
       transform="rotate(-60,890.56174,120.1)"
       font-family="sans-serif"
       fill="#3e3f3f"
       style="font-size:18px;text-anchor:middle"
       id="text69">26.8</text>
    <text
       x="890.56177"
       y="120.1"
       dy="14.4"
       transform="rotate(-60,890.56174,120.1)"
       font-family="sans-serif"
       fill="#3e3f3f"
       style="font-size:10.8px;text-anchor:middle"
       id="text70">(9%)</text>
    <text
       x="891.23169"
       y="162.2"
       dy="0.050000001em"
       transform="rotate(-60,891.23172,162.2)"
       font-family="sans-serif"
       fill="#3e3f3f"
       style="font-size:18px;text-anchor:middle"
       id="text71">25.8</text>
    <text
       x="891.23169"
       y="162.2"
       dy="14.4"
       transform="rotate(-60,891.23172,162.2)"
       font-family="sans-serif"
       fill="#3e3f3f"
       style="font-size:10.8px;text-anchor:middle"
       id="text72">(9%)</text>
    <text
       x="889.36511"
       y="204.3"
       dy="0.050000001em"
       transform="rotate(-60,889.36511,204.3)"
       font-family="sans-serif"
       fill="#3e3f3f"
       style="font-size:18px;text-anchor:middle"
       id="text73">28.7</text>
    <text
       x="889.36511"
       y="204.3"
       dy="14.4"
       transform="rotate(-60,889.36511,204.3)"
       font-family="sans-serif"
       fill="#3e3f3f"
       style="font-size:10.8px;text-anchor:middle"
       id="text74">(10%)</text>
    <text
       x="883.79376"
       y="246.39999"
       dy="0.050000001em"
       transform="rotate(-60,883.79376,246.4)"
       font-family="sans-serif"
       fill="#3e3f3f"
       style="font-size:18px;text-anchor:middle"
       id="text75">38</text>
    <text
       x="883.79376"
       y="246.39999"
       dy="14.4"
       transform="rotate(-60,883.79376,246.4)"
       font-family="sans-serif"
       fill="#3e3f3f"
       style="font-size:10.8px;text-anchor:middle"
       id="text76">(13%)</text>
    <text
       x="881.17889"
       y="288.5"
       dy="0.050000001em"
       transform="rotate(-60,881.17887,288.5)"
       font-family="sans-serif"
       fill="#3e3f3f"
       style="font-size:18px;text-anchor:middle"
       id="text77">42.8</text>
    <text
       x="881.17889"
       y="288.5"
       dy="14.4"
       transform="rotate(-60,881.17887,288.5)"
       font-family="sans-serif"
       fill="#3e3f3f"
       style="font-size:10.8px;text-anchor:middle"
       id="text78">(14%)</text>
    <text
       x="884.7337"
       y="330.60001"
       dy="0.050000001em"
       transform="rotate(-60,884.73368,330.6)"
       font-family="sans-serif"
       fill="#3e3f3f"
       style="font-size:18px;text-anchor:middle"
       id="text79">36.3</text>
    <text
       x="884.7337"
       y="330.60001"
       dy="14.4"
       transform="rotate(-60,884.73368,330.6)"
       font-family="sans-serif"
       fill="#3e3f3f"
       style="font-size:10.8px;text-anchor:middle"
       id="text80">(12%)</text>
    <text
       x="886.23425"
       y="372.70001"
       dy="0.050000001em"
       transform="rotate(-60,886.23424,372.7)"
       font-family="sans-serif"
       fill="#3e3f3f"
       style="font-size:18px;text-anchor:middle"
       id="text81">33.8</text>
    <text
       x="886.23425"
       y="372.70001"
       dy="14.4"
       transform="rotate(-60,886.23424,372.7)"
       font-family="sans-serif"
       fill="#3e3f3f"
       style="font-size:10.8px;text-anchor:middle"
       id="text82">(11%)</text>
    <text
       x="897.82935"
       y="414.79999"
       dy="0.050000001em"
       transform="rotate(-60,897.82933,414.8)"
       font-family="sans-serif"
       fill="#3e3f3f"
       style="font-size:18px;text-anchor:middle"
       id="text83">17</text>
    <text
       x="897.82935"
       y="414.79999"
       dy="14.4"
       transform="rotate(-60,897.82933,414.8)"
       font-family="sans-serif"
       fill="#3e3f3f"
       style="font-size:10.8px;text-anchor:middle"
       id="text84">(6%)</text>
    <text
       x="900.22339"
       y="456.89999"
       dy="0.050000001em"
       transform="rotate(-60,900.2234,456.9)"
       font-family="sans-serif"
       fill="#3e3f3f"
       style="font-size:18px;text-anchor:middle"
       id="text85">14.3</text>
    <text
       x="900.22339"
       y="456.89999"
       dy="14.4"
       transform="rotate(-60,900.2234,456.9)"
       font-family="sans-serif"
       fill="#3e3f3f"
       style="font-size:10.8px;text-anchor:middle"
       id="text86">(5%)</text>
  </g>
</svg>
