<?xml version="1.0" encoding="UTF-8" standalone="no"?>
<svg
   width="502.56805"
   height="818.86243"
   version="1.1"
   id="svg97"
   sodipodi:docname="diagram_sankey.svg"
   inkscape:export-filename="diagram_sankey.svg"
   inkscape:export-xdpi="96"
   inkscape:export-ydpi="96"
   inkscape:version="1.3.2 (091e20e, 2023-11-25)"
   xmlns:inkscape="http://www.inkscape.org/namespaces/inkscape"
   xmlns:sodipodi="http://sodipodi.sourceforge.net/DTD/sodipodi-0.dtd"
   xmlns="http://www.w3.org/2000/svg"
   xmlns:svg="http://www.w3.org/2000/svg">
  <defs
     id="defs97" />
  <sodipodi:namedview
     id="namedview97"
     pagecolor="#ffffff"
     bordercolor="#000000"
     borderopacity="0.25"
     inkscape:showpageshadow="2"
     inkscape:pageopacity="0.0"
     inkscape:pagecheckerboard="0"
     inkscape:deskcolor="#d1d1d1"
     inkscape:zoom="0.2179132"
     inkscape:cx="192.73729"
     inkscape:cy="656.22458"
     inkscape:window-width="1312"
     inkscape:window-height="449"
     inkscape:window-x="0"
     inkscape:window-y="37"
     inkscape:window-maximized="0"
     inkscape:current-layer="svg97" />
  <g
     id="g97"
     transform="rotate(90,387.75923,158.1817)">
    <defs
       id="defs24">
      <marker
         id="marker0"
         markerWidth="6"
         markerHeight="6"
         refX="5"
         refY="3">
        <circle
           cx="3"
           cy="3"
           r="1.38"
           style="fill:#fde725"
           id="circle1" />
      </marker>
      <marker
         id="marker1"
         markerWidth="6"
         markerHeight="6"
         refX="5"
         refY="3">
        <circle
           cx="3"
           cy="3"
           r="1.38"
           style="fill:#fde725"
           id="circle2" />
      </marker>
      <marker
         id="marker2"
         markerWidth="6"
         markerHeight="6"
         refX="5"
         refY="3">
        <circle
           cx="3"
           cy="3"
           r="1.38"
           style="fill:#fde725"
           id="circle3" />
      </marker>
      <marker
         id="marker3"
         markerWidth="6"
         markerHeight="6"
         refX="5"
         refY="3">
        <circle
           cx="3"
           cy="3"
           r="1.38"
           style="fill:#31688e"
           id="circle4" />
      </marker>
      <marker
         id="marker4"
         markerWidth="6"
         markerHeight="6"
         refX="5"
         refY="3">
        <circle
           cx="3"
           cy="3"
           r="1.38"
           style="fill:#31688e"
           id="circle5" />
      </marker>
      <marker
         id="marker5"
         markerWidth="6"
         markerHeight="6"
         refX="5"
         refY="3">
        <circle
           cx="3"
           cy="3"
           r="1.38"
           style="fill:#90d743"
           id="circle6" />
      </marker>
      <marker
         id="marker6"
         markerWidth="6"
         markerHeight="6"
         refX="5"
         refY="3">
        <circle
           cx="3"
           cy="3"
           r="1.38"
           style="fill:#90d743"
           id="circle7" />
      </marker>
      <marker
         id="marker7"
         markerWidth="6"
         markerHeight="6"
         refX="5"
         refY="3">
        <circle
           cx="3"
           cy="3"
           r="1.38"
           style="fill:#35b779"
           id="circle8" />
      </marker>
      <marker
         id="marker8"
         markerWidth="6"
         markerHeight="6"
         refX="5"
         refY="3">
        <circle
           cx="3"
           cy="3"
           r="1.38"
           style="fill:#35b779"
           id="circle9" />
      </marker>
      <marker
         id="marker9"
         markerWidth="6"
         markerHeight="6"
         refX="5"
         refY="3">
        <circle
           cx="3"
           cy="3"
           r="1.38"
           style="fill:#35b779"
           id="circle10" />
      </marker>
      <marker
         id="marker10"
         markerWidth="6"
         markerHeight="6"
         refX="5"
         refY="3">
        <circle
           cx="3"
           cy="3"
           r="1.38"
           style="fill:#21918c"
           id="circle11" />
      </marker>
      <marker
         id="marker11"
         markerWidth="6"
         markerHeight="6"
         refX="5"
         refY="3">
        <circle
           cx="3"
           cy="3"
           r="1.38"
           style="fill:#21918c"
           id="circle12" />
      </marker>
      <marker
         id="marker12"
         markerWidth="6"
         markerHeight="6"
         refX="5"
         refY="3">
        <circle
           cx="3"
           cy="3"
           r="1.38"
           style="fill:#21918c"
           id="circle13" />
      </marker>
      <marker
         id="marker13"
         markerWidth="6"
         markerHeight="6"
         refX="5"
         refY="3">
        <circle
           cx="3"
           cy="3"
           r="1.38"
           style="fill:#21918c"
           id="circle14" />
      </marker>
      <marker
         id="marker14"
         markerWidth="6"
         markerHeight="6"
         refX="5"
         refY="3">
        <circle
           cx="3"
           cy="3"
           r="1.38"
           style="fill:#21918c"
           id="circle15" />
      </marker>
      <marker
         id="marker15"
         markerWidth="6"
         markerHeight="6"
         refX="5"
         refY="3">
        <circle
           cx="3"
           cy="3"
           r="1.38"
           style="fill:#21918c"
           id="circle16" />
      </marker>
      <marker
         id="marker16"
         markerWidth="6"
         markerHeight="6"
         refX="5"
         refY="3">
        <circle
           cx="3"
           cy="3"
           r="1.38"
           style="fill:#21918c"
           id="circle17" />
      </marker>
      <marker
         id="marker17"
         markerWidth="6"
         markerHeight="6"
         refX="5"
         refY="3">
        <circle
           cx="3"
           cy="3"
           r="1.38"
           style="fill:#443983"
           id="circle18" />
      </marker>
      <marker
         id="marker18"
         markerWidth="6"
         markerHeight="6"
         refX="5"
         refY="3">
        <circle
           cx="3"
           cy="3"
           r="1.38"
           style="fill:#443983"
           id="circle19" />
      </marker>
      <marker
         id="marker19"
         markerWidth="6"
         markerHeight="6"
         refX="5"
         refY="3">
        <circle
           cx="3"
           cy="3"
           r="1.38"
           style="fill:#443983"
           id="circle20" />
      </marker>
      <marker
         id="marker20"
         markerWidth="6"
         markerHeight="6"
         refX="5"
         refY="3">
        <circle
           cx="3"
           cy="3"
           r="1.38"
           style="fill:#443983"
           id="circle21" />
      </marker>
      <marker
         id="marker21"
         markerWidth="6"
         markerHeight="6"
         refX="5"
         refY="3">
        <circle
           cx="3"
           cy="3"
           r="1.38"
           style="fill:#443983"
           id="circle22" />
      </marker>
      <marker
         id="marker22"
         markerWidth="6"
         markerHeight="6"
         refX="5"
         refY="3">
        <circle
           cx="3"
           cy="3"
           r="1.38"
           style="fill:#443983"
           id="circle23" />
      </marker>
      <marker
         id="marker23"
         markerWidth="6"
         markerHeight="6"
         refX="5"
         refY="3">
        <circle
           cx="3"
           cy="3"
           r="1.38"
           style="fill:#443983"
           id="circle24" />
      </marker>
    </defs>
    <path
       class="link"
       fill="none"
       stroke="#fde725"
       stroke-width="1.425"
       marker-end="url(#marker0)"
       d="m 1028.411,122 h -65.044 c -65.044,0 -195.133,0 -264.732,0 -69.599,0 -78.708,0 -87.818,-4.208 -9.109,-4.209 -18.219,-12.625 -27.328,-16.834 -9.11,-4.208 -18.219,-4.208 -22.774,-4.208 h -4.555"
       style="stroke-linecap:round;stroke-opacity:0.7"
       id="path24" />
    <path
       class="link"
       fill="none"
       stroke="#fde725"
       stroke-width="1.425"
       marker-end="url(#marker1)"
       d="m 1028.411,122 h -65.044 c -65.044,0 -195.133,0 -264.732,0 -69.599,0 -78.708,0 -87.818,-10.333 -9.109,-10.334 -18.219,-31 -27.328,-41.334 C 574.379,60 565.27,60 560.715,60 h -4.555"
       style="stroke-linecap:round;stroke-opacity:0.7"
       id="path25" />
    <path
       class="link"
       fill="none"
       stroke="#fde725"
       stroke-width="1.425"
       marker-end="url(#marker2)"
       d="m 1028.411,122 h -65.044 c -65.044,0 -195.133,0 -264.732,0 -69.599,0 -78.708,0 -87.818,1.917 -9.109,1.916 -18.219,5.75 -27.328,7.666 -9.11,1.917 -18.219,1.917 -22.774,1.917 h -4.555"
       style="stroke-linecap:round;stroke-opacity:0.7"
       id="path26" />
    <path
       class="link"
       fill="none"
       stroke="#31688e"
       stroke-width="7.79"
       marker-end="url(#marker3)"
       d="m 998.265,398 h -24.05 c -24.05,0 -72.15,0 -100.464,0 -28.314,0 -36.842,0 -45.37,-25.708 -8.528,-25.709 -17.056,-77.125 -25.584,-102.834 -8.528,-25.708 -17.056,-25.708 -21.32,-25.708 h -4.265"
       style="stroke-linecap:round;stroke-opacity:0.7"
       id="path27" />
    <path
       class="link"
       fill="none"
       stroke="#31688e"
       stroke-width="7.79"
       marker-end="url(#marker4)"
       d="m 998.265,398 h -24.05 c -24.05,0 -72.15,0 -100.464,0 -28.314,0 -36.842,0 -45.37,-44.083 C 819.853,309.833 811.325,221.667 802.797,177.583 794.269,133.5 785.741,133.5 781.477,133.5 h -4.265"
       style="stroke-linecap:round;stroke-opacity:0.7"
       id="path28" />
    <path
       class="link"
       fill="none"
       stroke="#90d743"
       stroke-width="4.18"
       marker-end="url(#marker5)"
       d="m 1015.363,191 h -53.681 c -53.68,0 -161.041,0 -219.15,0 -58.109,0 -66.967,0 -75.825,8.792 -8.857,8.791 -17.715,26.375 -26.573,35.166 -8.858,8.792 -17.716,8.792 -22.145,8.792 h -4.429"
       style="stroke-linecap:round;stroke-opacity:0.7"
       id="path29" />
    <path
       class="link"
       fill="none"
       stroke="#90d743"
       stroke-width="4.18"
       marker-end="url(#marker6)"
       d="m 1015.363,191 h -53.681 c -53.68,0 -161.041,0 -219.15,0 -58.109,0 -66.967,0 -75.825,2.667 -8.857,2.666 -17.715,8 -26.573,10.666 C 631.276,207 622.418,207 617.989,207 h -4.429"
       style="stroke-linecap:round;stroke-opacity:0.7"
       id="path30" />
    <path
       class="link"
       fill="none"
       stroke="#35b779"
       stroke-width="3.325"
       marker-end="url(#marker7)"
       d="M 1019.412,260 H 974.91 c -44.503,0 -133.508,0 -182.479,0 -48.97,0 -57.906,0 -66.842,-2.708 -8.936,-2.709 -17.872,-8.125 -26.808,-10.834 -8.936,-2.708 -17.872,-2.708 -22.34,-2.708 h -4.468"
       style="stroke-linecap:round;stroke-opacity:0.7"
       id="path31" />
    <path
       class="link"
       fill="none"
       stroke="#35b779"
       stroke-width="3.325"
       marker-end="url(#marker8)"
       d="M 1019.412,260 H 974.91 c -44.503,0 -133.508,0 -182.479,0 -48.97,0 -57.906,0 -66.842,-33.333 -8.936,-33.334 -17.872,-100 -26.808,-133.334 C 689.845,60 680.909,60 676.441,60 h -4.468"
       style="stroke-linecap:round;stroke-opacity:0.7"
       id="path32" />
    <path
       class="link"
       fill="none"
       stroke="#35b779"
       stroke-width="3.325"
       marker-end="url(#marker9)"
       d="M 1019.412,260 H 974.91 c -44.503,0 -133.508,0 -182.479,0 -48.97,0 -57.906,0 -66.842,40.167 -8.936,40.166 -17.872,120.5 -26.808,160.666 C 689.845,501 680.909,501 676.441,501 h -4.468"
       style="stroke-linecap:round;stroke-opacity:0.7"
       id="path33" />
    <path
       class="link"
       fill="none"
       stroke="#21918c"
       stroke-width="0.57"
       marker-end="url(#marker10)"
       d="m 1032.46,329 h -35.833 c -35.833,0 -107.499,0 -147.926,0 -40.427,0 -49.615,0 -58.802,-32.583 -9.188,-32.584 -18.376,-97.75 -27.563,-130.334 C 753.148,133.5 743.96,133.5 739.366,133.5 h -4.593"
       style="stroke-linecap:round;stroke-opacity:0.7"
       id="path34" />
    <path
       class="link"
       fill="none"
       stroke="#21918c"
       stroke-width="0.57"
       marker-end="url(#marker11)"
       d="m 1032.46,329 h -35.833 c -35.833,0 -107.499,0 -147.926,0 -40.427,0 -49.615,0 -58.802,-14.208 -9.188,-14.209 -18.376,-42.625 -27.563,-56.834 -9.188,-14.208 -18.376,-14.208 -22.97,-14.208 h -4.593"
       style="stroke-linecap:round;stroke-opacity:0.7"
       id="path35" />
    <path
       class="link"
       fill="none"
       stroke="#21918c"
       stroke-width="0.57"
       marker-end="url(#marker12)"
       d="m 1032.46,329 h -35.833 c -35.833,0 -107.499,0 -147.926,0 -40.427,0 -49.615,0 -58.802,4.167 -9.188,4.166 -18.376,12.5 -27.563,16.666 C 753.148,354 743.96,354 739.366,354 h -4.593"
       style="stroke-linecap:round;stroke-opacity:0.7"
       id="path36" />
    <path
       class="link"
       fill="none"
       stroke="#21918c"
       stroke-width="0.57"
       marker-end="url(#marker13)"
       d="m 1032.46,329 h -35.833 c -35.833,0 -107.499,0 -147.926,0 -40.427,0 -49.615,0 -58.802,16.417 -9.188,16.416 -18.376,49.25 -27.563,65.666 -9.188,16.417 -18.376,16.417 -22.97,16.417 h -4.593"
       style="stroke-linecap:round;stroke-opacity:0.7"
       id="path37" />
    <path
       class="link"
       fill="none"
       stroke="#21918c"
       stroke-width="0.57"
       marker-end="url(#marker14)"
       d="m 1032.46,329 h -35.833 c -35.833,0 -107.499,0 -147.926,0 -40.427,0 -49.615,0 -58.802,-8.083 -9.188,-8.084 -18.376,-24.25 -27.563,-32.334 -9.188,-8.083 -18.376,-8.083 -22.97,-8.083 h -4.593"
       style="stroke-linecap:round;stroke-opacity:0.7"
       id="path38" />
    <path
       class="link"
       fill="none"
       stroke="#21918c"
       stroke-width="0.57"
       marker-end="url(#marker15)"
       d="m 1032.46,329 h -35.833 c -35.833,0 -107.499,0 -147.926,0 -40.427,0 -49.615,0 -58.802,-1.958 -9.188,-1.959 -18.376,-5.875 -27.563,-7.834 -9.188,-1.958 -18.376,-1.958 -22.97,-1.958 h -4.593"
       style="stroke-linecap:round;stroke-opacity:0.7"
       id="path39" />
    <path
       class="link"
       fill="none"
       stroke="#21918c"
       stroke-width="0.57"
       marker-end="url(#marker16)"
       d="m 1032.46,329 h -35.833 c -35.833,0 -107.499,0 -147.926,0 -40.427,0 -49.615,0 -58.802,-26.458 -9.188,-26.459 -18.376,-79.375 -27.563,-105.834 -9.188,-26.458 -18.376,-26.458 -22.97,-26.458 h -4.593"
       style="stroke-linecap:round;stroke-opacity:0.7"
       id="path40" />
    <path
       class="link"
       fill="none"
       stroke="#443983"
       stroke-width="1.71"
       marker-end="url(#marker17)"
       d="m 1027.061,467 h -15.806 c -15.806,0 -47.418,0 -67.766,0 -20.348,0 -29.431,0 -38.515,-0.458 -9.083,-0.459 -18.167,-1.375 -27.25,-1.834 -9.084,-0.458 -18.167,-0.458 -22.709,-0.458 h -4.542"
       style="stroke-linecap:round;stroke-opacity:0.7"
       id="path41" />
    <path
       class="link"
       fill="none"
       stroke="#443983"
       stroke-width="1.71"
       marker-end="url(#marker18)"
       d="m 1027.061,467 h -15.806 c -15.806,0 -47.418,0 -67.766,0 -20.348,0 -29.431,0 -38.515,-55.583 -9.083,-55.584 -18.167,-166.75 -27.25,-222.334 C 868.64,133.5 859.557,133.5 855.015,133.5 h -4.542"
       style="stroke-linecap:round;stroke-opacity:0.7"
       id="path42" />
    <path
       class="link"
       fill="none"
       stroke="#443983"
       stroke-width="1.71"
       marker-end="url(#marker19)"
       d="m 1027.061,467 h -15.806 c -15.806,0 -47.418,0 -67.766,0 -20.348,0 -29.431,0 -38.515,-12.708 -9.083,-12.709 -18.167,-38.125 -27.25,-50.834 C 868.64,390.75 859.557,390.75 855.015,390.75 h -4.542"
       style="stroke-linecap:round;stroke-opacity:0.7"
       id="path43" />
    <path
       class="link"
       fill="none"
       stroke="#443983"
       stroke-width="1.71"
       marker-end="url(#marker20)"
       d="m 1027.061,467 h -15.806 c -15.806,0 -47.418,0 -67.766,0 -20.348,0 -29.431,0 -38.515,-37.208 C 895.891,392.583 886.807,318.167 877.724,280.958 868.64,243.75 859.557,243.75 855.015,243.75 h -4.542"
       style="stroke-linecap:round;stroke-opacity:0.7"
       id="path44" />
    <path
       class="link"
       fill="none"
       stroke="#443983"
       stroke-width="1.71"
       marker-end="url(#marker21)"
       d="m 1027.061,467 h -15.806 c -15.806,0 -47.418,0 -67.766,0 -20.348,0 -29.431,0 -38.515,-18.833 -9.083,-18.834 -18.167,-56.5 -27.25,-75.334 C 868.64,354 859.557,354 855.015,354 h -4.542"
       style="stroke-linecap:round;stroke-opacity:0.7"
       id="path45" />
    <path
       class="link"
       fill="none"
       stroke="#443983"
       stroke-width="1.71"
       marker-end="url(#marker22)"
       d="m 1027.061,467 h -15.806 c -15.806,0 -47.418,0 -67.766,0 -20.348,0 -29.431,0 -38.515,-31.083 -9.083,-31.084 -18.167,-93.25 -27.25,-124.334 C 868.64,280.5 859.557,280.5 855.015,280.5 h -4.542"
       style="stroke-linecap:round;stroke-opacity:0.7"
       id="path46" />
    <path
       class="link"
       fill="none"
       stroke="#443983"
       stroke-width="1.71"
       marker-end="url(#marker23)"
       d="m 1027.061,467 h -15.806 c -15.806,0 -47.418,0 -67.766,0 -20.348,0 -29.431,0 -38.515,-49.458 C 895.891,368.083 886.807,269.167 877.724,219.708 868.64,170.25 859.557,170.25 855.015,170.25 h -4.542"
       style="stroke-linecap:round;stroke-opacity:0.7"
       id="path47" />
    <text
       text-anchor="end"
       font-size="10.8px"
       fill="#3e3f3f"
       style="font-family:sans-serif"
       x="538.15997"
       y="60"
       transform="rotate(-10,538.16,60)"
       id="text47"><tspan
         x="538.15997"
         dy="0"
         id="tspan47">Provide education on nutrition</tspan></text>
    <text
       x="565.15997"
       y="60"
       dy="0.050000001em"
       transform="rotate(-90,565.16,60)"
       font-family="sans-serif"
       fill="#3e3f3f"
       style="font-size:18px;text-anchor:middle"
       id="text48">25</text>
    <text
       x="565.15997"
       y="60"
       dy="14.4"
       transform="rotate(-90,565.16,60)"
       font-family="sans-serif"
       fill="#3e3f3f"
       style="font-size:10.8px;text-anchor:middle"
       id="text49">(25%)</text>
    <text
       text-anchor="end"
       font-size="10.8px"
       fill="#3e3f3f"
       style="font-family:sans-serif"
       x="538.15997"
       y="96.75"
       transform="rotate(-10,538.16,96.75)"
       id="text50"><tspan
         x="538.15997"
         dy="0"
         id="tspan49">Empower local communities</tspan></text>
    <text
       x="565.15997"
       y="96.75"
       dy="0.050000001em"
       transform="rotate(-90,565.16,96.75)"
       font-family="sans-serif"
       fill="#3e3f3f"
       style="font-size:18px;text-anchor:middle"
       id="text51">7.5</text>
    <text
       x="565.15997"
       y="96.75"
       dy="14.4"
       transform="rotate(-90,565.16,96.75)"
       font-family="sans-serif"
       fill="#3e3f3f"
       style="font-size:10.8px;text-anchor:middle"
       id="text52">(8%)</text>
    <text
       text-anchor="end"
       font-size="10.8px"
       fill="#3e3f3f"
       style="font-family:sans-serif"
       x="538.15997"
       y="133.5"
       transform="rotate(-10,538.16,133.5)"
       id="text53"><tspan
         x="538.15997"
         dy="0"
         id="tspan52">Boost local food production and improve supply chain</tspan><tspan
         x="538.15997"
         dy="1.2em"
         id="tspan53">logistics</tspan></text>
    <text
       x="565.15997"
       y="133.5"
       dy="0.050000001em"
       transform="rotate(-90,565.16,133.5)"
       font-family="sans-serif"
       fill="#3e3f3f"
       style="font-size:18px;text-anchor:middle"
       id="text54">60.5</text>
    <text
       x="565.15997"
       y="133.5"
       dy="14.4"
       transform="rotate(-90,565.16,133.5)"
       font-family="sans-serif"
       fill="#3e3f3f"
       style="font-size:10.8px;text-anchor:middle"
       id="text55">(61%)</text>
    <text
       text-anchor="end"
       font-size="10.8px"
       fill="#3e3f3f"
       style="font-family:sans-serif"
       x="538.15997"
       y="170.25"
       transform="rotate(-10,538.16,170.25)"
       id="text56"><tspan
         x="538.15997"
         dy="0"
         id="tspan55">Empower local communities in food-related</tspan><tspan
         x="538.15997"
         dy="1.2em"
         id="tspan56">decision-making</tspan></text>
    <text
       x="565.15997"
       y="170.25"
       dy="0.050000001em"
       transform="rotate(-90,565.16,170.25)"
       font-family="sans-serif"
       fill="#3e3f3f"
       style="font-size:18px;text-anchor:middle"
       id="text57">12</text>
    <text
       x="565.15997"
       y="170.25"
       dy="14.4"
       transform="rotate(-90,565.16,170.25)"
       font-family="sans-serif"
       fill="#3e3f3f"
       style="font-size:10.8px;text-anchor:middle"
       id="text58">(12%)</text>
    <text
       text-anchor="end"
       font-size="10.8px"
       fill="#3e3f3f"
       style="font-family:sans-serif"
       x="538.15997"
       y="207"
       transform="rotate(-10,538.16,207)"
       id="text59"><tspan
         x="538.15997"
         dy="0"
         id="tspan58">Strengthen social safety nets</tspan></text>
    <text
       x="565.15997"
       y="207"
       dy="0.050000001em"
       transform="rotate(-90,565.16,207)"
       font-family="sans-serif"
       fill="#3e3f3f"
       style="font-size:18px;text-anchor:middle"
       id="text60">22</text>
    <text
       x="565.15997"
       y="207"
       dy="14.4"
       transform="rotate(-90,565.16,207)"
       font-family="sans-serif"
       fill="#3e3f3f"
       style="font-size:10.8px;text-anchor:middle"
       id="text61">(22%)</text>
    <text
       text-anchor="end"
       font-size="10.8px"
       fill="#3e3f3f"
       style="font-family:sans-serif"
       x="538.15997"
       y="243.75"
       transform="rotate(-10,538.16,243.75)"
       id="text62"><tspan
         x="538.15997"
         dy="0"
         id="tspan61">Implement sustainable farming techniques and reduce</tspan><tspan
         x="538.15997"
         dy="1.2em"
         id="tspan62">food waste</tspan></text>
    <text
       x="565.15997"
       y="243.75"
       dy="0.050000001em"
       transform="rotate(-90,565.16,243.75)"
       font-family="sans-serif"
       fill="#3e3f3f"
       style="font-size:18px;text-anchor:middle"
       id="text63">92.5</text>
    <text
       x="565.15997"
       y="243.75"
       dy="14.4"
       transform="rotate(-90,565.16,243.75)"
       font-family="sans-serif"
       fill="#3e3f3f"
       style="font-size:10.8px;text-anchor:middle"
       id="text64">(93%)</text>
    <text
       text-anchor="end"
       font-size="10.8px"
       fill="#3e3f3f"
       style="font-family:sans-serif"
       x="538.15997"
       y="280.5"
       transform="rotate(-10,538.16,280.5)"
       id="text65"><tspan
         x="538.15997"
         dy="0"
         id="tspan64">Improve access to education and resources for</tspan><tspan
         x="538.15997"
         dy="1.2em"
         id="tspan65">small-scale farmers</tspan></text>
    <text
       x="565.15997"
       y="280.5"
       dy="0.050000001em"
       transform="rotate(-90,565.16,280.5)"
       font-family="sans-serif"
       fill="#3e3f3f"
       style="font-size:18px;text-anchor:middle"
       id="text66">12</text>
    <text
       x="565.15997"
       y="280.5"
       dy="14.4"
       transform="rotate(-90,565.16,280.5)"
       font-family="sans-serif"
       fill="#3e3f3f"
       style="font-size:10.8px;text-anchor:middle"
       id="text67">(12%)</text>
    <text
       text-anchor="end"
       font-size="10.8px"
       fill="#3e3f3f"
       style="font-family:sans-serif"
       x="538.15997"
       y="317.25"
       transform="rotate(-10,538.16,317.25)"
       id="text68"><tspan
         x="538.15997"
         dy="0"
         id="tspan67">Improve nutrition education and awareness programs.</tspan></text>
    <text
       x="565.15997"
       y="317.25"
       dy="0.050000001em"
       transform="rotate(-90,565.16,317.25)"
       font-family="sans-serif"
       fill="#3e3f3f"
       style="font-size:18px;text-anchor:middle"
       id="text69">3</text>
    <text
       x="565.15997"
       y="317.25"
       dy="14.4"
       transform="rotate(-90,565.16,317.25)"
       font-family="sans-serif"
       fill="#3e3f3f"
       style="font-size:10.8px;text-anchor:middle"
       id="text70">(3%)</text>
    <text
       text-anchor="end"
       font-size="10.8px"
       fill="#3e3f3f"
       style="font-family:sans-serif"
       x="538.15997"
       y="354"
       transform="rotate(-10,538.16,354)"
       id="text71"><tspan
         x="538.15997"
         dy="0"
         id="tspan70">Establish multi-sectoral collaborations among</tspan><tspan
         x="538.15997"
         dy="1.2em"
         id="tspan71">governments, NGOs, and communities to address hunger.</tspan></text>
    <text
       x="565.15997"
       y="354"
       dy="0.050000001em"
       transform="rotate(-90,565.16,354)"
       font-family="sans-serif"
       fill="#3e3f3f"
       style="font-size:18px;text-anchor:middle"
       id="text72">12</text>
    <text
       x="565.15997"
       y="354"
       dy="14.4"
       transform="rotate(-90,565.16,354)"
       font-family="sans-serif"
       fill="#3e3f3f"
       style="font-size:10.8px;text-anchor:middle"
       id="text73">(12%)</text>
    <text
       text-anchor="end"
       font-size="10.8px"
       fill="#3e3f3f"
       style="font-family:sans-serif"
       x="538.15997"
       y="390.75"
       transform="rotate(-10,538.16,390.75)"
       id="text74"><tspan
         x="538.15997"
         dy="0"
         id="tspan73">Increase funding for food assistance programs targeted</tspan><tspan
         x="538.15997"
         dy="1.2em"
         id="tspan74">at vulnerable groups</tspan></text>
    <text
       x="565.15997"
       y="390.75"
       dy="0.050000001em"
       transform="rotate(-90,565.16,390.75)"
       font-family="sans-serif"
       fill="#3e3f3f"
       style="font-size:18px;text-anchor:middle"
       id="text75">9</text>
    <text
       x="565.15997"
       y="390.75"
       dy="14.4"
       transform="rotate(-90,565.16,390.75)"
       font-family="sans-serif"
       fill="#3e3f3f"
       style="font-size:10.8px;text-anchor:middle"
       id="text76">(9%)</text>
    <text
       text-anchor="end"
       font-size="10.8px"
       fill="#3e3f3f"
       style="font-family:sans-serif"
       x="538.15997"
       y="427.5"
       transform="rotate(-10,538.16,427.5)"
       id="text77"><tspan
         x="538.15997"
         dy="0"
         id="tspan76">Promote food sovereignty.</tspan></text>
    <text
       x="565.15997"
       y="427.5"
       dy="0.050000001em"
       transform="rotate(-90,565.16,427.5)"
       font-family="sans-serif"
       fill="#3e3f3f"
       style="font-size:18px;text-anchor:middle"
       id="text78">3</text>
    <text
       x="565.15997"
       y="427.5"
       dy="14.4"
       transform="rotate(-90,565.16,427.5)"
       font-family="sans-serif"
       fill="#3e3f3f"
       style="font-size:10.8px;text-anchor:middle"
       id="text79">(3%)</text>
    <text
       text-anchor="end"
       font-size="10.8px"
       fill="#3e3f3f"
       style="font-family:sans-serif"
       x="538.15997"
       y="464.25"
       transform="rotate(-10,538.16,464.25)"
       id="text80"><tspan
         x="538.15997"
         dy="0"
         id="tspan79">Promote equality to ensure all have access to safe and</tspan><tspan
         x="538.15997"
         dy="1.2em"
         id="tspan80">nutritious food</tspan></text>
    <text
       x="565.15997"
       y="464.25"
       dy="0.050000001em"
       transform="rotate(-90,565.16,464.25)"
       font-family="sans-serif"
       fill="#3e3f3f"
       style="font-size:18px;text-anchor:middle"
       id="text81">9</text>
    <text
       x="565.15997"
       y="464.25"
       dy="14.4"
       transform="rotate(-90,565.16,464.25)"
       font-family="sans-serif"
       fill="#3e3f3f"
       style="font-size:10.8px;text-anchor:middle"
       id="text82">(9%)</text>
    <text
       text-anchor="end"
       font-size="10.8px"
       fill="#3e3f3f"
       style="font-family:sans-serif"
       x="538.15997"
       y="501"
       transform="rotate(-10,538.16,501)"
       id="text83"><tspan
         x="538.15997"
         dy="0"
         id="tspan82">Address poverty through targeted interventions</tspan></text>
    <text
       x="565.15997"
       y="501"
       dy="0.050000001em"
       transform="rotate(-90,565.16,501)"
       font-family="sans-serif"
       fill="#3e3f3f"
       style="font-size:18px;text-anchor:middle"
       id="text84">17.5</text>
    <text
       x="565.15997"
       y="501"
       dy="14.4"
       transform="rotate(-90,565.16,501)"
       font-family="sans-serif"
       fill="#3e3f3f"
       style="font-size:10.8px;text-anchor:middle"
       id="text85">(18%)</text>
    <text
       x="1026.9283"
       y="140"
       dy="0.050000001em"
       transform="rotate(-90,1026.9283,140)"
       font-family="sans-serif"
       fill="#3e3f3f"
       style="font-size:18px;text-anchor:middle"
       id="text86">7.5</text>
    <text
       x="1026.9283"
       y="140"
       dy="14.4"
       transform="rotate(-90,1026.9283,140)"
       font-family="sans-serif"
       fill="#3e3f3f"
       style="font-size:10.8px;text-anchor:middle"
       id="text87">(8%)</text>
    <text
       x="1011.0137"
       y="209"
       dy="0.050000001em"
       transform="rotate(-90,1011.0137,209)"
       font-family="sans-serif"
       fill="#3e3f3f"
       style="font-size:18px;text-anchor:middle"
       id="text88">22</text>
    <text
       x="1011.0137"
       y="209"
       dy="14.4"
       transform="rotate(-90,1011.0137,209)"
       font-family="sans-serif"
       fill="#3e3f3f"
       style="font-size:10.8px;text-anchor:middle"
       id="text89">(22%)</text>
    <text
       x="1015.9527"
       y="278"
       dy="0.050000001em"
       transform="rotate(-90,1015.9527,278)"
       font-family="sans-serif"
       fill="#3e3f3f"
       style="font-size:18px;text-anchor:middle"
       id="text90">17.5</text>
    <text
       x="1015.9527"
       y="278"
       dy="14.4"
       transform="rotate(-90,1015.9527,278)"
       font-family="sans-serif"
       fill="#3e3f3f"
       style="font-size:10.8px;text-anchor:middle"
       id="text91">(18%)</text>
    <text
       x="1031.8673"
       y="347"
       dy="0.050000001em"
       transform="rotate(-90,1031.8673,347)"
       font-family="sans-serif"
       fill="#3e3f3f"
       style="font-size:18px;text-anchor:middle"
       id="text92">3</text>
    <text
       x="1031.8673"
       y="347"
       dy="14.4"
       transform="rotate(-90,1031.8673,347)"
       font-family="sans-serif"
       fill="#3e3f3f"
       style="font-size:10.8px;text-anchor:middle"
       id="text93">(3%)</text>
    <text
       x="990.15997"
       y="416"
       dy="0.050000001em"
       transform="rotate(-90,990.16,416)"
       font-family="sans-serif"
       fill="#3e3f3f"
       style="font-size:18px;text-anchor:middle"
       id="text94">41</text>
    <text
       x="990.15997"
       y="416"
       dy="14.4"
       transform="rotate(-90,990.16,416)"
       font-family="sans-serif"
       fill="#3e3f3f"
       style="font-size:10.8px;text-anchor:middle"
       id="text95">(41%)</text>
    <text
       x="1025.282"
       y="485"
       dy="0.050000001em"
       transform="rotate(-90,1025.282,485)"
       font-family="sans-serif"
       fill="#3e3f3f"
       style="font-size:18px;text-anchor:middle"
       id="text96">9</text>
    <text
       x="1025.282"
       y="485"
       dy="14.4"
       transform="rotate(-90,1025.282,485)"
       font-family="sans-serif"
       fill="#3e3f3f"
       style="font-size:10.8px;text-anchor:middle"
       id="text97">(9%)</text>
  </g>
</svg>
