<svg xmlns="http://www.w3.org/2000/svg" width="601" height="575"><defs><marker id="marker0" markerWidth="6" markerHeight="6" refX="5" refY="3"><circle cx="3" cy="3" r="3" style="fill: rgb(122, 209, 81);"/></marker><marker id="marker1" markerWidth="6" markerHeight="6" refX="5" refY="3"><circle cx="3" cy="3" r="3" style="fill: rgb(122, 209, 81);"/></marker><marker id="marker2" markerWidth="6" markerHeight="6" refX="5" refY="3"><circle cx="3" cy="3" r="3" style="fill: rgb(122, 209, 81);"/></marker><marker id="marker3" markerWidth="6" markerHeight="6" refX="5" refY="3"><circle cx="3" cy="3" r="3" style="fill: rgb(189, 223, 38);"/></marker><marker id="marker4" markerWidth="6" markerHeight="6" refX="5" refY="3"><circle cx="3" cy="3" r="3" style="fill: rgb(189, 223, 38);"/></marker><marker id="marker5" markerWidth="6" markerHeight="6" refX="5" refY="3"><circle cx="3" cy="3" r="3" style="fill: rgb(189, 223, 38);"/></marker><marker id="marker6" markerWidth="6" markerHeight="6" refX="5" refY="3"><circle cx="3" cy="3" r="3" style="fill: rgb(189, 223, 38);"/></marker><marker id="marker7" markerWidth="6" markerHeight="6" refX="5" refY="3"><circle cx="3" cy="3" r="3" style="fill: rgb(253, 231, 37);"/></marker><marker id="marker8" markerWidth="6" markerHeight="6" refX="5" refY="3"><circle cx="3" cy="3" r="3" style="fill: rgb(253, 231, 37);"/></marker><marker id="marker9" markerWidth="6" markerHeight="6" refX="5" refY="3"><circle cx="3" cy="3" r="3" style="fill: rgb(253, 231, 37);"/></marker><marker id="marker10" markerWidth="6" markerHeight="6" refX="5" refY="3"><circle cx="3" cy="3" r="3" style="fill: rgb(253, 231, 37);"/></marker><marker id="marker11" markerWidth="6" markerHeight="6" refX="5" refY="3"><circle cx="3" cy="3" r="3" style="fill: rgb(253, 231, 37);"/></marker><marker id="marker12" markerWidth="6" markerHeight="6" refX="5" refY="3"><circle cx="3" cy="3" r="3" style="fill: rgb(68, 191, 112);"/></marker><marker id="marker13" markerWidth="6" markerHeight="6" refX="5" refY="3"><circle cx="3" cy="3" r="3" style="fill: rgb(68, 191, 112);"/></marker><marker id="marker14" markerWidth="6" markerHeight="6" refX="5" refY="3"><circle cx="3" cy="3" r="3" style="fill: rgb(53, 95, 141);"/></marker><marker id="marker15" markerWidth="6" markerHeight="6" refX="5" refY="3"><circle cx="3" cy="3" r="3" style="fill: rgb(53, 95, 141);"/></marker><marker id="marker16" markerWidth="6" markerHeight="6" refX="5" refY="3"><circle cx="3" cy="3" r="3" style="fill: rgb(53, 95, 141);"/></marker><marker id="marker17" markerWidth="6" markerHeight="6" refX="5" refY="3"><circle cx="3" cy="3" r="3" style="fill: rgb(34, 168, 132);"/></marker><marker id="marker18" markerWidth="6" markerHeight="6" refX="5" refY="3"><circle cx="3" cy="3" r="3" style="fill: rgb(34, 168, 132);"/></marker><marker id="marker19" markerWidth="6" markerHeight="6" refX="5" refY="3"><circle cx="3" cy="3" r="3" style="fill: rgb(42, 120, 142);"/></marker><marker id="marker20" markerWidth="6" markerHeight="6" refX="5" refY="3"><circle cx="3" cy="3" r="3" style="fill: rgb(42, 120, 142);"/></marker><marker id="marker21" markerWidth="6" markerHeight="6" refX="5" refY="3"><circle cx="3" cy="3" r="3" style="fill: rgb(42, 120, 142);"/></marker><marker id="marker22" markerWidth="6" markerHeight="6" refX="5" refY="3"><circle cx="3" cy="3" r="3" style="fill: rgb(42, 120, 142);"/></marker><marker id="marker23" markerWidth="6" markerHeight="6" refX="5" refY="3"><circle cx="3" cy="3" r="3" style="fill: rgb(42, 120, 142);"/></marker><marker id="marker24" markerWidth="6" markerHeight="6" refX="5" refY="3"><circle cx="3" cy="3" r="3" style="fill: rgb(42, 120, 142);"/></marker><marker id="marker25" markerWidth="6" markerHeight="6" refX="5" refY="3"><circle cx="3" cy="3" r="3" style="fill: rgb(65, 68, 135);"/></marker><marker id="marker26" markerWidth="6" markerHeight="6" refX="5" refY="3"><circle cx="3" cy="3" r="3" style="fill: rgb(65, 68, 135);"/></marker><marker id="marker27" markerWidth="6" markerHeight="6" refX="5" refY="3"><circle cx="3" cy="3" r="3" style="fill: rgb(65, 68, 135);"/></marker><marker id="marker28" markerWidth="6" markerHeight="6" refX="5" refY="3"><circle cx="3" cy="3" r="3" style="fill: rgb(65, 68, 135);"/></marker><marker id="marker29" markerWidth="6" markerHeight="6" refX="5" refY="3"><circle cx="3" cy="3" r="3" style="fill: rgb(72, 36, 117);"/></marker><marker id="marker30" markerWidth="6" markerHeight="6" refX="5" refY="3"><circle cx="3" cy="3" r="3" style="fill: rgb(72, 36, 117);"/></marker><marker id="marker31" markerWidth="6" markerHeight="6" refX="5" refY="3"><circle cx="3" cy="3" r="3" style="fill: rgb(72, 36, 117);"/></marker><marker id="marker32" markerWidth="6" markerHeight="6" refX="5" refY="3"><circle cx="3" cy="3" r="3" style="fill: rgb(72, 36, 117);"/></marker><marker id="marker33" markerWidth="6" markerHeight="6" refX="5" refY="3"><circle cx="3" cy="3" r="3" style="fill: rgb(33, 145, 140);"/></marker><marker id="marker34" markerWidth="6" markerHeight="6" refX="5" refY="3"><circle cx="3" cy="3" r="3" style="fill: rgb(33, 145, 140);"/></marker><marker id="marker35" markerWidth="6" markerHeight="6" refX="5" refY="3"><circle cx="3" cy="3" r="3" style="fill: rgb(33, 145, 140);"/></marker><marker id="marker36" markerWidth="6" markerHeight="6" refX="5" refY="3"><circle cx="3" cy="3" r="3" style="fill: rgb(33, 145, 140);"/></marker></defs><path class="link" fill="none" stroke="#7ad151" stroke-width="2" marker-end="url(#marker0)" d="M554,120L503.833,120C453.667,120,353.333,120,296,120C238.667,120,224.333,120,210,182.949C195.667,245.897,181.333,371.795,167,434.744C152.667,497.692,138.333,497.692,131.167,497.692L124,497.692" style="stroke-opacity: 0.7; stroke-linecap: round;"/><path class="link" fill="none" stroke="#7ad151" stroke-width="2" marker-end="url(#marker1)" d="M554,120L503.833,120C453.667,120,353.333,120,296,120C238.667,120,224.333,120,210,145.256C195.667,170.513,181.333,221.026,167,246.282C152.667,271.538,138.333,271.538,131.167,271.538L124,271.538" style="stroke-opacity: 0.7; stroke-linecap: round;"/><path class="link" fill="none" stroke="#7ad151" stroke-width="2" marker-end="url(#marker2)" d="M554,120L503.833,120C453.667,120,353.333,120,296,120C238.667,120,224.333,120,210,172.179C195.667,224.359,181.333,328.718,167,380.897C152.667,433.077,138.333,433.077,131.167,433.077L124,433.077" style="stroke-opacity: 0.7; stroke-linecap: round;"/><path class="link" fill="none" stroke="#bddf26" stroke-width="1.7320508075688772" marker-end="url(#marker3)" d="M554.134,90L496.786,90C439.438,90,324.741,90,260.224,90C195.708,90,181.371,90,167.033,157.949C152.696,225.897,138.359,361.795,124.022,429.744C109.685,497.692,95.348,497.692,88.18,497.692L81.011,497.692" style="stroke-opacity: 0.7; stroke-linecap: round;"/><path class="link" fill="none" stroke="#bddf26" stroke-width="1.7320508075688772" marker-end="url(#marker4)" d="M554.134,90L496.786,90C439.438,90,324.741,90,260.224,90C195.708,90,181.371,90,167.033,147.179C152.696,204.359,138.359,318.718,124.022,375.897C109.685,433.077,95.348,433.077,88.18,433.077L81.011,433.077" style="stroke-opacity: 0.7; stroke-linecap: round;"/><path class="link" fill="none" stroke="#bddf26" stroke-width="1.7320508075688772" marker-end="url(#marker5)" d="M554.134,90L496.786,90C439.438,90,324.741,90,260.224,90C195.708,90,181.371,90,167.033,120.256C152.696,150.513,138.359,211.026,124.022,241.282C109.685,271.538,95.348,271.538,88.18,271.538L81.011,271.538" style="stroke-opacity: 0.7; stroke-linecap: round;"/><path class="link" fill="none" stroke="#bddf26" stroke-width="1.7320508075688772" marker-end="url(#marker6)" d="M554.134,90L496.786,90C439.438,90,324.741,90,260.224,90C195.708,90,181.371,90,167.033,152.564C152.696,215.128,138.359,340.256,124.022,402.821C109.685,465.385,95.348,465.385,88.18,465.385L81.011,465.385" style="stroke-opacity: 0.7; stroke-linecap: round;"/><path class="link" fill="none" stroke="#fde725" stroke-width="1.4142135623730951" marker-end="url(#marker7)" d="M554.293,60L489.756,60C425.22,60,296.146,60,224.439,60C152.732,60,138.39,60,124.049,68.333C109.707,76.667,95.366,93.333,81.024,101.667C66.683,110,52.341,110,45.171,110L38,110" style="stroke-opacity: 0.7; stroke-linecap: round;"/><path class="link" fill="none" stroke="#fde725" stroke-width="1.4142135623730951" marker-end="url(#marker8)" d="M554.293,60L489.756,60C425.22,60,296.146,60,224.439,60C152.732,60,138.39,60,124.049,95.256C109.707,130.513,95.366,201.026,81.024,236.282C66.683,271.538,52.341,271.538,45.171,271.538L38,271.538" style="stroke-opacity: 0.7; stroke-linecap: round;"/><path class="link" fill="none" stroke="#fde725" stroke-width="1.4142135623730951" marker-end="url(#marker9)" d="M554.293,60L489.756,60C425.22,60,296.146,60,224.439,60C152.732,60,138.39,60,124.049,132.949C109.707,205.897,95.366,351.795,81.024,424.744C66.683,497.692,52.341,497.692,45.171,497.692L38,497.692" style="stroke-opacity: 0.7; stroke-linecap: round;"/><path class="link" fill="none" stroke="#fde725" stroke-width="1.4142135623730951" marker-end="url(#marker10)" d="M554.293,60L489.756,60C425.22,60,296.146,60,224.439,60C152.732,60,138.39,60,124.049,127.564C109.707,195.128,95.366,330.256,81.024,397.821C66.683,465.385,52.341,465.385,45.171,465.385L38,465.385" style="stroke-opacity: 0.7; stroke-linecap: round;"/><path class="link" fill="none" stroke="#fde725" stroke-width="1.4142135623730951" marker-end="url(#marker11)" d="M554.293,60L489.756,60C425.22,60,296.146,60,224.439,60C152.732,60,138.39,60,124.049,122.179C109.707,184.359,95.366,308.718,81.024,370.897C66.683,433.077,52.341,433.077,45.171,433.077L38,433.077" style="stroke-opacity: 0.7; stroke-linecap: round;"/><path class="link" fill="none" stroke="#44bf70" stroke-width="1.4142135623730951" marker-end="url(#marker12)" d="M554.293,150L511.268,150C468.244,150,382.195,150,332,150C281.805,150,267.464,150,253.122,207.949C238.781,265.897,224.439,381.795,210.098,439.744C195.756,497.692,181.415,497.692,174.244,497.692L167.073,497.692" style="stroke-opacity: 0.7; stroke-linecap: round;"/><path class="link" fill="none" stroke="#44bf70" stroke-width="1.4142135623730951" marker-end="url(#marker13)" d="M554.293,150L511.268,150C468.244,150,382.195,150,332,150C281.805,150,267.464,150,253.122,197.179C238.781,244.359,224.439,338.718,210.098,385.897C195.756,433.077,181.415,433.077,174.244,433.077L167.073,433.077" style="stroke-opacity: 0.7; stroke-linecap: round;"/><path class="link" fill="none" stroke="#355f8d" stroke-width="1.4142135623730951" marker-end="url(#marker14)" d="M554.293,270L539.951,270C525.61,270,496.927,270,475.415,270C453.903,270,439.561,270,425.22,307.949C410.878,345.897,396.537,421.795,382.195,459.744C367.854,497.692,353.512,497.692,346.342,497.692L339.171,497.692" style="stroke-opacity: 0.7; stroke-linecap: round;"/><path class="link" fill="none" stroke="#355f8d" stroke-width="1.4142135623730951" marker-end="url(#marker15)" d="M554.293,270L539.951,270C525.61,270,496.927,270,475.415,270C453.903,270,439.561,270,425.22,270.256C410.878,270.513,396.537,271.026,382.195,271.282C367.854,271.538,353.512,271.538,346.342,271.538L339.171,271.538" style="stroke-opacity: 0.7; stroke-linecap: round;"/><path class="link" fill="none" stroke="#355f8d" stroke-width="1.4142135623730951" marker-end="url(#marker16)" d="M554.293,270L539.951,270C525.61,270,496.927,270,475.415,270C453.903,270,439.561,270,425.22,281.026C410.878,292.051,396.537,314.103,382.195,325.128C367.854,336.154,353.512,336.154,346.342,336.154L339.171,336.154" style="stroke-opacity: 0.7; stroke-linecap: round;"/><path class="link" fill="none" stroke="#22a884" stroke-width="1.4142135623730951" marker-end="url(#marker17)" d="M554.293,180L518.439,180C482.586,180,410.878,180,367.854,180C324.829,180,310.488,180,296.146,232.949C281.805,285.897,267.464,391.795,253.122,444.744C238.781,497.692,224.439,497.692,217.268,497.692L210.098,497.692" style="stroke-opacity: 0.7; stroke-linecap: round;"/><path class="link" fill="none" stroke="#22a884" stroke-width="1.4142135623730951" marker-end="url(#marker18)" d="M554.293,180L518.439,180C482.586,180,410.878,180,367.854,180C324.829,180,310.488,180,296.146,195.256C281.805,210.513,267.464,241.026,253.122,256.282C238.781,271.538,224.439,271.538,217.268,271.538L210.098,271.538" style="stroke-opacity: 0.7; stroke-linecap: round;"/><path class="link" fill="none" stroke="#2a788e" stroke-width="1.4142135623730951" marker-end="url(#marker19)" d="M554.293,240L532.781,240C511.268,240,468.244,240,439.561,240C410.878,240,396.537,240,382.195,245.256C367.854,250.513,353.512,261.026,339.171,266.282C324.829,271.538,310.488,271.538,303.317,271.538L296.146,271.538" style="stroke-opacity: 0.7; stroke-linecap: round;"/><path class="link" fill="none" stroke="#2a788e" stroke-width="1.4142135623730951" marker-end="url(#marker20)" d="M554.293,240L532.781,240C511.268,240,468.244,240,439.561,240C410.878,240,396.537,240,382.195,256.026C367.854,272.051,353.512,304.103,339.171,320.128C324.829,336.154,310.488,336.154,303.317,336.154L296.146,336.154" style="stroke-opacity: 0.7; stroke-linecap: round;"/><path class="link" fill="none" stroke="#2a788e" stroke-width="1.4142135623730951" marker-end="url(#marker21)" d="M554.293,240L532.781,240C511.268,240,468.244,240,439.561,240C410.878,240,396.537,240,382.195,282.949C367.854,325.897,353.512,411.795,339.171,454.744C324.829,497.692,310.488,497.692,303.317,497.692L296.146,497.692" style="stroke-opacity: 0.7; stroke-linecap: round;"/><path class="link" fill="none" stroke="#2a788e" stroke-width="1.4142135623730951" marker-end="url(#marker22)" d="M554.293,240L532.781,240C511.268,240,468.244,240,439.561,240C410.878,240,396.537,240,382.195,266.795C367.854,293.59,353.512,347.179,339.171,373.974C324.829,400.769,310.488,400.769,303.317,400.769L296.146,400.769" style="stroke-opacity: 0.7; stroke-linecap: round;"/><path class="link" fill="none" stroke="#2a788e" stroke-width="1.4142135623730951" marker-end="url(#marker23)" d="M554.293,240L532.781,240C511.268,240,468.244,240,439.561,240C410.878,240,396.537,240,382.195,272.179C367.854,304.359,353.512,368.718,339.171,400.897C324.829,433.077,310.488,433.077,303.317,433.077L296.146,433.077" style="stroke-opacity: 0.7; stroke-linecap: round;"/><path class="link" fill="none" stroke="#2a788e" stroke-width="1.4142135623730951" marker-end="url(#marker24)" d="M554.293,240L532.781,240C511.268,240,468.244,240,439.561,240C410.878,240,396.537,240,382.195,277.564C367.854,315.128,353.512,390.256,339.171,427.821C324.829,465.385,310.488,465.385,303.317,465.385L296.146,465.385" style="stroke-opacity: 0.7; stroke-linecap: round;"/><path class="link" fill="none" stroke="#414487" stroke-width="1" marker-end="url(#marker25)" d="M554.5,300L547.326,300C540.153,300,525.806,300,511.458,300C497.111,300,482.764,300,468.417,268.333C454.069,236.667,439.722,173.333,425.375,141.667C411.028,110,396.681,110,389.507,110L382.333,110" style="stroke-opacity: 0.7; stroke-linecap: round;"/><path class="link" fill="none" stroke="#414487" stroke-width="1" marker-end="url(#marker26)" d="M554.5,300L547.326,300C540.153,300,525.806,300,511.458,300C497.111,300,482.764,300,468.417,311.41C454.069,322.821,439.722,345.641,425.375,357.051C411.028,368.462,396.681,368.462,389.507,368.462L382.333,368.462" style="stroke-opacity: 0.7; stroke-linecap: round;"/><path class="link" fill="none" stroke="#414487" stroke-width="1" marker-end="url(#marker27)" d="M554.5,300L547.326,300C540.153,300,525.806,300,511.458,300C497.111,300,482.764,300,468.417,338.333C454.069,376.667,439.722,453.333,425.375,491.667C411.028,530,396.681,530,389.507,530L382.333,530" style="stroke-opacity: 0.7; stroke-linecap: round;"/><path class="link" fill="none" stroke="#414487" stroke-width="1" marker-end="url(#marker28)" d="M554.5,300L547.326,300C540.153,300,525.806,300,511.458,300C497.111,300,482.764,300,468.417,322.179C454.069,344.359,439.722,388.718,425.375,410.897C411.028,433.077,396.681,433.077,389.507,433.077L382.333,433.077" style="stroke-opacity: 0.7; stroke-linecap: round;"/><path class="link" fill="none" stroke="#482475" stroke-width="1" marker-end="url(#marker29)" d="M554.5,330L554.5,330C554.5,330,554.5,330,547.326,330C540.153,330,525.806,330,511.458,293.333C497.111,256.667,482.764,183.333,468.417,146.667C454.069,110,439.722,110,432.549,110L425.375,110" style="stroke-opacity: 0.7; stroke-linecap: round;"/><path class="link" fill="none" stroke="#482475" stroke-width="1" marker-end="url(#marker30)" d="M554.5,330L554.5,330C554.5,330,554.5,330,547.326,330C540.153,330,525.806,330,511.458,320.256C497.111,310.513,482.764,291.026,468.417,281.282C454.069,271.538,439.722,271.538,432.549,271.538L425.375,271.538" style="stroke-opacity: 0.7; stroke-linecap: round;"/><path class="link" fill="none" stroke="#482475" stroke-width="1" marker-end="url(#marker31)" d="M554.5,330L554.5,330C554.5,330,554.5,330,547.326,330C540.153,330,525.806,330,511.458,341.795C497.111,353.59,482.764,377.179,468.417,388.974C454.069,400.769,439.722,400.769,432.549,400.769L425.375,400.769" style="stroke-opacity: 0.7; stroke-linecap: round;"/><path class="link" fill="none" stroke="#482475" stroke-width="1" marker-end="url(#marker32)" d="M554.5,330L554.5,330C554.5,330,554.5,330,547.326,330C540.153,330,525.806,330,511.458,347.179C497.111,364.359,482.764,398.718,468.417,415.897C454.069,433.077,439.722,433.077,432.549,433.077L425.375,433.077" style="stroke-opacity: 0.7; stroke-linecap: round;"/><path class="link" fill="none" stroke="#21918c" stroke-width="1" marker-end="url(#marker33)" d="M554.5,210L525.806,210C497.111,210,439.722,210,403.854,210C367.986,210,353.639,210,339.292,193.333C324.944,176.667,310.597,143.333,296.25,126.667C281.903,110,267.556,110,260.382,110L253.208,110" style="stroke-opacity: 0.7; stroke-linecap: round;"/><path class="link" fill="none" stroke="#21918c" stroke-width="1" marker-end="url(#marker34)" d="M554.5,210L525.806,210C497.111,210,439.722,210,403.854,210C367.986,210,353.639,210,339.292,220.256C324.944,230.513,310.597,251.026,296.25,261.282C281.903,271.538,267.556,271.538,260.382,271.538L253.208,271.538" style="stroke-opacity: 0.7; stroke-linecap: round;"/><path class="link" fill="none" stroke="#21918c" stroke-width="1" marker-end="url(#marker35)" d="M554.5,210L525.806,210C497.111,210,439.722,210,403.854,210C367.986,210,353.639,210,339.292,252.564C324.944,295.128,310.597,380.256,296.25,422.821C281.903,465.385,267.556,465.385,260.382,465.385L253.208,465.385" style="stroke-opacity: 0.7; stroke-linecap: round;"/><path class="link" fill="none" stroke="#21918c" stroke-width="1" marker-end="url(#marker36)" d="M554.5,210L525.806,210C497.111,210,439.722,210,403.854,210C367.986,210,353.639,210,339.292,247.179C324.944,284.359,310.597,358.718,296.25,395.897C281.903,433.077,267.556,433.077,260.382,433.077L253.208,433.077" style="stroke-opacity: 0.7; stroke-linecap: round;"/><text x="59" y="110" transform="rotate(0,59,110)" font-size="9.6" fill="#3e3f3f" style="font-family: sans-serif;">Address systemic issues such as corrupt...</text><text x="43" y="110" dy=".05em" transform="rotate(0,43,110)" font-family="sans-serif" fill="#3e3f3f" style="text-anchor: middle; font-size: 16px;">5</text><text x="43" y="110" dy="12.8" transform="rotate(0,43,110)" font-family="sans-serif" fill="#3e3f3f" style="text-anchor: middle; font-size: 9.6px;">(10%)</text><text x="59" y="142.30769230769232" transform="rotate(0,59,142.30769230769232)" font-size="9.6" fill="#3e3f3f" style="font-family: sans-serif;">Ensure fair distribution of resources g...</text><text x="43" y="142.30769230769232" dy=".05em" transform="rotate(0,43,142.30769230769232)" font-family="sans-serif" fill="#3e3f3f" style="text-anchor: middle; font-size: 16px;">0</text><text x="43" y="142.30769230769232" dy="12.8" transform="rotate(0,43,142.30769230769232)" font-family="sans-serif" fill="#3e3f3f" style="text-anchor: middle; font-size: 9.6px;">(0%)</text><text x="59" y="174.6153846153846" transform="rotate(0,59,174.6153846153846)" font-size="9.6" fill="#3e3f3f" style="font-family: sans-serif;">Encourage collaboration among governmen...</text><text x="43" y="174.6153846153846" dy=".05em" transform="rotate(0,43,174.6153846153846)" font-family="sans-serif" fill="#3e3f3f" style="text-anchor: middle; font-size: 16px;">0</text><text x="43" y="174.6153846153846" dy="12.8" transform="rotate(0,43,174.6153846153846)" font-family="sans-serif" fill="#3e3f3f" style="text-anchor: middle; font-size: 9.6px;">(0%)</text><text x="59" y="206.9230769230769" transform="rotate(0,59,206.9230769230769)" font-size="9.6" fill="#3e3f3f" style="font-family: sans-serif;">Ensure fair wages for workers globally.</text><text x="43" y="206.9230769230769" dy=".05em" transform="rotate(0,43,206.9230769230769)" font-family="sans-serif" fill="#3e3f3f" style="text-anchor: middle; font-size: 16px;">0</text><text x="43" y="206.9230769230769" dy="12.8" transform="rotate(0,43,206.9230769230769)" font-family="sans-serif" fill="#3e3f3f" style="text-anchor: middle; font-size: 9.6px;">(0%)</text><text x="59" y="239.23076923076923" transform="rotate(0,59,239.23076923076923)" font-size="9.6" fill="#3e3f3f" style="font-family: sans-serif;">Address social inequalities.</text><text x="43" y="239.23076923076923" dy=".05em" transform="rotate(0,43,239.23076923076923)" font-family="sans-serif" fill="#3e3f3f" style="text-anchor: middle; font-size: 16px;">0</text><text x="43" y="239.23076923076923" dy="12.8" transform="rotate(0,43,239.23076923076923)" font-family="sans-serif" fill="#3e3f3f" style="text-anchor: middle; font-size: 9.6px;">(0%)</text><text x="59" y="271.53846153846155" transform="rotate(0,59,271.53846153846155)" font-size="9.6" fill="#3e3f3f" style="font-family: sans-serif;">Sustainable economic growth through mic...</text><text x="43" y="271.53846153846155" dy=".05em" transform="rotate(0,43,271.53846153846155)" font-family="sans-serif" fill="#3e3f3f" style="text-anchor: middle; font-size: 16px;">17</text><text x="43" y="271.53846153846155" dy="12.8" transform="rotate(0,43,271.53846153846155)" font-family="sans-serif" fill="#3e3f3f" style="text-anchor: middle; font-size: 9.6px;">(34%)</text><text x="59" y="303.8461538461538" transform="rotate(0,59,303.8461538461538)" font-size="9.6" fill="#3e3f3f" style="font-family: sans-serif;">Invest in clean water and sanitation to...</text><text x="43" y="303.8461538461538" dy=".05em" transform="rotate(0,43,303.8461538461538)" font-family="sans-serif" fill="#3e3f3f" style="text-anchor: middle; font-size: 16px;">0</text><text x="43" y="303.8461538461538" dy="12.8" transform="rotate(0,43,303.8461538461538)" font-family="sans-serif" fill="#3e3f3f" style="text-anchor: middle; font-size: 9.6px;">(0%)</text><text x="59" y="336.15384615384613" transform="rotate(0,59,336.15384615384613)" font-size="9.6" fill="#3e3f3f" style="font-family: sans-serif;">Create comprehensive social welfare pro...</text><text x="43" y="336.15384615384613" dy=".05em" transform="rotate(0,43,336.15384615384613)" font-family="sans-serif" fill="#3e3f3f" style="text-anchor: middle; font-size: 16px;">4</text><text x="43" y="336.15384615384613" dy="12.8" transform="rotate(0,43,336.15384615384613)" font-family="sans-serif" fill="#3e3f3f" style="text-anchor: middle; font-size: 9.6px;">(8%)</text><text x="59" y="368.46153846153845" transform="rotate(0,59,368.46153846153845)" font-size="9.6" fill="#3e3f3f" style="font-family: sans-serif;">Create sustainable development initiati...</text><text x="43" y="368.46153846153845" dy=".05em" transform="rotate(0,43,368.46153846153845)" font-family="sans-serif" fill="#3e3f3f" style="text-anchor: middle; font-size: 16px;">1</text><text x="43" y="368.46153846153845" dy="12.8" transform="rotate(0,43,368.46153846153845)" font-family="sans-serif" fill="#3e3f3f" style="text-anchor: middle; font-size: 9.6px;">(2%)</text><text x="59" y="400.7692307692308" transform="rotate(0,59,400.7692307692308)" font-size="9.6" fill="#3e3f3f" style="font-family: sans-serif;">Curtail monopolistic practices, promote...</text><text x="43" y="400.7692307692308" dy=".05em" transform="rotate(0,43,400.7692307692308)" font-family="sans-serif" fill="#3e3f3f" style="text-anchor: middle; font-size: 16px;">3</text><text x="43" y="400.7692307692308" dy="12.8" transform="rotate(0,43,400.7692307692308)" font-family="sans-serif" fill="#3e3f3f" style="text-anchor: middle; font-size: 9.6px;">(6%)</text><text x="59" y="433.0769230769231" transform="rotate(0,59,433.0769230769231)" font-size="9.6" fill="#3e3f3f" style="font-family: sans-serif;">Invest in quality education, healthcare...</text><text x="43" y="433.0769230769231" dy=".05em" transform="rotate(0,43,433.0769230769231)" font-family="sans-serif" fill="#3e3f3f" style="text-anchor: middle; font-size: 16px;">16</text><text x="43" y="433.0769230769231" dy="12.8" transform="rotate(0,43,433.0769230769231)" font-family="sans-serif" fill="#3e3f3f" style="text-anchor: middle; font-size: 9.6px;">(32%)</text><text x="59" y="465.38461538461536" transform="rotate(0,59,465.38461538461536)" font-size="9.6" fill="#3e3f3f" style="font-family: sans-serif;">Create sustainable job opportunities fo...</text><text x="43" y="465.38461538461536" dy=".05em" transform="rotate(0,43,465.38461538461536)" font-family="sans-serif" fill="#3e3f3f" style="text-anchor: middle; font-size: 16px;">8</text><text x="43" y="465.38461538461536" dy="12.8" transform="rotate(0,43,465.38461538461536)" font-family="sans-serif" fill="#3e3f3f" style="text-anchor: middle; font-size: 9.6px;">(16%)</text><text x="59" y="497.6923076923077" transform="rotate(0,59,497.6923076923077)" font-size="9.6" fill="#3e3f3f" style="font-family: sans-serif;">Investment in education, healthcare, an...</text><text x="43" y="497.6923076923077" dy=".05em" transform="rotate(0,43,497.6923076923077)" font-family="sans-serif" fill="#3e3f3f" style="text-anchor: middle; font-size: 16px;">17</text><text x="43" y="497.6923076923077" dy="12.8" transform="rotate(0,43,497.6923076923077)" font-family="sans-serif" fill="#3e3f3f" style="text-anchor: middle; font-size: 9.6px;">(34%)</text><text x="59" y="530" transform="rotate(0,59,530)" font-size="9.6" fill="#3e3f3f" style="font-family: sans-serif;">Promote access to basic services like h...</text><text x="43" y="530" dy=".05em" transform="rotate(0,43,530)" font-family="sans-serif" fill="#3e3f3f" style="text-anchor: middle; font-size: 16px;">1</text><text x="43" y="530" dy="12.8" transform="rotate(0,43,530)" font-family="sans-serif" fill="#3e3f3f" style="text-anchor: middle; font-size: 9.6px;">(2%)</text><text x="543" y="76" dy=".05em" transform="rotate(0,543,76)" font-family="sans-serif" fill="#3e3f3f" style="text-anchor: middle; font-size: 16px;">2</text><text x="543" y="76" dy="12.8" transform="rotate(0,543,76)" font-family="sans-serif" fill="#3e3f3f" style="text-anchor: middle; font-size: 9.6px;">(10%)</text><text x="543" y="106" dy=".05em" transform="rotate(0,543,106)" font-family="sans-serif" fill="#3e3f3f" style="text-anchor: middle; font-size: 16px;">3</text><text x="543" y="106" dy="12.8" transform="rotate(0,543,106)" font-family="sans-serif" fill="#3e3f3f" style="text-anchor: middle; font-size: 9.6px;">(15%)</text><text x="543" y="136" dy=".05em" transform="rotate(0,543,136)" font-family="sans-serif" fill="#3e3f3f" style="text-anchor: middle; font-size: 16px;">4</text><text x="543" y="136" dy="12.8" transform="rotate(0,543,136)" font-family="sans-serif" fill="#3e3f3f" style="text-anchor: middle; font-size: 9.6px;">(20%)</text><text x="543" y="166" dy=".05em" transform="rotate(0,543,166)" font-family="sans-serif" fill="#3e3f3f" style="text-anchor: middle; font-size: 16px;">2</text><text x="543" y="166" dy="12.8" transform="rotate(0,543,166)" font-family="sans-serif" fill="#3e3f3f" style="text-anchor: middle; font-size: 9.6px;">(10%)</text><text x="543" y="196" dy=".05em" transform="rotate(0,543,196)" font-family="sans-serif" fill="#3e3f3f" style="text-anchor: middle; font-size: 16px;">2</text><text x="543" y="196" dy="12.8" transform="rotate(0,543,196)" font-family="sans-serif" fill="#3e3f3f" style="text-anchor: middle; font-size: 9.6px;">(10%)</text><text x="543" y="226" dy=".05em" transform="rotate(0,543,226)" font-family="sans-serif" fill="#3e3f3f" style="text-anchor: middle; font-size: 16px;">1</text><text x="543" y="226" dy="12.8" transform="rotate(0,543,226)" font-family="sans-serif" fill="#3e3f3f" style="text-anchor: middle; font-size: 9.6px;">(5%)</text><text x="543" y="256" dy=".05em" transform="rotate(0,543,256)" font-family="sans-serif" fill="#3e3f3f" style="text-anchor: middle; font-size: 16px;">2</text><text x="543" y="256" dy="12.8" transform="rotate(0,543,256)" font-family="sans-serif" fill="#3e3f3f" style="text-anchor: middle; font-size: 9.6px;">(10%)</text><text x="543" y="286" dy=".05em" transform="rotate(0,543,286)" font-family="sans-serif" fill="#3e3f3f" style="text-anchor: middle; font-size: 16px;">2</text><text x="543" y="286" dy="12.8" transform="rotate(0,543,286)" font-family="sans-serif" fill="#3e3f3f" style="text-anchor: middle; font-size: 9.6px;">(10%)</text><text x="543" y="316" dy=".05em" transform="rotate(0,543,316)" font-family="sans-serif" fill="#3e3f3f" style="text-anchor: middle; font-size: 16px;">1</text><text x="543" y="316" dy="12.8" transform="rotate(0,543,316)" font-family="sans-serif" fill="#3e3f3f" style="text-anchor: middle; font-size: 9.6px;">(5%)</text><text x="543" y="346" dy=".05em" transform="rotate(0,543,346)" font-family="sans-serif" fill="#3e3f3f" style="text-anchor: middle; font-size: 16px;">1</text><text x="543" y="346" dy="12.8" transform="rotate(0,543,346)" font-family="sans-serif" fill="#3e3f3f" style="text-anchor: middle; font-size: 9.6px;">(5%)</text></svg>