<svg xmlns="http://www.w3.org/2000/svg" width="936.293896978683" height="499"><g><defs><marker id="marker0" markerWidth="6" markerHeight="6" refX="5" refY="3"><circle cx="3" cy="3" r="1" style="fill: rgb(33, 145, 140);"/></marker><marker id="marker1" markerWidth="6" markerHeight="6" refX="5" refY="3"><circle cx="3" cy="3" r="1" style="fill: rgb(33, 145, 140);"/></marker><marker id="marker2" markerWidth="6" markerHeight="6" refX="5" refY="3"><circle cx="3" cy="3" r="1" style="fill: rgb(33, 145, 140);"/></marker><marker id="marker3" markerWidth="6" markerHeight="6" refX="5" refY="3"><circle cx="3" cy="3" r="1" style="fill: rgb(40, 174, 128);"/></marker><marker id="marker4" markerWidth="6" markerHeight="6" refX="5" refY="3"><circle cx="3" cy="3" r="1" style="fill: rgb(40, 174, 128);"/></marker><marker id="marker5" markerWidth="6" markerHeight="6" refX="5" refY="3"><circle cx="3" cy="3" r="1" style="fill: rgb(40, 174, 128);"/></marker><marker id="marker6" markerWidth="6" markerHeight="6" refX="5" refY="3"><circle cx="3" cy="3" r="1" style="fill: rgb(40, 174, 128);"/></marker><marker id="marker7" markerWidth="6" markerHeight="6" refX="5" refY="3"><circle cx="3" cy="3" r="1" style="fill: rgb(44, 114, 142);"/></marker><marker id="marker8" markerWidth="6" markerHeight="6" refX="5" refY="3"><circle cx="3" cy="3" r="1" style="fill: rgb(44, 114, 142);"/></marker><marker id="marker9" markerWidth="6" markerHeight="6" refX="5" refY="3"><circle cx="3" cy="3" r="1" style="fill: rgb(173, 220, 48);"/></marker><marker id="marker10" markerWidth="6" markerHeight="6" refX="5" refY="3"><circle cx="3" cy="3" r="1" style="fill: rgb(173, 220, 48);"/></marker><marker id="marker11" markerWidth="6" markerHeight="6" refX="5" refY="3"><circle cx="3" cy="3" r="1" style="fill: rgb(173, 220, 48);"/></marker><marker id="marker12" markerWidth="6" markerHeight="6" refX="5" refY="3"><circle cx="3" cy="3" r="1" style="fill: rgb(253, 231, 37);"/></marker><marker id="marker13" markerWidth="6" markerHeight="6" refX="5" refY="3"><circle cx="3" cy="3" r="1" style="fill: rgb(253, 231, 37);"/></marker><marker id="marker14" markerWidth="6" markerHeight="6" refX="5" refY="3"><circle cx="3" cy="3" r="1" style="fill: rgb(253, 231, 37);"/></marker><marker id="marker15" markerWidth="6" markerHeight="6" refX="5" refY="3"><circle cx="3" cy="3" r="1" style="fill: rgb(253, 231, 37);"/></marker><marker id="marker16" markerWidth="6" markerHeight="6" refX="5" refY="3"><circle cx="3" cy="3" r="1" style="fill: rgb(253, 231, 37);"/></marker><marker id="marker17" markerWidth="6" markerHeight="6" refX="5" refY="3"><circle cx="3" cy="3" r="1" style="fill: rgb(253, 231, 37);"/></marker><marker id="marker18" markerWidth="6" markerHeight="6" refX="5" refY="3"><circle cx="3" cy="3" r="1" style="fill: rgb(59, 82, 139);"/></marker><marker id="marker19" markerWidth="6" markerHeight="6" refX="5" refY="3"><circle cx="3" cy="3" r="1" style="fill: rgb(59, 82, 139);"/></marker><marker id="marker20" markerWidth="6" markerHeight="6" refX="5" refY="3"><circle cx="3" cy="3" r="1" style="fill: rgb(59, 82, 139);"/></marker><marker id="marker21" markerWidth="6" markerHeight="6" refX="5" refY="3"><circle cx="3" cy="3" r="1" style="fill: rgb(94, 201, 98);"/></marker><marker id="marker22" markerWidth="6" markerHeight="6" refX="5" refY="3"><circle cx="3" cy="3" r="1" style="fill: rgb(94, 201, 98);"/></marker><marker id="marker23" markerWidth="6" markerHeight="6" refX="5" refY="3"><circle cx="3" cy="3" r="1" style="fill: rgb(94, 201, 98);"/></marker><marker id="marker24" markerWidth="6" markerHeight="6" refX="5" refY="3"><circle cx="3" cy="3" r="1" style="fill: rgb(94, 201, 98);"/></marker><marker id="marker25" markerWidth="6" markerHeight="6" refX="5" refY="3"><circle cx="3" cy="3" r="1" style="fill: rgb(94, 201, 98);"/></marker><marker id="marker26" markerWidth="6" markerHeight="6" refX="5" refY="3"><circle cx="3" cy="3" r="1" style="fill: rgb(71, 45, 123);"/></marker></defs><path class="link" fill="none" stroke="#21918c" stroke-width="4.573474244670748" marker-end="url(#marker0)" d="M776.007,210L737.425,210C698.844,210,621.68,210,580.502,210C539.323,210,534.13,210,528.937,236.905C523.744,263.81,518.551,317.619,513.358,344.524C508.165,371.429,502.972,371.429,500.376,371.429L497.779,371.429" style="stroke-opacity: 0.7; stroke-linecap: round;"/><path class="link" fill="none" stroke="#21918c" stroke-width="4.573474244670748" marker-end="url(#marker1)" d="M776.007,210L737.425,210C698.844,210,621.68,210,580.502,210C539.323,210,534.13,210,528.937,202.714C523.744,195.429,518.551,180.857,513.358,173.571C508.165,166.286,502.972,166.286,500.376,166.286L497.779,166.286" style="stroke-opacity: 0.7; stroke-linecap: round;"/><path class="link" fill="none" stroke="#21918c" stroke-width="4.573474244670748" marker-end="url(#marker2)" d="M776.007,210L737.425,210C698.844,210,621.68,210,580.502,210C539.323,210,534.13,210,528.937,219.81C523.744,229.619,518.551,249.238,513.358,259.048C508.165,268.857,502.972,268.857,500.376,268.857L497.779,268.857" style="stroke-opacity: 0.7; stroke-linecap: round;"/><path class="link" fill="none" stroke="#28ae80" stroke-width="2.8284271247461903" marker-end="url(#marker3)" d="M789.471,172.5L741.816,172.5C694.161,172.5,598.851,172.5,548.524,172.5C498.197,172.5,492.854,172.5,487.51,205.655C482.166,238.81,476.822,305.119,471.478,338.274C466.135,371.429,460.791,371.429,458.119,371.429L455.447,371.429" style="stroke-opacity: 0.7; stroke-linecap: round;"/><path class="link" fill="none" stroke="#28ae80" stroke-width="2.8284271247461903" marker-end="url(#marker4)" d="M789.471,172.5L741.816,172.5C694.161,172.5,598.851,172.5,548.524,172.5C498.197,172.5,492.854,172.5,487.51,222.75C482.166,273,476.822,373.5,471.478,423.75C466.135,474,460.791,474,458.119,474L455.447,474" style="stroke-opacity: 0.7; stroke-linecap: round;"/><path class="link" fill="none" stroke="#28ae80" stroke-width="2.8284271247461903" marker-end="url(#marker5)" d="M789.471,172.5L741.816,172.5C694.161,172.5,598.851,172.5,548.524,172.5C498.197,172.5,492.854,172.5,487.51,171.464C482.166,170.429,476.822,168.357,471.478,167.321C466.135,166.286,460.791,166.286,458.119,166.286L455.447,166.286" style="stroke-opacity: 0.7; stroke-linecap: round;"/><path class="link" fill="none" stroke="#28ae80" stroke-width="2.8284271247461903" marker-end="url(#marker6)" d="M789.471,172.5L741.816,172.5C694.161,172.5,598.851,172.5,548.524,172.5C498.197,172.5,492.854,172.5,487.51,188.56C482.166,204.619,476.822,236.738,471.478,252.798C466.135,268.857,460.791,268.857,458.119,268.857L455.447,268.857" style="stroke-opacity: 0.7; stroke-linecap: round;"/><path class="link" fill="none" stroke="#2c728e" stroke-width="2.9154759474226504" marker-end="url(#marker7)" d="M788.799,247.5L757.095,247.5C725.391,247.5,661.982,247.5,627.609,247.5C593.237,247.5,587.901,247.5,582.564,233.964C577.228,220.429,571.892,193.357,566.556,179.821C561.219,166.286,555.883,166.286,553.215,166.286L550.547,166.286" style="stroke-opacity: 0.7; stroke-linecap: round;"/><path class="link" fill="none" stroke="#2c728e" stroke-width="2.9154759474226504" marker-end="url(#marker8)" d="M788.799,247.5L757.095,247.5C725.391,247.5,661.982,247.5,627.609,247.5C593.237,247.5,587.901,247.5,582.564,251.06C577.228,254.619,571.892,261.738,566.556,265.298C561.219,268.857,555.883,268.857,553.215,268.857L550.547,268.857" style="stroke-opacity: 0.7; stroke-linecap: round;"/><path class="link" fill="none" stroke="#addc30" stroke-width="2.857738033247041" marker-end="url(#marker9)" d="M789.245,97.5L725.714,97.5C662.183,97.5,535.122,97.5,468.921,97.5C402.719,97.5,397.378,97.5,392.037,117.512C386.695,137.524,381.354,177.548,376.013,197.56C370.672,217.571,365.33,217.571,362.66,217.571L359.989,217.571" style="stroke-opacity: 0.7; stroke-linecap: round;"/><path class="link" fill="none" stroke="#addc30" stroke-width="2.857738033247041" marker-end="url(#marker10)" d="M789.245,97.5L725.714,97.5C662.183,97.5,535.122,97.5,468.921,97.5C402.719,97.5,397.378,97.5,392.037,108.964C386.695,120.429,381.354,143.357,376.013,154.821C370.672,166.286,365.33,166.286,362.66,166.286L359.989,166.286" style="stroke-opacity: 0.7; stroke-linecap: round;"/><path class="link" fill="none" stroke="#addc30" stroke-width="2.857738033247041" marker-end="url(#marker11)" d="M789.245,97.5L725.714,97.5C662.183,97.5,535.122,97.5,468.921,97.5C402.719,97.5,397.378,97.5,392.037,126.06C386.695,154.619,381.354,211.738,376.013,240.298C370.672,268.857,365.33,268.857,362.66,268.857L359.989,268.857" style="stroke-opacity: 0.7; stroke-linecap: round;"/><path class="link" fill="none" stroke="#fde725" stroke-width="2.9154759474226504" marker-end="url(#marker12)" d="M788.799,60L717.386,60C645.973,60,503.147,60,429.065,60C354.984,60,349.648,60,344.312,111.905C338.975,163.81,333.639,267.619,328.303,319.524C322.966,371.429,317.63,371.429,314.962,371.429L312.294,371.429" style="stroke-opacity: 0.7; stroke-linecap: round;"/><path class="link" fill="none" stroke="#fde725" stroke-width="2.9154759474226504" marker-end="url(#marker13)" d="M788.799,60L717.386,60C645.973,60,503.147,60,429.065,60C354.984,60,349.648,60,344.312,129C338.975,198,333.639,336,328.303,405C322.966,474,317.63,474,314.962,474L312.294,474" style="stroke-opacity: 0.7; stroke-linecap: round;"/><path class="link" fill="none" stroke="#fde725" stroke-width="2.9154759474226504" marker-end="url(#marker14)" d="M788.799,60L717.386,60C645.973,60,503.147,60,429.065,60C354.984,60,349.648,60,344.312,86.262C338.975,112.524,333.639,165.048,328.303,191.31C322.966,217.571,317.63,217.571,314.962,217.571L312.294,217.571" style="stroke-opacity: 0.7; stroke-linecap: round;"/><path class="link" fill="none" stroke="#fde725" stroke-width="2.9154759474226504" marker-end="url(#marker15)" d="M788.799,60L717.386,60C645.973,60,503.147,60,429.065,60C354.984,60,349.648,60,344.312,77.714C338.975,95.429,333.639,130.857,328.303,148.571C322.966,166.286,317.63,166.286,314.962,166.286L312.294,166.286" style="stroke-opacity: 0.7; stroke-linecap: round;"/><path class="link" fill="none" stroke="#fde725" stroke-width="2.9154759474226504" marker-end="url(#marker16)" d="M788.799,60L717.386,60C645.973,60,503.147,60,429.065,60C354.984,60,349.648,60,344.312,120.452C338.975,180.905,333.639,301.81,328.303,362.262C322.966,422.714,317.63,422.714,314.962,422.714L312.294,422.714" style="stroke-opacity: 0.7; stroke-linecap: round;"/><path class="link" fill="none" stroke="#fde725" stroke-width="2.9154759474226504" marker-end="url(#marker17)" d="M788.799,60L717.386,60C645.973,60,503.147,60,429.065,60C354.984,60,349.648,60,344.312,94.81C338.975,129.619,333.639,199.238,328.303,234.048C322.966,268.857,317.63,268.857,314.962,268.857L312.294,268.857" style="stroke-opacity: 0.7; stroke-linecap: round;"/><path class="link" fill="none" stroke="#3b528b" stroke-width="3.862210075418823" marker-end="url(#marker18)" d="M781.495,285L758.097,285C734.698,285,687.902,285,661.876,285C635.85,285,630.596,285,625.341,299.405C620.087,313.81,614.832,342.619,609.578,357.024C604.323,371.429,599.069,371.429,596.442,371.429L593.815,371.429" style="stroke-opacity: 0.7; stroke-linecap: round;"/><path class="link" fill="none" stroke="#3b528b" stroke-width="3.862210075418823" marker-end="url(#marker19)" d="M781.495,285L758.097,285C734.698,285,687.902,285,661.876,285C635.85,285,630.596,285,625.341,316.5C620.087,348,614.832,411,609.578,442.5C604.323,474,599.069,474,596.442,474L593.815,474" style="stroke-opacity: 0.7; stroke-linecap: round;"/><path class="link" fill="none" stroke="#3b528b" stroke-width="3.862210075418823" marker-end="url(#marker20)" d="M781.495,285L758.097,285C734.698,285,687.902,285,661.876,285C635.85,285,630.596,285,625.341,265.214C620.087,245.429,614.832,205.857,609.578,186.071C604.323,166.286,599.069,166.286,596.442,166.286L593.815,166.286" style="stroke-opacity: 0.7; stroke-linecap: round;"/><path class="link" fill="none" stroke="#5ec962" stroke-width="3.8944404818493075" marker-end="url(#marker21)" d="M781.246,135L726.597,135C671.947,135,562.648,135,505.373,135C448.098,135,442.846,135,437.595,174.405C432.343,213.81,427.091,292.619,421.839,332.024C416.588,371.429,411.336,371.429,408.71,371.429L406.084,371.429" style="stroke-opacity: 0.7; stroke-linecap: round;"/><path class="link" fill="none" stroke="#5ec962" stroke-width="3.8944404818493075" marker-end="url(#marker22)" d="M781.246,135L726.597,135C671.947,135,562.648,135,505.373,135C448.098,135,442.846,135,437.595,191.5C432.343,248,427.091,361,421.839,417.5C416.588,474,411.336,474,408.71,474L406.084,474" style="stroke-opacity: 0.7; stroke-linecap: round;"/><path class="link" fill="none" stroke="#5ec962" stroke-width="3.8944404818493075" marker-end="url(#marker23)" d="M781.246,135L726.597,135C671.947,135,562.648,135,505.373,135C448.098,135,442.846,135,437.595,140.214C432.343,145.429,427.091,155.857,421.839,161.071C416.588,166.286,411.336,166.286,408.71,166.286L406.084,166.286" style="stroke-opacity: 0.7; stroke-linecap: round;"/><path class="link" fill="none" stroke="#5ec962" stroke-width="3.8944404818493075" marker-end="url(#marker24)" d="M781.246,135L726.597,135C671.947,135,562.648,135,505.373,135C448.098,135,442.846,135,437.595,131.667C432.343,128.333,427.091,121.667,421.839,118.333C416.588,115,411.336,115,408.71,115L406.084,115" style="stroke-opacity: 0.7; stroke-linecap: round;"/><path class="link" fill="none" stroke="#5ec962" stroke-width="3.8944404818493075" marker-end="url(#marker25)" d="M781.246,135L726.597,135C671.947,135,562.648,135,505.373,135C448.098,135,442.846,135,437.595,157.31C432.343,179.619,427.091,224.238,421.839,246.548C416.588,268.857,411.336,268.857,408.71,268.857L406.084,268.857" style="stroke-opacity: 0.7; stroke-linecap: round;"/><path class="link" fill="none" stroke="#472d7b" stroke-width="3.9791121287711073" marker-end="url(#marker26)" d="M780.593,322.5L765.045,322.5C749.496,322.5,718.399,322.5,700.229,322.5C682.058,322.5,676.814,322.5,671.57,322.107C666.325,321.714,661.081,320.929,655.836,320.536C650.592,320.143,645.348,320.143,642.725,320.143L640.103,320.143" style="stroke-opacity: 0.7; stroke-linecap: round;"/><text x="180.293896978683" y="115" transform="rotate(0,48.293896978682994,115)" text-anchor="middle" font-size="9.6" fill="#3e3f3f" style="font-family: sans-serif;"><tspan x="180.293896978683" dy="0">Address systemic issues such as c</tspan><tspan x="180.293896978683" dy="1.2em">orruption and inequality.</tspan></text><text x="320.293896978683" y="115" dy=".05em" transform="rotate(0,320.293896978683,115)" font-family="sans-serif" fill="#3e3f3f" style="text-anchor: middle; font-size: 16px;">15.2</text><text x="320.293896978683" y="115" dy="12.8" transform="rotate(0,320.293896978683,115)" font-family="sans-serif" fill="#3e3f3f" style="text-anchor: middle; font-size: 9.6px;">(15%)</text><text x="180.293896978683" y="166.28571428571428" transform="rotate(0,48.293896978682994,166.28571428571428)" text-anchor="middle" font-size="9.6" fill="#3e3f3f" style="font-family: sans-serif;"><tspan x="180.293896978683" dy="0">Investment in education, healthca</tspan><tspan x="180.293896978683" dy="1.2em">re, and infrastructure to empower</tspan><tspan x="180.293896978683" dy="1.2em"> communities and provide sustaina</tspan><tspan x="180.293896978683" dy="1.2em">ble employment opportunities.</tspan></text><text x="320.293896978683" y="166.28571428571428" dy=".05em" transform="rotate(0,320.293896978683,166.28571428571428)" font-family="sans-serif" fill="#3e3f3f" style="text-anchor: middle; font-size: 16px;">84.2</text><text x="320.293896978683" y="166.28571428571428" dy="12.8" transform="rotate(0,320.293896978683,166.28571428571428)" font-family="sans-serif" fill="#3e3f3f" style="text-anchor: middle; font-size: 9.6px;">(84%)</text><text x="180.293896978683" y="217.57142857142856" transform="rotate(0,48.293896978682994,217.57142857142856)" text-anchor="middle" font-size="9.6" fill="#3e3f3f" style="font-family: sans-serif;"><tspan x="180.293896978683" dy="0">Create comprehensive social welfa</tspan><tspan x="180.293896978683" dy="1.2em">re programs.</tspan></text><text x="320.293896978683" y="217.57142857142856" dy=".05em" transform="rotate(0,320.293896978683,217.57142857142856)" font-family="sans-serif" fill="#3e3f3f" style="text-anchor: middle; font-size: 16px;">16.7</text><text x="320.293896978683" y="217.57142857142856" dy="12.8" transform="rotate(0,320.293896978683,217.57142857142856)" font-family="sans-serif" fill="#3e3f3f" style="text-anchor: middle; font-size: 9.6px;">(17%)</text><text x="180.293896978683" y="268.8571428571429" transform="rotate(0,48.293896978682994,268.8571428571429)" text-anchor="middle" font-size="9.6" fill="#3e3f3f" style="font-family: sans-serif;"><tspan x="180.293896978683" dy="0">Sustainable economic growth throu</tspan><tspan x="180.293896978683" dy="1.2em">gh microfinance, social protectio</tspan><tspan x="180.293896978683" dy="1.2em">ns, and fair trade policies.</tspan></text><text x="320.293896978683" y="268.8571428571429" dy=".05em" transform="rotate(0,320.293896978683,268.8571428571429)" font-family="sans-serif" fill="#3e3f3f" style="text-anchor: middle; font-size: 16px;">69.2</text><text x="320.293896978683" y="268.8571428571429" dy="12.8" transform="rotate(0,320.293896978683,268.8571428571429)" font-family="sans-serif" fill="#3e3f3f" style="text-anchor: middle; font-size: 9.6px;">(69%)</text><text x="180.293896978683" y="320.1428571428571" transform="rotate(0,48.293896978682994,320.1428571428571)" text-anchor="middle" font-size="9.6" fill="#3e3f3f" style="font-family: sans-serif;"><tspan x="180.293896978683" dy="0">Investment in education, healthca</tspan><tspan x="180.293896978683" dy="1.2em">re, and infrastructure to provide</tspan><tspan x="180.293896978683" dy="1.2em"> sustainable opportunities for al</tspan><tspan x="180.293896978683" dy="1.2em">l individuals.</tspan></text><text x="320.293896978683" y="320.1428571428571" dy=".05em" transform="rotate(0,320.293896978683,320.1428571428571)" font-family="sans-serif" fill="#3e3f3f" style="text-anchor: middle; font-size: 16px;">15.8</text><text x="320.293896978683" y="320.1428571428571" dy="12.8" transform="rotate(0,320.293896978683,320.1428571428571)" font-family="sans-serif" fill="#3e3f3f" style="text-anchor: middle; font-size: 9.6px;">(16%)</text><text x="180.293896978683" y="371.42857142857144" transform="rotate(0,48.293896978682994,371.42857142857144)" text-anchor="middle" font-size="9.6" fill="#3e3f3f" style="font-family: sans-serif;"><tspan x="180.293896978683" dy="0">Invest in quality education, heal</tspan><tspan x="180.293896978683" dy="1.2em">thcare, and job opportunities to </tspan><tspan x="180.293896978683" dy="1.2em">empower individuals to lift thems</tspan><tspan x="180.293896978683" dy="1.2em">elves out of poverty.</tspan></text><text x="320.293896978683" y="371.42857142857144" dy=".05em" transform="rotate(0,320.293896978683,371.42857142857144)" font-family="sans-serif" fill="#3e3f3f" style="text-anchor: middle; font-size: 16px;">67.5</text><text x="320.293896978683" y="371.42857142857144" dy="12.8" transform="rotate(0,320.293896978683,371.42857142857144)" font-family="sans-serif" fill="#3e3f3f" style="text-anchor: middle; font-size: 9.6px;">(68%)</text><text x="180.293896978683" y="422.7142857142857" transform="rotate(0,48.293896978682994,422.7142857142857)" text-anchor="middle" font-size="9.6" fill="#3e3f3f" style="font-family: sans-serif;"><tspan x="180.293896978683" dy="0">Curtail monopolistic practices, p</tspan><tspan x="180.293896978683" dy="1.2em">romote wealth redistribution thro</tspan><tspan x="180.293896978683" dy="1.2em">ugh progressive tax systems, and </tspan><tspan x="180.293896978683" dy="1.2em">ensure basic income for all.</tspan></text><text x="320.293896978683" y="422.7142857142857" dy=".05em" transform="rotate(0,320.293896978683,422.7142857142857)" font-family="sans-serif" fill="#3e3f3f" style="text-anchor: middle; font-size: 16px;">8.5</text><text x="320.293896978683" y="422.7142857142857" dy="12.8" transform="rotate(0,320.293896978683,422.7142857142857)" font-family="sans-serif" fill="#3e3f3f" style="text-anchor: middle; font-size: 9.6px;">(9%)</text><text x="180.293896978683" y="474" transform="rotate(0,48.293896978682994,474)" text-anchor="middle" font-size="9.6" fill="#3e3f3f" style="font-family: sans-serif;"><tspan x="180.293896978683" dy="0">Create sustainable job opportunit</tspan><tspan x="180.293896978683" dy="1.2em">ies for low-income individuals.</tspan></text><text x="320.293896978683" y="474" dy=".05em" transform="rotate(0,320.293896978683,474)" font-family="sans-serif" fill="#3e3f3f" style="text-anchor: middle; font-size: 16px;">46.6</text><text x="320.293896978683" y="474" dy="12.8" transform="rotate(0,320.293896978683,474)" font-family="sans-serif" fill="#3e3f3f" style="text-anchor: middle; font-size: 9.6px;">(47%)</text><text x="782.6075175184956" y="76" dy=".05em" transform="rotate(0,782.6075175184956,76)" font-family="sans-serif" fill="#3e3f3f" style="text-anchor: middle; font-size: 16px;">8.5</text><text x="782.6075175184956" y="76" dy="12.8" transform="rotate(0,782.6075175184956,76)" font-family="sans-serif" fill="#3e3f3f" style="text-anchor: middle; font-size: 9.6px;">(9%)</text><text x="783.1756208900036" y="113.5" dy=".05em" transform="rotate(0,783.1756208900036,113.5)" font-family="sans-serif" fill="#3e3f3f" style="text-anchor: middle; font-size: 16px;">8.2</text><text x="783.1756208900036" y="113.5" dy="12.8" transform="rotate(0,783.1756208900036,113.5)" font-family="sans-serif" fill="#3e3f3f" style="text-anchor: middle; font-size: 9.6px;">(8%)</text><text x="772.9751457826029" y="151" dy=".05em" transform="rotate(0,772.9751457826029,151)" font-family="sans-serif" fill="#3e3f3f" style="text-anchor: middle; font-size: 16px;">15.2</text><text x="772.9751457826029" y="151" dy="12.8" transform="rotate(0,772.9751457826029,151)" font-family="sans-serif" fill="#3e3f3f" style="text-anchor: middle; font-size: 9.6px;">(15%)</text><text x="783.4640210890591" y="188.5" dy=".05em" transform="rotate(0,783.4640210890591,188.5)" font-family="sans-serif" fill="#3e3f3f" style="text-anchor: middle; font-size: 16px;">8</text><text x="783.4640210890591" y="188.5" dy="12.8" transform="rotate(0,783.4640210890591,188.5)" font-family="sans-serif" fill="#3e3f3f" style="text-anchor: middle; font-size: 9.6px;">(8%)</text><text x="766.293896978683" y="226" dy=".05em" transform="rotate(0,766.293896978683,226)" font-family="sans-serif" fill="#3e3f3f" style="text-anchor: middle; font-size: 16px;">20.9</text><text x="766.293896978683" y="226" dy="12.8" transform="rotate(0,766.293896978683,226)" font-family="sans-serif" fill="#3e3f3f" style="text-anchor: middle; font-size: 9.6px;">(21%)</text><text x="782.6075175184956" y="263.5" dy=".05em" transform="rotate(0,782.6075175184956,263.5)" font-family="sans-serif" fill="#3e3f3f" style="text-anchor: middle; font-size: 16px;">8.5</text><text x="782.6075175184956" y="263.5" dy="12.8" transform="rotate(0,782.6075175184956,263.5)" font-family="sans-serif" fill="#3e3f3f" style="text-anchor: middle; font-size: 9.6px;">(9%)</text><text x="773.2922719347971" y="301" dy=".05em" transform="rotate(0,773.2922719347971,301)" font-family="sans-serif" fill="#3e3f3f" style="text-anchor: middle; font-size: 16px;">14.9</text><text x="773.2922719347971" y="301" dy="12.8" transform="rotate(0,773.2922719347971,301)" font-family="sans-serif" fill="#3e3f3f" style="text-anchor: middle; font-size: 9.6px;">(15%)</text><text x="772.1420320691233" y="338.5" dy=".05em" transform="rotate(0,772.1420320691233,338.5)" font-family="sans-serif" fill="#3e3f3f" style="text-anchor: middle; font-size: 16px;">15.8</text><text x="772.1420320691233" y="338.5" dy="12.8" transform="rotate(0,772.1420320691233,338.5)" font-family="sans-serif" fill="#3e3f3f" style="text-anchor: middle; font-size: 9.6px;">(16%)</text></g></svg>