<svg xmlns="http://www.w3.org/2000/svg" width="909.2439136769935" height="596"><defs><marker id="marker0" markerWidth="6" markerHeight="6" refX="5" refY="3"><circle cx="3" cy="3" r="1" style="fill: rgb(53, 183, 121);"/></marker><marker id="marker1" markerWidth="6" markerHeight="6" refX="5" refY="3"><circle cx="3" cy="3" r="1" style="fill: rgb(53, 183, 121);"/></marker><marker id="marker2" markerWidth="6" markerHeight="6" refX="5" refY="3"><circle cx="3" cy="3" r="1" style="fill: rgb(53, 183, 121);"/></marker><marker id="marker3" markerWidth="6" markerHeight="6" refX="5" refY="3"><circle cx="3" cy="3" r="1" style="fill: rgb(144, 215, 67);"/></marker><marker id="marker4" markerWidth="6" markerHeight="6" refX="5" refY="3"><circle cx="3" cy="3" r="1" style="fill: rgb(144, 215, 67);"/></marker><marker id="marker5" markerWidth="6" markerHeight="6" refX="5" refY="3"><circle cx="3" cy="3" r="1" style="fill: rgb(144, 215, 67);"/></marker><marker id="marker6" markerWidth="6" markerHeight="6" refX="5" refY="3"><circle cx="3" cy="3" r="1" style="fill: rgb(144, 215, 67);"/></marker><marker id="marker7" markerWidth="6" markerHeight="6" refX="5" refY="3"><circle cx="3" cy="3" r="1" style="fill: rgb(253, 231, 37);"/></marker><marker id="marker8" markerWidth="6" markerHeight="6" refX="5" refY="3"><circle cx="3" cy="3" r="1" style="fill: rgb(253, 231, 37);"/></marker><marker id="marker9" markerWidth="6" markerHeight="6" refX="5" refY="3"><circle cx="3" cy="3" r="1" style="fill: rgb(253, 231, 37);"/></marker><marker id="marker10" markerWidth="6" markerHeight="6" refX="5" refY="3"><circle cx="3" cy="3" r="1" style="fill: rgb(253, 231, 37);"/></marker><marker id="marker11" markerWidth="6" markerHeight="6" refX="5" refY="3"><circle cx="3" cy="3" r="1" style="fill: rgb(253, 231, 37);"/></marker><marker id="marker12" markerWidth="6" markerHeight="6" refX="5" refY="3"><circle cx="3" cy="3" r="1" style="fill: rgb(253, 231, 37);"/></marker><marker id="marker13" markerWidth="6" markerHeight="6" refX="5" refY="3"><circle cx="3" cy="3" r="1" style="fill: rgb(68, 57, 131);"/></marker><marker id="marker14" markerWidth="6" markerHeight="6" refX="5" refY="3"><circle cx="3" cy="3" r="1" style="fill: rgb(68, 57, 131);"/></marker><marker id="marker15" markerWidth="6" markerHeight="6" refX="5" refY="3"><circle cx="3" cy="3" r="1" style="fill: rgb(68, 57, 131);"/></marker><marker id="marker16" markerWidth="6" markerHeight="6" refX="5" refY="3"><circle cx="3" cy="3" r="1" style="fill: rgb(68, 57, 131);"/></marker><marker id="marker17" markerWidth="6" markerHeight="6" refX="5" refY="3"><circle cx="3" cy="3" r="1" style="fill: rgb(33, 145, 140);"/></marker><marker id="marker18" markerWidth="6" markerHeight="6" refX="5" refY="3"><circle cx="3" cy="3" r="1" style="fill: rgb(33, 145, 140);"/></marker><marker id="marker19" markerWidth="6" markerHeight="6" refX="5" refY="3"><circle cx="3" cy="3" r="1" style="fill: rgb(49, 104, 142);"/></marker><marker id="marker20" markerWidth="6" markerHeight="6" refX="5" refY="3"><circle cx="3" cy="3" r="1" style="fill: rgb(49, 104, 142);"/></marker></defs><path class="link" fill="none" stroke="#35b779" stroke-width="7.445898199680143" marker-end="url(#marker0)" d="M754.821,160L688.865,160C622.908,160,490.995,160,418.417,160C345.839,160,332.595,160,319.351,217C306.107,274,292.863,388,279.62,445C266.376,502,253.132,502,246.51,502L239.888,502" style="stroke-opacity: 0.7; stroke-linecap: round;"/><path class="link" fill="none" stroke="#35b779" stroke-width="7.445898199680143" marker-end="url(#marker1)" d="M754.821,160L688.865,160C622.908,160,490.995,160,418.417,160C345.839,160,332.595,160,319.351,205.5C306.107,251,292.863,342,279.62,387.5C266.376,433,253.132,433,246.51,433L239.888,433" style="stroke-opacity: 0.7; stroke-linecap: round;"/><path class="link" fill="none" stroke="#35b779" stroke-width="7.445898199680143" marker-end="url(#marker2)" d="M754.821,160L688.865,160C622.908,160,490.995,160,418.417,160C345.839,160,332.595,160,319.351,148C306.107,136,292.863,112,279.62,100C266.376,88,253.132,88,246.51,88L239.888,88" style="stroke-opacity: 0.7; stroke-linecap: round;"/><path class="link" fill="none" stroke="#90d743" stroke-width="8.304922736947447" marker-end="url(#marker3)" d="M751.427,110L671.563,110C591.7,110,431.973,110,345.521,110C259.068,110,245.89,110,232.712,175.333C219.533,240.667,206.355,371.333,193.177,436.667C179.998,502,166.82,502,160.231,502L153.642,502" style="stroke-opacity: 0.7; stroke-linecap: round;"/><path class="link" fill="none" stroke="#90d743" stroke-width="8.304922736947447" marker-end="url(#marker4)" d="M751.427,110L671.563,110C591.7,110,431.973,110,345.521,110C259.068,110,245.89,110,232.712,163.833C219.533,217.667,206.355,325.333,193.177,379.167C179.998,433,166.82,433,160.231,433L153.642,433" style="stroke-opacity: 0.7; stroke-linecap: round;"/><path class="link" fill="none" stroke="#90d743" stroke-width="8.304922736947447" marker-end="url(#marker5)" d="M751.427,110L671.563,110C591.7,110,431.973,110,345.521,110C259.068,110,245.89,110,232.712,152.333C219.533,194.667,206.355,279.333,193.177,321.667C179.998,364,166.82,364,160.231,364L153.642,364" style="stroke-opacity: 0.7; stroke-linecap: round;"/><path class="link" fill="none" stroke="#90d743" stroke-width="8.304922736947447" marker-end="url(#marker6)" d="M751.427,110L671.563,110C591.7,110,431.973,110,345.521,110C259.068,110,245.89,110,232.712,106.333C219.533,102.667,206.355,95.333,193.177,91.667C179.998,88,166.82,88,160.231,88L153.642,88" style="stroke-opacity: 0.7; stroke-linecap: round;"/><path class="link" fill="none" stroke="#fde725" stroke-width="6.499312784184699" marker-end="url(#marker7)" d="M758.562,60L663.483,60C568.404,60,378.246,60,276.509,60C174.772,60,161.456,60,148.14,133.667C134.824,207.333,121.508,354.667,108.192,428.333C94.876,502,81.56,502,74.902,502L68.244,502" style="stroke-opacity: 0.7; stroke-linecap: round;"/><path class="link" fill="none" stroke="#fde725" stroke-width="6.499312784184699" marker-end="url(#marker8)" d="M758.562,60L663.483,60C568.404,60,378.246,60,276.509,60C174.772,60,161.456,60,148.14,76.167C134.824,92.333,121.508,124.667,108.192,140.833C94.876,157,81.56,157,74.902,157L68.244,157" style="stroke-opacity: 0.7; stroke-linecap: round;"/><path class="link" fill="none" stroke="#fde725" stroke-width="6.499312784184699" marker-end="url(#marker9)" d="M758.562,60L663.483,60C568.404,60,378.246,60,276.509,60C174.772,60,161.456,60,148.14,64.667C134.824,69.333,121.508,78.667,108.192,83.333C94.876,88,81.56,88,74.902,88L68.244,88" style="stroke-opacity: 0.7; stroke-linecap: round;"/><path class="link" fill="none" stroke="#fde725" stroke-width="6.499312784184699" marker-end="url(#marker10)" d="M758.562,60L663.483,60C568.404,60,378.246,60,276.509,60C174.772,60,161.456,60,148.14,122.167C134.824,184.333,121.508,308.667,108.192,370.833C94.876,433,81.56,433,74.902,433L68.244,433" style="stroke-opacity: 0.7; stroke-linecap: round;"/><path class="link" fill="none" stroke="#fde725" stroke-width="6.499312784184699" marker-end="url(#marker11)" d="M758.562,60L663.483,60C568.404,60,378.246,60,276.509,60C174.772,60,161.456,60,148.14,110.667C134.824,161.333,121.508,262.667,108.192,313.333C94.876,364,81.56,364,74.902,364L68.244,364" style="stroke-opacity: 0.7; stroke-linecap: round;"/><path class="link" fill="none" stroke="#fde725" stroke-width="6.499312784184699" marker-end="url(#marker12)" d="M758.562,60L663.483,60C568.404,60,378.246,60,276.509,60C174.772,60,161.456,60,148.14,103C134.824,146,121.508,232,108.192,275C94.876,318,81.56,318,74.902,318L68.244,318" style="stroke-opacity: 0.7; stroke-linecap: round;"/><path class="link" fill="none" stroke="#443983" stroke-width="8.806358971409997" marker-end="url(#marker13)" d="M749.445,310L726.58,310C703.715,310,657.986,310,628.551,310C599.116,310,585.976,310,572.835,345.833C559.695,381.667,546.555,453.333,533.415,489.167C520.275,525,507.135,525,500.565,525L493.995,525" style="stroke-opacity: 0.7; stroke-linecap: round;"/><path class="link" fill="none" stroke="#443983" stroke-width="8.806358971409997" marker-end="url(#marker14)" d="M749.445,310L726.58,310C703.715,310,657.986,310,628.551,310C599.116,310,585.976,310,572.835,342C559.695,374,546.555,438,533.415,470C520.275,502,507.135,502,500.565,502L493.995,502" style="stroke-opacity: 0.7; stroke-linecap: round;"/><path class="link" fill="none" stroke="#443983" stroke-width="8.806358971409997" marker-end="url(#marker15)" d="M749.445,310L726.58,310C703.715,310,657.986,310,628.551,310C599.116,310,585.976,310,572.835,330.5C559.695,351,546.555,392,533.415,412.5C520.275,433,507.135,433,500.565,433L493.995,433" style="stroke-opacity: 0.7; stroke-linecap: round;"/><path class="link" fill="none" stroke="#443983" stroke-width="8.806358971409997" marker-end="url(#marker16)" d="M749.445,310L726.58,310C703.715,310,657.986,310,628.551,310C599.116,310,585.976,310,572.835,273C559.695,236,546.555,162,533.415,125C520.275,88,507.135,88,500.565,88L493.995,88" style="stroke-opacity: 0.7; stroke-linecap: round;"/><path class="link" fill="none" stroke="#21918c" stroke-width="9.560978419248384" marker-end="url(#marker17)" d="M746.463,210L695.439,210C644.415,210,542.367,210,484.802,210C427.237,210,414.154,210,401.072,258.667C387.989,307.333,374.907,404.667,361.824,453.333C348.741,502,335.659,502,329.118,502L322.576,502" style="stroke-opacity: 0.7; stroke-linecap: round;"/><path class="link" fill="none" stroke="#21918c" stroke-width="9.560978419248384" marker-end="url(#marker18)" d="M746.463,210L695.439,210C644.415,210,542.367,210,484.802,210C427.237,210,414.154,210,401.072,247.167C387.989,284.333,374.907,358.667,361.824,395.833C348.741,433,335.659,433,329.118,433L322.576,433" style="stroke-opacity: 0.7; stroke-linecap: round;"/><path class="link" fill="none" stroke="#31688e" stroke-width="7.77119842752712" marker-end="url(#marker19)" d="M753.536,260L716.257,260C678.978,260,604.419,260,560.531,260C516.642,260,503.423,260,490.204,288.833C476.985,317.667,463.766,375.333,450.547,404.167C437.328,433,424.109,433,417.499,433L410.89,433" style="stroke-opacity: 0.7; stroke-linecap: round;"/><path class="link" fill="none" stroke="#31688e" stroke-width="7.77119842752712" marker-end="url(#marker20)" d="M753.536,260L716.257,260C678.978,260,604.419,260,560.531,260C516.642,260,503.423,260,490.204,231.333C476.985,202.667,463.766,145.333,450.547,116.667C437.328,88,424.109,88,417.499,88L410.89,88" style="stroke-opacity: 0.7; stroke-linecap: round;"/><text x="98.24391367699354" y="88" transform="rotate(0,93.24391367699354,88)" font-size="12" fill="#3e3f3f" style="font-family: sans-serif;">Sustainable economic growth through mic...</text><text x="73.24391367699354" y="88" dy=".05em" transform="rotate(0,73.24391367699354,88)" font-family="sans-serif" fill="#3e3f3f" style="text-anchor: middle; font-size: 20px;">77%</text><text x="98.24391367699354" y="157" transform="rotate(0,93.24391367699354,157)" font-size="12" fill="#3e3f3f" style="font-family: sans-serif;">Create comprehensive social welfare pro...</text><text x="73.24391367699354" y="157" dy=".05em" transform="rotate(0,73.24391367699354,157)" font-family="sans-serif" fill="#3e3f3f" style="text-anchor: middle; font-size: 20px;">11%</text><text x="98.24391367699354" y="318" transform="rotate(0,93.24391367699354,318)" font-size="12" fill="#3e3f3f" style="font-family: sans-serif;">Curtail monopolistic practices, promote...</text><text x="73.24391367699354" y="318" dy=".05em" transform="rotate(0,73.24391367699354,318)" font-family="sans-serif" fill="#3e3f3f" style="text-anchor: middle; font-size: 20px;">11%</text><text x="98.24391367699354" y="364" transform="rotate(0,93.24391367699354,364)" font-size="12" fill="#3e3f3f" style="font-family: sans-serif;">Create sustainable job opportunities fo...</text><text x="73.24391367699354" y="364" dy=".05em" transform="rotate(0,73.24391367699354,364)" font-family="sans-serif" fill="#3e3f3f" style="text-anchor: middle; font-size: 20px;">28%</text><text x="98.24391367699354" y="433" transform="rotate(0,93.24391367699354,433)" font-size="12" fill="#3e3f3f" style="font-family: sans-serif;">Investment in education, healthcare, an...</text><text x="73.24391367699354" y="433" dy=".05em" transform="rotate(0,73.24391367699354,433)" font-family="sans-serif" fill="#3e3f3f" style="text-anchor: middle; font-size: 20px;">100%</text><text x="98.24391367699354" y="502" transform="rotate(0,93.24391367699354,502)" font-size="12" fill="#3e3f3f" style="font-family: sans-serif;">Invest in quality education, healthcare...</text><text x="73.24391367699354" y="502" dy=".05em" transform="rotate(0,73.24391367699354,502)" font-family="sans-serif" fill="#3e3f3f" style="text-anchor: middle; font-size: 20px;">85%</text><text x="98.24391367699354" y="525" transform="rotate(0,93.24391367699354,525)" font-size="12" fill="#3e3f3f" style="font-family: sans-serif;">Promote access to basic services like h...</text><text x="73.24391367699354" y="525" dy=".05em" transform="rotate(0,73.24391367699354,525)" font-family="sans-serif" fill="#3e3f3f" style="text-anchor: middle; font-size: 20px;">20%</text><text x="753.6540448933232" y="80" dy=".05em" transform="rotate(0,753.6540448933232,80)" font-family="sans-serif" fill="#3e3f3f" style="text-anchor: middle; font-size: 20px;">11%</text><text x="745.1557046281947" y="130" dy=".05em" transform="rotate(0,745.1557046281947,130)" font-family="sans-serif" fill="#3e3f3f" style="text-anchor: middle; font-size: 20px;">17%</text><text x="749.1988163770096" y="180" dy=".05em" transform="rotate(0,749.1988163770096,180)" font-family="sans-serif" fill="#3e3f3f" style="text-anchor: middle; font-size: 20px;">14%</text><text x="739.2439136769935" y="230" dy=".05em" transform="rotate(0,739.2439136769935,230)" font-family="sans-serif" fill="#3e3f3f" style="text-anchor: middle; font-size: 20px;">23%</text><text x="747.6677481524811" y="280" dy=".05em" transform="rotate(0,747.6677481524811,280)" font-family="sans-serif" fill="#3e3f3f" style="text-anchor: middle; font-size: 20px;">15%</text><text x="742.7956291671533" y="330" dy=".05em" transform="rotate(0,742.7956291671533,330)" font-family="sans-serif" fill="#3e3f3f" style="text-anchor: middle; font-size: 20px;">20%</text></svg>