<?xml version="1.0" encoding="UTF-8" standalone="no"?>
<svg
   width="699.80591"
   height="430.18939"
   version="1.1"
   id="svg102"
   xmlns="http://www.w3.org/2000/svg"
   xmlns:svg="http://www.w3.org/2000/svg">
  <defs
     id="defs102" />
  <g
     id="g102"
     transform="translate(-95.412646,-58.541842)">
    <defs
       id="defs27">
      <marker
         id="marker0"
         markerWidth="6"
         markerHeight="6"
         refX="5"
         refY="3">
        <circle
           cx="3"
           cy="3"
           r="1"
           style="fill:#21918c"
           id="circle1" />
      </marker>
      <marker
         id="marker1"
         markerWidth="6"
         markerHeight="6"
         refX="5"
         refY="3">
        <circle
           cx="3"
           cy="3"
           r="1"
           style="fill:#21918c"
           id="circle2" />
      </marker>
      <marker
         id="marker2"
         markerWidth="6"
         markerHeight="6"
         refX="5"
         refY="3">
        <circle
           cx="3"
           cy="3"
           r="1"
           style="fill:#21918c"
           id="circle3" />
      </marker>
      <marker
         id="marker3"
         markerWidth="6"
         markerHeight="6"
         refX="5"
         refY="3">
        <circle
           cx="3"
           cy="3"
           r="1"
           style="fill:#28ae80"
           id="circle4" />
      </marker>
      <marker
         id="marker4"
         markerWidth="6"
         markerHeight="6"
         refX="5"
         refY="3">
        <circle
           cx="3"
           cy="3"
           r="1"
           style="fill:#28ae80"
           id="circle5" />
      </marker>
      <marker
         id="marker5"
         markerWidth="6"
         markerHeight="6"
         refX="5"
         refY="3">
        <circle
           cx="3"
           cy="3"
           r="1"
           style="fill:#28ae80"
           id="circle6" />
      </marker>
      <marker
         id="marker6"
         markerWidth="6"
         markerHeight="6"
         refX="5"
         refY="3">
        <circle
           cx="3"
           cy="3"
           r="1"
           style="fill:#28ae80"
           id="circle7" />
      </marker>
      <marker
         id="marker7"
         markerWidth="6"
         markerHeight="6"
         refX="5"
         refY="3">
        <circle
           cx="3"
           cy="3"
           r="1"
           style="fill:#2c728e"
           id="circle8" />
      </marker>
      <marker
         id="marker8"
         markerWidth="6"
         markerHeight="6"
         refX="5"
         refY="3">
        <circle
           cx="3"
           cy="3"
           r="1"
           style="fill:#2c728e"
           id="circle9" />
      </marker>
      <marker
         id="marker9"
         markerWidth="6"
         markerHeight="6"
         refX="5"
         refY="3">
        <circle
           cx="3"
           cy="3"
           r="1"
           style="fill:#addc30"
           id="circle10" />
      </marker>
      <marker
         id="marker10"
         markerWidth="6"
         markerHeight="6"
         refX="5"
         refY="3">
        <circle
           cx="3"
           cy="3"
           r="1"
           style="fill:#addc30"
           id="circle11" />
      </marker>
      <marker
         id="marker11"
         markerWidth="6"
         markerHeight="6"
         refX="5"
         refY="3">
        <circle
           cx="3"
           cy="3"
           r="1"
           style="fill:#addc30"
           id="circle12" />
      </marker>
      <marker
         id="marker12"
         markerWidth="6"
         markerHeight="6"
         refX="5"
         refY="3">
        <circle
           cx="3"
           cy="3"
           r="1"
           style="fill:#fde725"
           id="circle13" />
      </marker>
      <marker
         id="marker13"
         markerWidth="6"
         markerHeight="6"
         refX="5"
         refY="3">
        <circle
           cx="3"
           cy="3"
           r="1"
           style="fill:#fde725"
           id="circle14" />
      </marker>
      <marker
         id="marker14"
         markerWidth="6"
         markerHeight="6"
         refX="5"
         refY="3">
        <circle
           cx="3"
           cy="3"
           r="1"
           style="fill:#fde725"
           id="circle15" />
      </marker>
      <marker
         id="marker15"
         markerWidth="6"
         markerHeight="6"
         refX="5"
         refY="3">
        <circle
           cx="3"
           cy="3"
           r="1"
           style="fill:#fde725"
           id="circle16" />
      </marker>
      <marker
         id="marker16"
         markerWidth="6"
         markerHeight="6"
         refX="5"
         refY="3">
        <circle
           cx="3"
           cy="3"
           r="1"
           style="fill:#fde725"
           id="circle17" />
      </marker>
      <marker
         id="marker17"
         markerWidth="6"
         markerHeight="6"
         refX="5"
         refY="3">
        <circle
           cx="3"
           cy="3"
           r="1"
           style="fill:#fde725"
           id="circle18" />
      </marker>
      <marker
         id="marker18"
         markerWidth="6"
         markerHeight="6"
         refX="5"
         refY="3">
        <circle
           cx="3"
           cy="3"
           r="1"
           style="fill:#3b528b"
           id="circle19" />
      </marker>
      <marker
         id="marker19"
         markerWidth="6"
         markerHeight="6"
         refX="5"
         refY="3">
        <circle
           cx="3"
           cy="3"
           r="1"
           style="fill:#3b528b"
           id="circle20" />
      </marker>
      <marker
         id="marker20"
         markerWidth="6"
         markerHeight="6"
         refX="5"
         refY="3">
        <circle
           cx="3"
           cy="3"
           r="1"
           style="fill:#3b528b"
           id="circle21" />
      </marker>
      <marker
         id="marker21"
         markerWidth="6"
         markerHeight="6"
         refX="5"
         refY="3">
        <circle
           cx="3"
           cy="3"
           r="1"
           style="fill:#5ec962"
           id="circle22" />
      </marker>
      <marker
         id="marker22"
         markerWidth="6"
         markerHeight="6"
         refX="5"
         refY="3">
        <circle
           cx="3"
           cy="3"
           r="1"
           style="fill:#5ec962"
           id="circle23" />
      </marker>
      <marker
         id="marker23"
         markerWidth="6"
         markerHeight="6"
         refX="5"
         refY="3">
        <circle
           cx="3"
           cy="3"
           r="1"
           style="fill:#5ec962"
           id="circle24" />
      </marker>
      <marker
         id="marker24"
         markerWidth="6"
         markerHeight="6"
         refX="5"
         refY="3">
        <circle
           cx="3"
           cy="3"
           r="1"
           style="fill:#5ec962"
           id="circle25" />
      </marker>
      <marker
         id="marker25"
         markerWidth="6"
         markerHeight="6"
         refX="5"
         refY="3">
        <circle
           cx="3"
           cy="3"
           r="1"
           style="fill:#5ec962"
           id="circle26" />
      </marker>
      <marker
         id="marker26"
         markerWidth="6"
         markerHeight="6"
         refX="5"
         refY="3">
        <circle
           cx="3"
           cy="3"
           r="1"
           style="fill:#472d7b"
           id="circle27" />
      </marker>
    </defs>
    <path
       class="link"
       fill="none"
       stroke="#21918c"
       stroke-width="4.57347"
       marker-end="url(#marker0)"
       d="m 776.007,210 h -38.582 c -38.581,0 -115.745,0 -156.923,0 -41.179,0 -46.372,0 -51.565,26.905 -5.193,26.905 -10.386,80.714 -15.579,107.619 -5.193,26.905 -10.386,26.905 -12.982,26.905 h -2.597"
       style="stroke-linecap:round;stroke-opacity:0.7"
       id="path27" />
    <path
       class="link"
       fill="none"
       stroke="#21918c"
       stroke-width="4.57347"
       marker-end="url(#marker1)"
       d="m 776.007,210 h -38.582 c -38.581,0 -115.745,0 -156.923,0 -41.179,0 -46.372,0 -51.565,-7.286 -5.193,-7.285 -10.386,-21.857 -15.579,-29.143 -5.193,-7.285 -10.386,-7.285 -12.982,-7.285 h -2.597"
       style="stroke-linecap:round;stroke-opacity:0.7"
       id="path28" />
    <path
       class="link"
       fill="none"
       stroke="#21918c"
       stroke-width="4.57347"
       marker-end="url(#marker2)"
       d="m 776.007,210 h -38.582 c -38.581,0 -115.745,0 -156.923,0 -41.179,0 -46.372,0 -51.565,9.81 -5.193,9.809 -10.386,29.428 -15.579,39.238 -5.193,9.809 -10.386,9.809 -12.982,9.809 h -2.597"
       style="stroke-linecap:round;stroke-opacity:0.7"
       id="path29" />
    <path
       class="link"
       fill="none"
       stroke="#28ae80"
       stroke-width="2.82843"
       marker-end="url(#marker3)"
       d="m 789.471,172.5 h -47.655 c -47.655,0 -142.965,0 -193.292,0 -50.327,0 -55.67,0 -61.014,33.155 -5.344,33.155 -10.688,99.464 -16.032,132.619 -5.343,33.155 -10.687,33.155 -13.359,33.155 h -2.672"
       style="stroke-linecap:round;stroke-opacity:0.7"
       id="path30" />
    <path
       class="link"
       fill="none"
       stroke="#28ae80"
       stroke-width="2.82843"
       marker-end="url(#marker4)"
       d="m 789.471,172.5 h -47.655 c -47.655,0 -142.965,0 -193.292,0 -50.327,0 -55.67,0 -61.014,50.25 -5.344,50.25 -10.688,150.75 -16.032,201 C 466.135,474 460.791,474 458.119,474 h -2.672"
       style="stroke-linecap:round;stroke-opacity:0.7"
       id="path31" />
    <path
       class="link"
       fill="none"
       stroke="#28ae80"
       stroke-width="2.82843"
       marker-end="url(#marker5)"
       d="m 789.471,172.5 h -47.655 c -47.655,0 -142.965,0 -193.292,0 -50.327,0 -55.67,0 -61.014,-1.036 -5.344,-1.035 -10.688,-3.107 -16.032,-4.143 -5.343,-1.035 -10.687,-1.035 -13.359,-1.035 h -2.672"
       style="stroke-linecap:round;stroke-opacity:0.7"
       id="path32" />
    <path
       class="link"
       fill="none"
       stroke="#28ae80"
       stroke-width="2.82843"
       marker-end="url(#marker6)"
       d="m 789.471,172.5 h -47.655 c -47.655,0 -142.965,0 -193.292,0 -50.327,0 -55.67,0 -61.014,16.06 -5.344,16.059 -10.688,48.178 -16.032,64.238 -5.343,16.059 -10.687,16.059 -13.359,16.059 h -2.672"
       style="stroke-linecap:round;stroke-opacity:0.7"
       id="path33" />
    <path
       class="link"
       fill="none"
       stroke="#2c728e"
       stroke-width="2.91548"
       marker-end="url(#marker7)"
       d="m 788.799,247.5 h -31.704 c -31.704,0 -95.113,0 -129.486,0 -34.372,0 -39.708,0 -45.045,-13.536 -5.336,-13.535 -10.672,-40.607 -16.008,-54.143 -5.337,-13.535 -10.673,-13.535 -13.341,-13.535 h -2.668"
       style="stroke-linecap:round;stroke-opacity:0.7"
       id="path34" />
    <path
       class="link"
       fill="none"
       stroke="#2c728e"
       stroke-width="2.91548"
       marker-end="url(#marker8)"
       d="m 788.799,247.5 h -31.704 c -31.704,0 -95.113,0 -129.486,0 -34.372,0 -39.708,0 -45.045,3.56 -5.336,3.559 -10.672,10.678 -16.008,14.238 -5.337,3.559 -10.673,3.559 -13.341,3.559 h -2.668"
       style="stroke-linecap:round;stroke-opacity:0.7"
       id="path35" />
    <path
       class="link"
       fill="none"
       stroke="#addc30"
       stroke-width="2.85774"
       marker-end="url(#marker9)"
       d="m 789.245,97.5 h -63.531 c -63.531,0 -190.592,0 -256.793,0 -66.202,0 -71.543,0 -76.884,20.012 -5.342,20.012 -10.683,60.036 -16.024,80.048 -5.341,20.011 -10.683,20.011 -13.353,20.011 h -2.671"
       style="stroke-linecap:round;stroke-opacity:0.7"
       id="path36" />
    <path
       class="link"
       fill="none"
       stroke="#addc30"
       stroke-width="2.85774"
       marker-end="url(#marker10)"
       d="m 789.245,97.5 h -63.531 c -63.531,0 -190.592,0 -256.793,0 -66.202,0 -71.543,0 -76.884,11.464 -5.342,11.465 -10.683,34.393 -16.024,45.857 -5.341,11.465 -10.683,11.465 -13.353,11.465 h -2.671"
       style="stroke-linecap:round;stroke-opacity:0.7"
       id="path37" />
    <path
       class="link"
       fill="none"
       stroke="#addc30"
       stroke-width="2.85774"
       marker-end="url(#marker11)"
       d="m 789.245,97.5 h -63.531 c -63.531,0 -190.592,0 -256.793,0 -66.202,0 -71.543,0 -76.884,28.56 -5.342,28.559 -10.683,85.678 -16.024,114.238 -5.341,28.559 -10.683,28.559 -13.353,28.559 h -2.671"
       style="stroke-linecap:round;stroke-opacity:0.7"
       id="path38" />
    <path
       class="link"
       fill="none"
       stroke="#fde725"
       stroke-width="2.91548"
       marker-end="url(#marker12)"
       d="m 788.799,60 h -71.413 c -71.413,0 -214.239,0 -288.321,0 -74.081,0 -79.417,0 -84.753,51.905 -5.337,51.905 -10.673,155.714 -16.009,207.619 -5.337,51.905 -10.673,51.905 -13.341,51.905 h -2.668"
       style="stroke-linecap:round;stroke-opacity:0.7"
       id="path39" />
    <path
       class="link"
       fill="none"
       stroke="#fde725"
       stroke-width="2.91548"
       marker-end="url(#marker13)"
       d="m 788.799,60 h -71.413 c -71.413,0 -214.239,0 -288.321,0 -74.081,0 -79.417,0 -84.753,69 -5.337,69 -10.673,207 -16.009,276 -5.337,69 -10.673,69 -13.341,69 h -2.668"
       style="stroke-linecap:round;stroke-opacity:0.7"
       id="path40" />
    <path
       class="link"
       fill="none"
       stroke="#fde725"
       stroke-width="2.91548"
       marker-end="url(#marker14)"
       d="m 788.799,60 h -71.413 c -71.413,0 -214.239,0 -288.321,0 -74.081,0 -79.417,0 -84.753,26.262 -5.337,26.262 -10.673,78.786 -16.009,105.048 -5.337,26.261 -10.673,26.261 -13.341,26.261 h -2.668"
       style="stroke-linecap:round;stroke-opacity:0.7"
       id="path41" />
    <path
       class="link"
       fill="none"
       stroke="#fde725"
       stroke-width="2.91548"
       marker-end="url(#marker15)"
       d="m 788.799,60 h -71.413 c -71.413,0 -214.239,0 -288.321,0 -74.081,0 -79.417,0 -84.753,17.714 -5.337,17.715 -10.673,53.143 -16.009,70.857 -5.337,17.715 -10.673,17.715 -13.341,17.715 h -2.668"
       style="stroke-linecap:round;stroke-opacity:0.7"
       id="path42" />
    <path
       class="link"
       fill="none"
       stroke="#fde725"
       stroke-width="2.91548"
       marker-end="url(#marker16)"
       d="m 788.799,60 h -71.413 c -71.413,0 -214.239,0 -288.321,0 -74.081,0 -79.417,0 -84.753,60.452 -5.337,60.453 -10.673,181.358 -16.009,241.81 -5.337,60.452 -10.673,60.452 -13.341,60.452 h -2.668"
       style="stroke-linecap:round;stroke-opacity:0.7"
       id="path43" />
    <path
       class="link"
       fill="none"
       stroke="#fde725"
       stroke-width="2.91548"
       marker-end="url(#marker17)"
       d="m 788.799,60 h -71.413 c -71.413,0 -214.239,0 -288.321,0 -74.081,0 -79.417,0 -84.753,34.81 -5.337,34.809 -10.673,104.428 -16.009,139.238 -5.337,34.809 -10.673,34.809 -13.341,34.809 h -2.668"
       style="stroke-linecap:round;stroke-opacity:0.7"
       id="path44" />
    <path
       class="link"
       fill="none"
       stroke="#3b528b"
       stroke-width="3.86221"
       marker-end="url(#marker18)"
       d="m 781.495,285 h -23.398 c -23.399,0 -70.195,0 -96.221,0 -26.026,0 -31.28,0 -36.535,14.405 -5.254,14.405 -10.509,43.214 -15.763,57.619 -5.255,14.405 -10.509,14.405 -13.136,14.405 h -2.627"
       style="stroke-linecap:round;stroke-opacity:0.7"
       id="path45" />
    <path
       class="link"
       fill="none"
       stroke="#3b528b"
       stroke-width="3.86221"
       marker-end="url(#marker19)"
       d="m 781.495,285 h -23.398 c -23.399,0 -70.195,0 -96.221,0 -26.026,0 -31.28,0 -36.535,31.5 -5.254,31.5 -10.509,94.5 -15.763,126 -5.255,31.5 -10.509,31.5 -13.136,31.5 h -2.627"
       style="stroke-linecap:round;stroke-opacity:0.7"
       id="path46" />
    <path
       class="link"
       fill="none"
       stroke="#3b528b"
       stroke-width="3.86221"
       marker-end="url(#marker20)"
       d="m 781.495,285 h -23.398 c -23.399,0 -70.195,0 -96.221,0 -26.026,0 -31.28,0 -36.535,-19.786 -5.254,-19.785 -10.509,-59.357 -15.763,-79.143 -5.255,-19.785 -10.509,-19.785 -13.136,-19.785 h -2.627"
       style="stroke-linecap:round;stroke-opacity:0.7"
       id="path47" />
    <path
       class="link"
       fill="none"
       stroke="#5ec962"
       stroke-width="3.89444"
       marker-end="url(#marker21)"
       d="m 781.246,135 h -54.649 c -54.65,0 -163.949,0 -221.224,0 -57.275,0 -62.527,0 -67.778,39.405 -5.252,39.405 -10.504,118.214 -15.756,157.619 -5.251,39.405 -10.503,39.405 -13.129,39.405 h -2.626"
       style="stroke-linecap:round;stroke-opacity:0.7"
       id="path48" />
    <path
       class="link"
       fill="none"
       stroke="#5ec962"
       stroke-width="3.89444"
       marker-end="url(#marker22)"
       d="m 781.246,135 h -54.649 c -54.65,0 -163.949,0 -221.224,0 -57.275,0 -62.527,0 -67.778,56.5 C 432.343,248 427.091,361 421.839,417.5 416.588,474 411.336,474 408.71,474 h -2.626"
       style="stroke-linecap:round;stroke-opacity:0.7"
       id="path49" />
    <path
       class="link"
       fill="none"
       stroke="#5ec962"
       stroke-width="3.89444"
       marker-end="url(#marker23)"
       d="m 781.246,135 h -54.649 c -54.65,0 -163.949,0 -221.224,0 -57.275,0 -62.527,0 -67.778,5.214 -5.252,5.215 -10.504,15.643 -15.756,20.857 -5.251,5.215 -10.503,5.215 -13.129,5.215 h -2.626"
       style="stroke-linecap:round;stroke-opacity:0.7"
       id="path50" />
    <path
       class="link"
       fill="none"
       stroke="#5ec962"
       stroke-width="3.89444"
       marker-end="url(#marker24)"
       d="m 781.246,135 h -54.649 c -54.65,0 -163.949,0 -221.224,0 -57.275,0 -62.527,0 -67.778,-3.333 -5.252,-3.334 -10.504,-10 -15.756,-13.334 C 416.588,115 411.336,115 408.71,115 h -2.626"
       style="stroke-linecap:round;stroke-opacity:0.7"
       id="path51" />
    <path
       class="link"
       fill="none"
       stroke="#5ec962"
       stroke-width="3.89444"
       marker-end="url(#marker25)"
       d="m 781.246,135 h -54.649 c -54.65,0 -163.949,0 -221.224,0 -57.275,0 -62.527,0 -67.778,22.31 -5.252,22.309 -10.504,66.928 -15.756,89.238 -5.251,22.309 -10.503,22.309 -13.129,22.309 h -2.626"
       style="stroke-linecap:round;stroke-opacity:0.7"
       id="path52" />
    <path
       class="link"
       fill="none"
       stroke="#472d7b"
       stroke-width="3.97911"
       marker-end="url(#marker26)"
       d="m 780.593,322.5 h -15.548 c -15.549,0 -46.646,0 -64.816,0 -18.171,0 -23.415,0 -28.659,-0.393 -5.245,-0.393 -10.489,-1.178 -15.734,-1.571 -5.244,-0.393 -10.488,-0.393 -13.111,-0.393 h -2.622"
       style="stroke-linecap:round;stroke-opacity:0.7"
       id="path53" />
    <text
       x="180.2939"
       y="115"
       text-anchor="middle"
       font-size="9.6px"
       fill="#3e3f3f"
       style="font-family:sans-serif"
       id="text54"><tspan
         x="180.2939"
         dy="0"
         id="tspan53">Address systemic issues such as c</tspan><tspan
         x="180.2939"
         dy="1.2em"
         id="tspan54">orruption and inequality.</tspan></text>
    <text
       x="320.29388"
       y="115"
       dy="0.050000001em"
       font-family="sans-serif"
       fill="#3e3f3f"
       style="font-size:16px;text-anchor:middle"
       id="text55">15.2</text>
    <text
       x="320.29388"
       y="115"
       dy="12.8"
       font-family="sans-serif"
       fill="#3e3f3f"
       style="font-size:9.6px;text-anchor:middle"
       id="text56">(15%)</text>
    <text
       x="180.2939"
       y="166.28572"
       text-anchor="middle"
       font-size="9.6px"
       fill="#3e3f3f"
       style="font-family:sans-serif"
       id="text59"><tspan
         x="180.2939"
         dy="0"
         id="tspan56">Investment in education, healthca</tspan><tspan
         x="180.2939"
         dy="1.2em"
         id="tspan57">re, and infrastructure to empower</tspan><tspan
         x="180.2939"
         dy="1.2em"
         id="tspan58">communities and provide sustaina</tspan><tspan
         x="180.2939"
         dy="1.2em"
         id="tspan59">ble employment opportunities.</tspan></text>
    <text
       x="320.29388"
       y="166.28572"
       dy="0.050000001em"
       font-family="sans-serif"
       fill="#3e3f3f"
       style="font-size:16px;text-anchor:middle"
       id="text60">84.2</text>
    <text
       x="320.29388"
       y="166.28572"
       dy="12.8"
       font-family="sans-serif"
       fill="#3e3f3f"
       style="font-size:9.6px;text-anchor:middle"
       id="text61">(84%)</text>
    <text
       x="180.2939"
       y="217.57143"
       text-anchor="middle"
       font-size="9.6px"
       fill="#3e3f3f"
       style="font-family:sans-serif"
       id="text62"><tspan
         x="180.2939"
         dy="0"
         id="tspan61">Create comprehensive social welfa</tspan><tspan
         x="180.2939"
         dy="1.2em"
         id="tspan62">re programs.</tspan></text>
    <text
       x="320.29388"
       y="217.57143"
       dy="0.050000001em"
       font-family="sans-serif"
       fill="#3e3f3f"
       style="font-size:16px;text-anchor:middle"
       id="text63">16.7</text>
    <text
       x="320.29388"
       y="217.57143"
       dy="12.8"
       font-family="sans-serif"
       fill="#3e3f3f"
       style="font-size:9.6px;text-anchor:middle"
       id="text64">(17%)</text>
    <text
       x="180.2939"
       y="268.85715"
       text-anchor="middle"
       font-size="9.6px"
       fill="#3e3f3f"
       style="font-family:sans-serif"
       id="text66"><tspan
         x="180.2939"
         dy="0"
         id="tspan64">Sustainable economic growth throu</tspan><tspan
         x="180.2939"
         dy="1.2em"
         id="tspan65">gh microfinance, social protectio</tspan><tspan
         x="180.2939"
         dy="1.2em"
         id="tspan66">ns, and fair trade policies.</tspan></text>
    <text
       x="320.29388"
       y="268.85715"
       dy="0.050000001em"
       font-family="sans-serif"
       fill="#3e3f3f"
       style="font-size:16px;text-anchor:middle"
       id="text67">69.2</text>
    <text
       x="320.29388"
       y="268.85715"
       dy="12.8"
       font-family="sans-serif"
       fill="#3e3f3f"
       style="font-size:9.6px;text-anchor:middle"
       id="text68">(69%)</text>
    <text
       x="180.2939"
       y="320.14285"
       text-anchor="middle"
       font-size="9.6px"
       fill="#3e3f3f"
       style="font-family:sans-serif"
       id="text71"><tspan
         x="180.2939"
         dy="0"
         id="tspan68">Investment in education, healthca</tspan><tspan
         x="180.2939"
         dy="1.2em"
         id="tspan69">re, and infrastructure to provide</tspan><tspan
         x="180.2939"
         dy="1.2em"
         id="tspan70">sustainable opportunities for al</tspan><tspan
         x="180.2939"
         dy="1.2em"
         id="tspan71">l individuals.</tspan></text>
    <text
       x="320.29388"
       y="320.14285"
       dy="0.050000001em"
       font-family="sans-serif"
       fill="#3e3f3f"
       style="font-size:16px;text-anchor:middle"
       id="text72">15.8</text>
    <text
       x="320.29388"
       y="320.14285"
       dy="12.8"
       font-family="sans-serif"
       fill="#3e3f3f"
       style="font-size:9.6px;text-anchor:middle"
       id="text73">(16%)</text>
    <text
       x="180.2939"
       y="371.42856"
       text-anchor="middle"
       font-size="9.6px"
       fill="#3e3f3f"
       style="font-family:sans-serif"
       id="text76"><tspan
         x="180.2939"
         dy="0"
         id="tspan73">Invest in quality education, heal</tspan><tspan
         x="180.2939"
         dy="1.2em"
         id="tspan74">thcare, and job opportunities to</tspan><tspan
         x="180.2939"
         dy="1.2em"
         id="tspan75">empower individuals to lift thems</tspan><tspan
         x="180.2939"
         dy="1.2em"
         id="tspan76">elves out of poverty.</tspan></text>
    <text
       x="320.29388"
       y="371.42856"
       dy="0.050000001em"
       font-family="sans-serif"
       fill="#3e3f3f"
       style="font-size:16px;text-anchor:middle"
       id="text77">67.5</text>
    <text
       x="320.29388"
       y="371.42856"
       dy="12.8"
       font-family="sans-serif"
       fill="#3e3f3f"
       style="font-size:9.6px;text-anchor:middle"
       id="text78">(68%)</text>
    <text
       x="180.2939"
       y="422.71429"
       text-anchor="middle"
       font-size="9.6px"
       fill="#3e3f3f"
       style="font-family:sans-serif"
       id="text81"><tspan
         x="180.2939"
         dy="0"
         id="tspan78">Curtail monopolistic practices, p</tspan><tspan
         x="180.2939"
         dy="1.2em"
         id="tspan79">romote wealth redistribution thro</tspan><tspan
         x="180.2939"
         dy="1.2em"
         id="tspan80">ugh progressive tax systems, and</tspan><tspan
         x="180.2939"
         dy="1.2em"
         id="tspan81">ensure basic income for all.</tspan></text>
    <text
       x="320.29388"
       y="422.71429"
       dy="0.050000001em"
       font-family="sans-serif"
       fill="#3e3f3f"
       style="font-size:16px;text-anchor:middle"
       id="text82">8.5</text>
    <text
       x="320.29388"
       y="422.71429"
       dy="12.8"
       font-family="sans-serif"
       fill="#3e3f3f"
       style="font-size:9.6px;text-anchor:middle"
       id="text83">(9%)</text>
    <text
       x="180.2939"
       y="474"
       text-anchor="middle"
       font-size="9.6px"
       fill="#3e3f3f"
       style="font-family:sans-serif"
       id="text84"><tspan
         x="180.2939"
         dy="0"
         id="tspan83">Create sustainable job opportunit</tspan><tspan
         x="180.2939"
         dy="1.2em"
         id="tspan84">ies for low-income individuals.</tspan></text>
    <text
       x="320.29388"
       y="474"
       dy="0.050000001em"
       font-family="sans-serif"
       fill="#3e3f3f"
       style="font-size:16px;text-anchor:middle"
       id="text85">46.6</text>
    <text
       x="320.29388"
       y="474"
       dy="12.8"
       font-family="sans-serif"
       fill="#3e3f3f"
       style="font-size:9.6px;text-anchor:middle"
       id="text86">(47%)</text>
    <text
       x="782.60754"
       y="76"
       dy="0.050000001em"
       font-family="sans-serif"
       fill="#3e3f3f"
       style="font-size:16px;text-anchor:middle"
       id="text87">8.5</text>
    <text
       x="782.60754"
       y="76"
       dy="12.8"
       font-family="sans-serif"
       fill="#3e3f3f"
       style="font-size:9.6px;text-anchor:middle"
       id="text88">(9%)</text>
    <text
       x="783.1756"
       y="113.5"
       dy="0.050000001em"
       font-family="sans-serif"
       fill="#3e3f3f"
       style="font-size:16px;text-anchor:middle"
       id="text89">8.2</text>
    <text
       x="783.1756"
       y="113.5"
       dy="12.8"
       font-family="sans-serif"
       fill="#3e3f3f"
       style="font-size:9.6px;text-anchor:middle"
       id="text90">(8%)</text>
    <text
       x="772.97516"
       y="151"
       dy="0.050000001em"
       font-family="sans-serif"
       fill="#3e3f3f"
       style="font-size:16px;text-anchor:middle"
       id="text91">15.2</text>
    <text
       x="772.97516"
       y="151"
       dy="12.8"
       font-family="sans-serif"
       fill="#3e3f3f"
       style="font-size:9.6px;text-anchor:middle"
       id="text92">(15%)</text>
    <text
       x="783.46405"
       y="188.5"
       dy="0.050000001em"
       font-family="sans-serif"
       fill="#3e3f3f"
       style="font-size:16px;text-anchor:middle"
       id="text93">8</text>
    <text
       x="783.46405"
       y="188.5"
       dy="12.8"
       font-family="sans-serif"
       fill="#3e3f3f"
       style="font-size:9.6px;text-anchor:middle"
       id="text94">(8%)</text>
    <text
       x="766.29388"
       y="226"
       dy="0.050000001em"
       font-family="sans-serif"
       fill="#3e3f3f"
       style="font-size:16px;text-anchor:middle"
       id="text95">20.9</text>
    <text
       x="766.29388"
       y="226"
       dy="12.8"
       font-family="sans-serif"
       fill="#3e3f3f"
       style="font-size:9.6px;text-anchor:middle"
       id="text96">(21%)</text>
    <text
       x="782.60754"
       y="263.5"
       dy="0.050000001em"
       font-family="sans-serif"
       fill="#3e3f3f"
       style="font-size:16px;text-anchor:middle"
       id="text97">8.5</text>
    <text
       x="782.60754"
       y="263.5"
       dy="12.8"
       font-family="sans-serif"
       fill="#3e3f3f"
       style="font-size:9.6px;text-anchor:middle"
       id="text98">(9%)</text>
    <text
       x="773.2923"
       y="301"
       dy="0.050000001em"
       font-family="sans-serif"
       fill="#3e3f3f"
       style="font-size:16px;text-anchor:middle"
       id="text99">14.9</text>
    <text
       x="773.2923"
       y="301"
       dy="12.8"
       font-family="sans-serif"
       fill="#3e3f3f"
       style="font-size:9.6px;text-anchor:middle"
       id="text100">(15%)</text>
    <text
       x="772.14203"
       y="338.5"
       dy="0.050000001em"
       font-family="sans-serif"
       fill="#3e3f3f"
       style="font-size:16px;text-anchor:middle"
       id="text101">15.8</text>
    <text
       x="772.14203"
       y="338.5"
       dy="12.8"
       font-family="sans-serif"
       fill="#3e3f3f"
       style="font-size:9.6px;text-anchor:middle"
       id="text102">(16%)</text>
  </g>
</svg>
