<?xml version="1.0" encoding="UTF-8" standalone="no"?>
<svg
   width="559.99017"
   height="816.95337"
   version="1.1"
   id="svg67"
   sodipodi:docname="diagram_sankey.svg"
   inkscape:export-filename="diagram_sankey.svg"
   inkscape:export-xdpi="96"
   inkscape:export-ydpi="96"
   inkscape:version="1.3.2 (091e20e, 2023-11-25)"
   xmlns:inkscape="http://www.inkscape.org/namespaces/inkscape"
   xmlns:sodipodi="http://sodipodi.sourceforge.net/DTD/sodipodi-0.dtd"
   xmlns="http://www.w3.org/2000/svg"
   xmlns:svg="http://www.w3.org/2000/svg">
  <defs
     id="defs67" />
  <sodipodi:namedview
     id="namedview67"
     pagecolor="#ffffff"
     bordercolor="#000000"
     borderopacity="0.25"
     inkscape:showpageshadow="2"
     inkscape:pageopacity="0.0"
     inkscape:pagecheckerboard="0"
     inkscape:deskcolor="#d1d1d1"
     inkscape:zoom="0.26727067"
     inkscape:cx="261.90678"
     inkscape:cy="516.33051"
     inkscape:window-width="1312"
     inkscape:window-height="449"
     inkscape:window-x="0"
     inkscape:window-y="37"
     inkscape:window-maximized="0"
     inkscape:current-layer="svg67" />
  <g
     id="g67"
     transform="rotate(90,387.5161,227.78818)">
    <defs
       id="defs14">
      <marker
         id="marker0"
         markerWidth="6"
         markerHeight="6"
         refX="5"
         refY="3">
        <circle
           cx="3"
           cy="3"
           r="2.48"
           style="fill:#abcfe6"
           id="circle1" />
      </marker>
      <marker
         id="marker1"
         markerWidth="6"
         markerHeight="6"
         refX="5"
         refY="3">
        <circle
           cx="3"
           cy="3"
           r="2.48"
           style="fill:#abcfe6"
           id="circle2" />
      </marker>
      <marker
         id="marker2"
         markerWidth="6"
         markerHeight="6"
         refX="5"
         refY="3">
        <circle
           cx="3"
           cy="3"
           r="2.48"
           style="fill:#0b4d94"
           id="circle3" />
      </marker>
      <marker
         id="marker3"
         markerWidth="6"
         markerHeight="6"
         refX="5"
         refY="3">
        <circle
           cx="3"
           cy="3"
           r="2.48"
           style="fill:#82badb"
           id="circle4" />
      </marker>
      <marker
         id="marker4"
         markerWidth="6"
         markerHeight="6"
         refX="5"
         refY="3">
        <circle
           cx="3"
           cy="3"
           r="2.48"
           style="fill:#82badb"
           id="circle5" />
      </marker>
      <marker
         id="marker5"
         markerWidth="6"
         markerHeight="6"
         refX="5"
         refY="3">
        <circle
           cx="3"
           cy="3"
           r="2.48"
           style="fill:#3787c0"
           id="circle6" />
      </marker>
      <marker
         id="marker6"
         markerWidth="6"
         markerHeight="6"
         refX="5"
         refY="3">
        <circle
           cx="3"
           cy="3"
           r="2.48"
           style="fill:#59a1cf"
           id="circle7" />
      </marker>
      <marker
         id="marker7"
         markerWidth="6"
         markerHeight="6"
         refX="5"
         refY="3">
        <circle
           cx="3"
           cy="3"
           r="2.48"
           style="fill:#59a1cf"
           id="circle8" />
      </marker>
      <marker
         id="marker8"
         markerWidth="6"
         markerHeight="6"
         refX="5"
         refY="3">
        <circle
           cx="3"
           cy="3"
           r="2.48"
           style="fill:#59a1cf"
           id="circle9" />
      </marker>
      <marker
         id="marker9"
         markerWidth="6"
         markerHeight="6"
         refX="5"
         refY="3">
        <circle
           cx="3"
           cy="3"
           r="2.48"
           style="fill:#1c6aaf"
           id="circle10" />
      </marker>
      <marker
         id="marker10"
         markerWidth="6"
         markerHeight="6"
         refX="5"
         refY="3">
        <circle
           cx="3"
           cy="3"
           r="2.48"
           style="fill:#1c6aaf"
           id="circle11" />
      </marker>
      <marker
         id="marker11"
         markerWidth="6"
         markerHeight="6"
         refX="5"
         refY="3">
        <circle
           cx="3"
           cy="3"
           r="2.48"
           style="fill:#1c6aaf"
           id="circle12" />
      </marker>
      <marker
         id="marker12"
         markerWidth="6"
         markerHeight="6"
         refX="5"
         refY="3">
        <circle
           cx="3"
           cy="3"
           r="2.48"
           style="fill:#1c6aaf"
           id="circle13" />
      </marker>
      <marker
         id="marker13"
         markerWidth="6"
         markerHeight="6"
         refX="5"
         refY="3">
        <circle
           cx="3"
           cy="3"
           r="2.48"
           style="fill:#1c6aaf"
           id="circle14" />
      </marker>
    </defs>
    <path
       class="link"
       fill="none"
       stroke="#abcfe6"
       stroke-width="8.3666"
       marker-end="url(#marker0)"
       d="m 941.283,60 h -77.518 c -77.518,0 -232.554,0 -315.5,0 -82.947,0 -93.803,0 -104.66,10.333 -10.856,10.334 -21.713,31 -32.569,41.334 C 400.179,122 389.323,122 383.895,122 h -5.429"
       style="stroke-linecap:round;stroke-opacity:0.7"
       id="path14" />
    <path
       class="link"
       fill="none"
       stroke="#abcfe6"
       stroke-width="8.3666"
       marker-end="url(#marker1)"
       d="m 941.283,60 h -77.518 c -77.518,0 -232.554,0 -315.5,0 -82.947,0 -93.803,0 -104.66,20.357 -10.856,20.357 -21.713,61.072 -32.569,81.429 -10.857,20.357 -21.713,20.357 -27.141,20.357 h -5.429"
       style="stroke-linecap:round;stroke-opacity:0.7"
       id="path15" />
    <path
       class="link"
       fill="none"
       stroke="#0b4d94"
       stroke-width="8.02808"
       marker-end="url(#marker2)"
       d="m 942.788,353.333 h -18.942 c -18.942,0 -56.826,0 -81.21,0 -24.385,0 -35.27,0 -46.156,21.588 -10.885,21.587 -21.771,64.762 -32.656,86.349 -10.886,21.587 -21.771,21.587 -27.214,21.587 h -5.443"
       style="stroke-linecap:round;stroke-opacity:0.7"
       id="path16" />
    <path
       class="link"
       fill="none"
       stroke="#82badb"
       stroke-width="7.60153"
       marker-end="url(#marker3)"
       d="m 944.683,118.667 h -66.19 c -66.19,0 -198.57,0 -270.222,0 -71.651,0 -82.573,0 -93.495,20.603 -10.922,20.603 -21.844,61.809 -32.766,82.413 -10.922,20.603 -21.844,20.603 -27.305,20.603 h -5.461"
       style="stroke-linecap:round;stroke-opacity:0.7"
       id="path17" />
    <path
       class="link"
       fill="none"
       stroke="#82badb"
       stroke-width="7.60153"
       marker-end="url(#marker4)"
       d="m 944.683,118.667 h -66.19 c -66.19,0 -198.57,0 -270.222,0 -71.651,0 -82.573,0 -93.495,0.555 -10.922,0.556 -21.844,1.667 -32.766,2.222 C 471.088,122 460.166,122 454.705,122 h -5.461"
       style="stroke-linecap:round;stroke-opacity:0.7"
       id="path18" />
    <path
       class="link"
       fill="none"
       stroke="#3787c0"
       stroke-width="7.84432"
       marker-end="url(#marker5)"
       d="m 943.604,236 h -42.516 c -42.517,0 -127.55,0 -175.517,0 -47.968,0 -58.869,0 -69.77,11.071 -10.901,11.072 -21.803,33.215 -32.704,44.286 -10.901,11.072 -21.803,11.072 -27.253,11.072 h -5.451"
       style="stroke-linecap:round;stroke-opacity:0.7"
       id="path19" />
    <path
       class="link"
       fill="none"
       stroke="#59a1cf"
       stroke-width="5.32604"
       marker-end="url(#marker6)"
       d="m 954.796,177.333 h -55.365 c -55.366,0 -166.097,0 -227.021,0 -60.924,0 -72.041,0 -83.158,-9.222 C 578.135,158.889 567.018,140.444 555.9,131.222 544.783,122 533.666,122 528.107,122 h -5.558"
       style="stroke-linecap:round;stroke-opacity:0.7"
       id="path20" />
    <path
       class="link"
       fill="none"
       stroke="#59a1cf"
       stroke-width="5.32604"
       marker-end="url(#marker7)"
       d="m 954.796,177.333 h -55.365 c -55.366,0 -166.097,0 -227.021,0 -60.924,0 -72.041,0 -83.158,20.85 -11.117,20.849 -22.234,62.547 -33.352,83.396 -11.117,20.85 -22.234,20.85 -27.793,20.85 h -5.558"
       style="stroke-linecap:round;stroke-opacity:0.7"
       id="path21" />
    <path
       class="link"
       fill="none"
       stroke="#59a1cf"
       stroke-width="5.32604"
       marker-end="url(#marker8)"
       d="m 954.796,177.333 h -55.365 c -55.366,0 -166.097,0 -227.021,0 -60.924,0 -72.041,0 -83.158,30.873 -11.117,30.873 -22.234,92.619 -33.352,123.492 -11.117,30.873 -22.234,30.873 -27.793,30.873 h -5.558"
       style="stroke-linecap:round;stroke-opacity:0.7"
       id="path22" />
    <path
       class="link"
       fill="none"
       stroke="#1c6aaf"
       stroke-width="4.2269"
       marker-end="url(#marker9)"
       d="m 959.681,294.667 h -31.617 c -31.618,0 -94.853,0 -132.076,0 -37.223,0 -48.435,0 -59.646,21.341 -11.211,21.341 -22.423,64.024 -33.634,85.365 -11.212,21.341 -22.423,21.341 -28.029,21.341 h -5.605"
       style="stroke-linecap:round;stroke-opacity:0.7"
       id="path23" />
    <path
       class="link"
       fill="none"
       stroke="#1c6aaf"
       stroke-width="4.2269"
       marker-end="url(#marker10)"
       d="m 959.681,294.667 h -31.617 c -31.618,0 -94.853,0 -132.076,0 -37.223,0 -48.435,0 -59.646,31.365 -11.211,31.365 -22.423,94.095 -33.634,125.46 -11.212,31.365 -22.423,31.365 -28.029,31.365 h -5.605"
       style="stroke-linecap:round;stroke-opacity:0.7"
       id="path24" />
    <path
       class="link"
       fill="none"
       stroke="#1c6aaf"
       stroke-width="4.2269"
       marker-end="url(#marker11)"
       d="m 959.681,294.667 h -31.617 c -31.618,0 -94.853,0 -132.076,0 -37.223,0 -48.435,0 -59.646,41.389 -11.211,41.388 -22.423,124.166 -33.634,165.555 C 691.496,543 680.285,543 674.679,543 h -5.605"
       style="stroke-linecap:round;stroke-opacity:0.7"
       id="path25" />
    <path
       class="link"
       fill="none"
       stroke="#1c6aaf"
       stroke-width="4.2269"
       marker-end="url(#marker12)"
       d="m 959.681,294.667 h -31.617 c -31.618,0 -94.853,0 -132.076,0 -37.223,0 -48.435,0 -59.646,-28.778 C 725.131,237.111 713.919,179.556 702.708,150.778 691.496,122 680.285,122 674.679,122 h -5.605"
       style="stroke-linecap:round;stroke-opacity:0.7"
       id="path26" />
    <path
       class="link"
       fill="none"
       stroke="#1c6aaf"
       stroke-width="4.2269"
       marker-end="url(#marker13)"
       d="m 959.681,294.667 h -31.617 c -31.618,0 -94.853,0 -132.076,0 -37.223,0 -48.435,0 -59.646,11.317 -11.211,11.318 -22.423,33.953 -33.634,45.27 -11.212,11.317 -22.423,11.317 -28.029,11.317 h -5.605"
       style="stroke-linecap:round;stroke-opacity:0.7"
       id="path27" />
    <text
       text-anchor="end"
       font-size="10.8px"
       fill="#3e3f3f"
       style="font-family:sans-serif"
       x="360.4664"
       y="122"
       transform="rotate(-20,360.4664,122)"
       id="text28"><tspan
         x="360.4664"
         dy="0"
         id="tspan27">Invest in water infrastructure to</tspan><tspan
         x="360.4664"
         dy="1.2em"
         id="tspan28">enhance availability.</tspan></text>
    <text
       x="387.4664"
       y="122"
       dy="0.050000001em"
       transform="rotate(-120,387.4664,122)"
       font-family="sans-serif"
       fill="#3e3f3f"
       style="font-size:18px;text-anchor:middle"
       id="text29">174</text>
    <text
       x="387.4664"
       y="122"
       dy="14.4"
       transform="rotate(-120,387.4664,122)"
       font-family="sans-serif"
       fill="#3e3f3f"
       style="font-size:10.8px;text-anchor:middle"
       id="text30">(58%)</text>
    <text
       text-anchor="end"
       font-size="10.8px"
       fill="#3e3f3f"
       style="font-family:sans-serif"
       x="360.4664"
       y="182.14285"
       transform="rotate(-20,360.4664,182.14286)"
       id="text32"><tspan
         x="360.4664"
         dy="0"
         id="tspan30">Ensure development of new water</tspan><tspan
         x="360.4664"
         dy="1.2em"
         id="tspan31">infrastructure in underserved</tspan><tspan
         x="360.4664"
         dy="1.2em"
         id="tspan32">regions.</tspan></text>
    <text
       x="387.4664"
       y="182.14285"
       dy="0.050000001em"
       transform="rotate(-120,387.4664,182.14286)"
       font-family="sans-serif"
       fill="#3e3f3f"
       style="font-size:18px;text-anchor:middle"
       id="text33">70</text>
    <text
       x="387.4664"
       y="182.14285"
       dy="14.4"
       transform="rotate(-120,387.4664,182.14286)"
       font-family="sans-serif"
       fill="#3e3f3f"
       style="font-size:10.8px;text-anchor:middle"
       id="text34">(23%)</text>
    <text
       text-anchor="end"
       font-size="10.8px"
       fill="#3e3f3f"
       style="font-family:sans-serif"
       x="360.4664"
       y="242.28572"
       transform="rotate(-20,360.4664,242.28571)"
       id="text35"><tspan
         x="360.4664"
         dy="0"
         id="tspan34">Promote water conservation through</tspan><tspan
         x="360.4664"
         dy="1.2em"
         id="tspan35">public awareness campaigns.</tspan></text>
    <text
       x="387.4664"
       y="242.28572"
       dy="0.050000001em"
       transform="rotate(-120,387.4664,242.28571)"
       font-family="sans-serif"
       fill="#3e3f3f"
       style="font-size:18px;text-anchor:middle"
       id="text36">57.8</text>
    <text
       x="387.4664"
       y="242.28572"
       dy="14.4"
       transform="rotate(-120,387.4664,242.28571)"
       font-family="sans-serif"
       fill="#3e3f3f"
       style="font-size:10.8px;text-anchor:middle"
       id="text37">(19%)</text>
    <text
       text-anchor="end"
       font-size="10.8px"
       fill="#3e3f3f"
       style="font-family:sans-serif"
       x="360.4664"
       y="302.42856"
       transform="rotate(-20,360.4664,302.42857)"
       id="text39"><tspan
         x="360.4664"
         dy="0"
         id="tspan37">Invest in infrastructure, enhance</tspan><tspan
         x="360.4664"
         dy="1.2em"
         id="tspan38">water conservation, and advance</tspan><tspan
         x="360.4664"
         dy="1.2em"
         id="tspan39">technology for desalination</tspan></text>
    <text
       x="387.4664"
       y="302.42856"
       dy="0.050000001em"
       transform="rotate(-120,387.4664,302.42857)"
       font-family="sans-serif"
       fill="#3e3f3f"
       style="font-size:18px;text-anchor:middle"
       id="text40">89.9</text>
    <text
       x="387.4664"
       y="302.42856"
       dy="14.4"
       transform="rotate(-120,387.4664,302.42857)"
       font-family="sans-serif"
       fill="#3e3f3f"
       style="font-size:10.8px;text-anchor:middle"
       id="text41">(30%)</text>
    <text
       text-anchor="end"
       font-size="10.8px"
       fill="#3e3f3f"
       style="font-family:sans-serif"
       x="360.4664"
       y="362.57144"
       transform="rotate(-20,360.4664,362.57143)"
       id="text44"><tspan
         x="360.4664"
         dy="0"
         id="tspan41">Implement targeted programs for</tspan><tspan
         x="360.4664"
         dy="1.2em"
         id="tspan42">marginalized communities to ensure</tspan><tspan
         x="360.4664"
         dy="1.2em"
         id="tspan43">access to safe and affordable</tspan><tspan
         x="360.4664"
         dy="1.2em"
         id="tspan44">drinking water.</tspan></text>
    <text
       x="387.4664"
       y="362.57144"
       dy="0.050000001em"
       transform="rotate(-120,387.4664,362.57143)"
       font-family="sans-serif"
       fill="#3e3f3f"
       style="font-size:18px;text-anchor:middle"
       id="text45">46.2</text>
    <text
       x="387.4664"
       y="362.57144"
       dy="14.4"
       transform="rotate(-120,387.4664,362.57143)"
       font-family="sans-serif"
       fill="#3e3f3f"
       style="font-size:10.8px;text-anchor:middle"
       id="text46">(15%)</text>
    <text
       text-anchor="end"
       font-size="10.8px"
       fill="#3e3f3f"
       style="font-family:sans-serif"
       x="360.4664"
       y="422.71429"
       transform="rotate(-20,360.4664,422.71429)"
       id="text47"><tspan
         x="360.4664"
         dy="0"
         id="tspan46">Allocate sufficient funding and</tspan><tspan
         x="360.4664"
         dy="1.2em"
         id="tspan47">resources.</tspan></text>
    <text
       x="387.4664"
       y="422.71429"
       dy="0.050000001em"
       transform="rotate(-120,387.4664,422.71429)"
       font-family="sans-serif"
       fill="#3e3f3f"
       style="font-size:18px;text-anchor:middle"
       id="text48">17.9</text>
    <text
       x="387.4664"
       y="422.71429"
       dy="14.4"
       transform="rotate(-120,387.4664,422.71429)"
       font-family="sans-serif"
       fill="#3e3f3f"
       style="font-size:10.8px;text-anchor:middle"
       id="text49">(6%)</text>
    <text
       text-anchor="end"
       font-size="10.8px"
       fill="#3e3f3f"
       style="font-family:sans-serif"
       x="360.4664"
       y="482.85715"
       transform="rotate(-20,360.4664,482.85714)"
       id="text50"><tspan
         x="360.4664"
         dy="0"
         id="tspan49">Ensure sustainable water management</tspan><tspan
         x="360.4664"
         dy="1.2em"
         id="tspan50">practices.</tspan></text>
    <text
       x="387.4664"
       y="482.85715"
       dy="0.050000001em"
       transform="rotate(-120,387.4664,482.85714)"
       font-family="sans-serif"
       fill="#3e3f3f"
       style="font-size:18px;text-anchor:middle"
       id="text51">82.3</text>
    <text
       x="387.4664"
       y="482.85715"
       dy="14.4"
       transform="rotate(-120,387.4664,482.85714)"
       font-family="sans-serif"
       fill="#3e3f3f"
       style="font-size:10.8px;text-anchor:middle"
       id="text52">(27%)</text>
    <text
       text-anchor="end"
       font-size="10.8px"
       fill="#3e3f3f"
       style="font-family:sans-serif"
       x="360.4664"
       y="543"
       transform="rotate(-20,360.4664,543)"
       id="text53"><tspan
         x="360.4664"
         dy="0"
         id="tspan52">Ensure affordability through</tspan><tspan
         x="360.4664"
         dy="1.2em"
         id="tspan53">subsidies or pricing mechanisms</tspan></text>
    <text
       x="387.4664"
       y="543"
       dy="0.050000001em"
       transform="rotate(-120,387.4664,543)"
       font-family="sans-serif"
       fill="#3e3f3f"
       style="font-size:18px;text-anchor:middle"
       id="text54">17.9</text>
    <text
       x="387.4664"
       y="543"
       dy="14.4"
       transform="rotate(-120,387.4664,543)"
       font-family="sans-serif"
       fill="#3e3f3f"
       style="font-size:10.8px;text-anchor:middle"
       id="text55">(6%)</text>
    <text
       x="933.46643"
       y="78"
       dy="0.050000001em"
       transform="rotate(-120,933.4664,78)"
       font-family="sans-serif"
       fill="#3e3f3f"
       style="font-size:18px;text-anchor:middle"
       id="text56">70</text>
    <text
       x="933.46643"
       y="78"
       dy="14.4"
       transform="rotate(-120,933.4664,78)"
       font-family="sans-serif"
       fill="#3e3f3f"
       style="font-size:10.8px;text-anchor:middle"
       id="text57">(23%)</text>
    <text
       x="937.5813"
       y="136.66667"
       dy="0.050000001em"
       transform="rotate(-120,937.58133,136.66667)"
       font-family="sans-serif"
       fill="#3e3f3f"
       style="font-size:18px;text-anchor:middle"
       id="text58">57.8</text>
    <text
       x="937.5813"
       y="136.66667"
       dy="14.4"
       transform="rotate(-120,937.58133,136.66667)"
       font-family="sans-serif"
       fill="#3e3f3f"
       style="font-size:10.8px;text-anchor:middle"
       id="text59">(19%)</text>
    <text
       x="949.82013"
       y="195.33333"
       dy="0.050000001em"
       transform="rotate(-120,949.82016,195.33333)"
       font-family="sans-serif"
       fill="#3e3f3f"
       style="font-size:18px;text-anchor:middle"
       id="text60">28.4</text>
    <text
       x="949.82013"
       y="195.33333"
       dy="14.4"
       transform="rotate(-120,949.82016,195.33333)"
       font-family="sans-serif"
       fill="#3e3f3f"
       style="font-size:10.8px;text-anchor:middle"
       id="text61">(9%)</text>
    <text
       x="936.27551"
       y="254"
       dy="0.050000001em"
       transform="rotate(-120,936.27551,254)"
       font-family="sans-serif"
       fill="#3e3f3f"
       style="font-size:18px;text-anchor:middle"
       id="text62">61.5</text>
    <text
       x="936.27551"
       y="254"
       dy="14.4"
       transform="rotate(-120,936.27551,254)"
       font-family="sans-serif"
       fill="#3e3f3f"
       style="font-size:10.8px;text-anchor:middle"
       id="text63">(20%)</text>
    <text
       x="955.73193"
       y="312.66666"
       dy="0.050000001em"
       transform="rotate(-120,955.73191,312.66667)"
       font-family="sans-serif"
       fill="#3e3f3f"
       style="font-size:18px;text-anchor:middle"
       id="text64">17.9</text>
    <text
       x="955.73193"
       y="312.66666"
       dy="14.4"
       transform="rotate(-120,955.73191,312.66667)"
       font-family="sans-serif"
       fill="#3e3f3f"
       style="font-size:10.8px;text-anchor:middle"
       id="text65">(6%)</text>
    <text
       x="935.28717"
       y="371.33334"
       dy="0.050000001em"
       transform="rotate(-120,935.28716,371.33333)"
       font-family="sans-serif"
       fill="#3e3f3f"
       style="font-size:18px;text-anchor:middle"
       id="text66">64.5</text>
    <text
       x="935.28717"
       y="371.33334"
       dy="14.4"
       transform="rotate(-120,935.28716,371.33333)"
       font-family="sans-serif"
       fill="#3e3f3f"
       style="font-size:10.8px;text-anchor:middle"
       id="text67">(21%)</text>
  </g>
</svg>
