<svg xmlns="http://www.w3.org/2000/svg" width="843" height="385"><g><defs><marker id="marker0" markerWidth="6" markerHeight="6" refX="5" refY="3"><circle cx="3" cy="3" r="1" style="fill: rgb(122, 209, 81);"/></marker><marker id="marker1" markerWidth="6" markerHeight="6" refX="5" refY="3"><circle cx="3" cy="3" r="1" style="fill: rgb(122, 209, 81);"/></marker><marker id="marker2" markerWidth="6" markerHeight="6" refX="5" refY="3"><circle cx="3" cy="3" r="1" style="fill: rgb(253, 231, 37);"/></marker><marker id="marker3" markerWidth="6" markerHeight="6" refX="5" refY="3"><circle cx="3" cy="3" r="1" style="fill: rgb(253, 231, 37);"/></marker><marker id="marker4" markerWidth="6" markerHeight="6" refX="5" refY="3"><circle cx="3" cy="3" r="1" style="fill: rgb(253, 231, 37);"/></marker><marker id="marker5" markerWidth="6" markerHeight="6" refX="5" refY="3"><circle cx="3" cy="3" r="1" style="fill: rgb(65, 68, 135);"/></marker><marker id="marker6" markerWidth="6" markerHeight="6" refX="5" refY="3"><circle cx="3" cy="3" r="1" style="fill: rgb(65, 68, 135);"/></marker><marker id="marker7" markerWidth="6" markerHeight="6" refX="5" refY="3"><circle cx="3" cy="3" r="1" style="fill: rgb(34, 168, 132);"/></marker><marker id="marker8" markerWidth="6" markerHeight="6" refX="5" refY="3"><circle cx="3" cy="3" r="1" style="fill: rgb(42, 120, 142);"/></marker></defs><path class="link" fill="none" stroke="#7ad151" stroke-width="4" marker-end="url(#marker0)" d="M683,120C400.5,120,400.5,210,118,210" style="stroke-opacity: 0.7; stroke-linecap: round;"/><path class="link" fill="none" stroke="#7ad151" stroke-width="4" marker-end="url(#marker1)" d="M683,120C400.5,120,400.5,60,118,60" style="stroke-opacity: 0.7; stroke-linecap: round;"/><path class="link" fill="none" stroke="#fde725" stroke-width="4" marker-end="url(#marker2)" d="M683,60C400.5,60,400.5,360,118,360" style="stroke-opacity: 0.7; stroke-linecap: round;"/><path class="link" fill="none" stroke="#fde725" stroke-width="4" marker-end="url(#marker3)" d="M683,60C400.5,60,400.5,210,118,210" style="stroke-opacity: 0.7; stroke-linecap: round;"/><path class="link" fill="none" stroke="#fde725" stroke-width="4" marker-end="url(#marker4)" d="M683,60C400.5,60,400.5,60,118,60" style="stroke-opacity: 0.7; stroke-linecap: round;"/><path class="link" fill="none" stroke="#414487" stroke-width="4" marker-end="url(#marker5)" d="M683,300C400.5,300,400.5,360,118,360" style="stroke-opacity: 0.7; stroke-linecap: round;"/><path class="link" fill="none" stroke="#414487" stroke-width="4" marker-end="url(#marker6)" d="M683,300C400.5,300,400.5,210,118,210" style="stroke-opacity: 0.7; stroke-linecap: round;"/><path class="link" fill="none" stroke="#22a884" stroke-width="2" marker-end="url(#marker7)" d="M700.5,180C409.25,180,409.25,60,118,60" style="stroke-opacity: 0.7; stroke-linecap: round;"/><path class="link" fill="none" stroke="#2a788e" stroke-width="2" marker-end="url(#marker8)" d="M700.5,240C409.25,240,409.25,210,118,210" style="stroke-opacity: 0.7; stroke-linecap: round;"/><text x="82" y="60" transform="rotate(0,46,60)" text-anchor="middle" font-size="10.799999999999999" fill="#3e3f3f" style="font-family: sans-serif;"><tspan x="82" dy="0">Choice A</tspan></text><text x="127" y="60" dy=".05em" transform="rotate(0,127,60)" font-family="sans-serif" fill="#3e3f3f" style="text-anchor: middle; font-size: 18px;">5</text><text x="127" y="60" dy="14.4" transform="rotate(0,127,60)" font-family="sans-serif" fill="#3e3f3f" style="text-anchor: middle; font-size: 10.8px;">(63%)</text><text x="82" y="210" transform="rotate(0,46,210)" text-anchor="middle" font-size="10.799999999999999" fill="#3e3f3f" style="font-family: sans-serif;"><tspan x="82" dy="0">Choice B</tspan></text><text x="127" y="210" dy=".05em" transform="rotate(0,127,210)" font-family="sans-serif" fill="#3e3f3f" style="text-anchor: middle; font-size: 18px;">7</text><text x="127" y="210" dy="14.4" transform="rotate(0,127,210)" font-family="sans-serif" fill="#3e3f3f" style="text-anchor: middle; font-size: 10.8px;">(88%)</text><text x="82" y="360" transform="rotate(0,46,360)" text-anchor="middle" font-size="10.799999999999999" fill="#3e3f3f" style="font-family: sans-serif;"><tspan x="82" dy="0">Choice C</tspan></text><text x="127" y="360" dy=".05em" transform="rotate(0,127,360)" font-family="sans-serif" fill="#3e3f3f" style="text-anchor: middle; font-size: 18px;">4</text><text x="127" y="360" dy="14.4" transform="rotate(0,127,360)" font-family="sans-serif" fill="#3e3f3f" style="text-anchor: middle; font-size: 10.8px;">(50%)</text><text x="673" y="78" dy=".05em" transform="rotate(0,673,78)" font-family="sans-serif" fill="#3e3f3f" style="text-anchor: middle; font-size: 18px;">2</text><text x="673" y="78" dy="14.4" transform="rotate(0,673,78)" font-family="sans-serif" fill="#3e3f3f" style="text-anchor: middle; font-size: 10.8px;">(25%)</text><text x="673" y="138" dy=".05em" transform="rotate(0,673,138)" font-family="sans-serif" fill="#3e3f3f" style="text-anchor: middle; font-size: 18px;">2</text><text x="673" y="138" dy="14.4" transform="rotate(0,673,138)" font-family="sans-serif" fill="#3e3f3f" style="text-anchor: middle; font-size: 10.8px;">(25%)</text><text x="695.5" y="198" dy=".05em" transform="rotate(0,695.5,198)" font-family="sans-serif" fill="#3e3f3f" style="text-anchor: middle; font-size: 18px;">1</text><text x="695.5" y="198" dy="14.4" transform="rotate(0,695.5,198)" font-family="sans-serif" fill="#3e3f3f" style="text-anchor: middle; font-size: 10.8px;">(13%)</text><text x="695.5" y="258" dy=".05em" transform="rotate(0,695.5,258)" font-family="sans-serif" fill="#3e3f3f" style="text-anchor: middle; font-size: 18px;">1</text><text x="695.5" y="258" dy="14.4" transform="rotate(0,695.5,258)" font-family="sans-serif" fill="#3e3f3f" style="text-anchor: middle; font-size: 10.8px;">(13%)</text><text x="673" y="318" dy=".05em" transform="rotate(0,673,318)" font-family="sans-serif" fill="#3e3f3f" style="text-anchor: middle; font-size: 18px;">2</text><text x="673" y="318" dy="14.4" transform="rotate(0,673,318)" font-family="sans-serif" fill="#3e3f3f" style="text-anchor: middle; font-size: 10.8px;">(25%)</text></g></svg>