<svg xmlns="http://www.w3.org/2000/svg" width="843" height="475"><g><defs><marker id="marker0" markerWidth="6" markerHeight="6" refX="5" refY="3"><circle cx="3" cy="3" r="2.79" style="fill: rgb(122, 209, 81);"/></marker><marker id="marker1" markerWidth="6" markerHeight="6" refX="5" refY="3"><circle cx="3" cy="3" r="2.79" style="fill: rgb(122, 209, 81);"/></marker><marker id="marker2" markerWidth="6" markerHeight="6" refX="5" refY="3"><circle cx="3" cy="3" r="2.79" style="fill: rgb(253, 231, 37);"/></marker><marker id="marker3" markerWidth="6" markerHeight="6" refX="5" refY="3"><circle cx="3" cy="3" r="2.79" style="fill: rgb(253, 231, 37);"/></marker><marker id="marker4" markerWidth="6" markerHeight="6" refX="5" refY="3"><circle cx="3" cy="3" r="2.79" style="fill: rgb(253, 231, 37);"/></marker><marker id="marker5" markerWidth="6" markerHeight="6" refX="5" refY="3"><circle cx="3" cy="3" r="2.79" style="fill: rgb(65, 68, 135);"/></marker><marker id="marker6" markerWidth="6" markerHeight="6" refX="5" refY="3"><circle cx="3" cy="3" r="2.79" style="fill: rgb(65, 68, 135);"/></marker><marker id="marker7" markerWidth="6" markerHeight="6" refX="5" refY="3"><circle cx="3" cy="3" r="2.79" style="fill: rgb(34, 168, 132);"/></marker><marker id="marker8" markerWidth="6" markerHeight="6" refX="5" refY="3"><circle cx="3" cy="3" r="2.79" style="fill: rgb(42, 120, 142);"/></marker></defs><path class="link" fill="none" stroke="#7ad151" stroke-width="4" marker-end="url(#marker0)" d="M683,120L623.993,120C564.986,120,446.973,120,380.73,120C314.487,120,300.016,120,285.544,150C271.072,180,256.601,240,242.129,270C227.658,300,213.186,300,205.95,300L198.714,300" style="stroke-opacity: 0.7; stroke-linecap: round;"/><path class="link" fill="none" stroke="#7ad151" stroke-width="4" marker-end="url(#marker1)" d="M683,120L623.993,120C564.986,120,446.973,120,380.73,120C314.487,120,300.016,120,285.544,125C271.072,130,256.601,140,242.129,145C227.658,150,213.186,150,205.95,150L198.714,150" style="stroke-opacity: 0.7; stroke-linecap: round;"/><path class="link" fill="none" stroke="#fde725" stroke-width="4" marker-end="url(#marker2)" d="M683,60L610.541,60C538.081,60,393.163,60,313.468,60C233.773,60,219.301,60,204.83,125C190.358,190,175.886,320,161.415,385C146.943,450,132.472,450,125.236,450L118,450" style="stroke-opacity: 0.7; stroke-linecap: round;"/><path class="link" fill="none" stroke="#fde725" stroke-width="4" marker-end="url(#marker3)" d="M683,60L610.541,60C538.081,60,393.163,60,313.468,60C233.773,60,219.301,60,204.83,100C190.358,140,175.886,220,161.415,260C146.943,300,132.472,300,125.236,300L118,300" style="stroke-opacity: 0.7; stroke-linecap: round;"/><path class="link" fill="none" stroke="#fde725" stroke-width="4" marker-end="url(#marker4)" d="M683,60L610.541,60C538.081,60,393.163,60,313.468,60C233.773,60,219.301,60,204.83,75C190.358,90,175.886,120,161.415,135C146.943,150,132.472,150,125.236,150L118,150" style="stroke-opacity: 0.7; stroke-linecap: round;"/><path class="link" fill="none" stroke="#414487" stroke-width="4" marker-end="url(#marker5)" d="M683,300L664.35,300C645.701,300,608.401,300,582.516,300C556.63,300,542.158,300,527.687,325C513.215,350,498.744,400,484.272,425C469.8,450,455.329,450,448.093,450L440.857,450" style="stroke-opacity: 0.7; stroke-linecap: round;"/><path class="link" fill="none" stroke="#414487" stroke-width="4" marker-end="url(#marker6)" d="M683,300L664.35,300C645.701,300,608.401,300,582.516,300C556.63,300,542.158,300,527.687,300C513.215,300,498.744,300,484.272,300C469.8,300,455.329,300,448.093,300L440.857,300" style="stroke-opacity: 0.7; stroke-linecap: round;"/><path class="link" fill="none" stroke="#22a884" stroke-width="2" marker-end="url(#marker7)" d="M700.5,180L653.535,180C606.569,180,512.638,180,458.213,180C403.787,180,388.867,180,373.948,175C359.028,170,344.108,160,329.188,155C314.268,150,299.348,150,291.888,150L284.429,150" style="stroke-opacity: 0.7; stroke-linecap: round;"/><path class="link" fill="none" stroke="#2a788e" stroke-width="2" marker-end="url(#marker8)" d="M700.5,240L667.404,240C634.307,240,568.114,240,527.558,240C487.002,240,472.082,240,457.162,250C442.242,260,427.322,280,412.402,290C397.483,300,382.563,300,375.103,300L367.643,300" style="stroke-opacity: 0.7; stroke-linecap: round;"/><text x="82" y="150" transform="rotate(0,46,150)" text-anchor="middle" font-size="10.799999999999999" fill="#3e3f3f" style="font-family: sans-serif;"><tspan x="82" dy="0">Choice A</tspan></text><text x="127" y="150" dy=".05em" transform="rotate(0,127,150)" font-family="sans-serif" fill="#3e3f3f" style="text-anchor: middle; font-size: 18px;">5</text><text x="127" y="150" dy="14.4" transform="rotate(0,127,150)" font-family="sans-serif" fill="#3e3f3f" style="text-anchor: middle; font-size: 10.8px;">(63%)</text><text x="82" y="300" transform="rotate(0,46,300)" text-anchor="middle" font-size="10.799999999999999" fill="#3e3f3f" style="font-family: sans-serif;"><tspan x="82" dy="0">Choice B</tspan></text><text x="127" y="300" dy=".05em" transform="rotate(0,127,300)" font-family="sans-serif" fill="#3e3f3f" style="text-anchor: middle; font-size: 18px;">7</text><text x="127" y="300" dy="14.4" transform="rotate(0,127,300)" font-family="sans-serif" fill="#3e3f3f" style="text-anchor: middle; font-size: 10.8px;">(88%)</text><text x="82" y="450" transform="rotate(0,46,450)" text-anchor="middle" font-size="10.799999999999999" fill="#3e3f3f" style="font-family: sans-serif;"><tspan x="82" dy="0">Choice C</tspan></text><text x="127" y="450" dy=".05em" transform="rotate(0,127,450)" font-family="sans-serif" fill="#3e3f3f" style="text-anchor: middle; font-size: 18px;">4</text><text x="127" y="450" dy="14.4" transform="rotate(0,127,450)" font-family="sans-serif" fill="#3e3f3f" style="text-anchor: middle; font-size: 10.8px;">(50%)</text><text x="673" y="78" dy=".05em" transform="rotate(0,673,78)" font-family="sans-serif" fill="#3e3f3f" style="text-anchor: middle; font-size: 18px;">2</text><text x="673" y="78" dy="14.4" transform="rotate(0,673,78)" font-family="sans-serif" fill="#3e3f3f" style="text-anchor: middle; font-size: 10.8px;">(25%)</text><text x="673" y="138" dy=".05em" transform="rotate(0,673,138)" font-family="sans-serif" fill="#3e3f3f" style="text-anchor: middle; font-size: 18px;">2</text><text x="673" y="138" dy="14.4" transform="rotate(0,673,138)" font-family="sans-serif" fill="#3e3f3f" style="text-anchor: middle; font-size: 10.8px;">(25%)</text><text x="695.5" y="198" dy=".05em" transform="rotate(0,695.5,198)" font-family="sans-serif" fill="#3e3f3f" style="text-anchor: middle; font-size: 18px;">1</text><text x="695.5" y="198" dy="14.4" transform="rotate(0,695.5,198)" font-family="sans-serif" fill="#3e3f3f" style="text-anchor: middle; font-size: 10.8px;">(13%)</text><text x="695.5" y="258" dy=".05em" transform="rotate(0,695.5,258)" font-family="sans-serif" fill="#3e3f3f" style="text-anchor: middle; font-size: 18px;">1</text><text x="695.5" y="258" dy="14.4" transform="rotate(0,695.5,258)" font-family="sans-serif" fill="#3e3f3f" style="text-anchor: middle; font-size: 10.8px;">(13%)</text><text x="673" y="318" dy=".05em" transform="rotate(0,673,318)" font-family="sans-serif" fill="#3e3f3f" style="text-anchor: middle; font-size: 18px;">2</text><text x="673" y="318" dy="14.4" transform="rotate(0,673,318)" font-family="sans-serif" fill="#3e3f3f" style="text-anchor: middle; font-size: 10.8px;">(25%)</text></g></svg>